<?xml version="1.0" encoding="UTF-8" standalone="no"?>
<!-- Created with Inkscape (http://www.inkscape.org/) -->

<svg
   width="210.77332mm"
   height="206.59822mm"
   viewBox="0 0 210.77332 206.59822"
   version="1.1"
   id="svg5"
   xmlns="http://www.w3.org/2000/svg"
   xmlns:svg="http://www.w3.org/2000/svg">
  <defs
     id="defs2" />
  <g
     id="layer1"
     transform="translate(29.891599,-63.858586)">
    <path
       d="m 66.004617,162.63162 49.943943,101.2723 2.15654,-10.14047 m -1.9e-4,8e-5 -2.53696,-1.48908 m -0.39893,0.0742 2.33703,1.52966 m -0.60605,-0.0664 -1.67399,-1.27323 m 0.89691,-0.58902 2.54894,1.52686 m 0.51311,-0.45209 -3.23641,10.87948 58.65394,-65.49623 -0.99364,-5.47989 m -0.22072,0.033 -1.36093,-0.60028 m -0.33346,-0.37931 2.33392,0.77264 m 0.37523,-0.31713 0.1996,5.97098 5.53627,-6.18212 -5.28425,-0.49816 m 0.11541,-0.29128 -2.8466,-0.51085 m 0.0638,-0.20783 2.95312,0.0734 m 0.0857,-0.71059 -2.95212,0.1841 m 0.0292,-0.48832 2.9197,-0.44487 m -0.16663,-1.13292 -2.82099,0.82169 m -0.11612,-0.49323 2.72264,-1.04887 m -0.28758,-0.6596 -2.60382,1.24756 m -0.33578,-0.59521 2.58914,-1.22705 m -0.39937,-0.4684 -2.31963,1.53054 m -0.42687,-0.372 2.08774,-1.62092 m -0.6795,-0.1406 -1.44804,1.14451 m -1.45166,1.53233 0.16341,0.37211 m -1.73744,-1.80419 -0.48136,0.0663 -0.96462,-2.19197 m 0.4858,-0.069 -1.08664,0.15441 -25.57957,-58.07346 1.07037,-0.28589 25.59584,58.20494 m -0.82079,0.53329 0.7442,0.46556 m -1.0667,-0.97303 -1.11667,1.16552 0.76322,1.72918 m 0.25191,-0.26484 -46.57598,48.97194 -0.5456,1.71516 48.2097,-50.83654 -1.08812,0.14944 m -0.54671,0.5748 -0.90366,-1.45933 -20.54688,2.86453 m 0.0296,-0.0605 -17.50465,-7.38143 m -0.0809,0.0116 12.00414,5.06262 m 3.85504,0.79333 -14.70827,-6.18813 m -0.1325,0.0625 3.07176,-35.42883 m 0.44312,-0.37021 -3.10875,35.59899 m 0.11713,-0.0757 16.9163,7.10917 m -0.35693,0.23548 -2.24186,-0.94321 m 2.06666,1.07849 -17.01689,-7.16372 m -0.31888,0.11022 2.7694,-34.96896 m -0.75796,0.63325 -2.91806,34.49258 m -0.47059,0.0277 2.85721,-34.07623 m -0.54186,0.45272 -2.79326,33.62155 m -0.4789,-0.029 2.72741,-33.13741 m -0.54415,0.45463 -2.66004,32.62542 m -0.46913,-0.0851 2.59196,-32.09154 m -0.52522,0.43884 -2.52394,31.5417 m -0.4391,-0.13686 2.45673,-30.98183 m -0.48437,0.40468 -2.39086,30.41636 m -0.39364,-0.18291 2.32688,-29.8511 m -0.42612,0.35602 -2.26541,29.29193 m -0.62884,-0.46119 2.15173,-28.21037 m -0.57222,0.47808 -2.05348,27.21589 m -0.30356,-0.55158 1.97311,-26.34353 m -0.18241,0.1524 -1.91111,25.60553 m 0.009,-0.23863 -18.92419,-7.96668 m -0.47149,0.39393 19.44928,8.20254 m -0.007,-1.29913 -18.43532,-7.74497 m 0.81536,-0.68122 17.69571,7.41103 m 0.0404,-0.5412 -17.30078,-7.23353 m 0.66384,-0.55464 16.69846,6.96391 m 0.0504,-0.6759 -16.20377,-6.74344 m 0.45688,-0.38171 15.78912,6.55936 m 0.0645,-0.86482 -15.15444,-6.27874 m 0.40849,-0.34129 14.7836,6.11547 m 0.0566,-0.75909 -14.22495,-5.87044 m 0.48623,-0.40627 13.78341,5.67759 m 0.0431,-0.57716 -13.35757,-5.49219 m 0.59232,-0.49488 12.81957,5.25894 m 8.95836,-2.34532 2.01536,-22.79275 m 0.32853,-0.2745 -3.16264,35.58274 m -0.0531,0.064 17.26989,7.2327 m 0.65169,-0.30369 -17.62048,-7.36718 m 0.21079,-0.36692 17.95735,7.49791 m 0.82881,-0.32912 -18.50417,-7.71108 m 0.17918,-0.37502 18.91226,7.87063 m 1.09103,-0.36716 -19.70902,-8.18266 m 0.22857,-0.59639 20.46579,8.47935 m 0.99618,-0.27556 -21.26284,-8.79194 m 0.12525,-0.42113 21.86705,9.02897 m 0.91125,-0.21108 -22.64378,-9.3337 m 0.0997,-0.45453 23.36498,9.61664 m 0.57565,-0.10948 -23.88327,-9.82003 0.0953,-0.72096 23.95956,9.82889 -0.0886,0.67339 10.61791,-1.53839 m -0.58179,2.37987 -20.52497,2.87584 m 0.9172,-0.57648 -16.9885,-7.12967 m -0.13726,0.11888 3.13663,-35.68406 m 2.54117,-2.12312 -2.85134,31.17485 m -1.33525,-6.56804 -1.13945,12.88689 m 15.51929,9.4906 19.95067,-2.73973 m 0.13272,-0.41341 0.92752,1.06307 m -0.37775,0.39716 -0.78732,-0.60576 m -0.0768,0.46347 -19.2844,2.61543 m 0.35986,0.40905 0.43326,0.4177 0.50197,0.42079 17.52819,-2.32722 m 0.39836,-0.55835 -18.42852,2.46478 m -0.43326,-0.4177 18.87824,-2.54299 0.41584,0.18087 m -1.38766,1.45904 -16.40467,2.16178 -0.56652,-0.42021 m 0.56652,0.42021 0.62794,0.41643 0.68159,0.40743 0.73028,0.39534 12.70587,-1.63666 m -0.0734,0.0772 -12.09197,1.82573 -0.54051,-0.26625 m -0.73028,-0.39534 13.9814,-1.81459 m 0.55444,-0.58299 -15.21743,1.99015 m 2.18136,1.18181 11.40669,-1.45875 m -0.50938,0.53557 -10.09436,1.28164 6.31963,2.68729 m 15.5553,-5.38136 2.82686,0.64003 m 5.28879,0.30848 0.39142,-0.0482 m -0.11134,-0.26459 -37.70473,-86.8651 -76.429424,57.27115 -3.061279,-1.31826 m -0.0081,0.002 50.725093,102.56093 m 0.14129,0.30282 2.29364,0.0296 m 0.2222,0.4726 0.23667,0.61955 0.17605,0.60669 0.11454,0.5887 63.90862,-71.97347 m 0,0.51901 -63.85525,72.01905 m -0.01,0.53613 63.80782,-72.05454 m -0.5067,1.33824 -63.70627,72.09562 m 0.24797,-3.06874 63.96762,-71.91809 m -0.11203,-0.542 -64.03165,71.8534 m -0.23667,-0.61955 64.10021,-71.77992 m -5.8152,5.50643 -54.78907,53.67636 m -0.18761,0.34595 -2.9146,-1.26762 m 0.10999,-0.24739 3.1564,0.79595 m 0.13835,-0.39563 -3.12674,-0.93933 m 0.0556,-0.28662 3.26583,0.37909 m 0.0808,-0.89614 -3.29369,-0.38089 m -0.0214,-0.3011 3.27874,-0.22508 m -0.0621,-0.44786 -3.31783,0.0836 m -0.0784,-0.28284 3.18715,-0.66379 m -0.31306,-0.79311 -3.21249,0.6886 m -0.30028,-0.41941 3.10468,-0.9611 m -0.48567,-0.56724 -2.96529,1.20081 m -0.18664,-0.12467 2.60525,-1.49281 m -0.88824,-0.31448 -2.51113,1.59001 m 0.1683,-0.33742 1.73916,-1.24111 m -2.15884,2.87319 -0.31681,0.15473 m -0.0994,0.59605 0.53504,-0.17602 0.0807,0.58692 -0.65905,0.11623 m -0.004,0.49916 0.70496,-0.0204 -0.0418,-0.59515 m 0.0418,0.59515 0.004,0.59584 -0.0355,0.59256 -0.56975,-0.15102 m -0.0723,-0.52107 0.67762,0.0795 m -0.47355,1.02145 0.36436,0.15153 m 1.47473,0.80534 2.89502,1.23767 m -5.11537,10.85688 -0.26808,0.29784 -31.326691,-63.34656 -40.057041,-18.88797 -4.031694,-1.65979 -1.635125,-0.53223 -1.233593,-0.3426 -1.026319,-0.24564 -0.891275,-0.18261 -0.79465,-0.13767 -0.722471,-0.10533 -0.66302,-0.0767 -0.616426,-0.0552 m 2.001917,0.2372 0.492522,-0.35978 0.794517,0.13695 -0.492389,0.3605 m 0.492389,-0.3605 0.891143,0.18182 -0.492257,0.36129 m 0.492257,-0.36129 1.026134,0.24472 -0.492072,0.36221 m 0.492072,-0.36221 1.233329,0.34147 -0.491808,0.36334 m 0.491808,-0.36334 1.634675,0.53063 -0.491358,0.36494 m 0.491358,-0.36494 4.030292,1.65579 -0.489956,0.36894 m 0.489956,-0.36894 39.1655,18.43501 m 13.428001,-6.6919 9.329655,11.72969 -0.83873,1.11975 -7.981152,-11.79756 m 1.505294,3.10607 6.374788,8.82632 -1.01563,1.06167 -2.85385,-4.71845 m 1.22659,2.53092 1.50513,2.31543 -0.27231,0.22846 m 2.4288,-2.81275 0.65463,-1.16512 -11.05146,-12.71061 0.263948,-0.60852 0.165232,-0.62198 0.06617,-0.62884 -0.03612,-0.62952 -0.134382,-0.62476 -0.233018,-0.6137 -0.326628,-0.59685 -0.419974,-0.57454 -0.505936,-0.54734 -0.58711,-0.51462 -0.663655,-0.47641 -0.733769,-0.43569 -0.400552,-0.19669 m 1.134321,0.63238 9.257953,6.10944 -1.26082,-0.90508 -7.997133,-5.20436 m 0.663655,0.47641 8.746008,5.74178 1.12446,0.97861 -9.870468,-6.72039 m 0.58711,0.51462 10.394308,7.36822 -0.97573,-1.04458 -9.418578,-6.32364 m 0.505936,0.54734 10.823622,8.04741 -0.81769,-1.10072 -10.005932,-6.94669 m 0.419974,0.57454 10.502398,7.60542 0.651,1.14808 -11.153398,-8.7535 m 0.326628,0.59685 10.9049,8.2949 0.47477,1.18464 -11.37967,-9.47954 m 0.233018,0.6137 11.203962,9.00856 0.29308,1.21065 -11.497042,-10.21921 m 0.134382,0.62476 11.5035,10.96605 -0.10565,-1.22573 -11.39785,-9.74032 m 0.03612,0.62952 11.48035,10.48412 -0.0837,1.22833 -11.39664,-11.71245 m -0.06617,0.62884 11.45244,11.23161 -0.27456,1.21979 -11.17788,-12.4514 m -0.165232,0.62198 10.843522,13.17477 0.46646,-1.19838 -11.309982,-11.97639 m -0.263948,0.60852 10.39683,13.87573 m -18.45961,20.47054 0.785892,0.8337 0.73533,0.87694 0.67429,0.91234 0.609309,0.93731 0.535305,0.95385 0.458788,0.95946 0.374755,0.95623 0.289719,0.94279 0.201242,0.92022 0.110596,0.88934 0.02064,0.84807 -0.07255,0.79801 -0.161343,0.74316 -0.249317,0.67834 -0.334089,0.6083 -0.414391,0.53385 -0.49268,0.45154 -0.562954,0.36907 -0.630079,0.27961 -0.688075,0.1918 -0.741919,0.0988 -0.78568,0.009 -0.824283,-0.0838 -0.853096,-0.17238 -0.87458,-0.26006 -0.888947,-0.34573 -0.892598,-0.42661 -0.889344,-0.50356 -0.879211,-0.57666 -0.858678,-0.64307 -0.831401,-0.70371 -0.797401,-0.75758 -0.754274,-0.80568 -0.706834,-0.84514 -0.650214,-0.87791 -0.590365,-0.90167 -0.522419,-0.91827 -0.452279,-0.92543 -0.375073,-0.92493 -0.296678,-0.91551 -0.214603,-0.898 -0.129937,-0.87294 -0.04384,-0.83761 0.04263,-0.79571 0.12946,-0.74721 0.215556,-0.68927 0.299747,-0.62566 0.380735,-0.55695 0.461063,-0.47953 0.534511,-0.40089 0.605949,-0.31399 0.669184,-0.22746 0.72898,-0.13433 0.779225,-0.0433 0.824547,0.0526 0.860028,0.1451 0.887942,0.23778 0.908262,0.32935 0.917072,0.41564 0.918025,0.50173 0.911066,0.5807 0.892439,0.654 0.865744,0.72107 0.831109,0.78065 m 3.866329,5.6456 -0.159226,5.34829 m 0.0021,-0.0673 -1.262486,1.23323 -0.544909,0.24587 -0.594916,0.16841 -0.642223,0.0904 -0.680561,0.0106 -0.713952,-0.0684 -0.739854,-0.14658 -0.758481,-0.22283 -0.769938,-0.29726 1.306433,-1.25854 0.769012,0.29482 -1.305507,1.26098 m 0.758481,0.22283 1.304766,-1.2633 0.739272,0.14438 -1.304184,1.2655 m 0.713952,0.0684 1.303787,-1.26754 0.68035,-0.0124 -1.303576,1.26944 m 0.642223,-0.0904 1.303523,-1.27111 -0.64217,0.0921 m 0.64217,-0.0921 0.595074,-0.16989 0.504375,-0.22857 m -0.504375,0.22857 -1.303681,1.2726 m -0.613913,-0.99814 -0.713555,-0.0664 m -0.739272,-0.14439 -0.75774,-0.2205 m -0.769012,-0.29482 -0.773192,-0.36518 -1.307491,1.25597 0.77425,0.36775 m -0.77425,-0.36775 -0.772769,-0.43492 -0.761894,-0.4971 -0.745331,-0.55618 -0.721863,-0.60944 -0.691594,-0.65693 -0.654447,-0.69771 -0.612854,-0.73408 1.318339,-1.23807 -0.56134,-0.75758 -1.320218,1.23574 -0.511413,-0.78267 -0.452676,-0.79552 -0.390498,-0.80362 -0.315278,-0.77899 0.02148,-5.56686 1.340617,-1.22187 -0.03426,5.56088 -1.327838,1.22785 m 0.315278,0.77899 1.325986,-1.22955 0.388567,0.80172 -1.324055,1.23145 m 0.452676,0.79552 1.322123,-1.23351 -0.450744,-0.79346 m -0.388567,-0.80172 -0.313426,-0.77729 m 0.01506,0.0373 2.253959,-6.22191 m -0.644022,0.0344 -0.63254,0.11589 -0.580839,0.19616 -0.526865,0.2716 m -2.317433,0.24672 -0.904742,0.82031 m 0.387482,0.49459 -0.902785,0.82034 m 0.215556,-0.68927 0.903843,-0.82023 -0.216614,0.68916 -0.130598,0.74689 -0.901647,0.82066 m -0.04263,0.79571 0.90043,-0.82114 0.04252,0.83691 -0.899107,0.82185 m 0.129937,0.87294 0.897757,-0.82267 0.213149,0.89696 -0.896303,0.8237 m 0.296677,0.91551 0.894848,-0.82489 0.373565,0.92361 -0.893339,0.82621 m 0.452278,0.92544 0.891858,-0.82773 0.520912,0.91671 0.588883,0.89995 0.648758,0.87611 -0.887412,0.83281 m -0.650214,-0.87792 0.888868,-0.831 m 0.852778,-0.33308 0.563219,0.75991 m -0.767239,0.44928 0.705432,0.84326 0.752925,0.80375 0.796105,0.75557 0.830183,0.7017 0.857541,0.64103 0.878178,0.57463 0.888392,0.50154 0.891804,0.42463 -0.878231,0.8487 m 0.888947,0.34573 0.877517,-0.85058 0.874025,0.25824 -0.876962,0.8524 m 0.853096,0.17238 0.876512,-0.85413 0.823992,0.0822 -0.876221,0.85574 m 0.78568,-0.009 0.876062,-0.85722 0.741892,-0.10015 -0.876036,0.85855 m 0.688076,-0.1918 0.876168,-0.85971 -0.688208,0.19296 m 0.442119,0.38714 0.876405,-0.86069 m -2.060416,0.5737 -0.785521,0.0109 m -0.823992,-0.0822 -0.852646,-0.17066 M 84.439833,238.8041 83.5516,238.46025 m -0.891804,-0.42463 -0.879025,0.84672 m -0.889344,-0.50356 0.879977,-0.84471 m 0.134858,-1.01777 1.308683,-1.25344 0.771577,0.43238 m -0.771577,-0.43238 -0.760572,-0.49448 -1.310005,1.25082 m -0.745331,-0.55618 1.311487,-1.24817 0.743849,0.55353 m -0.743849,-0.55353 -0.720276,-0.60682 -1.313074,1.24555 m -0.471672,0.76314 -0.883365,0.83862 m 0.8314,0.70371 0.882148,-0.84063 m 0.857541,0.64103 -0.88101,0.84267 m -2.48748,-2.10436 0.884661,-0.83662 m 0.576183,-0.6645 1.314741,-1.24301 0.689927,0.6544 m -0.689927,-0.6544 -0.652674,-0.69519 -1.316514,1.2405 m -0.674661,0.55845 -0.88601,0.83468 m -1.947413,-2.62472 0.89035,-0.82928 m -0.520912,-0.9167 -0.450797,-0.92393 m -0.373565,-0.9236 -0.295222,-0.91432 m -0.213149,-0.89697 -0.128587,-0.87212 m -0.04252,-0.8369 0.04384,-0.79523 m 6.095444,-2.88333 0.745093,0.12613 m -2.607257,8.38766 0.509508,0.78044 m 0.56134,0.75759 0.611029,0.73165 m -13.26052,-3.63098 0.162931,13.62755 m -0.0021,0.16274 -4.678757,-2.51468 m 0.04548,2.25129 -0.772954,-38.25251 0.848731,1.23489 0.560758,0.93311 0.950013,1.58028 0.474186,0.91813 0.832059,1.61065 1.088549,2.5151 0.301625,0.86717 m 0.145812,0.41968 0.362055,30.85658 m 1.507252,1.83674 41.642366,22.56915 m 0.20717,0.12088 0.62442,0.31261 0.62262,0.25998 0.61582,0.2055 0.60272,0.14745 m 5.23599,-32.91702 0.89027,-0.93525 m -1.99313,0.54054 -31.7129,-65.43724 m 0.353404,-2.9718 54.416246,-43.49467 m 0.71482,-0.12517 0.52636,1.19607 m 2.96138,8.22548 -54.797985,45.7833 m -15.737364,-23.06112 -4.641585,3.478 -2.734416,2.04893 -94.760228,-40.80378 m -0.0077,0.001 14.935305,77.66445 m 3.724857,-3.5497 -0.250507,-1.82682 m -1.251188,-1.78289 -0.177668,-0.64074 -0.151924,-0.76531 -12.576333,-67.26781 -4.252542,-1.83118 m 0.291677,1.51672 -0.322448,1.1367 -0.485907,2.32992 -0.308293,2.31087 2.434828,1.07718 m 0.491358,2.5551 -3.055408,-1.36268 0.129222,-2.2696 m -0.129222,2.2696 0.05122,2.20281 3.465195,1.5571 m 0.425556,2.21287 -3.661728,-1.65676 -0.229023,-2.11321 m 0.229023,2.11321 0.402908,2.00189 3.644238,1.65907 m 0.34126,1.77458 -3.414713,-1.56305 -0.570785,-1.8706 m 0.570785,1.8706 0.731679,1.72064 2.976563,1.36885 m 0.243311,1.26523 -2.338018,-1.07934 -0.881856,-1.55474 m 0.881856,1.55474 1.022827,1.37626 1.150699,1.1847 0.528373,0.4105 m -0.172641,-0.89771 -1.506431,-0.69749 m 14.931336,1.17769 2.0398584,-1.22584 m -0.174281,-0.39683 -1.7083614,1.02492 m -0.153988,1.66807 2.035916,-1.2278 m 0.2820459,1.19163 -2.0317089,1.23076 m 0.336709,0.81695 2.0289305,-1.23319 m 0.4358217,0.79277 -2.026285,1.23587 m 0.523531,0.74668 2.0239037,-1.2387 m 0.8993452,0.96051 -2.0209668,1.24302 m 0.6466152,0.50554 2.0195645,-1.24577 m 0.9752013,0.49953 -2.0183475,1.2495 m 0.6193367,0.1465 1.7902502,-1.11019 m -0.2619905,0.49895 -0.9626335,0.59761 m 24.1431253,-22.56403 53.462076,22.05222 -9.364051,6.87211 -89.849803,-38.36387 9.624668,-5.13557 L 30.291479,89.448425 55.73913,75.869929 m 0.03789,0.03159 0.675534,0.56343 -0.05223,-2.259409 -0.737949,-0.609653 -0.582401,-0.635264 -0.425291,-0.653839 0.09342,3.672417 m -0.240903,0.128296 -0.115147,-4.466907 -0.0994,-0.671433 0.121497,4.693867 m 0.735595,0.102235 -0.06977,-2.804636 M 54.654684,72.306784 54.392058,71.64059 m -0.0994,-0.671433 0.06138,-0.67064 0.223414,-0.663389 0.379915,-0.649526 0.530887,-0.629841 0.677227,-0.604811 0.815023,-0.57404 0.945382,-0.537898 1.064789,-0.497707 1.175438,-0.452861 1.273916,-0.404548 1.36054,-0.352742 1.433748,-0.297974 1.494526,-0.240639 1.543579,-0.181583 m 3.17209,-0.180393 1.603242,0.0024 1.593559,0.06459 1.571678,0.126206 1.536303,0.186584 1.48635,0.245507 1.423061,0.302339 1.346174,0.357135 29.798301,8.757311 2.89144,19.64944 m -8.67658,-6.630008 0.10324,-2.33008 -5.913121,3.691678 -0.08527,2.350903 1.805251,-1.13755 38.73432,12.30328 m 0.41989,0.18965 -6.53968,4.80854 m 0.40323,0.17071 -10.81554,-2.58217 14.12695,4.5847 m 0.005,0.004 5.18842,-3.88657 m -0.26024,-0.72909 -5.55488,4.14642 m -0.47953,-0.32615 5.79062,-4.31131 m -0.28533,-0.45323 -5.99844,4.45471 m -0.88578,-0.49839 6.29309,-4.65323 m -0.50644,-0.42736 -6.44982,4.75451 m 0.66317,0.32608 -11.64706,-2.98532 -1.42526,1.00922 L 83.099558,92.855517 21.189072,130.65437 m -2.196941,-0.9062 63.529603,-38.486503 40.607296,13.295553 m -1.13903,1.11657 9.02541,2.97135 -58.720853,43.14764 m 0.20447,0.16311 -9.303938,6.8434 m 0.471064,0.34697 9.19358,-6.77706 m 0.439658,0.84103 -8.923258,6.60252 m 0.101812,0.11258 -0.710721,-0.30409 m 0.520274,0.69625 0.322315,-0.23881 m 0.438891,0.57356 8.516382,-6.32804 m 0.04905,0.59048 -8.286644,6.16971 m 0.278289,0.50318 8.005101,-5.97336 m -0.07908,0.86542 -7.645347,5.71961 m -2.152938,-7.263 -0.01307,-0.88982 m -0.222276,-0.39246 0.398648,-3.53139 m -0.431033,-0.0994 -0.528505,3.48141 m -0.140812,0.22855 0.02228,1.38446 m -0.525912,0.0547 -0.02561,-1.51492 m -0.24466,-0.25625 0.07197,-3.53095 m 0.467228,0.0261 0.07779,3.55703 m -0.930566,-0.053 -0.552423,-3.50748 m -0.916014,0.1229 0.847963,3.43395 m 0.08768,0.23537 0.02786,1.49844 m -0.523372,-0.0425 -0.02627,-1.35445 m -0.160682,-0.22148 -1.114054,-3.33172 m -0.398039,0.14219 0.965755,3.36722 m -0.247861,0.10927 -1.434809,-3.13126 m -0.820897,0.64222 1.638671,2.8906 m -0.284851,0.31509 -1.700477,-2.7174 m -0.169095,0.51543 1.391417,2.08233 m -0.541522,-0.34893 -0.835607,-1.21113 m 2.636308,1.37419 0.01431,0.67953 m 0.513318,0.11327 -0.04691,-1.06307 m 1.661451,-0.35121 0.0276,1.55321 m 2.486102,-0.41169 -0.0053,-0.38251 m 0.345043,-0.13441 1.096037,-3.32735 m 0.469503,0.44493 -1.287807,3.14883 m 0.414523,-0.22027 1.177025,-2.43826 m 0.123243,0.51575 -0.897652,1.6424 m -1.45788,-0.0464 0.839285,-3.43185 m 0.04207,-1.79023 40.517309,-28.98492 -0.50337,-1.15681 -0.41029,-1.17795 -42.54314,30.1072 m -1.399461,-0.57726 43.630451,-30.71863 -0.2099,-1.18938 -44.755824,31.35722 m -1.257855,-0.51882 45.906789,-32.01601 0.10689,1.17761 m -0.10689,-1.17761 -0.003,-1.15313 m -1.1e-4,-6e-5 -47.070477,32.68798 m -2.461339,-3.57725 -0.611902,0.35224 -0.629523,0.22543 -0.59854,0.21523 -0.615262,0.0795 m 0.03945,-0.21347 -1.18401,0.15142 -0.731441,-0.0946 m 0.198914,0.0861 -0.550413,-0.23831 m -0.352425,-0.15298 37.551754,-25.36965 0.906436,0.7969 -35.635377,24.19879 m -0.158141,0.0565 -0.628015,0.22333 0.582718,0.34253 1.228831,-0.44074 -0.581528,-0.34015 -0.602006,0.21503 m 0.602006,-0.21503 0.633624,-0.36335 -0.0521,0.7035 1.244097,-0.7148 -0.580575,-0.33901 -0.611426,0.35031 m 0.611426,-0.35031 42.833128,-29.11332 0.548428,0.28932 -42.800981,29.16301 m -0.05715,0.49657 0.63164,-0.36396 42.781375,-29.20079 0.497735,-0.3986 0.510936,-0.40888 0.486119,-0.50562 0.502391,-0.52343 0.460373,-0.59658 0.48504,-0.62815 0.42219,-0.66733 0.45871,-0.7252 0.37296,-0.71479 0.42394,-0.81196 0.31419,-0.73636 -0.86897,0.64707 0.13084,0.90125 m -0.13084,-0.90125 0.3806,-0.8921 m 0.49858,0.22106 1.54094,-1.03852 4.73665,1.58761 0.72885,-0.50027 -4.73102,-1.58121 0.73356,-0.49437 22.08326,7.35997 m -0.71128,0.52265 -4.28247,-1.43131 -0.71567,0.51702 4.28694,1.43687 m 2.41287,-1.77294 -7.12994,-2.36652 0.14695,-2.1056 m -0.14552,2.08507 -0.30806,0.22003 -38.469194,-12.785197 0.03233,-2.338176 m -0.57785,-1.59385 -10.711842,6.489277 -52.817762,31.997226 m -0.443045,-0.18275 55.355249,-33.481854 9.225677,-5.580195 -0.608277,0.758296 m 0.608277,-0.758296 8.199225,2.67425 41.755752,13.619029 m -1.86479,0.40973 -0.0337,0.405 m 0.29646,-2.99762 0.0268,-0.47395 m -0.0196,-0.18521 0.90344,-2.91539 m 1.05132,0.30401 -1.00099,2.86393 m -0.39566,0.0666 -0.0272,0.3234 m 0.81656,-0.2069 1.20015,-2.77548 m 0.47691,0.31438 -1.48807,2.53034 m 0.90281,-0.27331 1.05101,-1.7313 m 0.12631,0.55155 -0.63778,0.89574 m -3.50282,-0.008 0.26409,-3.01406 m -0.79423,-0.0194 -0.25723,3.03236 m -0.14234,0.19423 -0.0332,0.40915 m -0.0785,-0.57975 -0.25787,-3.00406 m -0.71752,0.12095 0.49676,2.96465 m -0.42553,0.1251 -0.7102,-2.90367 m -0.53602,0.24349 0.83759,2.66235 m -0.63457,-0.29779 -0.77026,-1.91098 m -0.19804,0.34457 0.52832,1.26843 m 3.41109,0.53798 -0.0437,0.53012 m -8.63161,5.88452 -0.34197,4.83817 m -8.54845,6.28134 -0.33237,-0.24596 -0.71144,0.52184 -0.54875,-0.47773 -0.51657,-0.52247 0.71308,-0.51972 0.51575,0.52141 -0.71226,0.52078 m 0.54875,0.47773 0.33282,0.24654 m 0.37862,-0.76838 -0.54793,-0.47667 m -0.51575,-0.52141 -0.47948,-0.56248 -0.71392,0.51863 0.48032,0.56357 m -0.48032,-0.56357 -0.43786,-0.59899 0.71479,-0.51755 -0.39158,-0.62783 -0.71564,0.51647 -0.34298,-0.65291 -0.29046,-0.67252 -0.23622,-0.68352 -0.17778,-0.68858 -0.1184,-0.68887 -0.0583,-0.6808 0.72035,-0.51059 0.0576,0.67995 -0.71964,0.51144 m 0.1184,0.68887 0.71893,-0.51239 -0.11769,-0.68792 m 0.11769,0.68792 0.17698,0.68762 -0.71813,0.51335 m 0.23622,0.68352 0.71731,-0.51435 -0.2354,-0.68252 m 0.2354,0.68252 0.28964,0.67146 -0.71649,0.51541 m 0.34298,0.65291 0.39243,0.62891 m 0.71479,-0.51755 0.43699,0.59791 m -0.82857,-1.22574 -0.34213,-0.65185 m -1.61168,-3.21667 0.44309,-8.61121 m 0.72885,-0.50027 -0.45125,8.60126 m -5.06145,2.06499 0.31216,1.18869 m 0.41029,1.17795 -41.502597,29.52769 m 3.004262,1.2392 39.595455,-28.48396 0.6772,1.08318 0.7548,1.0318 -37.975275,27.62797 m 1.513761,0.62439 37.288184,-27.28044 0.7009,0.70998 m -0.7009,-0.70998 -0.82667,-0.97192 m -0.7548,-1.0318 -38.746221,28.03041 m -16.625117,-7.22723 -0.589227,-0.0763 m -1.938999,-0.8431 -0.226616,0.15272 m -0.603753,-0.44643 38.040863,-25.56447 0.857356,0.87313 m -0.857356,-0.87313 -0.800682,-0.94347 -0.73541,-1.0033 -0.664448,-1.05479 -0.587798,-1.09807 -41.499866,27.28457 m -1.506802,-0.62153 42.502319,-27.79245 0.504349,1.12941 m -0.504349,-1.12941 -0.418041,-1.15136 -43.561897,28.33431 m -1.434756,-0.59182 44.669919,-28.90565 0.326734,1.16316 m -0.326734,-1.16316 -0.231273,-1.16512 -45.817628,29.50197 m -1.309476,-0.54012 46.992378,-30.11667 0.134726,1.15482 m -0.134726,-1.15482 -0.03688,-1.1321 m -8e-5,-3e-5 0.09819,-8.085057 L 24.87739,132.1757 m -1.094661,-0.45152 59.284602,-36.530487 m 0.290804,0.807323 -0.753824,0.466302 4.461536,1.491192 -0.749776,0.471646 -4.466405,-1.497013 m 1.498283,-0.217276 0.01019,-0.714851 21.443201,7.146634 -0.73461,0.493 -4.662512,-1.55834 -0.738796,0.48699 -0.288951,7.97782 m -0.01482,0.0154 0.03829,0.81709 -1.009147,0.80687 -0.0331,-0.70019 -0.515329,0.41087 m 0.515329,-0.41087 0.494506,-0.39455 0.54774,0.28787 0.988722,-1.02711 0.05181,0.61571 m -0.05181,-0.61571 -0.547185,-0.28763 -0.479822,0.49765 -0.509455,0.52922 m 0.989277,-1.02687 0.494004,-0.63836 0.05318,0.92599 0.945429,-1.22397 0.0691,0.71967 m -0.0691,-0.71967 0.88069,-1.39107 -0.54689,-0.28522 -0.4109,0.64855 0.0771,1.02774 -0.546914,-0.28609 -0.451696,0.58407 m 0.451696,-0.58407 0.469814,-0.74165 m 0.4109,-0.64855 0.43635,-0.83505 0.11054,1.12027 0.0957,0.81526 m -0.0957,-0.81526 0.79651,-1.52598 -0.54708,-0.28364 -0.35997,0.68935 m 2.22697,-2.48402 -4.665788,-1.56384 m 5.765978,1.93259 -0.36692,8.23341 m 1.54554,7.04363 0.59375,1.12612 m -13.464512,-6.21908 -0.560228,-0.2272 -0.730144,0.49517 -0.582534,-0.30099 -0.569833,-0.35785 -0.550016,-0.41106 -0.526309,-0.46169 -0.497654,-0.5061 0.733583,-0.49046 0.496914,0.50509 -0.732843,0.49147 m 0.526309,0.46169 0.732103,-0.49246 -0.525569,-0.4607 m 0.525569,0.4607 0.549327,0.4101 -0.731414,0.49342 m 0.569833,0.35785 0.730753,-0.49429 0.581925,0.30011 m -0.581925,-0.30011 -0.569172,-0.35698 m 0.420953,1.15226 0.560731,0.22797 m -2.553494,-2.75612 -0.464264,-0.54588 -0.734404,0.48945 0.465085,0.54689 m -0.465085,-0.54689 -0.426482,-0.5823 -0.385022,-0.61227 -0.339566,-0.63648 -0.291147,-0.65643 -0.240824,-0.66797 -0.186452,-0.67368 -0.131075,-0.67469 -0.07469,-0.66757 0.740754,-0.48178 0.07398,0.66675 -0.74004,0.4826 m 0.131075,0.67469 0.739272,-0.48347 -0.130307,-0.67382 m 0.130307,0.67382 0.185658,0.67275 -0.738478,0.4844 m 0.240824,0.66797 0.737684,-0.48538 -0.24003,-0.66699 m 0.24003,0.66699 0.290328,0.65543 -0.736865,0.48638 m 0.339566,0.63648 0.736045,-0.48739 -0.338746,-0.63547 m 0.338746,0.63547 0.384175,0.61124 -0.735198,0.48842 m 0.735198,-0.48842 0.425688,0.58127 m -3.600635,3.19045 -38.918565,26.01304 M 44.95541,140.45758 84.655818,114.06709 M 83.99137,113.0123 43.428605,139.82779 m -9.858269,-4.06633 48.181045,-30.74323 m 4.408117,1.86799 0.156475,-8.456034 m 0.749776,-0.471646 -0.165153,8.44629 m 3.244321,-16.297986 0.04482,-1.894179 m 0.142214,-0.219101 -29.549219,-9.45089 -1.271641,-0.451168 -1.153504,-0.500009 -0.04654,-2.266765 -1.026028,-0.540649 -0.88601,-0.578406 m 0.88601,0.578406 0.04958,2.263219 -0.883364,-0.582216 m 0.883364,0.582216 1.022985,0.544195 m 1.153504,0.500009 -0.04302,-2.270045 -1.157023,-0.496729 m 1.157023,0.496729 1.275556,0.44823 38.463217,12.184195 m -0.08527,2.350902 -6.280071,-2.008584 m -0.287469,-0.09139 -0.03019,1.119161 M 91.927169,90.037996 91.65232,88.41819 m -0.704639,-0.227727 -0.04863,1.967574 m -1.347153,-0.181954 0.03776,-1.654386 m -0.498078,0.181821 -0.02818,1.273334 m 8.137948,-7.466806 13.600512,-8.23722 m -5.6819,10.689352 -7.918612,-2.452132 m 8.697992,21.203604 -0.0339,0.72818 M 73.242797,92.218057 72.991919,92.747382 m -0.517552,0.369173 0.634974,-1.341622 m -0.584174,-0.51943 -0.953135,2.177467 m -0.622882,0.110252 1.067144,-2.536878 m -0.787426,-0.241326 -1.200759,2.837841 m -0.54692,-0.01892 1.354111,-2.899992 m -0.565917,-0.07276 -1.228725,2.932615 m -0.543057,-0.08811 1.336092,-2.875518 m -0.89736,0.01669 -1.125406,2.682134 M 67.287238,93.07429 68.30128,90.673884 m -0.682017,0.157719 -0.879475,1.91217 m -0.455771,-0.720699 0.296492,-0.647171 m -5.797785,-12.83327 -0.03911,-2.272983 m -5.382551,-0.59301 -83.293798,44.36943 m 0.72771,-0.41685 0.878523,-1.99474 1.12768,-2.14577 1.261269,-2.0379 1.380755,-1.90961 1.484153,-1.76048 1.571943,-1.59375 5.995167,2.42118 1.640734,-1.42782 1.690476,-1.23119 1.721088,-1.02026 1.7348993,-0.80261 1.72974,-0.57743 1.7064037,-0.35118 1.6666633,-0.1215 1.54384376,0.10105 m 0.02301874,-0.0123 -5.9011872,-2.28852 1.550961,0.33507 4.64163828,1.79821 m -1.85827458,0.0664 -5.9554532,-2.31412 1.6211285,0.1144 m -1.6211285,-0.1144 -1.6769821,0.11067 5.965772,2.32495 m -1.7064037,0.35118 -5.9746623,-2.33744 1.715294,-0.33869 m -1.715294,0.33869 -1.737148,0.56338 5.9820703,2.35149 m -1.7348993,0.80261 -5.987865,-2.36707 1.740694,-0.78703 m -1.740694,0.78703 -1.725242,1.00338 5.992019,2.38395 m -1.690476,1.23119 -5.994453,-2.40208 1.69291,-1.21306 m -1.69291,1.21306 -1.641448,1.40872 m -1.571943,1.59375 5.994188,2.4411 1.572922,-1.61367 m -1.572922,1.61367 -1.425786,1.70786 m -0.104114,0.0555 -5.948441,-2.44393 m -1.380755,1.90961 4.685136,1.94262 m -0.07035,1.25275 1.124902,3.03181 m 0.27686,-0.0524 -0.585179,-3.1522 m 0.420556,-0.0588 0.72726,3.14545 m 0.0019,0.006 0.123216,0.93044 m 0.549937,-0.0913 -0.112104,-0.85172 m 0.272177,0.008 -0.297683,-3.20329 m -0.418068,-0.001 0.164121,3.19013 m 0.818489,0.0487 0.09059,0.69247 m 0.162428,-0.65839 -0.01061,-3.21024 m 0.741151,0.13906 -0.263684,3.1899 m -1.06e-4,0.007 0.04172,0.32144 m 0.166026,-0.25101 0.702574,-3.05512 m 0.532104,0.27654 -0.648547,2.69698 m 0.833702,-0.58759 0.502735,-1.20877 m -4.513236,1.68452 0.123217,0.92461 m -0.825262,0.0205 -0.101045,-0.75153 m -0.0016,-0.006 -0.985493,-3.05999 m -0.717153,0.27398 1.45579,2.87332 m -0.637011,0.32449 0.03659,0.26924 m -0.214762,-0.15177 -1.745377,-2.61546 m 0.4894,-0.371 1.43121,2.86332 m -1.08069,0.003 -1.299369,-1.88867 m -0.09541,0.61714 0.803063,0.99591 m -0.685747,-3.11163 -3.229583,-1.35178 m -1.127681,2.14577 1.598401,0.67545 m 0.861616,5.60983 12.410413,66.66888 0.151262,0.76496 0.177086,0.64043 m 2.9566391,5.74894 -0.590259,0.41823 m 1.4455246,1.94048 1.9063229,1.01716 m 4.0133322,4.12113 18.4896942,9.9196 m 0.459211,-0.35941 -18.48456143,-9.90074 M -10.758578,203.8758 23.042713,222.19529 M 24.28263,221.91062 22.944182,206.0085 21.70961,191.34069 m 0.0013,0.0164 1.51294,-2.74802 m 0.07009,-0.0915 0.377825,-0.49297 0.725779,-0.66677 0.46437,-0.42686 0.818144,-0.52276 2.908142,37.73588 2.904463,1.5698 -2.927482,-40.51816 0.97917,-0.24381 1.069155,-0.10957 0.819229,-0.0837 1.121913,0.0286 m 0.123851,0.003 1.924685,29.35814 0.08813,0.86434 0.169307,1.63161 m 0,0 0.337052,3.24803 0.219658,2.08176 0.12782,1.21132 -0.455904,-0.4263 -0.874739,-0.81819 -1.115986,-1.15991 -0.809572,-0.84124 -1.323869,-1.52797 m -0.09858,-1.36457 2.047743,-4.13562 -1.926087,-1.63938 -0.47117,0.93755 m 0.47117,-0.93755 -0.580417,-0.57436 m -2.997941,-0.98155 -1.060397,2.29772 -0.529299,-0.85844 -0.782716,-1.45098 -0.458074,-0.84896 -1.066561,-2.30302 -0.567796,-1.47105 1.361387,-2.77882 -0.29726,-0.61293 -0.53885,-1.45606 -0.866166,1.73453 m -0.08602,-1.02195 0.721598,-1.33472 0.230584,0.62214 m -0.230584,-0.62214 -0.537237,-2.09089 -0.20701,-1.46029 -0.334274,0.64553 m -0.05998,-0.71263 0.30599,-0.55697 -0.035,-1.4418 -0.378698,0.71906 m -0.0495,-0.58814 0.413041,-0.74724 0.200105,-2.01123 0.313928,-1.36289 -1.103022,2.03088 m -0.02868,-0.34078 1.26627,-2.27272 -0.134567,0.58262 m -0.188198,-0.68895 -0.781421,1.47198 m 0.655691,0.57986 -0.73406,1.32175 m 0.85979,-3.37359 0.611134,-0.79785 m 2.291212,-2.04873 1.590146,20.59041 0.11057,1.25997 -1.465766,2.8366 m 0.529299,0.85844 0.874501,1.41801 0.592455,0.85132 -0.153352,-1.71265 -0.439103,0.86133 m 0.439103,-0.86133 -0.253207,-2.8544 -0.12393,-1.39732 m -0.11057,-1.25997 -0.541946,-0.74353 -1.595966,3.38912 m -0.458074,-0.84896 1.632215,-3.11867 0.421825,0.57851 m -0.421825,-0.57851 -1.208061,-1.99909 -1.490715,2.81474 m -0.738056,-2.55704 1.234387,-2.30576 m 0.29726,0.61293 0.697124,1.43513 m 5.092012,2.63797 4.04278,0.6808 m 3.400981,0.57275 3.699616,0.62299 m -0.176821,-3.28859 -0.965703,-0.61076 0.360574,-0.84649 0.545333,0.3451 m -0.664078,-0.42021 -1.997948,-1.47823 -0.405421,0.81878 2.002922,1.48077 m -2.002922,-1.48077 -0.723953,-0.62378 m 1.129374,-0.195 -1.203246,-1.0378 m -3.557799,-2.38681 -0.651695,-0.76805 0.390102,-0.84527 m -0.08636,-0.10194 -1.278811,-1.79327 -0.397563,0.84429 1.257221,1.76011 m -1.358953,-1.90251 -1.161706,-1.96869 -0.881671,-1.86732 0.412274,-0.84151 0.896302,1.90275 -0.426905,0.80608 m 0.426905,-0.80608 1.158002,1.96617 m 1.816153,-0.76935 -0.606399,-9.34355 m 3.112347,0.45114 2.663058,44.44474 -2.965609,-1.60285 -2.203397,-33.94948 m -4.353957,-2.40919 -0.377111,-1.05564 m 0.80735,0.25202 -0.688234,-1.93207 -0.210106,0.42074 m 0.169043,-0.53578 -0.295117,-1.20899 m 7.45408,-2.4235 0.585126,0.14206 1.062514,0.25794 1.18618,0.40341 1.131517,0.38486 0.821108,0.35587 2.371248,45.32987 3.028077,1.6366 -2.140505,-45.39808 0.685694,0.35973 2.397231,1.47571 1.078044,0.76327 0.813859,0.57632 1.755484,44.70376 3.092688,1.67153 -1.48082,-43.65506 1.678993,1.52223 0.888021,0.9039 1.255077,1.27767 0.810895,0.92641 0.480351,0.54872 1.056058,41.01021 3.158331,1.70701 m -3.329807,-3.6744 -4.581472,-2.46454 m -0.09702,-2.86002 1.765273,0.22289 1.124241,0.0177 0.826903,0.0132 0.849154,-0.0924 0.120914,4.66339 m -0.120914,-4.66339 -0.294429,-1.27373 -0.324696,-1.50733 -0.348245,-1.6165 -1.832928,4.45918 m 1.951144,0.0308 0.554725,-1.36617 m -0.672941,-3.12383 -0.697442,-3.43255 -0.465375,-2.40813 -0.249185,-1.28947 -2.380615,5.63454 m 3.095175,-1.93694 -2.922878,7.01686 m -3.136371,-0.1066 0.05509,1.39811 m 0.0016,0.056 -4.529799,-2.43398 m 0.02492,0.52866 4.504557,2.42364 m -0.306943,-2.05264 -1.163002,-0.37205 -2.208425,-0.90184 -0.889502,-0.43981 m 0.889502,0.43981 2.494836,-5.72865 -0.683075,-4.4922 -0.103452,-0.7012 -1.244547,-29.73684 m -7.524353,-3.97901 1.701562,31.64572 m 0.01373,0.11319 0.197326,1.58946 m 0,0 0.408675,3.29203 0.259319,2.04123 0.362029,2.84985 0.12827,0.98621 0.04061,0.77526 m 0.01508,0.50175 -4.442301,-2.38966 m 0.575151,-1.47651 1.161018,0.87024 1.045475,0.69326 1.151149,0.76338 m -2.196624,-1.45664 1.900819,-4.15837 m 3.429609,-1.3539 0.906727,-2.01634 -1.015577,-0.29226 m 3.230298,1.43915 -2.857897,6.45895 m 3.540972,-1.96675 0.68535,4.36438 0.357188,2.1976 m -1.328949,0.0685 0.971761,-2.26611 m 3.227097,-7.52546 0.631772,-1.47325 0.72136,-0.0159 m 0.99441,-0.0212 0.211878,1.14631 m -0.211878,-1.14631 -0.713767,-23.94511 m 7.561157,9.66653 0.230108,13.04819 -1.11723,0.33004 -0.376899,0.11158 m 1.6256,0.0913 -1.54678,3.80947 m 2.063697,-1.87616 -0.291201,-1.08911 m 0,0 -0.225716,-0.8442 m 1.05251,1.60258 0.751814,-0.55235 0.357611,-0.26268 m -1.109425,0.81503 -2.517216,6.26895 m 0.07308,3.61622 3.576978,-8.99578 m 0.01844,1.34123 -3.180845,8.59208 0.604917,-0.25863 0.859631,-0.55245 1.758313,-4.72353 m 0.0049,0.36052 -0.224049,-16.30373 m -2.32378,-0.87199 -1.523682,0.17593 m 0.189971,-0.82037 1.319635,-0.15335 m 0.588222,-1.79647 0.239845,14.4521 0.535593,-0.33073 m 1.1752,3.97068 -2.599846,6.59339 m 0.859631,-0.55245 0.526968,-0.33896 0.7552,-0.70017 0.447146,-0.41484 1.003776,-1.32924 m -0.529537,-0.7112 -0.921385,2.45528 m -0.7552,0.70017 1.411288,-3.60357 m -2.689937,-15.73067 -1.527625,-0.25726 m -5.714523,-0.96231 -2.453799,-0.4132 m -0.01794,-0.52835 0.674476,0.13925 1.780222,0.23104 m -0.02643,-0.88654 -1.384539,-0.17905 -0.369252,0.83455 m 0.369252,-0.83455 -1.074816,-0.22153 m -4.692703,0.64667 -3.173757,-0.53446 m -0.08281,-1.75641 1.457166,0.6523 0.384916,-0.82841 L 45.0819,206.143 m 2.022475,0.8944 1.199356,0.43688 m 0.04117,0.9838 -1.581071,-0.57608 m -4.984379,10.28306 -3.196722,6.87998 m 0.04606,0.76878 0.694822,0.52085 m -3.606509,-0.48564 -4.384993,-2.3568 m -2.903378,-1.2324 -4.312047,-2.31958 m 4.275746,1.81652 -0.576104,-7.47328 m 6.87496,0.72932 -2.402364,4.92707 m 0.809572,0.84124 1.762099,-4.1367 m 3.196484,-0.37227 1.394619,0.74411 -1.19806,2.53669 m 1.19806,-2.53669 0.707813,0.31665 m -4.961864,2.55953 -0.983165,2.04859 m 0.874739,0.8182 0.328084,-0.78502 m 0.12782,1.21131 0.16248,2.50135 M 18.871454,214.2738 16.84808,192.3418 m 5.854329,5.17779 -0.409495,0.75089 m 5.526113,-19.67724 -0.02246,-0.30903 m 7.579916,-73.81341 -0.02135,-0.3943 m 0.08969,-0.19183 -0.616321,-2.97209 m -0.707681,0.18616 0.852673,2.91148 m -0.415766,0.16356 -1.061958,-2.83154 m -0.519536,0.29265 0.997611,2.59157 m -0.477784,-0.16764 -1.057646,-1.91799 m -0.176106,0.36351 0.741971,1.30982 m 2.691156,0.0242 -0.105542,-3.04651 m 0.788379,-0.0519 -0.16264,3.03953 m -0.115067,0.0104 0.36666,0.13427 m -0.226034,0.01 0.02953,0.55787 m 0.686329,-0.0462 -0.02649,-0.5102 m 0.07205,-0.1547 0.162454,-3.02128 m 0.751893,0.0889 -0.659024,2.95691 m 0.318717,0.22471 0.0164,0.32179 m 0.371766,-0.40429 0.643652,-2.94169 m 0.866643,0.34769 -0.905563,2.74603 m 0.848122,-0.37827 0.781552,-1.7425 m -68.399635,22.74877 -0.590391,-0.25664 m -0.485907,2.32992 1.610889,0.70657 m 163.953351,13.23956 12.45052,4.56401 m -4.70336,-10.67808 -0.30107,-0.10708 m 24.68726,50.71551 0.11597,0.26408"
       style="fill:none;stroke:#000000;stroke-width:0.343958;stroke-miterlimit:4;stroke-dasharray:none"
       id="path851" />
  </g>
</svg>
