<?xml version="1.0" encoding="UTF-8" standalone="no"?>
<svg
   version="1.2"
   width="384.38687"
   height="805.95026"
   id="svg6"
   xmlns="http://www.w3.org/2000/svg"
   xmlns:svg="http://www.w3.org/2000/svg">
  <defs
     id="defs10" />
  <desc
     id="desc2">plotter.vision</desc>
  <path
     d="m 190.48175,438.77242 0.0575,117.0649 16.6613,-0.3283 16.4817,-1.1415 1.0426,-116.9279 -16.5611,-121.6099 8.1777,-0.7393 25.0179,120.5873 -16.6345,1.7619 -17.0281,1.0351 -0.4962,117.0343 m -3e-4,0.081 -0.6087,143.5713 -15.9818,0.3622 -15.968,-0.547 -15.7573,-1.4488 -15.3525,-2.3245 -14.764,-3.1738 -14.0182,-3.9682 -13.1087,-4.7195 -3.793395,-142.0829 -12.5353,-4.8825 4.2757,141.5715 -10.8836,-6.0054 -9.6049,-6.5368 -8.2448,-6.986 -6.8192,-7.3455 -5.3461,-7.6254 -5.7798,-138.2522 -3.9733,-7.0496 -2.404,-7.1438 5.9359,136.7107 -0.8729,-7.9482 -5.9226,-135.9255 0.8596,7.163 m -0.003,-0.0769 -4.8146,-110.886 79.076895,-89.1152 -79.922995,82.6506 0.8461,6.4646 2.4392,6.4504 4.7794,111.579 m 0.003,0.0773 5.8893,137.489 -2.3574,-7.9221 m 2.3574,7.9221 3.8638,7.8128 m 5.3461,7.6254 -5.6069,-138.993 -5.519,-6.8846 m -0.003,-0.0777 -4.6932,-112.2597 76.502895,-96.2145 3.1417,2.743 -79.644595,93.4715 5.6571,6.2225 73.987495,-99.694 3.9025,2.6227 4.6194,2.4799 -75.261195,100.5917 70.641795,-103.0716 -77.889995,97.0713 7.2482,6.0003 4.3642,113.5563 m 0.003,0.0786 5.3691,139.7028 m 8.2448,6.986 -5.0667,-140.3743 -8.5472,-6.3145 -7.057,-6.6357 m -0.003,-0.0782 -4.5552,-112.9213 m -5.6571,-6.2225 -4.0595,-6.3685 78.202295,-92.6755 -1.5646,-2.8901 -0.7578,-2.9165 -78.440595,79.1548 78.469695,-82.0715 -0.0291,2.9167 -79.165195,85.5671 0.7246,-6.4123 2.2427,-6.3009 3.7092,-6.1289 5.1,-5.9128 72.176995,-72.2128 -2.3388,2.7574 -74.938195,75.3682 73.339195,-72.5332 -77.048395,78.6621 m -2.9673,12.7132 4.8011,110.1881 m 28.3606,41.1886 -4.1205,-114.158 -8.7911,-5.7124 m 8.7911,5.7124 10.2657,5.3501 61.515295,-109.3472 5.9481,2.108 -55.808895,112.1587 3.4802,115.2327 m 0.002,0.0797 -11.3093,-5.4336 4.7014,140.9997 59.491595,39.8278 5.3249,2.957 -41.8799,-31.3855 -12.052995,-5.3939 53.932895,36.7794 5.8375,2.6396 -34.6087,-29.3056 -3.2594,-142.5288 -13.642695,-4.2736 m -0.002,-0.0801 -3.0889,-115.6927 14.076995,3.8719 2.6549,116.0942 m 0.002,0.0803 14.5975,3.5945 15.3809,2.8757 15.9993,2.1066 1.4164,143.4185 17.6837,26.7193 7.4178,0.6971 6.6238,-25.4206 -0.0705,-143.6052 m 0,-0.081 -16.6468,-0.4958 -0.6104,-117.0187 -16.9692,-1.1907 1.1545,116.8963 16.4251,1.3131 m 5e-4,0.0809 0.7488,143.5541 9.3442,25.9676 7.4999,0.2664 -0.8761,-25.687 m 15.9818,-0.3622 15.811,-1.2594 1.279,-143.4535 16.1031,-1.9433 15.5302,-2.7164 14.7756,-3.4543 13.8478,-4.135 12.7817,-4.7631 11.5684,-5.3221 10.2562,-5.8183 8.8494,-6.2372 -5.3115,139.8459 -8.5338,6.8997 4.9959,-140.5084 m 0,-0.0791 0.8125,-22.8522 1.7325,-2.4236 1.9759,-3.1285 1.8627,-3.3365 1.7291,-3.4918 1.5866,-3.6422 -7.8528,-3.4861 -1.8807,3.4939 8.1469,3.6344 m -1.7291,3.4918 -8.4716,-3.7972 -2.216,3.1595 8.8249,3.9742 m -1.9759,3.1285 -9.2031,-4.163 -2.4752,2.7037 9.5586,4.3422 -2.4301,2.517 -2.4932,2.2243 -2.5404,1.9218 -2.5649,1.5898 -2.8508,1.1173 -2.8221,0.7546 -2.7684,0.3946 -2.6822,0.0183 -9.5664,-4.4435 -1.3747,-0.1688 m 0.6133,0.553 2.3173,1.5473 2.5204,1.2092 2.6946,0.8427 2.3774,0.4023 -0.6801,23.0527 m 0,0.0798 -4.1801,141.6827 -12.2881,5.2617 -13.3041,4.566 -14.1878,3.8132 -14.9061,2.9978 -15.4512,2.1442 -15.9653,26.5254 7.2919,-1.0347 7.0503,-1.4461 6.7545,-1.8476 39.4137,-31.1522 3.1428,-142.6123 m 0,-0.0804 2.5601,-116.1693 -33.7071,-118.9348 -7.1326,1.5881 25.5855,120.4774 -33.1532,-119.158 17.1145,121.6203 -1.5736,116.7467 m -0.001,0.0807 -1.9309,143.2526 -24.1246,27.6349 39.0307,-30.6327 2.555,-142.9712 m 10e-4,-0.0805 2.0818,-116.4928 -16.0387,2.4623 m 16.0387,-2.4623 15.2542,-3.1307 -40.8397,-117.3467 -7.5677,1.3194 -7.9034,1.033 m -8.1777,0.7393 -8.3493,0.4342 -8.424,0.1256 -8.4142,-0.1904 -8.3207,-0.4982 -8.1239,-0.7992 -26.7455,120.3205 16.5267,1.9099 18.3427,-121.4312 -34.8694,119.5213 1.6814,116.6997 m 0.001,0.0807 2.0632,143.2006 25.7918,27.9252 -10.4393,-25.6007 m -15.3525,-2.3245 18.793,26.3914 -33.557,-29.5652 -2.6801,-142.9025 m -0.002,-0.0806 -2.1837,-116.4308 -15.069,-3.2576 42.3677,-116.9283 -56.444695,113.0564 -12.9269,-4.4221 -11.6545,-4.9195 3.8251,114.719 m 0.003,0.0793 -9.9702,-5.9114 m 30.7238,-99.5453 49.410195,-114.6979 -6.5282,-1.8829 m -5.9481,-2.108 -5.3109,-2.307 -66.470095,106.3041 m 21.9202,10.2696 62.337095,-110.2758 7.0345,1.6415 7.4855,1.3765 -49.8532,115.5518 m 15.069,3.2576 15.8835,2.6067 m -15.8835,-2.6067 42.629,-117.7138 -7.8448,-1.0956 -34.7842,118.8094 m 49.3794,5.7073 17.1997,0.4496 17.215,-0.2977 -7.8823,-122.2108 -9.3327,122.5085 0.9087,-122.3829 -18.1084,121.9333 9.6942,-122.1237 m -10.1531,-6.9108 -48.8105,-18.7851 -0.4149,-23.0258 7.043,-1.9483 0.7275,-1.1239 m 0.0364,2.2806 49.8109,14.8416 -0.0632,-21.7291 22.449,-2.8943 39.5076,-5.0937 -0.2858,21.5128 -61.6076,8.2043 m -0.7307,-0.2178 -5.7229,0.5267 -31.1528,-11.514 m -12.2045,-3.6365 -0.3408,-21.3371 6.2936,-2.0071 9.3513,2.6814 m 1.2773,0.775 -1.9188,-2.6654 0.8488,-4.0556 5.1581,2.5238 1.0681,-4.124 1.3812,-4.0915 1.6672,-4.0349 -2.4493,-6.0282 2.5,-3.6565 4.1185,1.9448 -1.3429,-5.4331 3.8097,1.7826 4.7468,1.5459 -2.0518,-4.996 4.3058,1.396 -1.4105,-4.6442 -2.8953,3.2482 -2.695,3.4501 -0.7792,-5.0639 -3.0305,3.2813 -2.7756,3.4883 1.9018,5.7481 -4.4018,-2.0916 -0.4873,-5.7985 2.9936,-3.3123 2.7693,1.966 0.505,-5.0565 2.5255,1.7752 3.4742,1.6138 -0.204,-4.6784 3.0993,1.4302 3.8448,1.2373 4.481,1.0052 3.6849,4.3671 1.293,-3.6287 5.3057,0.4499 -0.641,3.6857 -4.6647,-4.1356 1.3598,-3.3981 4.6215,0.3871 -0.6756,3.4609 5.5028,3.8464 -0.0276,-3.7062 -5.4752,-0.1402 -3.9459,-3.848 -2.2155,-3.6769 -2.1098,3.0369 -1.1914,-3.767 3.3012,0.7301 3.6539,0.5367 3.8991,0.3251 -0.716,3.2022 4.7996,3.6011 6.1621,3.5152 7.1795,3.2743 -1.2499,-3.8084 -5.9296,0.5341 0.6475,3.8624 0.5971,4.0373 -7.3285,0.2293 -0.0267,-4.0566 6.7581,-0.21 -6.782,-3.6714 -6.1438,-0.1607 -5.9577,-0.5069 -5.5783,-0.8338 4.3799,4.6475 -6.1326,-0.9238 1.7527,-3.7237 1.8934,-3.5333 4.9779,0.7384 -2.9655,-4.0381 -3.9073,-0.8699 2.7159,-2.8971 -2.8364,-0.9028 -3.2368,2.7277 -2.7105,-1.2405 3.6527,-2.5318 -0.9422,3.7723 -3.0736,2.9993 0.3631,-4.2398 -3.4624,2.8096 1.4858,-4.1784 1.9766,1.3688 1.9684,-3.6811 -3.945,2.3123 m -1.1975,-1.4537 -2.5561,4.0539 2.2678,1.5782 -3.2702,3.0646 1.0024,-4.6428 -3.5279,2.8676 -3.2743,3.0905 -1.6573,-2.0846 2.9557,-4.8282 3.7192,-2.4426 m 0.4244,1.7216 3.9163,-2.3782 3.8001,-3.3439 m 0.3675,-1.2564 -4.1031,1.6165 -3.8869,1.9296 -3.6453,2.228 -4.0442,4.6158 3.452,-2.6904 m 0.4671,1.9349 1.5088,1.8874 2.1677,-4.5433 m -3.5514,-1.2044 -3.3782,2.4903 -3.0859,2.756 -0.7262,2.3109 3.1461,-2.9414 m 0.4963,2.1378 -3.1163,3.1298 -0.5261,-2.3262 -2.8339,3.1543 0.5506,2.4977 -2.4633,3.5033 1.9127,-6.001 -2.4896,3.3466 0.5769,2.6544 -2.1046,3.6533 1.5277,-6.3077 -2.1207,3.5163 0.593,2.7914 -1.7399,3.7653 -1.35,3.8587 2.1847,2.9368 -0.8347,-6.7955 1.1469,-6.5567 -1.7462,3.6481 0.5993,2.9086 2.1358,2.8429 -0.3959,-6.6082 2.071,2.7262 2.0229,-3.7881 2.371,-3.6578 -1.897,-2.4369 2.8094,-3.3258 1.78,2.2671 1.3363,-5.3969 m 1.6573,2.0846 -0.006,5.4543 -2.9873,-2.142 -2.6924,3.4956 0.9124,-5.7627 m -0.5261,-2.3262 3.8121,-5.0669 m 3.2531,1.37 -1.7655,4.9779 m -4.5735,-3.5919 -3.5601,5.4652 0.7917,-2.4838 2.7684,-2.9814 m -3.0095,7.9629 -0.474,6.0947 3.3603,2.4483 4.6397,2.225 1.9525,-3.9366 2.2167,-3.8033 2.4668,-3.6505 m -2.4668,3.6505 5.1353,1.6848 2.0783,-3.7894 2.254,-3.6 3.2692,4.8553 5.0371,4.9101 -6.6538,-1.0084 1.6167,-3.9017 -5.5232,-1.2553 3.9065,5.157 5.6689,5.1229 0.9849,-4.1145 1.0955,-3.9863 6.008,4.5964 -7.1035,-0.6101 6.618,4.7726 0.4855,-4.1625 7.3593,4.3722 -7.8448,-0.2097 -7.6029,-0.6581 -7.1216,-1.0852 1.4527,-4.0377 -5.9848,-1.3676 -1.8678,3.9307 -5.4842,-1.8122 3.8414,5.8644 6.762,1.5695 1.2807,-4.1471 6.2419,5.301 0.8797,-4.2158 7.1684,4.9178 8.3168,4.5565 -0.0172,-4.3349 -8.2996,-0.2216 -0.3761,4.3208 8.6929,0.2357 0.0144,4.3463 -8.7073,-4.582 -8.4191,-0.7394 0.7471,-4.2834 -7.5226,-1.1539 -1.1008,4.2209 -5.6612,-5.7904 -5.7939,-1.9278 4.384,6.0663 1.4099,-4.1385 1.6428,-4.0522 6.3999,1.4746 -4.5321,-5.4053 m -1.8678,3.9307 5.1192,5.6217 m -1.1008,4.2209 7.8763,1.2164 -0.6136,4.3038 -7.2627,-5.5202 -0.9002,4.2499 8.1629,1.2703 8.7288,0.7701 -8.1152,-5.0739 m -0.6136,4.3038 -0.4799,4.3033 -7.683,-5.5736 -0.699,4.2584 8.382,1.3152 8.9705,0.7963 0.2382,-4.3295 0.3039,-4.3345 m 0.3761,-4.3208 0.4345,-4.2597 7.8651,4.4813 8.2936,-0.2605 -8.3139,-4.0111 -0.0168,-4.1767 -7.3425,-0.1955 0.5492,-4.0359 -5.3588,-4.3742 -1.1984,3.8137 6.5572,0.5605 0.5989,-3.8673 6.1677,4.0421 -0.0239,-3.8814 6.1345,-0.191 -0.6907,-3.6835 5.2809,-0.4704 4.938,-0.763 -6.3594,-2.6289 1.4214,3.3919 6.883,2.7609 -1.945,-3.5239 6.911,2.3681 -4.966,1.1558 -5.5436,0.8589 -1.3394,-3.6198 -6.0278,-2.9842 0.7469,3.4546 6.6203,3.1494 7.3394,2.8544 -6.0895,0.954 -6.532,0.5881 7.6714,3.3921 1.0284,4.1098 -8.1027,-3.4646 0.5266,4.159 -7.8383,0.247 0.0203,4.2716 8.6982,4.0561 -8.681,0.2788 9.0143,4.0576 -0.3333,-4.3364 -0.4046,-4.3166 -0.4756,-4.2581 7.5761,-0.6944 0.9097,4.2124 -8.0102,0.7401 m -0.4756,-4.2581 8.4858,3.518 0.7774,4.277 -8.383,0.7797 9.0209,3.5211 -8.6876,0.8153 -8.9999,0.2887 -9.0112,-0.2475 9.0229,4.584 -9.2611,-0.2545 -0.1721,4.277 9.4423,0.2612 -0.009,-4.2837 -0.0117,-4.3365 9.2552,4.0354 9.2887,3.4153 -0.3517,-4.2575 -8.937,0.8422 0.1839,4.2758 9.1048,-0.8605 8.4786,-1.3904 -8.8303,-2.8671 8.3187,-1.3534 0.5116,4.2205 7.5931,-1.8672 -0.6503,-4.1742 -8.1737,-2.4305 7.2489,-1.7613 -8.1758,-2.4874 0.9269,4.2487 -8.1041,1.3076 0.5047,4.2972 -9.1923,-3.4819 0.2553,4.3241 -9.2435,0.3011 9.4274,3.9747 4.6945,1.6724 3.2778,-0.2415 -28.9075,5.4498 -50.0885,-14.4496 7.2808,-12.3015 4.2009,-7.0977 m -0.788,1.6462 -1.3599,3.7617 0.6092,3.0056 1.2698,6.9238 0.9149,-3.987 1.3011,-3.9526 1.6751,-3.882 3.5032,2.578 -1.4803,-6.3661 -1.9893,-2.5914 m 4.3603,-1.0664 3.1797,2.3029 -2.1904,3.8032 2.9725,6.2599 6.0512,2.0314 7.0711,1.6519 m -0.9002,4.2499 -6.1709,-5.9018 -1.1626,4.1781 -6.2698,-2.118 -3.4713,-6.4336 1.88,-3.9178 -0.9893,-6.1061 m -4.3939,7.4459 1.9541,6.5669 1.5491,-3.9889 4.8525,2.3421 4.8886,6.2095 -0.8954,4.1999 -5.3744,-6.3179 -5.0204,-2.4447 3.9523,6.5687 6.4425,2.1939 7.5299,1.7822 -0.5041,4.2221 8.5406,1.3487 -8.0365,-5.5708 -6.6345,-5.9821 7.3335,1.7237 m 8.1629,1.2703 8.4906,5.0996 m -0.1721,4.277 3.4628,1.6358 5.9794,0.1659 m 1.4638,-0.0482 -11.8125,1.5155 -9.6372,-2.7634 -3.6108,-0.334 -3.53,-2.338 -7.6732,-1.8271 -5.7951,-6.3711 -0.7623,4.1214 6.5574,2.2497 0.6474,-4.1772 7.0258,6.0043 m -0.136,1.9983 -3.8227,-0.8176 -3.7145,-3.0078 m -1.0751,1.8412 -2.3687,-0.8853 -3.1136,-3.2056 -4.3958,-6.6452 1.2058,-4.0449 -3.6292,-2.6849 2.4234,6.7298 -3.7245,-2.7772 2.8757,6.8328 5.2446,2.5896 m -0.2101,1.9658 -3.1157,-1.89 m -1.6602,-2.3062 -1.9577,-0.1707 m 1.6991,-0.1885 -3.7906,-2.8458 -2.2242,-3.0095 -0.6169,-3.0797 m 0.6169,3.0797 0.3452,-6.9199 m 0.2745,9.4817 1.4101,1.9131 m -11.0184,2.5965 26.6123,5.7942 3.9076,0.8368 m 5.1177,0.9376 2.371,0.2197 m 4.9403,0.5444 3.3856,0.3029 5.7922,0.5192 m 0.0364,-1.5381 -8.7984,-5.0733 -0.3455,4.2556 9.1439,0.8177 m -0.9065,3.269 -1.1681,3.5639 m 11.5169,-6.5717 9.4183,-0.309 m 0.0542,2.0157 4.6403,-0.3433 m 4.3786,-0.2849 0.0109,-2.206 m 0.0208,-0.042 4.4238,1.3929 -4.3157,0.807 m 4.3157,-0.807 4.198,-0.7855 m 1.1656,-0.3747 16.8571,-3.178 -14.7853,2.5118 3.1791,-1.0227 11.6062,-1.4891 5.2721,2.6985 8.939,-21.57 -6.0175,-0.4475 -1.4012,3.3039 m -0.9806,1.018 -1.3503,-3.8518 -1.7451,-3.7545 0.4671,-2.7929 -2.1191,-3.5042 -2.4881,-3.3372 -0.4403,2.5022 -2.8104,-3.3141 -3.129,-3.1117 -4.8403,-0.9845 -5.7424,-1.2625 -3.031,1.4472 -6.4182,-1.8974 3.3061,-1.0878 3.1121,2.9852 -3.7968,1.2559 -2.6214,-3.1533 -3.8697,0.8864 -5.7953,-2.4723 3.6352,-0.5549 2.1601,3.0272 -4.2994,0.6624 -4.6064,0.4077 -4.7859,-3.0764 4.0162,-0.1242 0.7697,3.2006 -4.7563,0.146 -0.0296,-3.2224 -4.0222,-0.104 m -0.4389,-0.5826 -0.1935,-174.510599 m -2.0764,-0.1226 0.2826,174.249199 m -1.4729,0.6415 3.1831,3.5273 4.7678,0.1242 0.0318,3.4769 5.4714,-0.1683 -5.5032,-3.3086 m -0.4156,-3.5801 -0.01,-174.732099 m -2.1446,-0.0301 0.1019,174.147599 m 4.1071,-0.4584 0.0826,-173.679199 m 2.1277,-0.0658 -0.1752,174.875299 m 0.3124,0.1762 -2.3346,-1.3175 m 2.3346,1.3175 3.8802,-0.3418 1.4959,3.1347 -5.3761,-2.7929 m 1.6767,-1.5613 2.2035,1.2195 m -0.2575,-0.1425 0.353,-174.841899 m -2.0255,0.1586 -0.2635,173.611899 m 3.3735,-0.4356 2.4552,1.0946 6.0298,2.1408 -2.768,-2.8849 2.795,-0.9156 3.2791,2.7127 -6.0741,-1.7971 -3.2618,0.7441 m -0.2616,-0.1166 0.5168,-174.766599 m 1.7202,-0.2872 -0.5876,173.742399 m 2.8998,-0.598 0.7179,-173.826099 m 2.3778,-0.8023 -0.8188,173.570399 m -0.5077,1.4243 2.2493,-1.0523 5.5933,1.133 -1.9127,1.3783 -3.6806,-2.5113 m 0.3004,-0.2139 0.9182,-175.083299 m -29.7975,3.5391 0.3688,174.046599 m 0.4511,1.0153 -1.4384,3.1402 -4.3253,-0.64 -2.0124,3.2997 -1.8949,-4.1696 -2.5861,3.1644 -2.4343,3.4069 5.0219,1.1316 -2.5876,-4.5385 -0.7712,-4.2366 3.3573,1.0722 -0.1205,-3.7999 -2.2946,-1.0446 m -0.5465,-0.373 -0.9216,-175.113699 m 3.0818,1.7849 0.7804,173.283499 m 2.5284,0.6954 -0.6671,-173.219799 m 3.2653,0.6254 0.5279,173.402699 m -8.9214,-1.681 -0.0208,-3.8967 m 14.2473,22.2477 6.7666,0.1748 m 0.0267,4.0566 -6.7933,-4.2314 m -1.4692,12.4581 -8.0481,-0.702 m 16.4001,18.225 3.8159,1.5552 5.6566,0.1515 m -5.6566,-0.1515 -2.3522,-0.0629 m 16.203,-11.2165 8.8234,2.9438 -0.7193,-4.2514 -8.742,-2.9932 7.8151,-1.2555 7.0028,-1.6845 5.9537,-2.0613 -7.3943,-2.0683 1.4406,4.1296 1.173,4.1719 0.9248,4.1918 -7.4544,1.8209 m 0.5116,4.2205 3.3806,0.9569 m 4.2125,-2.8241 6.457,-2.2808 -7.1073,-1.8934 6.3397,-2.2212 -7.2645,-1.9706 6.183,-2.1487 -7.356,-2.0232 -8.1236,-2.5277 -8.3814,-3.0217 7.0671,-1.1202 -8.0955,-2.9896 -7.0743,0.6452 m 7.0743,-0.6452 -1.1394,-3.9802 7.7414,2.9404 -1.6519,-3.8944 -1.7958,-3.7133 7.2699,2.4328 -2.3039,-3.5886 -2.4799,-3.3925 -4.4311,1.0244 -2.06,-3.2913 6.4911,2.2669 6.7203,1.9767 -4.2404,1.4158 6.9674,2.0214 -2.727,-3.4372 -2.9235,-3.2326 6.3204,1.6023 -3.2894,-3.0495 -6.1431,-1.538 2.6508,-1.2537 -5.9299,-1.459 m 4.8369,-3.4399 4.1323,2.0609 3.9267,2.3617 m 0.3455,-1.7198 3.0405,0.5012 3.3693,2.4727 0.7574,2.1218 -3.4501,-2.675 -3.7171,-2.4207 m -0.5968,-1.7111 -3.368,-0.4255 m -0.5055,-1.4878 -3.6674,-0.3416 m 2.7389,4.7838 3.7699,2.5844 3.5521,2.8481 -2.453,1.787 -3.3969,1.6303 6.4558,1.6362 -3.0589,-3.2665 5.734,1.2885 -2.6751,1.978 -3.7288,1.801 -4.6635,1.5672 -5.4741,1.2805 7.5739,2.4981 -5.922,1.3963 -6.602,1.0398 m 6.602,-1.0398 1.4935,4.0294 6.336,-1.5027 -7.8295,-2.5267 m 1.4935,4.0294 7.9973,2.54 5.711,-1.9573 1.6833,4.0256 1.4023,4.0845 1.0815,4.1193 0.7676,4.1146 5.1334,-2.613 -5.901,-1.5016 5.0372,-2.55 -6.1187,-1.5693 4.9091,-2.4675 -6.3114,-1.617 4.749,-2.366 -6.4323,-1.6596 -1.9769,-3.9248 -5.3954,1.8394 -1.9075,-3.923 -2.0998,-3.7786 7.1592,2.0709 -2.4957,-3.6381 6.5228,1.675 -4.0271,1.9631 -5.0594,1.7077 7.3029,2.0836 -2.2435,-3.7913 6.5485,1.679 -2.5214,-3.6421 -2.794,-3.476 5.6905,1.3215 -3.0154,-3.2995 -3.281,-3.0755 1.4187,-1.8929 -4.9708,-0.9552 -2.1903,1.5856 -3.4923,-2.7917 5.6826,1.2061 m 4.9708,0.9552 3.4216,2.8774 -1.5593,2.091 4.6883,1.0207 0.4253,-2.3248 2.8254,3.1367 -3.2507,-0.8119 -1.6729,2.2788 -2.8965,2.1545 5.5997,1.3261 -3.0783,2.316 -4.305,2.1123 m 1.9769,3.9248 -7.3723,-2.0854 1.6613,4.0427 -6.683,1.6019 -1.3143,-4.1419 m 1.3143,4.1419 -7.4717,1.1907 8.5925,3.0215 -1.1208,-4.2122 m -6.6943,5.4677 0.6379,4.3008 m 16.9281,5.2971 2.5387,0.6629 4.0825,-1.4455 m 0.2372,-1.3965 1.4989,0.5091 m 0.169,-0.0864 3.2449,-1.6557 m 0.5713,-0.4484 -1.7697,4.1728 m 1.0176,-5.2061 -0.8638,-4.0516 -1.2096,-4.0368 -1.5624,-3.983 5.071,1.2798 -1.6804,-3.8684 1.944,-2.7373 -2.1082,-3.6409 0.4562,-2.6562 -2.9284,-0.835 2.4722,3.4912 -1.8681,2.599 -2.3842,-3.6449 -2.7032,-3.4806 4.4833,1.0353 -1.7801,2.4453 4.2523,1.0459 m 2.5753,0.848 1.7448,3.6377 -0.4668,2.9097 -3.6891,-1.0172 -2.0323,-3.7792 -5.4625,-1.3289 2.2088,3.7933 -4.5369,2.2438 m 4.5369,-2.2438 3.2537,-2.4644 3.9763,1.0419 2.2119,0.8448 1.3654,3.755 -0.4819,3.0065 -3.359,-1.0006 2.0087,-2.8512 m 1.0974,-1.1756 2.6347,0.7055 -0.8578,6.4643 m -0.0809,-1.316 -0.4802,3.0804 -2.0988,3.0191 -4.5221,-1.1865 3.5956,-2.7948 -4.8052,-1.242 3.5086,-2.7032 1.2966,3.9452 2.0624,-2.9446 m -2.0624,2.9446 0.9265,3.9813 m 0.2555,1.9187 1.8433,-2.4734 -1.5026,11.3244 m 7.5351,2.0394 2.2552,0.7679 6.7951,0.6879 -16.9203,23.9634 -70.0723,6.4817 -49.104,-18.2732 7.6827,-8.5653 m -7.6314,11.4117 -2.0471,1.1127 -3.7331,2.5234 -3.047,2.648 m -2.3388,2.7574 -1.599,2.835 -0.8214,2.8915 m 2.2933,8.7233 2.3601,2.8295 -80.562395,89.846 m 138.669495,-77.2023 -0.1214,-23.5377 2.0602,-3.9143 m -2.0602,3.9143 64.809,-9.6887 5.2633,3.207 -0.3105,23.3569 -69.6404,6.6625 m 15.3184,-28.6833 49.3692,-4.5431 1.6117,-2.246 m 3.7007,-0.4928 8.8998,-22.1595 0.325,-20.9233 -9.0428,-2.2272 m -4.3959,1.2326 -5.286,-1.3148 1.8954,3.9034 3.3906,-2.5886 m 2.977,7.8136 3.0253,0.9622 m -1.8433,4.9378 -2.2322,1.398 m 10.6799,8.0686 8.4784,2.8796 -0.4001,22.6814 -16.8307,24.6389 m 3.1221,6.6904 41.3566,117.022 -47.9971,-115.1883 6.6405,-1.8337 54.5394,112.7076 -13.1828,4.3144 -14.29,3.7465 m 14.29,-3.7465 -0.9323,35.9581 -1.5378,2.4741 -1.9225,3.675 -1.6168,3.7545 -1.2941,3.8028 -0.9626,3.8139 -0.606,3.7751 -0.2655,3.7063 0.091,3.5989 0.4311,3.4622 0.7868,3.2873 1.1178,3.0781 1.4398,2.8386 1.745,2.5795 m 1.4155,1.5964 -0.8914,34.3803 m 0,0.0801 -3.6865,142.1813 -46.3468,33.4932 5.9367,-2.5704 52.6982,-36.1845 11.1307,-5.8816 4.6178,-141.1232 m 0,-0.0794 0.6531,-19.958 -10.1308,-4.6676 2.7132,-1.5075 9.9825,4.5853 m 2.5404,-1.9218 -9.837,-4.5031 -2.6859,1.8396 m -2.7132,1.5075 -2.7049,1.1723 9.9849,4.6126 m -2.8221,0.7546 -9.8414,-4.5566 -2.6283,0.4512 9.7013,4.5 m -5.4777,-0.4418 -7.0527,-3.2789 m -0.4796,-0.3203 -2.0987,-1.8923 m 2.8601,1.5081 2.5473,-0.0748 m 2.6283,-0.4512 2.6786,-0.8106 m 8.104,-4.5194 2.6349,-2.1431 9.6953,4.4219 m -7.1285,-6.8592 -2.5668,2.4373 m 5.042,-5.141 2.3541,-2.9397 m 2.216,-3.1595 2.0538,-3.329 m 1.8807,-3.4939 1.6832,-3.6088 7.4664,3.2983 -0.8637,2.6587 -1.2828,33.7759 m 0,0.0787 7.3708,-6.5747 -5.5628,139.1434 -7.1195,7.2772 m 7.1195,-7.2772 5.6603,-7.5716 5.7495,-138.4086 -5.847,6.8368 m 0,-0.0782 4.5199,-113.0559 -7.573,5.9458 -1.3403,35.2882 m -0.3711,-0.6264 -7.9609,-3.3466 1.4948,2.1669 1.2646,2.4571 1.0248,2.7195 0.7751,2.9626 0.516,3.1789 0.2596,3.3547 -7e-4,3.5019 -0.2649,3.6205 -0.5213,3.7054 6.3458,2.7495 -0.594,3.8464 -0.7697,3.8918 -0.936,3.9001 -1.0931,3.8792 m 1.0931,-3.8792 -7.0857,-3.1147 -1.4738,3.6956 m 1.4738,-3.6956 1.2518,-3.7467 6.7699,2.9613 m 0.7697,-3.8918 -6.522,-2.8391 -1.0176,3.7696 m 1.0176,-3.7696 0.7702,-3.7568 m 0.5213,-3.7054 6.2413,2.6919 0.2338,-3.6456 0.045,-3.4938 -0.1415,-3.3145 -0.3256,-3.1075 -0.5122,-2.86 -0.6926,-2.587 -0.8664,-2.2964 -7.5562,-3.1823 m 1.2646,2.4571 7.158,3.0216 m 0.6926,2.587 -6.8258,-2.8891 m 0.7751,2.9626 6.5629,2.7865 m 0.3256,3.1075 -6.3725,-2.7151 m 0.2596,3.3547 6.2544,2.6749 m -0.045,3.4938 -6.2102,-2.6668 m 5.9764,6.3124 -0.4168,3.763 m -22.3483,-0.7219 -15.3077,-6.7015 m 1.983,-1.9501 13.4164,5.8542 m -0.3211,-2.5421 -11.0192,-4.7949 m 2.1056,-0.9696 8.1939,3.5577 m -1.7795,-2.4885 -3.3907,-1.4693 m -7.5561,-7.3634 2.4968,-2.1566 0.7157,-24.2581 11.9234,-4.8189 -0.6879,21.0226 -2.9179,1.391 -2.9107,1.7446 -2.8757,2.0795 -2.8061,2.4007 m -2.9376,2.5952 -2.8482,2.8488 -2.6825,3.1024 -2.4849,3.303 -2.2709,3.4971 m 5.2807,4.3652 17.2966,7.6288 m 0.8853,-2.9541 -16.6144,-7.2999 m -2.8429,5.4593 17.3279,7.6725 m -1.5518,2.6832 -16.7043,-7.4249 m -0.5512,2.9089 15.4585,6.8959 m -3.0194,2.8359 -12.6591,-5.674 m 0.9861,3.5877 8.5023,3.8245 m -3.0593,0.4759 -3.733,-1.6827 m 19.7325,-46.2645 2.6022,-1.1495 2.552,-0.7717 2.4784,-0.3919 2.3873,-0.005 m 0.3757,0.0619 0.8545,-24.0323 -60.7318,-109.4023 -4.772,2.4486 65.5038,106.9537 -10.5622,5.2663 -60.3893,-109.9523 -6.0735,2.0636 m 6.0735,-2.0636 5.4477,-2.2677 m 4.772,-2.4486 69.8359,103.7594 -9.1041,5.6429 m 9.1041,-5.6429 -65.7796,-106.3542 73.3526,100.4084 5.9962,-6.1799 -73.5296,-99.7607 -2.524,2.8136 76.0536,96.9471 -4.669,112.3994 m 0,0.0778 4.2911,-7.0239 -5.8717,137.6491 -4.1689,7.7834 m 4.1689,-7.7834 2.6743,-7.91 5.9314,-136.873 -2.734,7.1339 m 0,-0.0774 4.7658,-111.7218 -4.388,6.3459 m 4.388,-6.3459 2.7798,-6.4421 -78.0424,-92.7659 -0.9242,2.9128 78.9666,89.8531 1.1705,-6.4647 -79.2129,-86.3012 0.1362,-2.9189 78.6813,82.7945 0.3954,6.4256 -79.0767,-89.2201 -0.6588,-2.8995 77.4094,79.3652 1.9307,6.3288 m 0.3954,6.4256 -4.8078,110.3333 -1.1742,7.1619 4.8115,-111.0305 m -2.7798,6.4421 -77.9176,-93.4148 1.7308,-2.8804 76.1868,96.2952 m -10.3842,12.5258 -70.0574,-103.127 -3.2952,2.7186 -4.0563,2.5948 m 12.0079,-19.7386 -1.4346,-2.8508 75.4326,76.0428 3.4114,6.1732 m -3.4114,-6.1732 -4.8218,-5.9601 -72.7965,-72.8544 2.1857,2.7717 m -2.1857,-2.7717 -2.9077,-2.674 -3.5951,-2.5519 -4.2373,-2.4059 m -12.449,-6.8128 5.8219,-8.113 -10.1252,24.6513 m -34.6103,36.5608 -0.467,122.645 m 113.0028,-2.5642 7.8997,3.3165 m -1.572,-1.3747 -4.1336,-1.7339 m 25.9174,49.2086 -5.9301,136.089 -1.1755,7.9464 m -28.1568,37.4419 -9.8781,6.4331 -58.3932,39.1719 -5.4357,2.8942 m 5.4357,-2.8942 4.8822,-3.1827 63.3891,-42.4223 m -21.0088,12.3147 -58.6349,38.7549 -6.371,2.225 52.7178,-35.7182 m 0.6295,4.7358 -0.9741,4.9692 -1.8392,4.9128 -0.9602,37.8144 -2.6688,4.9166 0.9341,-37.9238 -3.5404,4.6441 -4.3552,4.4456 -0.8523,38.1292 -5.0776,4.274 -5.8105,3.9711 0.7327,-38.31 5.8748,-3.8841 5.1329,-4.1802 m -1.4419,-1.5149 -5.0403,4.1017 -5.3314,4.2131 m -0.4313,-0.4112 -6.0326,3.8949 m -0.391,-0.4373 -6.6938,3.5387 m -0.3437,-0.4599 -7.2708,3.1415 m 0.2348,0.4396 -8.1165,2.2428 m 0.2488,0.9751 -0.3989,38.569 -8.46,1.8135 0.3007,-38.6082 8.5582,-1.7743 m -0.6761,-1.9241 -8.2138,2.2485 -8.6308,1.7227 m -0.094,-0.4738 -8.8739,1.2108 -9.0538,0.2089 m 0.005,-0.4738 -9.0486,0.1546 m 0.0548,-0.4733 -8.9857,-0.3761 m 0.1042,-0.4654 -8.8272,-0.8972 m 0.1473,-0.4608 -8.5746,-1.4002 -8.0276,-2.3397 m -0.32,0.9478 0.5108,38.5073 7.9946,2.4086 -0.4187,-38.5594 m 1.3302,-2.9887 -8.1948,-1.7408 m -0.3576,0.5136 -7.4617,-2.7556 m -0.3539,0.4554 -6.9521,-3.1843 m 0.4002,-0.4323 -6.7415,-3.1261 -5.6495,-3.8972 m 1.036,-0.7751 6.1606,3.3979 6.188,3.471 7.2999,2.6 m 1.0717,-0.9579 7.1121,2.613 7.5463,2.1905 7.9212,1.7451 8.1998,1.2774 8.3917,0.7951 8.4959,0.2999 8.5056,-0.1966 8.4266,-0.6897 8.2475,-1.1778 7.9871,-1.6494 7.6351,-2.1031 7.1993,-2.5278 6.6997,-2.9262 6.1273,-3.2843 5.4961,-3.6155 4.815,-3.8963 4.0866,-4.1339 3.3304,-4.3326 2.5428,-4.4831 1.2149,-3.1946 m 3.1155,-0.937 -1.7821,4.7329 m -0.8156,-0.2266 -1.8029,4.8546 -2.7234,4.8035 m -0.6969,-0.3308 -3.5488,4.6424 m -1.3792,-0.7335 -4.2386,4.3891 m -0.6815,-0.4032 -4.9908,4.1388 m -0.6188,-0.4432 -5.7003,3.8413 m -0.5609,-0.4801 -6.3524,3.5029 m -0.4897,-0.5099 -6.9445,3.1235 -7.5713,2.7258 m 9.1239,0.1917 -0.4922,38.519 -8.077,2.3124 m 8.077,-2.3124 7.6281,-2.7769 0.5796,-38.4588 -7.7155,2.7167 m 7.7155,-2.7167 7.1663,-3.1475 -0.66,38.3888 -7.0859,3.2175 m 7.0859,-3.2175 6.4772,-3.612 m 5.8105,-3.9711 0.797,-38.223 m -5.8748,3.8841 -6.5499,3.5332 m 21.9128,-16.0431 -0.898,38.0289 -4.3095,4.5459 m 4.3095,-4.5459 3.5043,-4.7492 m 2.6688,-4.9166 1.8229,-5.025 0.9765,-37.7022 m -3.0953,-1.5478 0.2637,-1.3245 m 3.8057,-2.0969 -0.983,37.5882 -0.9676,5.0832 m -3.5576,-27.9822 2.6949,-4.8072 m -11.1203,-10.0518 -46.1682,32.9998 31.9804,-29.1866 m -30.3573,5.142 -23.4082,27.1328 7.5972,-25.8734 -15.1057,26.0492 7.5085,-0.1758 7.4429,-0.6074 m -6.2978,8.8257 -8.7888,0.7913 m -0.0322,2.5743 0.011,38.6573 -9.0052,-0.3307 -0.1163,-38.6501 m -8.9978,-0.8543 0.2203,38.6313 8.8938,0.8731 m -8.8938,-0.8731 -8.6882,-1.4054 -0.3215,-38.6009 m 4.903,-10.9374 7.2444,1.1186 m -7.2444,-1.1186 -6.9988,-1.5338 -6.6821,-1.9278 -26.8749,-27.6374 m -14.0182,-3.9682 40.8931,31.6056 -6.2844,-2.3 -47.7174,-34.0251 m 1.9383,5.2537 0.9696,37.0529 0.7899,5.0891 -0.9785,-37.6786 -0.7045,-4.4122 m 0.7045,4.4122 1.6596,4.9288 0.9644,37.7913 2.494,4.9368 -0.9403,-37.9012 3.3667,4.6877 4.1886,4.486 4.9736,4.2442 0.8092,38.2042 5.658,4.0359 -0.7468,-38.2926 6.4134,3.6089 0.6758,38.3731 6.9709,3.2998 7.5165,2.874 m -7.5165,-2.874 -0.5968,-38.4449 7.6025,2.8116 m -4.1378,-7.0636 -6.586,-3.0045 -5.9947,-3.3585 -5.364,-3.6746 -4.6617,-3.9465 -3.9308,-4.185 -3.1635,-4.3641 -2.3774,-4.5084 -0.7706,-2.2492 m -0.1203,2.4107 -2.1348,-3.9204 m 0.466,4.3297 3.234,4.3851 m -0.7919,0.2653 4.0168,4.2005 m -1.4666,0.6301 4.0773,4.361 m -0.595,0.3627 5.443,3.7551 m -6.9018,-2.2656 0.8625,38.1088 -4.1448,-4.5873 -0.9063,-38.0075 m 1.5282,-1.4008 -3.3058,-4.59 m -1.5891,1.3031 -2.5181,-4.8269 m -0.6811,32.7498 1.6455,5.0415 m 2.494,4.9368 3.3327,4.794 m 4.1448,4.5873 4.9203,4.3396 m 5.658,4.0359 6.3424,3.6894 m 22.482,8.5824 8.3837,1.9224 m 26.5872,2.6092 9.0156,-0.217 8.9247,-0.7609 8.7391,-1.296 m -8.7391,1.296 0.1988,-38.6362 m -9.029,0.7445 -0.0945,38.6526 m 36.0681,-558.1848 -0.8998,-2.476 m -1.9256,-0.6607 -3.1506,-2.926 m -0.7574,-2.1218 -2.6927,-0.5532 m 2.6927,0.5532 3.076,2.7405 0.832,2.3073"
     style="fill:none;stroke:#000000;stroke-width:1.3;stroke-miterlimit:4;stroke-dasharray:none"
     id="path4" />
</svg>
