<?xml version="1.0" encoding="UTF-8" standalone="no"?>
<!-- Created with Inkscape (http://www.inkscape.org/) -->

<svg
   width="384.0408mm"
   height="333.1683mm"
   viewBox="0 0 384.0408 333.1683"
   version="1.1"
   id="svg5"
   xmlns="http://www.w3.org/2000/svg"
   xmlns:svg="http://www.w3.org/2000/svg">
  <defs
     id="defs2" />
  <g
     id="layer1"
     transform="translate(-379.33647,98.252038)">
    <path
       d="m 492.43354,2.5067751 9.38995,61.0305429 -2.91843,0.655745 -6.42899,1.44575 -3.1424,0.565368 -6.36265,0.654345 -11.84188,-60.6992393 -10.66937,0.8100369 13.02674,60.4377354 9.48451,-0.548533 m 3.19496,-0.328573 4.10112,0.329572 0.83339,4.397706 0.98772,5.744828 20.14581,1.952019 -19.06693,4.782467 21.30089,2.235934 2.63649,7.083949 -21.73688,5.530437 -22.25722,0.954266 -8.45756,1.374209 8.0246,0.79611 14.5086,19.30206 -3.57287,-0.72784 -26.87568,-20.893333 3.01497,0.579983 -7.29781,-4.056872 1.97637,-7.183761 -16.07718,-7.011298 -11.76043,-9.927323 -6.8396,-11.833894 2.16372,-3.968176 m 0.14175,0.09216 2.001,1.117162 -18.53996,-59.0292368 -6.58299,-3.4325631 -5.63876,-3.8451562 19.39303,58.3612791 5.27314,4.166539 -19.02741,-58.6826619 m -5.63876,-3.8451562 -4.66565,-4.2013179 -3.67998,-4.490145 19.77474,57.797318 -1.70988,-3.185358 -0.95159,-1.772957 -19.80274,-57.555376 -1.71981,-4.885302 19.73267,57.340206 0.64406,1.838272 1.14582,3.2622 m 2.66147,4.958315 3.62334,4.988997 4.30897,4.235348 m -0.18183,-0.178685 -0.32695,2.551915 1.55445,-0.76518 -1.34211,6.506668 -0.27232,-3.876266 m 0.003,-0.101226 0.0567,-1.763957 m 1.55446,-0.765182 1.8064,13.727735 -2.10034,-0.627785 -0.94223,-5.085336 3.04257,5.713121 -1.56876,1.105144 -0.51376,-1.637847 m 0.51376,1.637847 1.32391,3.461391 0.24485,-4.566535 1.64905,-11.773167 m 0.80362,0.635002 4.09454,2.661975 m 0.89556,0.5 3.63858,15.209905 2.51055,-5.875972 -5.23193,-8.82185 m 0.18824,0.105079 4.66218,2.12628 2.11715,0.965046 -17.86155,-59.1672034 -7.45773,-2.9533596 m 7.45773,2.9533596 8.27997,2.414508 17.13694,59.5625254 -7.55536,-2.80983 m -0.7832,-0.157813 -0.95244,5.783258 -2.50797,-7.560298 m 3.29478,1.502362 0.16563,0.274678 10.23805,15.031248 -11.19049,-9.24799 9.24989,15.803295 1.9406,-6.555305 0.62922,-6.224841 -10.86727,-8.806407 m 5.13874,1.777651 5.72853,7.028756 -0.71019,-5.290186 m 0.44165,0.133224 15.03049,11.316779 -14.76195,-6.159817 14.6109,12.712504 -1.10356,7.07894 -14.13656,-13.566603 15.24012,6.487663 0.15105,-6.552687 -0.81575,-5.63927 -13.16098,-5.405993 m -0.58048,-0.128775 5.37314,1.192032 3.08115,0.500703 5.55687,0.903555 -15.24024,-59.9595297 -9.63375,-1.1920055 16.236,59.7472742 m 1.89533,0.307991 6.47299,4.034745 -1.28847,-3.191834 m 1.55817,0.253355 9.08378,1.009428 L 450.00271,7.1089672 439.89924,6.5628203 m -9.63375,-1.1920055 -9.00751,-1.8318296 m 5.52223,-15.0571392 -5.8657,-2.163635 -5.22457,-2.528086 -4.53039,-2.861552 -3.80386,-3.157506 -3.08512,-3.391094 -2.32355,-3.591486 -1.57145,-3.748384 -0.84435,-3.858595 -0.12113,-3.659726 m 0.18019,0.813396 1.55859,3.650543 3.47646,10.784171 m -1.13537,-1.596501 -3.89968,-12.838213 -0.8311,-3.751652 -0.10226,-3.822985 0.56752,-3.849224 1.25292,-3.840608 1.88297,-3.794259 2.45522,-3.718804 3.01197,-3.617189 3.54388,-3.486444 3.99234,-3.332804 4.42545,-3.153827 4.809,-2.964914 5.14859,-2.751727 5.44213,-2.519496 5.69181,-2.282336 5.91445,-2.03037 6.08756,-1.76682 6.20685,-1.494998 6.29927,-1.209479 6.34867,-0.9312 6.35058,-0.626138 6.30937,-0.324491 6.23449,-0.02943 6.11703,0.279623 5.94815,0.600152 5.7445,0.900816 5.48262,1.216146 5.19489,1.523056 4.8464,1.828024 4.4432,2.12634 4.01168,2.412481 3.52494,2.696773 2.9916,2.963118 2.41852,3.204218 1.78804,3.434492 1.15304,3.634622 0.43515,3.808208 0.64915,13.074627 m -0.39701,1.6335 -0.54359,-10.762875 m 0,0 -1.01557,4.047608 0.22511,9.891284 m 0.26066,-0.617235 -0.48577,-9.274049 -1.78108,4.11252 0.48265,8.625157 m 1.07102,-1.774752 -2.55313,4.230743 -3.32944,4.187847 -4.08482,4.114357 -4.79632,3.974475 -5.4821,3.778207 -6.12496,3.530399 -6.67408,3.244777 -7.16235,2.892446 -7.56613,2.502848 -7.8705,2.085631 -8.04383,1.6289479 -8.14365,1.142726 -8.10335,0.6464044 -7.9711,0.1436112 -7.73194,-0.3466992 -7.38484,-0.8357153 -6.96391,-1.3056147 -6.43064,-1.7533873 m 1.04498,0.28493 -2.0411,-7.617167 -5.81244,-2.085815 2.13363,7.69366 m -5.09066,-2.326323 -2.23122,-7.817184 1.66619,7.543773 m -3.83033,-2.307129 -2.33831,-8.012988 -3.77646,-3.05957 2.47736,8.342867 m -2.83385,-2.677308 -2.69507,-8.960408 -2.30405,-3.497455 m -1.61765,-0.804213 2.07359,6.790711 m 1.84811,-2.489043 3.05156,3.294849 m 3.77646,3.05957 4.50245,2.776344 5.18825,2.449847 m 5.81244,2.085815 6.40414,1.677211 1.16719,7.4355109 m 0.77894,0.1460372 -1.94616,-7.5815431 6.90676,1.260491 1.84964,7.5406753 m 6.35736,0.7194349 -0.861,-7.4734762 1.74924,7.5308925 m 7.57845,0.3098159 -1.64589,-7.5321054 -7.6818,-0.308603 -7.346,-0.786634 m 15.0278,1.095237 7.91802,-0.162679 2.50451,7.4574528 m -0.96677,0.077158 -1.53774,-7.5345838 8.06164,-0.653167 8.09407,-1.151876 1.31965,7.5743917 m -7.01588,0.9848688 -2.39785,-7.4073825 1.42758,7.5435208 m 6.66649,-8.6953988 8.00934,-1.602986 1.20711,7.578184 m -1.20711,-7.578184 7.81322,-2.054798 1.09945,7.599855 m -1.09945,-7.599855 7.53208,-2.466787 0.99142,7.630875 m 7.04313,-2.811612 -0.89744,-7.663451 -7.13711,2.844188 m 7.13711,-2.844188 6.64369,-3.177781 0.80716,7.701774 m 6.01035,-3.402293 -0.72511,-7.759177 -6.0924,3.459696 m 6.0924,-3.459696 5.46967,-3.703939 0.65242,7.834046 m 0.60968,-0.420197 -1.26204,-7.413856 -0.0198,8.297353 m 5.40014,-4.257383 -0.59015,-7.930454 -4.79011,3.890481 m 4.79011,-3.890481 4.07173,-4.01513 0.53959,8.066061 m 2.84405,-3.321908 -0.0703,-8.844334 -3.31334,4.100181 m 3.31334,-4.100181 0.50195,8.301398 m 3.62615,-5.580412 1.77694,-4.208001 1.00837,-4.149133 0.26954,-4.045804 -0.46067,-3.902058 0.30228,6.279513 m -1.65348,-4.985051 0.29144,-3.945252 m -0.0801,-0.700679 -0.0189,-0.381633 1.15881,3.733105 m -4.14786,9.454591 -2.57442,4.12942 m 17.53136,15.919919 1.94011,61.342311 -1.37833,1.735774 -3.10032,3.903103 -1.76953,1.895966 -3.58953,3.338825 -3.21004,-61.568606 -6.98423,5.013706 4.01485,61.539011 6.17942,-4.984111 m 0.43111,-0.401019 -0.89627,2.917513 -8.48582,11.726058 2.60913,5.760413 3.87606,5.718705 4.91262,5.335282 6.12281,-4.160846 1.02624,-1.352084 -30.91013,41.545731 1.9877,-2.6156 2.25673,21.56192 1.53924,-2.69215 1.2159,-2.77326 0.86907,-2.82032 0.5239,-2.83933 0.18083,-2.8313 -0.15959,-2.79753 -1.08886,-11.992075 m -0.087,0.117168 1.33546,14.672437 m -0.18083,2.8313 -1.56104,-16.956704 m -0.73007,0.982688 1.76721,18.813356 m -0.86907,2.82031 -1.95378,-20.21275 m -1.38029,1.8579 2.11817,21.12811 m -1.53924,2.69215 -1.87808,2.57971 -2.16828,2.43979 -2.46261,2.26082 -2.72486,2.07927 -2.96392,1.85346 -3.15028,1.61305 -3.32844,1.34091 -3.31177,-21.29189 3.51229,-1.37874 10.02219,-24.521136 2.86559,-1.373943 -8.94046,1.384646 0.83175,1.943421 -2.66429,1.066235 -5.62706,22.879557 13.38946,-25.846105 -5.09811,1.900313 m -0.83175,-1.943421 19.15186,-9.500014 1.34563,1.74157 6.11876,-4.33319 -24.10743,33.056327 17.98867,-28.723137 m -0.12129,0.07241 -6.8528,4.103505 -14.14486,26.440702 20.99766,-30.544207 m -1.22435,-1.814014 7.58072,-2.67418 -21.34469,31.019571 2.60304,-2.3 24.35853,-33.611781 3.32969,-3.559511 1.48054,-1.558198 -29.16876,38.72949 2.29328,-2.4776 26.95932,-36.340493 2.92457,-3.853158 m 1.10199,-1.451521 2.39332,-8.539393 -9.61812,14.15176 -1.69583,4.898624 m -0.10347,0.08967 -5.09186,4.435323 -8.00227,3.041388 14.89343,-12.465014 1.63386,1.339113 m -1.63386,-1.339113 -18.85954,6.133538 3.96611,6.331476 -5.62846,5.917519 m -0.13922,0.06711 -17.3315,28.025841 3.32586,-1.65227 3.13029,-1.89352 2.87905,-2.11932 26.85811,-35.822095 m -3.11332,-10.323585 -13.94693,11.46882 -3.18707,-6.458252 13.25793,-10.729273 -15.47655,4.520271 2.21862,6.209002 17.134,-5.010568 14.53074,-8.816477 1.81383,0.96577 -0.88252,1.966836 m -0.0593,0.100626 -3.2653,5.50614 m 4.20713,-7.573621 1.49102,-3.496102 m 0.0424,-0.09908 0.61356,-2.154088 -3.9607,4.783512 3.93793,-14.559729 1.91873,0.624824 -0.0843,-5.19399 m -0.0553,-0.499713 -0.64491,-4.82639 m -0.0127,-0.09772 -0.89402,-3.567529 -1.75198,-0.275872 1.52482,13.836364 1.77926,-5.068889 m -1.77926,5.068889 -5.54519,-3.162256 -3.83552,13.477754 5.44278,4.244232 m 3.9607,-4.783512 0.94975,-3.334779 m 0.0297,-0.103814 0.90083,-5.614269 m -7.44824,-3.885624 -4.34895,-4.067018 -6.57389,7.400304 2.81561,5.248061 4.27172,4.896405 -9.08796,13.06071 m -3.87607,-5.718706 12.96403,-7.342004 m -4.27172,-4.896405 -8.69231,12.238409 m -2.60913,-5.760411 -12.86742,10.280683 -16.3469,7.840257 18.56552,-1.631255 -16.86913,8.187392 2.23397,7.0184 -20.18403,5.101472 1.08363,7.512916 0.28306,2.090347 -5.71591,0.83256 8.51054,19.85536 -0.069,-21.01455 -2.72566,0.32665 m -0.28307,-2.090348 9.2973,0.464867 -6.13274,1.280101 3.71428,20.52685 3.74581,-0.80166 9.13028,-23.94557 -8.10458,2.449571 -1.0257,21.495999 3.65264,-1.11138 m 3.51229,-1.37874 3.12791,21.32972 m 3.15028,-1.61305 -2.95234,-21.36894 m 3.13029,-1.89351 2.78598,21.40899 m 2.72486,-2.07928 -2.63179,-21.44903 m 2.60305,-2.3 2.49134,21.48822 m 2.16829,-2.43979 -2.36636,-21.52603 m 10.94397,-4.18507 0.94037,2.94924 0.57538,3.04878 0.20642,3.1253 -0.18076,3.16383 -0.55671,3.17739 -0.9518,3.16257 -1.33292,3.10718 -1.71612,3.02155 0.86939,9.04984 1.67381,-3.00196 1.29919,-3.08896 -0.79338,-9.08765 m 2.43226,-0.37219 -0.17234,3.15112 -0.7514,-9.11893 m 0.71723,2.85313 -0.74289,-9.14226 m 0.20641,3.1253 0.74296,9.13164 -0.20658,-3.11467 m -1.27392,0.32426 0.76809,9.10422 -0.92651,3.14599 m 0.92651,-3.14599 0.54007,-3.16269 m -3.59284,0.32817 0.82707,9.06944 m -1.67381,3.00196 -2.02526,2.87903 -0.91977,-9.02919 -2.42576,2.73936 -2.74344,2.56192 1.04346,8.98604 -2.9743,2.30944 -1.11563,-8.96434 3.04647,-2.33114 m 2.74344,-2.56192 0.97806,9.00779 -2.67804,2.54017 m 2.67804,-2.54017 2.36747,-2.71796 m -0.91977,-9.02919 2.07564,-2.89969 m -10.29131,10.53211 -3.30639,2.09033 1.19348,8.94299 -3.46686,1.78917 -1.27651,-8.9225 -3.73117,1.5214 -3.88602,1.20206 1.45286,8.8852 3.7964,-1.18414 -1.36327,-8.90312 m -1.48109,-3.41092 -3.46295,1.0754 -3.55327,0.76841 -3.60788,0.4761 -3.61294,0.16568 -3.58007,-0.1417 -3.50974,-0.44495 -3.40264,-0.74314 -3.2597,-1.03533 -3.07859,-1.29976 -2.86118,-1.57061 -2.62079,-1.79341 -2.34088,-2.01486 -2.06842,-2.20468 -4.98037,-19.6608 m -1.44977,-0.95963 4.67408,18.24751 1.75606,2.37292 m -1.75606,-2.37292 -1.44165,-2.49682 -1.10181,-2.61489 -0.78231,-2.69863 -2.98835,-11.52277 m 0.10293,0.0682 3.6677,14.15326 m 1.1018,2.6149 -4.23703,-16.41568 m -1.22848,-0.21399 0.16053,-0.49293 m -0.16053,0.49293 -0.64047,3.0589 -0.27724,3.09751 0.0879,3.09947 0.46673,3.07652 0.83871,3.0194 1.21843,2.92746 1.57786,2.81713 2.35536,8.84269 -1.55755,-2.80825 -2.37567,-8.85157 m -1.21843,-2.92746 2.38755,8.86118 1.20655,2.91785 m 1.55755,2.80825 1.91763,2.64841 -2.32608,-8.83493 2.28422,2.48048 2.62541,2.26506 2.91642,2.03249 3.19859,1.7652 3.44239,1.4816 2.05618,8.81854 -3.37319,-1.48205 -3.13647,-1.76356 -2.86207,-2.029 -2.57887,-2.25995 -2.24653,-2.47388 m 2.24653,2.47388 -2.28839,-8.82833 m -2.28422,-2.48048 -1.94691,-2.65617 m 7.45976,2.60768 -5.14186,-20.60319 m 2.31759,1.53405 -40.83407,-27.029369 3.63353,2.389634 1.18873,-1.75081 -12.53266,-10.818427 2.72977,5.987181 -4.23309,-4.488994 1.50332,-1.498187 3.17309,6.376771 4.44574,3.725669 4.91383,0.715987 -8.63658,-16.42688 -3.89608,5.608453 -4.80516,-3.260149 -1.58312,-3.008305 -0.79699,-6.573714 4.24174,-4.600178 -0.84587,-5.924787 m 1.14668,0.745478 -0.30081,5.179309 2.94353,17.442346 -7.18527,-12.842168 m -0.20698,4.666177 1.00397,1.907537 m 1.63358,3.103429 3.19397,4.580604 m 14.09339,9.402848 3.12385,-6.499556 14.1008,14.19506 -17.22465,-7.695504 5.39621,5.4279 1.64822,0.850151 31.70326,21.905104 2.9921,1.56661 -34.57347,-23.40862 6.7299,2.618998 3.32843,-1.264639 -0.78649,1.981129 -2.4166,-0.667998 30.94285,22.03316 -23.59835,-19.911165 -4.9279,-1.453997 m 0.78649,-1.981129 20.65579,3.625949 -0.28975,2.184122 8.36293,0.25777 -8.07318,-2.441892 8.87295,2.411362 -0.6393,0.0356 13.29735,19.56954 -4.86644,-20.03875 -7.7916,0.43366 m -0.79978,0.0305 9.69148,19.45594 -3.68906,-0.42572 -22.68281,-20.1271 19.10995,19.39926 -3.41877,-1.02392 -3.22462,-1.29203 -27.84357,-20.789622 m -8.5,-3.532244 -4.60964,-2.37773 37.96112,25.132976 -2.73588,-1.7926 -35.33216,-23.410403 -1.86838,-1.229332 m 20.38974,-1.239069 19.19965,3.266798 -0.52021,7.542913 m -0.28976,2.184123 18.0544,19.7137 3.76634,0.11863 3.80389,-0.19247 3.80118,-0.50643 4.61118,-22.26455 -2.19273,0.457646 m -10.38091,-7.97778 -20.65337,0.924266 -18.0961,-10.345736 18.13916,2.995279 -0.0431,7.350457 m 0.0431,-7.350457 -17.98811,-9.547965 17.54848,2.820079 0.43965,6.727885 20.61031,6.426191 22.82051,1.982477 m -2.63648,-7.08395 21.78834,-2.416063 m -3.96611,-6.331478 -17.82223,8.747541 m -2.23398,-7.018401 20.05621,-1.72914 m -1.80157,12.316131 -4.44372,2.130753 m 8.98019,5.233445 0.4182,0.548469 1.60956,2.664871 1.27975,2.82053 m -26.09862,-23.985059 -1.69638,-6.556137 -18.44943,4.604118 1.07884,6.734494 1.1169,7.337401 m -1.1169,-7.337401 -19.49343,0.911214 m -0.43965,-6.727884 19.93306,5.816671 m -1.07884,-6.734493 -19.75656,-4.801884 18.76881,-0.942938 -20.09307,-3.411219 19.25969,-0.986486 18.86176,-4.66918 0.34905,4.497866 -19.21055,0.171294 -0.18135,-0.790664 m 2.39029,-0.430004 -10.63462,-60.9793379 10.59208,-2.1526984 10.31524,-2.77792202 8.20839,61.32931032 -9.13367,2.479154 m 3.60955,-0.979733 3.69582,-0.367265 0.092,-0.660873 m -0.092,0.660873 3.5986,-1.698849 m 1.17466,-0.376011 5.79285,-2.349641 -7.03946,-61.3903205 9.3364,-3.8671727 5.94124,61.4474692 -5.25695,2.431451 -2.98123,1.378573 m 6.06198,1.177083 12.83603,-10.128999 1.159,5.463066 -13.99503,4.665933 1.12761,5.614751 -17.4069,2.130554 1.06,5.709703 -19.43718,-1.140704 18.37718,-4.568999 16.27929,-7.745305 0.0783,-4.016772 m 2.09793,-0.970335 7.65943,-4.031104 6.8815,-4.871181 m -2.3316,1.650476 -1.5495,2.109917 -4.87626,2.098011 m 1.87586,-0.987223 -4.94808,-61.739745 -8.65259,4.3233798 m 8.65259,-4.3233798 7.86419,-4.705429 m 6.98423,-5.013706 6.04964,-5.250136 2.51945,61.583952 m 0.30608,-0.38533 0.4436,0.73631 -3.75827,12.648365 -11.30144,6.477997 m -1.159,-5.463066 0.0929,-1.078866 m -0.0929,1.078866 9.64482,-6.262992 -0.39906,-1.819457 m 3.21468,7.067518 8.10723,-8.581348 -0.94532,-9.647189 m 0.32534,-0.409686 3.58543,-5.494691 -1.49009,-61.328794 -4.03545,5.481174 -5.058,5.397237 m 9.09345,-10.878411 3.013,-5.493676 1.97519,-5.441407 0.99434,-5.319152 0.0182,-5.152271 0.8037,60.2379736 -0.002,5.6551045 -0.88296,5.3644819 -0.93102,-60.786137 m 0.99434,-5.319152 0.81964,60.7408071 m -0.88296,5.3644819 -1.12049,3.650524 -0.63363,2.06468 -1.77174,3.985176 -0.90326,1.77736 m 0.66136,0.148914 0.3936,4.728541 -3.33746,-1.379488 m 1.45185,-2.224957 1.88561,3.604445 m 1.2369,-1.21683 0.51509,1.492702 m -0.54446,-1.57772 -1.60109,-3.426696 -0.35312,-0.755417 m 2.36676,-5.156033 -1.15209,-61.059934 m 2.98769,-15.91283 -0.88593,-4.946906 -1.776,-4.690882 -2.5888,-4.402227 -3.35096,-4.085055 -4.04586,-3.753729 -4.67248,-3.39544 -5.24627,-3.027487 -5.75435,-2.651029 -6.2046,-2.266358 -6.60214,-1.88246 -6.92642,-1.494337 -7.21167,-1.104332 -7.44205,-0.720111 -7.62558,-0.330268 -7.73961,0.04056 -7.82239,0.418121 -7.86589,0.778843 -7.85383,1.146803 -7.79371,1.499042 -7.68872,1.846958 -7.55085,2.184809 -7.3488,2.509463 -7.10807,2.828046 -6.8198,3.132969 -6.47901,3.425258 -6.09783,3.705854 -5.65282,3.959936 -5.1545,4.201569 -4.60822,4.419937 -3.98834,4.612747 -3.33625,4.766759 -2.60873,4.894003 -1.85645,4.991597 -1.01526,5.036963 -0.14565,5.036212 0.77474,4.983348 m 1.71981,4.885302 2.68947,4.716373 m 3.67997,4.490145 19.7181,58.29617 m 5.35465,5.843398 0.47337,-0.401689 m -1.81548,6.908357 0.0989,1.404722 m 25.93248,4.358473 2.73344,0.824547 m 13.74145,5.534768 18.36424,8.459347 18.85419,-0.917816 m -18.85419,0.917816 -0.90238,-5.719698 -17.46186,-2.739649 m 2.89148,-2.647142 14.57038,5.386791 -1.32426,-4.354158 -2.42539,-0.373073 m 0.99113,-0.0133 1.43426,0.386377 -0.25355,-0.40225 m 2.69702,-0.03621 -9.22759,0.123916 m -4.47088,32.440577 4.75076,0.914078 m 6.7386,13.7241 5.16515,21.08401 m 2.62079,1.79339 -5.05006,-21.08481 m 2.99209,1.56662 4.91915,21.08881 m 3.07858,1.29975 -4.7731,-21.09654 m 3.41876,1.02394 4.61405,21.10794 m 3.40264,0.74314 -4.44383,-21.12324 m 3.68906,0.42571 4.26451,21.14248 m 3.58006,0.1417 -4.07823,-21.16555 m 3.80389,-0.19247 3.88729,21.19234 m 3.60788,-0.4761 -3.694,-21.22267 m 3.7458,-0.80165 3.50145,21.25591 m 1.05803,3.53759 -3.99247,0.87565 1.54409,8.86904 -3.95622,0.51531 -3.97221,0.17315 -1.72627,-8.84297 -4.01981,-0.16869 -3.94024,-0.50383 1.89982,8.82606 -3.73866,-0.85212 -3.57337,-1.1709 m -3.3732,-1.48206 -2.12537,-8.81809 m -3.1986,-1.76521 2.18751,8.81974 m -2.86207,-2.02899 -2.24185,-8.82322 m 9.55739,5.27928 3.64884,1.16829 1.98072,8.82116 m 3.73866,0.85212 3.85506,0.51115 -1.81464,-8.83338 m -3.94024,-0.50383 -3.81956,-0.84722 m 11.77961,1.51974 4.06289,-0.18509 1.63559,8.85491 m -3.97221,0.17315 -3.93144,-0.17828 m 6.26806,-8.84978 4.04772,-0.52944 m 1.54409,8.86904 3.90126,-0.8595 m 3.7964,-1.18415 3.64443,-1.502 m 3.46685,-1.78917 3.22854,-2.06899 m -4.42202,-6.87401 -3.54989,1.80966 m -9.04007,-79.936708 16.62809,-3.247418 m -11.85483,1.172557 -2.94496,0.942701 m 43.85453,-25.907554 0.81618,-2.322316 m -0.91972,1.157869 0.10358,1.164445 m -42.15666,-38.7750252 -9.90675,3.35335116 M 481.8417,4.6598909 471.12938,6.1596835 m -10.66936,0.8100369 -10.45706,0.1393382 m 5.50311,-47.8564626 -0.77663,-3.764556 m 0.67955,-0.283742 0.83217,4.058672 m 0.75716,-0.07173 -0.85853,-4.214633 m 1.13695,-0.1798 0.83385,4.134578 m 0.6975,-0.262078 -0.77922,-3.888729 m 0.70965,0.06493 0.69749,3.501593 m 0.52408,-0.379251 -0.58845,-2.969724 m 0.78617,0.364512 0.38932,1.976858 m 0.26782,-0.93803 -0.0654,-0.333631 m -6.87204,-0.03245 0.63298,3.043676 m -1.00694,-0.502045 -0.35588,-1.698291 m -0.18364,0.655643 0.10309,0.490514 m -4.33881,-4.954225 -0.50974,-2.362665 m -0.57116,-0.195129 0.64294,2.967752 m -0.52982,0.356005 -0.74876,-3.439779 m -0.70822,-0.0431 0.83042,3.794061 m -1.06118,0.359896 -0.89429,-4.049643 m -0.74841,0.167881 0.89494,4.028069 m -1.10246,0.06981 -0.83291,-3.716857 m -0.87259,0.513495 0.69737,3.088642 m -0.58445,-0.173885 -0.57089,-2.518059 m -0.45085,0.634704 0.33335,1.463757 m -0.39097,-0.564864 -0.0603,-0.263994 m -0.54834,-6.124995 -0.8567,-3.778184 m 0.72085,-0.185537 0.86504,3.836764 m 1.04638,-0.308354 -0.81966,-3.66626 m 0.70428,0.0039 0.74906,3.368371 m 0.55122,-0.334794 -0.65263,-2.948646 m 0.56354,0.160664 0.53367,2.421042 m 0.53377,-0.820922 -0.23775,-1.084534 m 0.17484,-5.102235 -0.78526,-3.617626 m 0.69764,-0.16836 0.79171,3.668043 m 0.68916,-0.192502 -0.76689,-3.57322 m 0.69865,-0.02112 0.71474,3.348515 m 0.57802,-0.302322 -0.63625,-2.995782 m 0.58246,0.128075 0.534,2.525264 m 0.52904,-0.569279 -0.34577,-1.643561 m 0.43287,0.443669 0.13357,0.636417 m -4.88747,2.3761 -0.72129,-3.296278 m -0.56024,0.314442 0.64168,2.918555 m -1.06346,-0.33907 -0.41078,-1.8543 m -0.31263,0.770571 0.10714,0.482024 m -2.36639,6.023441 0.77998,3.412426 m -0.64483,-0.071 -0.69197,-3.013257 m -0.46522,0.36815 0.57595,2.49783 m -0.69204,-0.352554 -0.35778,-1.544733 m -0.16298,0.605374 0.10639,0.458313 m 11.44778,5.250415 0.19561,0.911382 m 5.46729,-4.743243 -0.12008,-0.589558 m 0.20871,-0.622028 0.3419,1.683944 m 0.70355,0.374914 -0.53689,-2.65794 m 0.49652,-0.374445 0.64127,3.190056 m 1.02738,0.09299 -0.74597,-3.742843 m 0.68423,-0.234672 0.7792,3.933954 m 0.7422,-0.11521 -0.78389,-3.983719 m 0.74512,-0.08334 0.75834,3.879257 m 0.98436,-0.41434 -0.66752,-3.446395 m 0.63655,0.110592 0.57957,3.00851 m 0.46223,-0.388923 -0.46629,-2.432134 m 0.63259,0.41031 0.27125,1.422014 m 0.12993,-0.627423 -0.0507,-0.268415 m -2.19379,-5.676686 -0.6435,-3.347499 m 0.14301,0.01762 -0.0733,-0.381644 m 0.56319,0.461082 0.56117,2.934699 m 0.46332,-0.357871 -0.45903,-2.411814 m 0.80393,0.519723 0.21356,1.129022 m -2.21328,1.696691 -0.70014,-3.620208 m -0.71747,0.05977 0.73353,3.769314 m -0.71297,0.132461 -0.7383,-3.769716 m -1.02549,0.336616 0.69084,3.494926 m -0.97059,-0.105036 -0.58542,-2.93789 m -0.81853,0.737916 0.36413,1.812616 m -0.4764,-0.462756 -0.15242,-0.756791 m 0.29991,-7.279557 -0.66587,-3.352896 m -0.87627,0.420219 0.57171,2.85616 m -1.03069,-0.343781 -0.36669,-1.817721 m -0.30015,0.561011 0.17564,0.867721 m 3.53492,0.719799 -0.70171,-3.564678 m 0.69216,-0.11721 0.69265,3.539881 m 0.66906,-0.210278 -0.65821,-3.384111 m 0.66699,0.03002 0.59745,3.089261 m 0.52232,-0.298223 -0.51905,-2.696734 m 0.97212,0.38775 0.30227,1.582898 m 0.28625,-0.252146 -0.17044,-0.894916 m 7.10777,-2.343963 -0.0774,-0.432368 m 0.21614,-0.550193 0.26523,1.494055 m 0.63711,0.320578 -0.41359,-2.342298 m 0.75541,-0.469377 0.52812,3.01422 m 0.64044,0.04252 -0.57756,-3.315816 m 1.00567,-0.277261 0.60838,3.527851 m 0.6879,-0.132314 -0.60064,-3.50702 m 1.03062,-0.0254 0.54729,3.226863 m 0.57154,-0.278994 -0.48517,-2.877872 m 0.55868,0.138588 0.40794,2.432749 m 0.53123,-0.52865 -0.26406,-1.586616 m 0.40316,0.442979 0.10104,0.609108 m -0.94209,5.686312 0.51063,3.017009 m 0.49142,-0.319738 -0.42929,-2.549741 m 0.48831,0.214177 0.33109,1.973943 m 0.39364,-0.750155 -0.10646,-0.636159 m -2.32898,-1.025206 0.57634,3.383699 m -0.65585,0.22601 -0.61888,-3.60916 m -1.06991,0.136115 0.64135,3.701311 m -1.06174,0.06579 -0.60928,-3.480365 m -0.88621,0.425401 0.52232,2.956806 m -0.81535,-0.26168 -0.38887,-2.185243 m -0.4829,0.75896 0.15699,0.876709 m 2.20732,5.159385 0.61168,3.459655 m -0.64186,-0.101822 -0.54134,-3.043862 m -0.67382,0.549474 0.39447,2.201674 m -0.7903,-0.783107 -0.0749,-0.417117 m 2.71571,-2.229262 0.67123,3.8352 m 1.0958,-0.158986 -0.6732,-3.888411 m 0.73722,-0.0547 0.64426,3.748471 m 0.6472,-0.26693 -0.58816,-3.445145 m 0.63719,0.105397 0.51545,3.037296 m 0.8403,-0.756385 -0.31197,-1.856293 m 0.46348,0.473299 0.12985,0.77352 m -1.29801,6.170075 0.6084,3.550364 m -0.64786,0.28277 -0.66956,-3.880397 m -0.74743,0.0305 0.70605,4.061863 m -0.73858,0.146794 -0.71612,-4.088828 m -1.08136,0.307556 0.68141,3.848581 m -0.69195,-0.05379 -0.62428,-3.502776 m -0.81037,0.533213 0.49061,2.729395 m -0.49564,-0.242364 -0.37701,-2.088069 m -0.32137,0.628099 0.17853,0.985168 m 2.1474,5.819678 0.66241,3.692472 m -0.66139,-0.140331 -0.57588,-3.190876 m -0.45961,0.399218 0.46445,2.560455 m -0.64306,-0.44643 -0.26642,-1.460862 m -0.11949,0.444489 0.10296,0.5631 m 3.24475,1.325321 -0.74061,-4.172126 m 0.75208,-0.198092 0.75849,4.30582 m 1.12613,-0.253129 -0.73075,-4.1963 m 0.75404,0.0087 0.6791,3.929055 m 0.62491,-0.324664 -0.60214,-3.507501 m 0.61992,0.17908 0.5044,2.955672 m 0.41285,-0.4159 -0.38797,-2.284436 m 0.41266,0.313167 0.2579,1.523768 m 0.1403,-0.620182 -0.0546,-0.323721 m -1.74819,-6.698924 -0.47733,-2.81031 m 0.91601,0.536426 0.24409,1.451357 m 0.14114,-0.588526 -0.0529,-0.31317 m 5.38464,-4.045483 -0.20917,-1.323784 m 0.43785,-0.598921 0.37236,2.373424 m 0.54014,0.205025 -0.46025,-2.949476 m 0.86064,-0.467616 0.55739,3.608649 m 0.71586,0.02478 -0.59448,-3.878453 m 1.09353,-0.238122 0.60729,4.012113 m 0.72052,-0.163509 -0.58682,-3.909239 m 1.06804,0.05687 0.51655,3.482119 m 0.56417,-0.316447 -0.44613,-3.02841 m 0.56184,0.202059 0.3592,2.453246 m 0.55306,-0.789562 -0.15436,-1.062197 m -2.52323,-5.371008 -0.48191,-3.252236 m 0.6145,0.139375 0.4127,2.803556 m 0.42735,-0.346659 -0.3293,-2.249453 m 0.7126,0.581378 0.13107,0.901776 m -2.11511,1.692898 -0.53515,-3.584013 m -0.71583,0.01096 0.56813,3.775005 m -0.71758,0.136091 -0.58086,-3.828394 m -0.71665,0.159495 0.57108,3.733861 m -0.69136,-0.01521 -0.53843,-3.493897 m -0.87731,0.43792 0.4516,2.901319 m -0.77953,-0.31986 -0.32099,-2.046407 m -0.42992,0.972941 0.0447,0.281086 m 2.31035,-8.32499 -0.43387,-2.856433 m -0.47211,0.321369 0.36345,2.37916 m -0.65295,-0.365371 -0.22868,-1.487396 m -0.21275,0.553686 0.0771,0.498661 m 2.19727,1.056833 -0.48784,-3.233285 m 0.97078,-0.314666 0.5301,3.55232 m 0.69868,-0.08219 -0.53264,-3.597825 m 1.0474,-0.06204 0.49897,3.410058 m 0.90036,-0.370685 -0.42629,-2.944357 m 0.57,0.149829 0.35644,2.477419 m 0.54167,-0.508742 -0.23331,-1.632977 m 0.41877,0.451135 0.0847,0.595042 m 4.44113,3.615071 0.21559,1.58686 m -0.37907,-0.473489 -0.074,-0.542849 m 1.00419,-1.277119 0.37163,2.765307 m 0.93246,0.179942 -0.44823,-3.372817 m 0.64651,-0.220042 0.47826,3.628702 m 0.71697,-0.04449 -0.48862,-3.741077 m 1.08392,-0.104813 0.47072,3.654484 m 0.97227,-0.343029 -0.41246,-3.244336 m 0.6164,0.133492 0.35593,2.821686 m 0.7948,-0.69122 -0.20813,-1.669691 m 0.40223,0.477389 0.0771,0.620891 m 1.36117,5.179481 0.48306,3.92946 m -0.72899,0.03997 -0.47419,-3.818936 m -0.68674,0.211681 0.44812,3.57522 m -0.64784,-0.104602 -0.40357,-3.192653 m -0.52544,0.32779 0.34103,2.677991 m -0.6918,-0.382133 -0.22357,-1.741355 m -0.26366,0.591479 0.0818,0.633662 m 4.50249,1.058995 -0.47205,-3.878953 m 1.0733,0.02912 0.42573,3.550258 m 0.60318,-0.284352 -0.37466,-3.152107 m 0.58176,0.187992 0.31035,2.631701 m 0.39708,-0.359055 -0.23681,-2.020799 m 0.49131,0.477725 0.10958,0.941135 m -3.42075,6.836506 0.32716,2.647703 m -0.50919,0.358281 -0.40001,-3.212561 m -0.65338,-0.140586 0.45839,3.650242 m -0.67658,0.246482 -0.50127,-3.953868 m -0.75203,0.01983 0.52664,4.112858 m -0.74963,0.101386 -0.53185,-4.111928 m -0.72437,0.178665 0.51628,3.953009 m -0.71733,-0.0554 -0.48091,-3.648539 m -0.60248,0.301664 0.42607,3.206606 m -0.56489,-0.199178 -0.35416,-2.647254 m -0.38516,0.389363 0.26581,1.975473 m -0.46903,-0.507271 -0.1144,-0.846473 m -3.7044,5.841891 0.40863,2.860136 m -0.53633,0.371109 -0.49361,-3.430067 m -0.67786,-0.11819 0.55923,3.856143 m -0.69477,0.257375 -0.60812,-4.157346 m -0.77429,0.05469 0.63206,4.282201 m -0.75364,0.09531 -0.6329,-4.24931 m -0.74778,0.208092 0.61027,4.061622 m -0.71937,-0.06523 -0.5637,-3.720985 m -0.58518,0.336751 0.49399,3.23797 m -0.8238,-0.370375 -0.35026,-2.276226 m -0.42413,0.864911 0.11263,0.730289 m 7.52768,-0.583005 -0.25702,-1.812447 m 0.4174,0.554428 0.083,0.58765 m 10.11816,-7.390477 -0.15065,-1.231354"
       style="fill:none;stroke:#000000;stroke-width:0.865;stroke-miterlimit:4;stroke-dasharray:none"
       id="path917" />
    <path
       d="m 661.59615,101.38641 -31.66226,53.01321 -2.66682,-1.35478 -5.87545,-2.98347 -2.78179,-1.56716 -5.31994,-3.55102 29.56173,-54.320647 -8.73781,-6.175943 -28.48203,54.87431 7.65811,5.62228 m 2.67137,1.78312 2.95017,2.86782 -2.16071,3.91991 -2.90036,5.05634 14.27969,14.34413 -17.74058,-8.46709 14.98883,15.29911 -2.48336,7.13907 -20.27469,-9.59243 -17.75902,-13.45034 -7.39302,-4.33151 5.67614,5.72794 -1.12227,24.12073 -2.28926,-2.83802 -7.39327,-33.2291 1.95359,2.36851 -3.03784,-7.77738 6.10152,-4.27597 -7.91997,-15.64953 -2.73508,-15.14526 2.27193,-13.478116 4.19643,-1.678721 m 0.0505,0.161364 0.82989,2.136195 23.33598,-57.302818 -2.88492,-6.840717 -1.89436,-6.556842 -22.25291,57.331806 1.40779,6.571467 22.73948,-57.346431 m -1.89436,-6.556842 -0.91751,-6.211091 0.0261,-5.805424 -21.59933,57.140521 0.71261,-3.544339 0.39672,-1.972695 21.42355,-56.971935 1.78842,-4.8606045 -21.34041,56.7614695 -0.67533,1.827011 -1.19623,3.244059 m -1.10933,5.517034 -0.3877,6.153727 0.62097,6.009973 m -0.0262,-0.253575 -1.8784,1.758055 1.68551,0.401105 -5.18123,4.158468 2.26074,-3.160483 m 0.067,-0.07596 1.16795,-1.32312 m 1.68551,0.401105 -7.35743,11.729534 -1.21835,-1.822403 2.51509,-4.51916 -1.29674,6.341563 -1.91322,-0.14826 0.648,-1.589516 m -0.648,1.589516 -1.18595,3.51105 3.09917,-3.36279 8.77435,-8.021065 m 0.21454,1.001512 1.45853,4.66091 m 0.37141,0.956071 -6.89026,14.039392 5.67962,-2.92776 1.59103,-10.132458 m 0.0781,0.20095 2.23736,4.609898 1.01634,2.09301 23.94669,-56.976748 -3.86441,-7.028978 m 3.86441,7.028978 4.84143,7.137808 -24.75702,56.81953 -4.0311,-6.98059 m -0.50293,-0.62079 -4.41989,3.84939 2.886,-7.42422 m 1.58133,3.25761 -0.0474,0.31722 -1.69102,18.10792 -2.72887,-14.25853 -2.94454,18.07302 5.67341,-3.81449 4.45227,-4.39566 -2.76125,-13.71226 m 2.82678,4.645 -0.0655,9.06726 2.82446,-4.52912 m 0.25542,0.38415 4.36931,18.30011 -7.44919,-14.15514 3.15643,19.10819 -5.36214,4.75149 -2.24656,-19.46402 7.6087,14.71253 4.29276,-4.95305 2.9656,-4.86539 -6.69597,-12.55388 m -0.36523,-0.4692 3.38065,4.34312 2.05513,2.34961 3.7061,4.23793 26.47155,-55.916606 -6.66378,-7.058617 -25.569,56.387683 m 1.2642,1.44533 2.41635,7.23463 1.04147,-3.28075 m 1.03921,1.18833 6.35635,6.5674 27.55258,-55.623698 -7.43738,-6.860308 m -6.66378,-7.058617 -5.77342,-7.152506 m 13.85196,-8.083027 -3.14094,-5.405747 -2.41464,-5.277965 -1.66718,-5.092487 -0.91871,-4.857489 -0.21599,-4.57939 0.49857,-4.248417 1.17812,-3.889973 1.80865,-3.51148 2.23919,-2.8972866 m -0.37957,0.741621 -1.12567,3.8063836 -4.19444,10.525719 m 0.14265,-1.953848 5.17746,-12.3782546 1.7507,-3.4206218 2.35778,-3.0110676 2.89063,-2.60439502 3.41328,-2.16092228 3.86926,-1.7236327 4.26211,-1.300773 4.62636,-0.8676279 4.9529,-0.4278659 5.20056,-0.023646 5.42023,0.3903169 5.59538,0.7803385 5.72119,1.1610587 5.79935,1.5270894 5.84062,1.8689851 5.85157,2.2050272 5.81699,2.5184518 5.73567,2.8039418 5.62492,3.0828594 5.48561,3.328776 5.29267,3.565074 5.06864,3.771238 4.82288,3.950879 4.53541,4.114172 4.20097,4.253523 3.85242,4.355407 3.44965,4.431491 3.03232,4.484595 2.56941,4.497488 2.06859,4.470384 1.55369,4.415841 0.99743,4.324682 0.4167,4.190004 -0.17856,4.010533 -0.81117,3.786136 -1.42803,3.535631 -2.09185,3.21185 -7.83291,10.488696 m -1.34704,1.005697 6.44086,-8.640042 m 0,0 -3.36233,2.471701 -6.13076,7.765429 m 0.59426,-0.309489 5.5365,-7.45594 -3.99357,2.033824 -5.12534,6.953937 m 1.95644,-0.684964 -4.66385,1.632853 -5.23471,1.105016 -5.76994,0.566941 -6.22905,0.006 -6.63241,-0.582642 -6.96983,-1.183322 -7.21093,-1.753396 -7.36262,-2.336093 -7.42545,-2.893655 -7.39408,-3.409148 -7.23657,-3.871522 -7.00359,-4.309813 -6.65621,-4.666582 -6.23385,-4.969732 -5.73705,-5.195119 -5.15793,-5.350724 -4.53406,-5.444531 -3.83775,-5.449686 m 0.62363,0.885577 3.28199,-7.170486 -3.1495,-5.311834 -3.25946,7.288394 m -2.44003,-5.037139 3.26297,-7.445784 -3.52411,6.874981 m -1.4811,-4.219082 3.30526,-7.664917 -0.96002,-4.764554 -3.40836,8.007733 m -0.4773,-3.869221 3.63418,-8.622353 0.45367,-4.163537 m -0.73395,-1.650718 -2.73022,6.554349 m 3.0105,-0.740094 0.25148,4.483841 m 0.96002,4.764554 1.69995,5.009018 2.43652,5.194529 m 3.1495,5.311834 3.86589,5.374105 -3.83963,6.473515 m 0.50716,0.608995 3.33244,-7.082525 4.5188,5.373338 -3.38078,6.989511 m 4.44027,4.606248 4.09977,-6.307616 -3.45191,6.917981 m 5.64229,5.06887 3.53232,-6.853048 -5.7227,-5.133803 -5.15926,-5.288143 m 10.88196,10.421946 6.2051,4.921209 -2.82311,7.342765 m -0.79414,-0.556707 3.61723,-6.786032 6.62838,4.634783 6.97122,4.271161 -3.81066,6.677707 m -6.03396,-3.71267 2.87339,-7.236203 -3.70782,6.722705 m 10.67904,-2.451544 7.19345,3.86955 -3.8998,6.608896 m 3.8998,-6.608896 7.33029,3.396397 -3.99657,6.556978 m 3.99657,-6.556978 7.37623,2.899741 -4.09959,6.512033 m 7.21923,2.322393 4.19277,-6.477231 -7.31241,-2.357195 m 7.31241,2.357195 7.14481,1.785652 -4.28675,6.449229 m 6.79986,1.208987 4.38657,-6.441168 -6.89968,-1.217048 m 6.89968,1.217048 6.57549,0.631949 -4.49032,6.452514 m 0.73761,0.0648 3.75274,-6.517279 -5.30361,6.381081 m 6.87465,0.161158 4.5997,-6.487153 -6.17074,-0.05509 m 6.17074,0.05509 5.69662,-0.498825 -4.72513,6.559397 m 4.30877,-0.747114 5.58279,-6.860006 -5.16643,1.047723 m 5.16643,-1.047723 -4.90413,6.716746 m 6.3509,-1.988984 4.05124,-2.110035 3.42148,-2.554524 2.7863,-2.945794 2.132,-3.300432 -3.76932,5.031489 m 1.90309,-4.895202 2.7391,-2.854351 m 0.38486,-0.590975 0.22859,-0.306179 -1.48634,3.615203 m -9.22213,4.641811 -4.61567,1.541212 m 3.3626,23.441086 -37.60162,48.50528 -2.1684,0.45906 -4.87668,1.03163 -2.57194,0.33317 -4.894,0.28501 36.76728,-49.48904 -8.57736,-0.58798 -36.12825,49.97918 7.93833,0.0978 m 0.58779,-0.0342 -2.55012,1.67692 -14.01257,3.62733 -1.66089,6.10175 -0.65803,6.8771 0.38508,7.24229 7.37,0.69615 1.65254,-0.3878 -50.29776,12.3134 3.19872,-0.74865 -12.00354,18.05337 2.90194,-1.09346 2.70448,-1.36205 2.46722,-1.61935 2.21335,-1.85401 1.94389,-2.06646 1.66005,-2.25741 6.80412,-9.93475 m -0.14175,0.0348 -8.32242,12.15735 m -1.94389,2.06646 9.6045,-14.06131 m -1.1889,0.29192 -10.62895,15.6234 m -2.46722,1.61935 11.37711,-16.82064 m -2.24776,0.55192 -11.83383,17.63077 m -2.90194,1.09346 -3.09138,0.79085 -3.22582,0.49808 -3.33855,0.17259 -3.42494,-0.13447 -3.46523,-0.46084 -3.4556,-0.76486 -3.41943,-1.08811 11.01846,-18.51772 3.58521,1.17614 23.35143,-12.50767 3.08383,0.76766 -7.77179,-4.63124 -0.59772,2.02767 -2.7326,-0.87648 -18.91838,14.04396 26.79062,-11.38253 -5.13964,-1.78495 m 0.59772,-2.02767 20.81276,4.88601 -0.0731,2.19965 7.47671,0.56076 -39.64504,10.10742 32.16833,-10.66818 m -0.13961,-0.0215 -7.89597,-1.2056 -27.75167,11.35925 35.64764,-10.15365 m 0.21271,-2.17817 7.54588,2.77092 -36.218,10.29878 3.47174,-0.11325 40.19254,-10.3754 4.83444,-0.62068 2.13398,-0.25708 -47.16096,11.25316 3.34623,-0.44756 43.9358,-10.82044 4.70942,-1.10516 m 1.77429,-0.41615 7.28682,-5.05484 -16.43111,4.77484 -4.42891,2.69391 m -0.13688,0.003 -6.75051,0.17244 -8.10477,-2.75665 19.42108,-0.11286 0.40552,2.07323 m -0.40552,-2.07323 -18.44188,-7.29381 -0.9792,7.40667 -8.10868,0.97257 m -0.15006,-0.037 -31.21749,10.54971 3.6159,0.84654 3.61894,0.53601 3.56928,0.20187 43.5274,-10.48549 m 4.18072,-9.93935 -18.0568,-0.0515 1.66031,-7.00784 17.05452,0.18227 -14.80682,-6.3808 -2.2477,6.19853 16.39649,7.05937 16.81619,2.46745 0.78215,1.90024 -1.93361,0.95311 m -0.10984,0.0397 -6.0255,2.16174 m 8.06897,-3.15461 3.37718,-1.7437 m 0.0958,-0.0494 1.8457,-1.26882 -6.10079,1.16168 12.31413,-8.70949 1.08029,1.70438 3.24545,-4.05607 m 0.27595,-0.42027 2.57915,-4.13012 m 0.0524,-0.0835 1.58486,-3.31885 -1.17421,-1.32921 -7.64364,11.63378 4.60172,-2.77194 m -4.60172,2.77194 -2.25751,-5.97099 -11.54561,7.94103 1.48899,6.73945 m 6.10079,-1.16169 2.85728,-1.96436 m 0.0891,-0.0611 4.27242,-3.75205 m -3.2629,-7.74131 -0.75907,-5.90575 -9.78226,1.5126 -1.17522,5.83855 0.17094,6.49563 -15.3272,4.272 m 0.65803,-6.8771 14.66917,2.6051 m -0.17094,-6.49563 -14.49823,3.89053 m 1.66088,-6.10175 -16.4677,-0.27905 -17.59348,-4.37723 15.34578,10.57576 -18.21715,-4.44258 -2.75175,6.83201 -18.80471,-8.93326 -3.95335,6.4799 -1.11417,1.79118 -4.93516,-3.00149 -6.09685,20.7242 13.34051,-16.2372 -2.30851,-1.4855 m 1.11417,-1.79117 6.86796,6.28386 -5.5416,-2.9223 -10.22069,18.18474 3.39735,1.76966 22.29731,-12.63261 -7.80641,-3.2779 -14.4909,15.91051 3.52298,1.47162 m 3.58521,1.17614 -11.18425,18.42969 m 3.45561,0.76486 11.34453,-18.348 m 3.61895,0.536 -11.49826,18.27283 m 3.42494,0.13447 11.6426,-18.20542 m 3.47174,-0.11326 -11.77578,18.1461 m 3.22581,-0.49808 11.89621,-18.09558 m 11.10049,3.75025 -1.15508,2.87197 -1.49978,2.71602 -1.83288,2.53981 -2.15577,2.32274 -2.45409,2.09361 -2.74911,1.83035 -3.00747,1.54477 -3.24819,1.23456 -5.098,7.52767 3.2031,-1.24642 2.96988,-1.55224 5.18068,-7.50834 m 2.11146,1.26341 -2.14118,2.31832 5.23294,-7.50572 m -1.26578,2.65567 5.25443,-7.51823 m -1.83288,2.53981 -5.24753,7.51015 1.82598,-2.53173 m -1.18831,-0.56207 -5.21075,7.50499 -2.71904,1.83371 m 2.71904,-1.83371 2.4319,-2.09287 m -2.97773,-2.03699 -5.14309,7.5158 m -3.2031,1.24643 -3.39557,0.92769 5.04602,-7.54386 -3.61516,0.56482 -3.74687,0.2256 -4.92321,7.58946 -3.76383,-0.11609 4.85376,-7.61872 3.83328,0.14535 m 3.74687,-0.2256 -4.98746,7.56453 -3.68262,0.25053 m 3.68262,-0.25053 3.5566,-0.58549 m 5.04602,-7.54386 3.44755,-0.9115 m -14.64286,1.55657 -3.88009,-0.49659 -4.78017,7.6519 -3.81179,-0.83091 4.70312,-7.68904 -3.84481,-1.20572 -3.7606,-1.55048 -4.54346,7.77268 3.68012,1.50717 4.62392,-7.72938 m 1.03267,-3.57235 -3.35387,-1.37844 -3.2278,-1.67256 -3.08357,-1.93262 -2.88964,-2.17504 -2.66839,-2.39095 -2.42092,-2.57982 -2.14835,-2.74132 -1.85196,-2.87538 -1.54388,-2.96369 -1.20371,-3.03385 -0.87649,-3.05231 -0.51964,-3.04457 -0.18871,-3.01718 8.6931,-18.32432 m -0.50552,-1.66349 -8.02836,17.04008 -0.15922,2.94773 m 0.15922,-2.94773 0.48044,-2.84282 0.81759,-2.7172 1.11715,-2.57811 5.04131,-10.78376 m 0.0359,0.11815 -6.19437,13.24373 m -0.81759,2.7172 7.19762,-15.34996 m -0.81026,-0.94787 0.43788,-0.27752 m -0.43788,0.27752 -2.44311,1.9489 -2.18784,2.21016 -1.90772,2.44439 -1.60119,2.66815 -1.27812,2.86122 -0.92694,3.0324 -0.57964,3.17645 -3.82093,8.31513 0.58964,-3.15667 3.81093,-8.33491 m 0.92694,-3.0324 -3.8079,8.3499 -0.92997,3.01741 m -0.58964,3.15667 -0.21029,3.26301 3.83854,-8.2905 0.17921,3.36724 0.57943,3.41871 0.95191,3.42496 1.3397,3.39884 1.7083,3.3357 -4.03606,8.10584 -1.65471,-3.29194 -1.29286,-3.35798 -0.91226,-3.38763 -0.54682,-3.38512 -0.15438,-3.33812 m 0.15438,3.33812 3.86337,-8.26138 m -0.17921,-3.36724 0.19268,-3.28764 m 4.08627,6.7639 9.1693,-19.15344 m 0.80815,2.65923 -14.23843,-46.85378 1.27687,4.15723 2.03188,-0.59149 -2.76219,-16.3241 -1.71245,6.35338 -0.40084,-6.15706 2.11329,-0.19632 -1.61915,6.93614 1.05121,5.7044 3.33013,3.68356 3.81458,-18.16266 -6.57677,1.83856 -1.62486,-5.57476 0.69743,-3.32713 3.57563,-5.57349 6.20051,-0.841286 3.12436,-5.104599 m 0.40847,1.305283 -3.53283,3.799316 -8.84871,15.316666 2.6482,-14.47538 m -3.13349,3.46372 -0.44214,2.10977 m -0.71918,3.43259 -0.45826,5.56537 m 4.86706,16.22803 6.54966,-3.01739 1.81846,19.9255 -8.36812,-16.90811 0.69869,7.62188 0.72823,1.70559 10.46844,37.08561 1.30713,3.11421 -11.72186,-40.07351 3.51666,6.30743 3.37083,1.1469 -1.86873,1.02533 -1.43642,-2.05496 9.80086,36.69962 -5.49384,-30.38344 -2.8706,-4.26122 m 1.86873,-1.02533 13.60579,15.95906 -1.61534,1.49835 6.27996,5.52875 -4.66462,-7.0271 5.30036,7.51332 -0.51529,-0.38005 -2.2261,23.55484 9.02179,-18.54297 -6.28041,-4.6318 m -0.63576,-0.48619 -4.93228,21.1691 -2.57136,-2.67927 -4.65072,-29.96635 2.36146,27.12833 -1.9818,-2.96797 -1.66133,-3.05083 -8.20521,-33.76606 m -4.2986,-8.13934 -2.03661,-4.77018 13.23328,43.56138 -0.96568,-3.12504 -12.30536,-40.55845 -0.6562,-2.1381 m 16.50151,12.04065 12.71263,14.75423 -5.20835,5.4808 m -1.61534,1.49835 1.34768,26.69785 2.82664,2.4919 3.05384,2.2761 3.25186,2.03244 17.7436,-14.21752 -1.98134,-1.04488 m -2.9146,-12.76376 -16.50401,-12.45124 -7.35049,-19.50572 12.0685,13.8691 -4.71801,5.63662 m 4.71801,-5.63662 -7.77575,-18.82216 11.725,13.35763 -3.94925,5.46453 11.786,18.08786 16.32134,16.07233 m 2.48336,-7.13906 18.3294,12.02508 m 0.97919,-7.40668 -19.30859,-4.6184 m 2.75175,-6.83202 16.55684,11.45042 m -9.23794,8.34225 -4.78225,-1.19031 m 3.58434,9.7563 -0.0273,0.68916 -0.45818,3.07935 -0.81151,2.98907 m -4.82399,-35.11624 2.87138,-6.13318 -17.15107,-8.21096 -3.46092,5.87702 -3.81586,6.36586 m 3.81586,-6.36586 -15.60187,-11.72201 m 3.94925,-5.46453 11.65262,17.18654 m 3.46092,-5.87702 -12.1634,-16.29208 15.06373,11.23573 -13.30903,-15.43494 15.46973,11.51503 17.51028,8.42363 -2.59796,3.68825 -14.91232,-12.11188 0.36419,-0.72485 m 2.11596,1.19211 30.67053,-53.767034 9.534,5.092064 9.71915,4.43384 -32.76316,52.49036 -8.61826,-3.91099 m 3.40585,1.54559 3.08198,2.07254 0.49211,-0.45061 m -0.49211,0.45061 3.85575,0.98449 m 1.14482,0.45892 5.96136,1.88151 33.7028,-51.79234 9.65912,2.97062 -34.58548,51.13644 -5.60055,-1.47691 -3.17589,-0.83781 m 3.92098,4.77065 16.34683,0.37592 -2.5888,4.94838 -13.75803,-5.3243 -2.70967,5.04525 -14.7712,-9.45256 -2.82228,5.07533 -14.25074,-13.26731 17.07302,8.19198 17.48087,4.40731 2.6204,-3.04534 m 2.23506,0.58941 8.47138,1.77549 8.40735,0.63233 m -2.8486,-0.21424 -2.53876,0.63827 -5.09469,-1.49122 m 2.0747,0.43486 35.53707,-50.72867 -9.42297,-2.18326 m 9.42297,2.18326 9.05894,1.38638 m 8.57736,0.58799 8.00787,-0.18987 -37.30921,49.06072 m 0.48145,-0.10184 -0.12746,0.8501 -10.95748,7.35115 -12.83735,-2.21122 m 2.5888,-4.94838 0.7592,-0.77213 m -0.7592,0.77213 11.42377,1.32105 0.85213,-1.65636 m -2.02735,7.49491 11.71655,-1.4454 5.42022,-8.03636 m 0.51181,-0.10834 6.26488,-1.94888 37.93979,-48.20803 -6.60306,1.65164 -7.33749,0.93524 m 13.94055,-2.58688 5.82313,-2.31294 4.99012,-2.93412 4.15638,-3.46504 3.29781,-3.95863 -37.77346,46.93 -3.606,4.35626 -4.09945,3.57096 38.02472,-47.43355 m 4.15638,-3.46504 -38.08165,47.32763 m -4.09945,3.57096 -3.19008,2.09886 -1.80419,1.18714 -3.90521,1.94165 -1.82884,0.79389 m 0.41472,0.53627 -2.71048,3.89452 -1.69253,-3.19013 m 2.53683,-0.78915 -0.8443,3.97928 m 1.72867,-0.14932 -0.55446,1.47853 m 0.58601,-1.56276 0.95026,-3.66097 0.20936,-0.80717 m 5.10997,-2.46464 38.02887,-47.78543 m 12.44431,-10.35779 2.47024,-4.376603 1.6212,-4.746607 0.81091,-5.04221 0.0215,-5.283572 -0.72519,-5.471158 -1.4364,-5.594449 -2.11306,-5.676616 -2.74451,-5.710357 -3.33663,-5.700907 -3.88764,-5.658458 -4.3849,-5.566062 -4.85328,-5.447341 -5.27567,-5.298099 -5.66557,-5.114664 -5.98979,-4.901605 -6.29421,-4.663419 -6.55764,-4.41318 -6.78287,-4.1219521 -6.96104,-3.8122151 -7.10188,-3.4772051 -7.21098,-3.1289924 -7.26219,-2.7500379 -7.27975,-2.3511278 -7.25196,-1.9324235 -7.17564,-1.4899991 -7.06076,-1.030829 -6.87978,-0.551414 -6.6498,-0.04761 -6.36802,0.468827 -6.01325,1.012484 -5.60893,1.5467733 -5.12941,2.1085116 -4.61193,2.6631787 -3.99266,3.2342677 -3.32207,3.7879371 -2.57915,4.3338196 m -1.78841,4.860604 -0.93356,5.348448 m -0.0261,5.805425 -21.96092,57.488824 m 0.40185,7.915558 0.62078,-0.0078 m -5.80201,4.166298 -0.81907,1.145496 m 17.20499,19.886631 1.58079,2.37754 m 7.0612,13.02308 8.75941,18.22302 15.1135,11.3095 m -15.1135,-11.3095 2.95011,-4.98258 -11.70952,-13.24044 m 3.91526,-0.19693 7.79426,13.43737 1.7547,-4.19921 -1.63117,-1.83331 m 0.77222,0.62145 0.85895,1.21186 0.061,-0.47157 m 2.10133,1.69105 -7.18952,-5.78573 m -24.12119,22.14832 3.07822,3.73226 m -3.55449,14.87028 -9.4578,19.53879 m 0.87649,3.05231 9.54699,-19.46606 m 1.30713,3.11422 -9.65041,19.38569 m 1.54387,2.96369 9.76788,-19.29856 m 1.9818,2.96796 -9.89771,19.20598 m 2.14834,2.74132 10.03863,-19.10927 m 2.57136,2.67927 -10.18906,19.00982 m 2.66838,2.39095 10.34732,-18.90888 m 3.05384,2.27611 -10.51152,18.80781 m 3.08357,1.93262 10.67981,-18.70799 m 3.39735,1.76966 -10.84937,18.61089 m -1.4394,3.4003 -3.63458,-1.86986 -4.46286,7.81838 -3.377,-2.12441 -3.17123,-2.39827 4.30586,-7.9144 -2.99005,-2.69202 -2.71512,-2.89956 -4.16136,8.01197 -2.3378,-3.03946 -2.00727,-3.17975 m -1.65471,-3.29195 3.98247,-8.14959 m -1.33969,-3.39885 -3.93564,8.19046 m -0.91226,-3.38763 3.89599,-8.22779 m 3.99991,10.1595 2.06708,3.22584 -4.09588,8.05976 m 2.3378,3.03946 2.64484,2.85092 4.23164,-7.96333 m -2.71512,-2.89956 -2.40328,-3.08725 m 8.10845,8.67883 3.24872,2.44685 -4.38335,7.86582 m -3.17123,-2.39827 -2.91583,-2.64309 m 10.47041,-2.82446 3.45651,2.17185 m -4.46286,7.81838 3.554,1.82417 m 3.68012,1.50717 3.76561,1.16538 m 3.81179,0.83091 3.8065,0.46341 m 0.97367,-8.11531 -3.88885,-0.86805 m 43.98177,-67.35879 14.8829,8.09557 m -9.88234,-6.65215 -2.87014,-1.15056 m 50.30534,7.98709 2.10906,-1.26932 m -1.44668,0.30603 -0.66239,0.96328 m -7.77103,-56.74736 -9.77114,-3.73008 m -19.25316,-9.525913 -9.21052,-5.671813 m -8.7378,-6.175943 -8.14673,-6.55745 m 34.74194,-33.369488 1.80089,-3.395852 m 0.70449,0.214468 -1.94555,3.657891 m 0.62916,0.4273 2.02464,-3.794865 m 0.99071,0.586084 -1.99264,3.717457 m 0.70451,0.242595 1.87805,-3.493183 m 0.50545,0.502332 -1.69429,3.142774 m 0.64556,0.04179 1.43932,-2.663436 m 0.37348,0.781945 -0.95996,1.77145 m 0.80423,-0.55213 0.16225,-0.298769 m -5.27473,-4.404912 -1.45213,2.748806 m -0.45594,-1.028636 0.80817,-1.535478 m -0.55938,0.388175 -0.23322,0.443665 m -0.1858,-6.582948 1.11307,-2.145486 m -0.31576,-0.514392 -1.39607,2.696651 m -0.63517,-0.06336 1.61538,-3.127821 m -0.51827,-0.484604 -1.77824,3.452879 m -1.0471,-0.399021 1.89193,-3.690524 m -0.68371,-0.347634 -1.87768,3.67431 m -0.89402,-0.648856 1.72713,-3.394969 m -0.99967,-0.160461 -1.43118,2.824495 m -0.33953,-0.506487 1.16497,-2.304209 m -0.75194,0.201737 -0.67606,1.340391 m 0.0588,-0.684452 0.12183,-0.241831 m 3.48127,-5.069222 1.74788,-3.457382 m 0.67372,0.316462 -1.77879,3.507844 m 1.00284,0.4293 1.7051,-3.347527 m 0.54018,0.451903 -1.56963,3.072995 m 0.63814,0.09333 1.37643,-2.688098 m 0.33184,0.482972 -1.13182,2.205727 m 0.93452,-0.292385 0.50803,-0.987238 m 3.38664,-3.820214 1.7006,-3.288132 m 0.64489,0.31491 -1.72776,3.331095 m 0.65374,0.2909 1.68646,-3.242202 m 0.55181,0.429001 -1.58342,3.035819 m 0.63809,0.135441 1.4191,-2.71398 m 0.36719,0.469921 -1.19799,2.286248 m 0.77049,-0.101491 0.78109,-1.486858 m 0.0508,0.617768 -0.30269,0.57554 m -5.28057,-1.284083 1.54508,-2.999736 m -0.63211,-0.114767 -1.36569,2.657931 m -0.60336,-0.939082 0.86531,-1.690685 m -0.73203,0.394526 -0.22465,0.439727 m -5.66253,3.133276 -1.57388,3.126649 m -0.45164,-0.465692 1.38728,-2.762965 m -0.59312,-0.01282 -1.14819,2.29184 m -0.30856,-0.712739 0.70884,-1.41836 m -0.51142,0.362607 -0.21009,0.420998 m 5.47499,11.342086 -0.43014,0.826959 m 7.23606,-0.170432 0.28322,-0.530828 m 0.55727,-0.346301 -0.8098,1.51551 m 0.30318,0.737309 1.28033,-2.390321 m 0.62125,0.02791 -1.53904,2.866887 m 0.73241,0.726457 1.81069,-3.359578 m 0.67681,0.255262 -1.90688,3.528023 m 0.64535,0.384263 1.93499,-3.56936 m 0.62728,0.410682 -1.8881,3.472581 m 1.02261,0.308105 1.68219,-3.081139 m 0.42003,0.490927 -1.47088,2.687661 m 0.60406,-0.0051 1.19081,-2.171326 m 0.22595,0.719358 -0.69731,1.268641 m 0.50001,-0.40066 0.13198,-0.239168 m 1.92756,-5.772521 1.63768,-2.989627 m 0.099,0.104731 0.18676,-0.340804 m 0.1401,0.714242 -1.438,2.619068 m 0.58511,0.01953 1.18345,-2.151046 m 0.28824,0.912868 -0.55501,1.006112 m -2.78689,-0.103213 1.76784,-3.23587 m -0.59096,-0.411218 -1.83715,3.372046 m -0.63381,-0.352335 1.83371,-3.375404 m -1.00476,-0.39421 -1.69515,3.133406 m -0.68096,-0.699546 1.42136,-2.636973 m -1.10106,0.04692 -0.87468,1.628835 m -0.0722,-0.660218 0.36488,-0.680318 m 4.87075,-5.41828 1.62387,-3.008046 m -0.94307,-0.234687 -1.37982,2.565267 m -0.57512,-0.921824 0.87597,-1.634397 m -0.58885,0.240998 -0.4177,0.780587 m 2.26515,2.807645 1.73123,-3.194081 m 0.60807,0.350834 -1.72241,3.1692 m 0.64957,0.264388 1.64968,-3.027212 m 0.49482,0.448241 -1.50856,2.76129 m 0.59255,0.103091 1.31881,-2.408842 m 0.50195,0.918375 -0.77594,1.412387 m 0.38128,-0.01185 0.43905,-0.798228 m 6.97098,2.723952 0.21593,-0.382498 m 0.51722,-0.286202 -0.74786,1.320321 m 0.28662,0.653093 1.17417,-2.068513 m 0.88125,0.119772 -1.51417,2.659271 m 0.46642,0.440952 1.66829,-2.923186 m 0.95164,0.427309 -1.77967,3.106223 m 0.61441,0.336481 1.77236,-3.085237 m 0.81036,0.637293 -1.63492,2.83535 m 0.61823,0.149288 1.46036,-2.526836 m 0.34218,0.46287 -1.23618,2.134608 m 0.7463,-0.06878 0.80775,-1.390906 m 0.0283,0.598303 -0.31033,0.533777 m -4.35013,3.781276 -1.52942,2.65028 m 0.58246,0.06682 1.29428,-2.238368 m 0.23977,0.476261 -1.00296,1.732094 m 0.78144,-0.327164 0.32341,-0.558072 m -1.14123,-2.274369 -1.71249,2.974717 m -0.64944,-0.243855 1.82342,-3.175563 m -0.9112,-0.577016 -1.86482,3.260899 m -0.86009,-0.626005 1.74873,-3.070201 m -0.95403,-0.237027 -1.48203,2.611339 m -0.46151,-0.721314 1.09312,-1.93173 m -0.85585,0.277051 -0.43783,0.775597 m -1.58745,5.382521 -1.73366,3.055777 m -0.42971,-0.487553 1.52287,-2.690543 m -0.86944,-0.006 -1.09927,1.947968 m -0.10987,-1.10714 0.20812,-0.369165 m 3.51348,0.01305 -1.92714,3.383112 m 0.94572,0.57589 1.95954,-3.425368 m 0.60292,0.427752 -1.89265,3.299093 m 0.66885,0.206805 1.74255,-3.029597 m 0.42382,0.487328 -1.53863,2.668982 m 1.1296,-0.04729 0.94271,-1.629244 m 0.0555,0.660106 -0.39296,0.678802 m -4.93272,3.927204 -1.79401,3.12358 m -0.67945,-0.195016 1.95723,-3.416877 m -0.59539,-0.452872 -2.04476,3.579971 m -0.6627,-0.35763 2.05419,-3.60716 m -1.02928,-0.45221 -1.92782,3.399911 m -0.49892,-0.482466 1.75145,-3.097025 m -0.9643,-0.105615 -1.36153,2.415892 m -0.22746,-0.502658 1.04032,-1.849299 m -0.64795,0.279171 -0.49033,0.87293 m -2.05445,5.853139 -1.84297,3.267507 m -0.42021,-0.52967 1.58995,-2.825845 m -0.60861,0.01469 -1.27401,2.269042 m -0.21099,-0.753865 0.72579,-1.295501 m -0.37537,0.266354 -0.2796,0.499501 m 1.65562,3.089304 2.08842,-3.686954 m 0.70579,0.326692 -2.15985,3.801377 m 1.0291,0.522687 2.11142,-3.699304 m 0.57548,0.487327 -1.9809,3.460446 m 0.68847,0.148114 1.77151,-3.086562 m 0.36356,0.5331 -1.49512,2.599046 m 0.5832,-0.05736 1.15703,-2.007598 m 0.11839,0.504329 -0.77245,1.338546 m 0.50339,-0.388473 0.1642,-0.284288 m 2.92246,-6.276226 1.42334,-2.469776 m 0.36396,0.997175 -0.73693,1.273953 m 0.48385,-0.36355 0.1588,-0.275064 m 6.72766,0.314578 0.68254,-1.153388 m 0.71912,-0.182447 -1.22579,2.066214 m 0.28555,0.502245 1.5252,-2.566124 m 0.96122,0.188196 -1.87046,3.135985 m 0.53582,0.475353 2.01385,-3.367522 m 0.99441,0.513471 -2.08916,3.478687 m 0.65942,0.333228 2.03937,-3.386365 m 0.78676,0.724531 -1.82129,3.012457 m 0.63642,0.115725 1.58639,-2.617951 m 0.30416,0.513793 -1.2868,2.119336 m 0.92941,-0.255916 0.55803,-0.916893 m 1.47888,-5.746944 1.70147,-2.813234 m 0.38469,0.499054 -1.46883,2.423384 m 0.55024,0.0052 1.17995,-1.943244 m 0.17856,0.902167 -0.47378,0.778399 m -2.70882,-0.04357 1.8719,-3.102825 m -0.55858,-0.447783 -1.96822,3.271017 m -0.63969,-0.352482 1.99243,-3.320275 m -0.65387,-0.33385 -1.93974,3.241185 m -0.52304,-0.452353 1.81194,-3.035473 m -0.95514,-0.221705 -1.50117,2.523506 m -0.39682,-0.743304 1.05693,-1.781495 m -0.95139,0.475711 -0.14471,0.24508 m 7.08623,-4.942512 1.48623,-2.477617 m -0.56862,-0.05326 -1.2363,2.064964 m -0.27027,-0.6977 0.77178,-1.2919 m -0.51683,0.291064 -0.25847,0.433351 m 1.01959,2.214801 1.68481,-2.802414 m 0.94862,0.376257 -1.8556,3.075182 m 0.59076,0.381969 1.88265,-3.111864 m 0.84664,0.619755 -1.78892,2.945714 m 0.93005,0.288205 1.54811,-2.540532 m 0.34373,0.478742 -1.30433,2.136206 m 0.74165,-0.04679 0.861,-1.407028 m 0.0352,0.614538 -0.31398,0.512507 m 1.11814,5.616238 -0.84527,1.36019 m 0.01,-0.606455 0.28898,-0.46546 m 1.58776,-0.344099 -1.4761,2.367734 m 0.60384,0.732961 1.80428,-2.884683 m 0.63843,0.2425 -1.94423,3.100998 m 0.58085,0.422675 2.00786,-3.194193 m 0.90204,0.610072 -1.96648,3.116054 m 0.96785,0.355355 1.74995,-2.762879 m 0.3899,0.495727 -1.52414,2.401169 m 1.053,-0.02607 0.90377,-1.419297 m 0.006,0.62422 -0.33635,0.527551 m -2.25228,4.85871 -2.13221,3.335815 m -0.58722,-0.433828 2.06861,-3.244992 m -0.66409,-0.274573 -1.93337,3.040575 m -0.43253,-0.493504 1.72386,-2.717386 m -0.61381,-0.08231 -1.44404,2.280941 m -0.28952,-0.73538 0.93757,-1.484338 m -0.58015,0.287735 -0.34086,0.540394 m 2.79454,3.685703 2.10852,-3.289874 m 0.80849,0.70651 -1.93471,3.007071 m 0.64603,0.165325 1.7203,-2.667715 m 0.32847,0.515643 -1.43818,2.225719 m 0.53483,-0.0236 1.10549,-1.708098 m 0.0741,0.681266 -0.51541,0.795048 m -6.99319,3.087806 -1.43542,2.248767 m -0.62072,-0.04846 1.73929,-2.730456 m -0.41387,-0.524767 -1.97327,3.104932 m -0.67844,-0.241282 2.13373,-3.366231 m -0.59213,-0.464026 -2.21552,3.504911 m -0.64226,-0.39965 2.21092,-3.507516 m -0.67207,-0.324013 -2.12162,3.375135 m -0.51745,-0.499882 1.95484,-3.117966 m -0.65652,-0.151541 -1.71542,2.742479 m -0.30835,-0.513514 1.41433,-2.265629 m -0.54495,0.05456 -1.05425,1.691654 m -0.0381,-0.689824 0.45131,-0.725203 m -6.57785,2.140595 -1.50803,2.464387 m -0.64981,-0.05587 1.8058,-2.95772 m -0.44702,-0.523112 -2.02678,3.327873 m -0.69942,-0.244492 2.18109,-3.591124 m -0.63148,-0.451388 -2.24221,3.702597 m -0.64149,-0.406892 2.22061,-3.677782 m -0.70885,-0.316251 -2.11841,3.518739 m -0.51276,-0.508757 1.9372,-3.22657 m -0.66555,-0.113467 -1.68307,2.809932 m -0.39874,-0.810445 1.18086,-1.97724 m -0.87808,0.396154 -0.37863,0.634548 m 6.1722,4.34855 0.95711,-1.560435 m -0.0317,0.693254 -0.31059,0.505723 m 12.50712,0.753929 0.6687,-1.044883"
       style="fill:none;stroke:#000000;stroke-width:0.865;stroke-miterlimit:4;stroke-dasharray:none"
       id="path962" />
  </g>
</svg>
