<?xml version="1.0" encoding="UTF-8" standalone="no"?>
<svg
   version="1.2"
   width="1131.047"
   height="723.31824"
   id="svg6"
   xmlns="http://www.w3.org/2000/svg"
   xmlns:svg="http://www.w3.org/2000/svg">
  <defs
     id="defs10" />
  <desc
     id="desc2">plotter.vision</desc>
  <path
     d="m 546.56754,336.57834 -2.2695,0.5331 -2.2732,0.308 -2.256,0.0636 -10.9318,-7.3811 2.2385,-0.0575 2.2549,-0.2997 10.9676,7.3667 m -2.2732,0.308 -10.9493,-7.375 m 2.2549,-0.2997 2.2506,-0.5226 10.9865,7.3562 2.2447,-0.7689 2.1921,-0.9917 -11.0252,-7.329 -2.1726,0.9771 11.0057,7.3436 m 2.1921,-0.9917 2.1329,-1.1981 2.0388,-1.4054 1.9382,-1.5891 1.8099,-1.7602 1.6751,-1.9154 1.5123,-2.0582 1.343,-2.1703 1.1598,-2.2729 -11.1665,-7.16 -1.145,2.2485 11.1517,7.1844 m 1.1598,-2.2729 0.9697,-2.3446 0.7585,-2.4055 0.5543,-2.4307 0.3358,-2.4464 0.11,-2.431 -0.1021,-2.396 -0.3287,-2.336 -11.228,-6.9938 0.3323,2.3143 0.1076,2.3732 -0.1028,2.4075 -0.3268,2.4221 -0.5437,2.4062 -0.7464,2.3808 -0.9562,2.3199 m 0.9562,-2.3199 11.18,7.1353 m 0.7585,-2.4055 -11.1921,-7.1106 m 0.5437,-2.4062 11.2027,7.0861 m 0.3358,-2.4464 -11.2117,-7.0618 m 0.1028,-2.4075 11.2189,7.0383 m -0.1021,-2.396 -11.2244,-7.0155 m -0.3323,-2.3143 -0.5505,-2.2269 -0.7552,-2.1345 11.2296,6.9543 -0.9695,-2.0207 -11.2274,-6.9369 m -1.159,-1.868 11.2234,6.9212 m -1.35,-1.7173 -9.2166,-5.6754 m 2.1005,0.6895 5.5929,3.4406 m -5.4687,2.3472 11.2297,6.9733 0.5488,2.2474 m -0.5488,-2.2474 -0.7553,-2.1535 m -16.9274,-11.9358 -2.273,0.0276 -2.297,0.2701 -2.2991,0.5168 -2.2792,0.7527 -2.2297,0.9837 -2.1728,1.1983 -2.0789,1.4144 -1.9773,1.606 -1.8464,1.7845 -1.7076,1.9462 -1.5395,2.0946 -1.3639,2.2105 -1.1736,2.3154 -0.976,2.3879 -0.7566,2.448 -0.5449,2.4706 -0.3189,2.4822 -0.0933,2.4627 0.1388,2.4185 0.3632,2.3523 0.5866,2.2554 0.795,2.1532 1.0097,2.0118 m 1.194,1.8542 10.5604,7.1562 m -2.0696,-0.6532 -7.127,-4.8351 m 0.4395,-1.4875 10.915,7.3846 m -6.2015,-1.9387 -3.6175,-2.456 m 7.8418,-3.687 2.2255,-0.7563 m 2.1726,-0.9771 2.1134,-1.1816 2.0196,-1.3872 1.9193,-1.5693 11.0828,7.2745 m -1.9382,1.5891 -11.0639,-7.2943 m -2.0196,1.3872 11.0447,7.3125 m 5.7869,-4.7547 -11.1012,-7.2535 -1.7915,1.7392 m 1.7915,-1.7392 1.6573,-1.8932 11.119,7.2313 m 1.5123,-2.0582 -11.1358,-7.2082 -1.4955,2.0351 m 1.4955,-2.0351 1.3271,-2.1465 m -110.7004,-101.8139 35.2729,421.105 0.4682,4.6966 0.7926,3.6379 0.7647,2.7102 0.7606,2.2467 m 18.0787,22.8626 2.1142,1.3013 m 32.8441,4.6756 1.7045,1.7604 m 0.3347,-2.019 1.707,1.7587 m 6.4075,-3.3338 1.7171,1.7516 121.0238,-34.0512 -1.8643,-1.6338 -120.8766,33.9334 m -69.1912,47.5207 174.9311,-50.4716 330.1089,-95.244 116.60926,-33.6445 m 7.879,-2.2308 2.2817,-0.7856 2.2915,-1.0423 2.2826,-1.2882 2.2514,-1.5272 2.1992,-1.7389 2.121,-1.9486 2.0351,-2.1295 1.9162,-2.2909 1.7917,-2.4405 1.641,-2.5567 1.4794,-2.6545 1.3058,-2.7284 1.1148,-2.7717 0.9155,-2.7867 0.7099,-2.7901 0.4987,-2.7553 0.2704,-2.695 0.051,-2.6111 -0.1713,-2.5053 -0.3938,-2.3728 -0.6156,-2.2193 m -0.6263,-1.5438 -0.9381,-0.4877 m 0.092,-0.0866 -8.2339,7.7742 m 8.2339,-7.7742 -92.67,-208.9223 -194.60366,38.414 -20.9852,5.5463 -8.752,3.1313 -6.701,2.737 -5.6412,2.5308 -4.9494,2.3966 -4.4537,2.3006 -4.0824,2.2222 -3.7772,2.1702 -3.5372,2.1241 -3.3207,2.0825 -3.14,2.0477 -2.977,2.0164 -2.85,1.9853 -2.7171,1.9665 -2.6018,1.9444 -2.4985,1.9244 -2.401,1.9056 -2.322,1.8903 -2.2361,1.8668 -2.163,1.8596 -2.0895,1.8451 -2.0282,1.8332 -1.9604,1.8199 -1.8989,1.8078 -1.8556,1.7924 -1.7877,1.7858 -1.7508,1.7785 -1.6886,1.7659 -1.6516,1.7586 -1.6077,1.7429 -1.5645,1.741 -1.5208,1.7321 -1.4834,1.7244 -1.4459,1.7168 -2.0519,-1.2635 1.4435,-1.7136 2.0543,1.2603 m 1.4834,-1.7244 -2.0567,-1.2571 1.5183,-1.7289 2.0592,1.2539 m 1.5645,-1.741 -2.0618,-1.2507 1.6051,-1.7396 2.0644,1.2474 m -2.0644,-1.2474 1.6489,-1.7553 2.0671,1.2441 m -2.0671,-1.2441 1.686,-1.7627 2.0697,1.2409 m -2.0697,-1.2409 1.748,-1.7751 2.0725,1.2375 m -2.0725,-1.2375 1.7849,-1.7824 2.0753,1.2341 m -2.0753,-1.2341 1.8527,-1.789 2.0782,1.2307 m -2.0782,-1.2307 1.8959,-1.8043 2.0812,1.2272 m -2.0812,-1.2272 1.9575,-1.8164 2.0841,1.2237 m -2.0841,-1.2237 2.0251,-1.8296 2.0872,1.2201 m -2.0872,-1.2201 2.0863,-1.8416 2.0904,1.2166 m -2.0904,-1.2166 2.1598,-1.8559 2.0936,1.2129 m -2.0936,-1.2129 2.2328,-1.8631 2.0969,1.2092 m -2.0969,-1.2092 2.3185,-1.8866 2.1004,1.2055 m -2.1004,-1.2055 2.3976,-1.9018 2.1038,1.2017 m -2.1038,-1.2017 2.4949,-1.9205 2.1074,1.1978 m -2.1074,-1.1978 2.598,-1.9404 2.1112,1.1938 m -2.1112,-1.1938 2.7132,-1.9624 2.1151,1.1897 m -2.1151,-1.1897 2.8461,-1.9812 2.119,1.1856 m -2.119,-1.1856 2.9729,-2.0123 2.1231,1.1815 m -2.1231,-1.1815 3.1357,-2.0434 2.1274,1.1772 m -2.1274,-1.1772 3.3161,-2.078 2.132,1.1727 m -2.132,-1.1727 3.5326,-2.1196 2.1366,1.1682 m -2.1366,-1.1682 3.7721,-2.1654 2.1417,1.1634 m -2.1417,-1.1634 4.0772,-2.2173 2.1469,1.1585 m -2.1469,-1.1585 4.4479,-2.2954 4.9432,-2.3911 2.1589,1.1478 m -2.1589,-1.1478 5.6342,-2.5248 2.1659,1.1418 m -2.1659,-1.1418 6.6929,-2.7303 2.174,1.1351 m -2.174,-1.1351 8.7417,-3.1231 2.1843,1.1269 m -2.1843,-1.1269 20.962,-5.5299 2.2075,1.1105 m -2.2075,-1.1105 194.41836,-38.2846 2.3928,0.9811 m -2.3928,-0.9811 -65.46316,-147.2944 m -3.8912,-7.5825 -1.8439,-0.5887 m -0.4354,-0.139 -1.0963,-0.35 m -0.6933,-0.4829 -1.5782,-0.4608 m -1.7767,-1.9264 -41.7985,-13.2972 m -0.032,-0.0679 -268.7828,-85.495297 m 1.2499,0.2186 269.5387,85.690897 m -3.7002,-0.5462 -76.6598,-24.407397 m -24.2719,-7.7279 -95.2462,-30.3251 m -2.7626,5.5587 -10.5006,1.1562 70.6714,23.1831 10.92,-1.3047 m -1.4876,0.1777 -69.6447,-22.6039 m -0.2443,1.2156 66.8023,21.7571 m -3.1033,0.3708 -64.129,-20.9598 m -0.6033,1.0701 61.7392,20.2473 m -5.7036,0.6815 -11.0291,1.3177 -70.0306,-23.4081 10.5993,-1.1671 m -0.0397,0.611 69.0268,22.8225 m -4.6071,0.5504 -64.8535,-21.5554 m -0.5177,1.1272 62.3366,20.7908 m -7.4229,0.8869 -11.1453,1.3316 -69.374,-23.6364 10.7048,-1.1787 m -0.0379,0.6136 68.3938,23.0442 m -3.0333,0.3624 -65.6005,-22.1802 m -0.7098,1.7315 61.7624,20.9921 m -7.6642,0.9157 -11.2577,1.345 -68.7012,-23.8681 10.8062,-1.1898 m -0.0359,0.6163 67.745,23.2691 m -3.0055,0.3591 -64.9774,-22.3964 m -0.4295,1.1838 62.3739,21.5749 m -2.9371,0.351 -60.046,-20.8408 m -14.9158,-1.7149 67.0802,23.4974 m 1.4282,-0.1707 -11.3718,1.3587 -68.0119,-24.1032 10.9092,-1.2012 m -0.2695,1.8563 64.3388,22.6157 m -3.0083,0.3595 -61.7599,-21.786 m -0.6112,1.0901 59.4537,21.0444 m -64.0885,-60.6709 -26.8229,-8.5453 -208.3854,20.0768 m 1.0478,2.644 0.0593,1.7727 m 0.485,1.9347 -4.1909,-16.7188 -61.2862,-25.16539996 -163.5959,13.93479996 -7.6598,0.723 -7.3983,0.8434 -7.0731,0.9565 -6.6836,1.0615 -6.2242,1.1602 -5.7082,1.2472 -5.1399,1.3263 -4.5132,1.3916 -3.833,1.4465 -3.1195,1.4894 -2.3566,1.5161 m -1.2958,6.0576 2.0637,21.1341 1.8339,2.0465 -2.1154,-21.7453 -1.7822,-1.4353 m 1.7822,1.4353 2.6163,1.3737 2.0592,21.2879 3.4452,1.4762 m 0.0769,0.0363 4.2187,1.9859 -2.1188,-22.2844 -4.2376,-1.2054 2.1377,21.5039 m -0.5213,1.0779 11.8373,12.7944 17.7888,19.594 15.5576,3.4334 -6.2125,-14.9849 7.0671,0.7626 -0.1203,3.756 m -0.0101,0.3155 -0.3263,10.195 m -0.3979,-0.0442 0.951,5.136997 0.9475,10.3674 -17.4561,-18.937797 -7.3725,-15.1214 22.9301,18.5548 m 0.6028,1.9314 0.3356,3.089697 m 0.0126,0.1159 8.674,40.6483 -1.9867,-6.2813 -1.4894,-4.7092 -3.1642,-0.3829 -3.3421,17.2651 12.3364,1.5514 -1.9561,-6.1851 m 2.4626,7.3991 -9.7426,-76.185697 48.2706,114.531697 -1.3995,11.8866 -0.1543,2.6029 -0.7773,13.099 -29.6733,-37.2141 -0.4611,-3.0014 -1.0416,-6.7814 -1.4941,-9.7268 m -1.149,-0.7301 -3.6593,1.2403 -4.1524,1.4082 -7.5501,1.3968 -6.0118,0.1177 6.1529,-15.4091 -16.5217,-4.1051 10.0191,19.6593 m -0.4148,0.1719 -17.6579,-4.5509 -2.985,3.396 -2.5912,-0.0615 -2.5032,-1.3164 -3.2127,-1.689 -4.2403,-2.2289 -1.443,-2.5388 m 1.443,2.5388 4.2006,-3.9798 -3.832,-6.5879 3.5154,-6.5877 m -0.1981,0.2218 -2.8495,3.4186 -2.1593,2.8753 m 1.6915,0.072 -3.4087,2.8884 m 3.4087,-2.8884 9.3008,-13.7361 3.5853,5.7787 1.6153,-21.5517 -5.2006,15.773 m 3.5853,5.7787 -9.0541,14.5453 11.3318,5.8796 8.0536,-15.2803 4.4009,-16.8505 12.1208,20.9556 11.5614,12.4864 m 3.6593,-1.2403 1.6113,19.0491 -8.2891,-3.281 -1.1339,-13.1196 m -7.5501,1.3968 0.8166,9.2611 -5.2753,-1.161 23.1717,10.7432 m -0.2648,0.8827 10.5535,66.117 m -0.1676,-0.409 -20.1142,-3.0532 11.3486,12.7244 -4.0655,1.3081 1.0838,12.5412 -7.6979,-2.4702 -0.7806,-8.8533 -5.8901,-0.0223 6.0017,-15.2279 3.2725,-16.8277 11.0984,1.6329 -1.1625,-5.3206 -0.9376,-4.2922 -1.7316,-7.9291 -7.1162,-1.0151 -3.0034,-15.969 -6.0155,-13.9902 -26.9081,-15.8459 17.6358,4.6098 m -0.4208,-0.1618 -0.6071,-6.7584 -6.6511,0.6117 0.3357,3.6743 -6.2958,-2.0419 -5.6056,-1.5947 m -0.1133,-1.2057 3.456,0.6084 m 2.0937,0.3685 6.1293,0.1911 m 0.3357,3.6743 6.9225,2.4724 m 1.2553,0.6402 8.4378,10.7577 -16.4213,-4.371 -10.4868,-11.4749 -11.3222,-5.956 11.5218,11.9522 17.4419,19.6742 -7.1547,-14.1955 22.4368,18.3612 9.123,7.6479 -0.6925,-6.4814 -8.4305,-1.1665 -15.2821,-4.1657 18.2855,20.1347 8.8478,8.9442 m -1.7316,-7.9291 -0.8287,-7.7633 m -0.8505,-8.275 0.1664,-3.7219 m 0.0769,-1.7188 0.3339,-7.4685 -15.0331,-2.0268 m 5.56,-6.947 -7.8674,-2.4617 m -14.1139,5.0377 -10.2872,-5.4787 7.8161,14.4426 3.6695,15.9547 -0.6834,16.4105 -2.6985,-22.3106 -0.7414,16.0917 3.4399,6.2189 -4.9325,15.8056 -8.8606,14.1901 11.1944,6.9183 -2.9129,3.3885 -2.5501,-0.2295 -2.4728,-1.5464 -3.1742,-1.9842 -4.1901,-2.6193 4.1057,-3.9274 0.0844,6.5467 m 1.4121,0.8827 10.3572,10.3091 10.1594,6.394 12.5679,3.9718 m 1.332,-0.2032 -24.0969,-14.3452 10.197,10.5766 6.0115,4.9721 m -3.1688,0.4834 -2.8427,-5.4555 m 0.4345,5.8229 -10.5939,-12.2169 7.0978,12.7503 m -1.0177,0.1552 -1.47,-4.624 m -6.1514,9.0643 3.4368,2.9875 3.5881,4.1999 3.7053,5.389 80.9366,-12.7098 -4.0656,-5.2095 -80.5763,12.5303 m -3.5881,-4.1999 80.1916,-12.373 -3.8414,-2.8535 -79.787,12.239 -3.2543,-1.7687 -3.039,-0.5487 -2.8019,0.6498 -1.1643,0.8323 m 0.4056,0.0751 -70.053098,10.7054 m 0.1594,0.2674 -53.2061,8.1347 3.6209,7.8249 3.7397,9.1522 3.8198,10.3911 3.8542,11.5261 3.8445,12.5412 3.7892,13.4283 3.6903,14.1532 3.5444,14.724 3.3571,15.119 3.1289,15.3352 2.8617,15.3545 2.5596,15.1991 2.2328,14.8663 1.8775,14.3521 53.937098,-10.8171 -1.687,-14.1914 -54.127598,10.6564 m -3.7184,-0.842 -38.184,7.5025 -2.775,-10.991 -2.6607,-11.2933 -2.5254,-11.5022 -2.3726,-11.6308 -2.2007,-11.6633 -2.01,-11.6061 40.3006,-7.2092 m -0.4725,-2.1296 2.9126,13.1268 2.7163,13.3134 2.4879,13.3382 2.2288,13.2084 1.948,12.9254 1.6431,12.487 1.3239,11.9156 0.9917,11.2164 0.6547,10.4003 0.3104,9.4674 -0.0291,8.4531 -0.3641,7.3569 -0.6894,6.2081 -1.002,5.0108 -1.2969,3.7892 -1.5742,2.5464 -1.8297,1.304 m 0.759,-0.5409 -2.823,0.6142 -2.2725,-1.1305 -2.4579,-2.3111 -2.6144,-3.4329 -2.745,-4.5114 -2.8494,-5.5279 -2.9292,-6.4863 -2.9807,-7.3635 -3.0069,-8.1765 -3.008,-8.9048 -2.9832,-9.5503 -2.9372,-10.1192 -2.8673,-10.6008 m -1.1604,6.2983 -3.133,-12.4289 -3.0035,-12.7664 -2.8532,-13.0046 -2.6815,-13.1454 -2.4882,-13.1759 -2.2750999,-13.115 -2.047,-12.9565 -1.7986,-12.6917 -1.5356,-12.3287 -1.2566,-11.8635 -0.9673,-11.3025 -0.6622,-10.6335 -0.35080004,-9.8832 -0.0295,-9.0258 0.2972,-8.0784 0.63020004,-7.0349 0.9595,-5.9264 1.292,-4.7208 1.6177,-3.4555 1.9359,-2.1265 2.2399,-0.7513 2.5327999,0.6782 2.8035,2.1135 3.0528,3.5743 3.2743,5.0224 3.466,6.4531 m -3.466,-6.4531 52.9075,-7.998 -3.5921,-4.9029 -52.5897,7.8785 m -3.0528,-3.5743 52.2567,-7.7768 -3.148,-2.0299 -51.9122,7.6932 m -2.5327999,-0.6782 51.5600999,-7.6277 2.8849,0.6127 m 3.148,2.0299 3.3858,3.4726 m 3.5921,4.9029 3.7646,6.3164 3.897,7.672 -53.4822,8.2876 m -5.2439,2.8103 3.0335,5.7246 3.1638,6.9075 3.2621,8.0465 3.3253,9.1044 3.3507,10.0727 3.3408,10.945 3.2913,11.6983 3.2034,12.3177 3.0765,12.7982 m 2.4786,-4.5091 54.527098,-9.6691 -3.5828,-14.5094 -54.488698,9.4545 m -3.8725,-0.7242 -38.2770999,6.6283 -1.3468,-10.879 -1.098,-10.4597 -0.8395,-9.9512 -0.5672,-9.3449 -0.2892,-8.66 -0.004,-7.8852 0.2862,-7.0372 0.579,-6.1091 0.8703,-5.1135 1.1604,-4.0464 1.4444,-2.9217 1.7216999,-1.7483 2.4827,-0.3787 m -0.4962,-0.1584 2.2392,0.7148 2.4711,1.9681 2.6829,3.2356 2.8707,4.4889 m 0.608,1.1474 -18.0551999,2.8122 m 0.8703,-5.1135 14.4143999,-2.2275 m -2.6487,-3.4477 -10.6052999,1.6288 m 1.4444,-2.9217 6.6436999,-1.016 m 10.8031,15.826 -21.5008999,3.3807 m -0.2862,7.0372 24.7297999,-3.9309 m 2.5662,-6.8331 53.7318,-8.4555 -3.9893,-8.9843 m 0.9099,2.0491 75.262698,-11.704 -3.5553,-4.213 -3.4023,-2.9988 -3.2183,-1.7781 -3.0023,-0.556 -67.614598,10.3153 m 1.6753,3.0879 72.159898,-11.0691 m 0.3423,-3.3353 78.9353,-12.0424 3.4703,0.4624 -79.3666,12.1287 m 0.021,5.7854 -73.871898,11.3979 m 4.6949,10.2177 76.406798,-11.9984 -3.6745,-5.4042 m 3.6745,5.4042 3.7532,6.5565 -77.388698,12.294 m 1.8181,4.5942 -53.9524,8.6369 m -3.4031,3.8 -27.7089999,4.4581 m 0.2892,8.66 30.4064999,-4.957 m 4.2706,-0.435 54.1407,-8.8299 -4.0425,-11.3331 -4.0404,-10.2097 m 5.2373,13.5652 78.170398,-12.5835 -3.7967,-7.6602 m 6.7621,-1.0742 -3.7816,-6.5398 m 3.7816,6.5398 81.268,-12.9103 -4.113,-6.3393 m -0.8795,-1.127 5.7731,-0.9046 0.7375,-13.108 -18.089,2.7731 m 0.5781,0.2609 -3.6747,-1.6584 m -6.3185,-0.0279 0.8393,-9.4225 1.6236,-11.3649 2.1457,-10.2915 2.6643,-9.0903 3.1684,-7.7971 3.6628,-6.3871 4.1315,-4.8889 4.5768,-3.299 4.9885,-1.6308 5.362,0.0987 5.6925,1.8703 5.9694,3.6842 6.189,5.4855 6.3488,7.2961 6.4355,9.0485 6.4526,10.745 6.3947,12.3536 6.2572,13.8401 6.0444,15.1836 5.7486,16.3602 5.3838,17.3419 4.9452,18.1286 4.4432,18.6785 3.8831,19.0023 3.2727,19.0809 2.6239,18.922 1.9492,18.5367 1.249,17.9077 0.5505,17.0792 -0.1534,16.0507 -0.838,14.8432 -1.5026,13.487 -2.1367,12.0037 -2.7316,10.4144 -3.281,8.7559 -3.7836,7.0285 -4.2288,5.2901 -4.6249,3.5285 -4.9582,1.7894 -5.2371,0.0753 -5.4571,-1.5938 -5.6214,-3.2024 -5.7325,-4.7368 -5.7879,-6.2005 -5.793,-7.5588 -5.7523,-8.8435 -5.6617,-10.0108 -3.5734,-7.162 m 2.4095,-0.5243 -77.5184,16.8686 -2.8574,0.257 -0.9924,-0.2952 m 0.006,-0.004 -2.6009,1.4441 -66.1042,14.3849 m 0.0888,-0.5323 0.6854,-7.2759 m 0.0967,-1.0262 -52.568098,11.3242 0.0637,-9.6128 -0.3277,-10.7911 -0.7265,-11.8846 -1.1177,-12.8462 -1.5051,-13.6764 m -4.2351,-4.3985 -36.6775,7.3077 m -4.0277,-4.3025 3.2377,12.0013 3.3194,11.469 3.3762,10.8481 3.4069,10.1331 3.4081,9.3225 3.383,8.4187 3.3306,7.4441 3.2466,6.3741 3.1337,5.2337 2.9898,4.0175 2.8171,2.7523 2.6114,1.4151 2.3808,0.0503 50.476098,-11.2205 m 0.3017,-0.1734 2.169,-1.2463 -50.828298,11.2877 -2.1185,1.3525 m 2.1185,-1.3525 1.8298,-2.7717 51.183798,-11.3364 1.8689,-4.2348 -51.539098,11.3653 1.1802,-5.6071 0.8212,-7.0003 52.234998,-11.36 -1.1655,6.9868 -51.890698,11.3735 m -1.1802,5.6071 -1.5136,4.2059 m -5.1038,-16.1777 -6.9462,1.5085 m -2.4579,-2.3111 10.8361,-2.3457 m 1.1192,-4.2266 -14.5697,3.1394 m -2.745,-4.5114 18.1395,-3.8855 m 0.5331,-6.2197 -21.522,4.5773 m -2.9292,-6.4863 24.6967,-5.2089 m 4.6492,-3.4074 53.185998,-11.1855 -0.4494,-11.7823 -53.463098,11.0832 m -4.2751,-1.3104 -30.3319,6.2713 m 3.0069,8.1765 27.6396,-5.7749 m 5.0147,15.3132 52.886398,-11.266 -0.0281,-10.7106 m -0.1449,-3.7993 77.0647,-16.1328 0.3403,-9.2712 -77.7993,16.1018 m 0.0898,1.3192 -0.8661,-12.723 -53.714698,10.96 m -3.7446,2.2076 -32.7527,6.6947 m -2.9832,-9.5503 34.8629,-7.0384 m -4.07,-32.2966 -39.3724,7.624 m -2.6607,-11.2933 40.2349,-7.6739 m 2.3108,-6.7677 54.402998,-10.2904 -2.7809,-15.1542 -54.483798,10.0901 m -3.6216,-0.9065 -40.9604,7.5696 m -2.2007,-11.6633 40.8117,-7.4209 m 2.8421,-2.9141 54.525498,-9.8819 3.0872,15.127 m -0.0246,-0.1209 80.4248,-14.8917 -2.618,-12.8275 -80.479,14.6259 m -0.8031,-3.7463 -2.9428,-13.0727 m 0.8779,3.8999 80.4436,-14.347 2.9034,12.6402 m 0.47,2.3031 1.089,-0.1986 -2.3502,-10.233 -2.5532,-9.963 -2.7278,-9.5894 -2.8712,-9.1054 -2.98,-8.5228 -0.982,-2.5226 m -0.0445,-0.1413 -3.662,-10.4757 -3.7501,-9.633 -78.796798,12.8718 m -0.3209,-0.9907 3.9979,12.339 -54.2941,9.0321 m -5.1276,-3.232 -32.8267999,5.4277 m 0.8395,9.9512 34.9536999,-5.866 m 5.9504,7.1474 54.410498,-9.2413 -3.904898,-13.2187 m -0.4601,-1.4199 79.329998,-13.1672 m 6.8293,-1.1336 -3.7692,-9.6118 -3.8154,-8.6602 -3.8223,-7.6418 m 3.8223,7.6418 81.5668,-13.1302 -4.1211,-7.4219 m 0.6403,1.1533 0.1403,-9.5242 m -8.9592,-3.1779 -3.9728,-4.0426 m 13.6695,-5.8875 1.2758,-12.2699 1.8138,-11.3123 -28.1308,4.1425 m 2.1457,-10.2915 28.3325,-4.0987 -2.3474,10.2477 m 2.3474,-10.2477 2.8759,-9.0562 3.3882,-7.7733 -28.7639,4.0408 m 3.6628,-6.3871 28.9901,-4.0283 0.6936,-0.7772 m -0.6936,0.7772 -3.889,6.3746 m -3.3882,7.7733 -28.5441,4.0646 m -13.3148,-1.9664 2.4113,-12.1188 3.0128,-10.7813 3.6068,-9.3079 4.1851,-7.7107 4.7434,-5.9938 5.2769,-4.1559 5.7729,-2.2348 6.2306,-0.2105 6.6332,1.8718 6.9832,4.0038 7.2646,6.1604 7.4687,8.3064 7.5981,10.4234 7.6355,12.4769 7.5829,14.4152 7.4335,16.233 7.1886,17.8748 6.8481,19.3172 6.4126,20.5308 5.8896,21.485 5.2861,22.1657 4.6077,22.5594 3.8751,22.6553 3.0879,22.4559 2.2681,21.9536 1.429,21.1908 0.5807,20.1575 -0.2594,18.8811 -1.0801,17.4115 -1.8729,15.7463 -2.6176,13.948 -3.3191,12.0222 -3.9598,10.0218 -4.5385,7.9701 -5.052,5.8904 -5.4951,3.8181 -5.869,1.7736 -6.1758,-0.2326 -6.4113,-2.1567 -6.5839,-4.0179 -6.6878,-5.7751 -6.7364,-7.4368 -6.7251,-8.9894 -6.6564,-10.4214 -6.5425,-11.7434 -6.3772,-12.9452 -5.6594,-12.8577 m 11.8987,-2.5892 3.0729,-1.5278 -77.9534,16.9457 -2.6379,1.4507 m 2.6379,-1.4507 2.3875,-2.6459 78.3914,-16.9979 2.5483,-3.859 -78.8286,17.0239 1.8036,-5.0153 1.4752,-6.1528 1.1244,-7.254 0.7529,-8.2947 0.3715,-9.2617 -0.0213,-10.1284 -0.4199,-10.907 -0.8164,-11.5592 -1.2082,-12.0904 -1.5891,-12.4905 -1.9539,-12.7395 -2.299,-12.8564 -2.6134,-12.8048 -2.9029,-12.6171 82.4985,-14.7135 2.8964,12.3388 -82.492,14.9918 m -5.3085,3.3525 2.1204,10.3868 1.866,10.4188 1.5929,10.3416 1.3004,10.1355 0.994,9.8317 0.6838,9.4191 0.3616,8.8899 0.0106,2.0809 m 0.0762,1.0507 -79.012,15.9212 m -0.3502,-3.6956 1.2827,13.5335 m 0.0811,1.1916 78.4444,-16.0298 0.0501,10.1402 m 6.7277,-1.3924 80.8453,-16.7323 0.3172,-9.9857 -81.1838,16.5896 m -6.7565,1.3806 -0.446,-10.9209 -0.8396,-11.5751 -79.4768,15.7739 m -0.7328,-6.1646 -2.0769,-14.69 -54.283498,10.4801 m -6.8649,-19.9145 -40.7658,7.6548 m -6.5833,-34.9002 -1.8051,-11.4572 -1.5821999,-11.2106 m -1.3468,-10.879 36.7742999,-6.2677 m 5.6095,21.4136 -39.4548,6.9437 m 96.493898,-20.7465 80.3157,-14.0587 3.1508,12.2983 m 1.079,4.6973 1.0332,-0.1856 m 4.7558,-5.7366 -3.1546,-12.2749 -3.3693,-11.8017 -3.5458,-11.1869 -3.6775,-10.4537 82.0521,-13.6189 -3.992,-9.36 -4.0779,-8.4233 m 1.9897,4.1099 40.0894,-6.4998 2.6973,0.4313 -42.3924,6.883 m 0.7756,1.6021 44.4367,-7.2351 -2.8199,-1.25 m -2.6973,-0.4313 -2.5462,0.3833 m 8.0634,1.298 2.9215,2.0671 -46.2295,7.5581 m -0.2104,-0.4933 -81.8293,13.3671 m -6.8102,1.1124 -3.7929,-8.68 m 11.205,28.7887 -79.7679,13.4667 m 1.1416,3.8638 3.7685,13.94 m -1.7021,-6.2962 80.0939,-13.7646 -3.534,-11.2097 m 6.8448,-1.1556 82.2323,-13.8827 -3.8577,-10.1899 m -0.7474,-1.7524 49.2164,-8.1447 -3.0291,-3.6543 -47.8638,7.8681 m 3.5316,8.6093 50.4033,-8.4071 -3.042,-4.416 m -3.0291,-3.6543 -2.992,-2.8734 m 9.0631,10.9437 3.019,5.1351 -51.3869,8.6483 m 0.7146,1.8876 3.6815,10.9142 -82.368,14.1554 m -6.8566,1.1784 3.3617,11.8248 m 6.8642,-1.2015 82.457,-14.4336 -3.4583,-11.5235 m -0.0493,-0.1461 52.8771,-9.0851 -2.8759,-6.4211 -2.9611,-5.7978 m 2.9611,5.7978 -52.2367,8.8789 m 4.3946,13.8036 53.4765,-9.2942 2.6092,7.4403 -53.902,9.4817 m -0.8352,-3.1345 3.1961,11.995 m -0.2251,-0.8448 54.1944,-9.6528 -2.4282,-7.8446 m -2.6092,-7.4403 -2.7585,-6.9672 m 15.5925,1.2401 28.741,-4.9683 m -2.461,-8.5792 -1.378,-4.2698 -6.8459,-21.2175 -1.557,-4.312 -7.2471,-20.0678 -1.7166,-4.2543 -7.5389,-18.6868 -1.8501,-4.0975 -7.7237,-17.1024 -1.9523,-3.842 -7.8032,-15.3569 -2.02,-3.4982 -7.7836,-13.4837 -2.0504,-3.0782 -7.6701,-11.5115 -2.0434,-2.5938 -7.4722,-9.4859 -1.9997,-2.0629 -7.1972,-7.4249 -1.9221,-1.5042 -6.8535,-5.3593 m -0.0472,-0.0243 -3.4002,1.4599 -25.8573,-3.3936 4.9762,-2.5022 m 1.3537,-0.6817 5.5049,-0.629 m 1.5244,-0.1738 5.9999,1.3189 m 1.6794,0.3691 6.4525,3.3238 m -1.6337,2.3685 -6.3274,5.1543 -5.6968,7.2052 -24.2543,-2.7524 3.8401,-6.0107 m 0.9885,-1.5466 4.419,-4.3024 m -4.419,4.3024 25.1225,3.1045 m -5.6968,7.2052 -25.0584,-0.8615 -3.2451,7.6262 -0.6252,2.1676 -2.6367,9.1489 -0.4547,2.3792 -2.0213,10.5669 9.4968,0.6713 m -0.9597,1.4202 -8.8344,0.4312 0.2973,-2.5227 m 2.0213,-10.5669 22.6278,-0.4536 -22.1731,-1.9256 m 2.6367,-9.1489 23.8914,0.1852 -23.2662,-2.3528 m 18.9112,13.2421 4.355,-10.8893 5.0373,-9.1175 m 10.164,-16.5278 -17.6672,-2.4092 m -14.284,-26.6955 169.8864,108.6534 m 0.0645,-0.009 45.2228,490.4274 -30.25,-209.7399 0.0363,2.3396 m -10e-4,-0.0614 -13.5905,9.8744 -5.9183,4.3002 m -0.741,-0.6687 20.2314,-14.6963 m -0.0211,-1.3555 -15.0561,10.9343 -5.9091,4.2911 m 0.5731,-0.7373 6.4528,-5.5655 1.6947,-1.4909 12.2257,-8.6464 m 5e-4,0.0304 -13.9209,10.1069 m 0.3356,-2.8073 13.4578,-9.7652 m -0.0341,-0.5579 30.4342,214.2154 -79.0112,-98.9688 -5.1996,1.1157 m -0.1533,0.0373 84.371,98.062 0.2621,2.4228 -108.5648,-126.4421 m 1.2284,-0.297 22.6033,26.275 m 5.4814,-1.1912 6.0246,-3.6723 72.9581,102.6586 -67.4922,-108.6923 -5.4032,5.9646 m 5.4948,-6.1252 4.7073,-8.243 m 0.1115,-0.2968 3.9387,-10.486 m 0.1184,-0.482 3.1096,-12.6475 m 0.1086,-0.7172 2.2276,-14.6978 m 0.0787,-1.0008 1.3026,-16.5987 m 0.0256,-1.3291 0.3534,-18.3089 m 2.3526,1.2027 18.7028,-13.5933 m -0.0455,1.2431 -12.0024,8.7252 -5.9105,4.2969 m 0.7626,0.8344 1.964,1.7729 m 0.9733,0.682 13.8196,-11.4404 m -0.3618,2.1447 -12.5173,9.9542 m 1.8476,0.896 10.1061,-8.3164 m 0.3536,-1.323 -0.7512,2.8105 m -0.6153,1.5523 -6.4786,5.6935 m 1.6081,-0.2752 3.8543,-3.4019 m -1.2034,1.6204 -1.1672,1.0258 m -11.4318,-3.3954 17.096,-12.4324 m 0.0825,-8.3193 -0.1537,-2.512 m -1.2427,-1.0639 -13.6784,9.9198 m -1.4921,-1.4619 12.0252,-8.7163 m -2.7011,0.6064 -10.0713,7.2979 m -0.7396,-0.6448 8.4531,-6.1238 m -2.695,0.605 -6.5027,4.7095 m -0.7369,-0.6423 4.8881,-3.5392 m 0.4138,-0.7014 13.8756,-3.0721 m 0.0784,0.7578 -14.663,-274.1427 11.4157,253.8754 -0.7449,-3.0064 -10.6708,-250.869 14.3872,271.4759 0.2758,2.6668 m -0.2493,-2.4106 -12.2944,2.7154 m 1.064,-2.9628 10.9454,-2.4101 m 0.034,0.2401 -14.1627,-269.3147 13.4518,264.2913 0.3152,2.228 0.3957,2.7954 m -0.5339,-3.7722 -9.7747,2.1426 m 0.1784,-2.1685 0.0712,-2.3222 -0.0354,-2.4542 -0.1473,-2.5563 -0.2524,-2.6373 -0.357,-2.6961 7.4529,-1.6033 m -0.0937,-0.3782 -0.5647,-2.28 -1.4849,-5.26 -0.9505,-2.9865 -0.6996,-2.1943 -1.0394,-2.9196 -0.7525,-2.1142 -1.1181,-2.8206 m 0.331,0.8351 -7.083,1.4822 0.9866,2.1638 0.9401,2.3149 0.8774,2.4513 0.8072,2.5526 0.7298,2.6331 0.6481,2.6884 0.5563,2.7197 7.2492,-1.5539 m -0.7542,-2.6718 -7.0513,1.506 m -0.6481,-2.6884 6.9455,-1.4781 m -0.8297,-2.6066 -6.8456,1.4516 m -0.8072,-2.5526 6.8393,-1.4452 m -0.8714,-2.4476 -6.8453,1.4415 m -0.9401,-2.3149 6.9549,-1.4598 m -1.6551,-4.1962 -7.3151,1.5112 m -2.1356,-3.3711 7.9413,-1.6488 m -0.0129,-0.0292 1.1861,2.6896 m -2.0248,-4.5912 -1.2386,-2.52 m 0.0284,0.0578 -10.178,2.0998 m -1.99,-0.4268 11.7961,-2.431 m -0.5253,-1.0707 -1.2775,-2.3248 m -0.889,-1.6169 -1.3021,-2.0992 m -0.1915,-0.3083 -42.6892,8.7011 m -17.6819,-3.6576 0.6686,-6.372 -51.7344,10.3578 m 0.232,4.8423 -81.4907,16.4206 m -0.8164,-11.5592 81.7625,-16.2276 -0.975,-11.8753 -81.9957,16.0125 m -6.8256,1.333 -79.8475,15.593 m -1.211,-8.5655 -2.4401,-15.0094 m -0.3929,-2.1407 80.3197,-15.1477 -2.3075,-12.8784 m -0.0275,-0.1347 1.0889,-0.2015 m 5.8015,-0.9345 82.4373,-15.2644 -2.5587,-12.5322 m 0.7505,3.6757 54.5419,-9.967 -1.9953,-8.3845 -54.4368,9.8205 m 3.6536,17.1684 54.5176,-10.0913 -1.7391,-8.5131 m -1.9953,-8.3845 -2.2242,-8.1606 m 13.0827,1.1537 29.5762,-5.2956 m -1.0561,-4.1806 -1.1856,-4.1336 -6.3406,-22.1034 m -4.0739,-12.6253 -28.0957,4.6878 m -6.4126,-20.5308 27.6722,-4.4576 m -7.0061,-19.1422 -27.5142,4.2826 m -7.1886,-17.8748 27.5455,-4.1485 m -7.1477,-16.1479 -27.8313,4.0634 m -7.5829,-14.4152 28.5506,-4.051 m -6.3764,-12.5489 -29.8097,4.123 m -7.5981,-10.4234 31.3432,-4.2402 m -5.0932,-8.5451 -33.7187,4.4789 m -7.2646,-6.1604 34.0915,-4.4647 m -0.0224,-0.0181 -7.2693,-3.9225 -6.9303,-1.8041 -6.5294,0.2562 m 0.1513,-0.006 -33.3384,4.2941 m 6.2306,-0.2105 33.526,-4.3234 m 6.9212,1.8105 -33.814,4.3847 m -2.4261,28.7837 -10.5926,1.4525 m -4.5768,3.299 20.7773,-2.8636 m -38.1528,-6.7437 -4.2784,-0.2264 m -0.9316,15.7019 -0.0284,2.6233 m -1.6636,8.6152 -1.8067,13.3233 -1.2,14.3993 -0.6031,15.3305 m -10.0187,2.0834 -0.7128,-4.7032 -0.9956,-6.5681 -0.5601,-3.6466 m -0.5347,-3.481 -2.6532,0.344 1.1179,-4.6156 15.1834,2.5789 m 9.6648,7.6682 27.9406,-4.1951 m -50.1587,5.3472 0.9418,11.3883 m -7.9906,1.219 -1.452,-17.1663 -3.5827,1.152 m 3.5827,-1.152 4.7528,-2.2246 m 2.6532,-0.344 -0.7924,-2.2047 m -1.9273,-5.3239 -5.1237,-16.2791 m -11.2214,-2.0238 0.1505,-16.9241 -14.8648,-4.1697 -0.4761,16.6944 11.9179,21.2271 -16.2317,-4.8573 9.8871,20.2158 m -0.4068,0.1547 -17.3495,-5.3521 7.8692,-15.0184 4.3138,-16.3698 15.1904,4.3994 -14.7143,-21.0938 -3.4207,-15.965 -9.6258,-5.2316 -3.4305,-5.8868 7.1,21.8415 -3.3819,-5.9001 -3.7181,-15.9414 m 3.4305,5.8868 13.0465,21.1966 -9.377,-5.2419 8.9009,21.9363 -9.5843,-5.5258 5.2705,21.8956 -10.203,-6.09 -3.6197,-6.8442 -9.1164,13.2784 3.3138,-7.7607 m -0.192,0.2361 -2.7547,3.7024 -2.077,3.1887 -1.3744,2.643 m 3.0843,-2.0095 3.8755,7.7559 m -5.566,0.9435 -1.0867,-2.2221 m 1.0867,2.2221 1.4603,2.9839 m 10.4407,6.2042 5.4811,3.4243 17.3282,5.4057 m -0.412,-0.1638 -6.7824,-2.5669 -6.1746,-2.1959 -5.5046,-1.8053 m -0.1084,-1.153 3.3947,0.7565 m 2.0566,0.4582 6.0154,0.4264 0.3209,3.5131 m -0.3209,-3.5131 6.523,-0.3812 0.5803,6.4612 m 1.2286,0.6389 6.9478,8.3125 m -0.9444,-6.8885 -5.166,-1.2255 14.8387,6.7824 m -1.9748,-3.0867 6.1788,2.4454 m -7.2626,-14.9866 -7.3947,1.2177 m 19.7292,-13.775 -9.8893,-64.13 m 1.0594,-3.5316 -2.5345,-1.1906 m -1.1972,-20.8362 -2.5467,-6.1056 m -6.5818,-20.2356 -3.0634,-14.0542 -1.0897,-4.1734 -14.0137,-3.2119 -0.4603,17.3661 15.4629,3.6905 0.1008,-13.6713 m -0.1008,13.6713 -15.0026,-21.0566 -3.5397,-16.788697 -9.7486,-4.3102 -3.3987,-4.8476 7.1899,21.588197 -0.6698,17.0908 -2.6835,-21.9941 -0.7268,16.7819 3.4103,5.2122 -5.0256,16.3395 10.3313,5.1446 -5.3057,-21.4841 9.7066,4.6336 -9.0368,-21.7244 -3.3533,-4.9033 -3.8366,-16.684897 -6.7391,-12.7034 m 0.2933,0.3171 9.8445,17.2339 -8.0402,-15.2838 10.4163,4.4726 16.7176,3.5699 -8.7036,-11.8003 m 0.8735,0.1764 16.1044,7.5769 -0.6626,2.6398 m 0.6626,-2.6398 0.6811,-2.7114 m -3e-4,-0.001 -3.3514,-1.3255 -8.0445,-2.4497 -5.3893,-1.089 m -1.7267,-0.6579 -17.9537,-3.7336 27.5105,16.0154 m 5.6037,-8.0852 -2.5497,-29.5034 -7.9164,-0.4107 -7.4709,-0.5657 -6.9574,-0.7126 2.2354,24.4701 -6.4217,-1.871 -2.1752,-23.4528 -5.7036,-0.9825 -4.9942,-1.0995 m -4.2376,-1.2054 -3.4436,-1.2965 m 12.6754,3.6014 2.1687,23.0729 5.7101,1.3624 m -4.0335,0.6631 10.7929,12.4455 m -2.3761,10.8112 3.7912,16.740597 9.4971,4.3583 -13.2883,-21.098897 m 9.1068,-19.6826 -2.3464,-26.1237 m -6.9574,-0.7126 -6.3615,-0.8537 m 20.7898,2.132 2.4216,27.4644 m -7.5461,-1.9064 -7.0684,-2.3662 m -10.4552,-1.2079 -11.4607,-4.8215 m -3.0008,-2.5904 -2.5601,-0.9163 m 10.3009,4.4147 3.1219,1.5594 m 34.1633,-19.2191 8.6865,18.6824 m -0.4436,0.5498 231.8845,144.674397 m 1.2063,-1.6659 -232.0548,-144.115397 m 0.473,-0.3972 -1.4785,-17.4793 6.4457,14.876 m -0.8648,0.2722 232.6311,142.366597 m 2.2448,-1.0733 -232.8573,-141.834697 m 2.3831,-0.2237 -1.4473,-14.2949 8.7079,-0.0774 8.7876,-0.2402 1.1256,14.2857 -8.7588,0.249 -7.967,0.0736 m -0.448,0.004 46.9457,28.4679 109.0006,66.098197 50.248,30.4705 26.9155,16.3216 17.5038,-2.4761 1.3743,16.4065 m -3.153,-17.4584 515.3465,-72.7188 -41.9657,-13.3695 m -0.249,-0.0656 -268.1571,-85.432397 -235.5545,23.4542 m -0.0862,0.0617 227.6208,99.303597 m 0.0322,-0.1122 276.1448,-37.2747 m 0.1663,5.7317 -0.7854,9.8816 m 1.6569,-0.0135 1.2186,-9.6547 m 2.0268,0.2544 -2.6302,9.3936 m 2.6132,-0.1027 1.9711,-8.9944 m 3.5807,0.7023 -2.4909,8.0607 m 2.3478,-0.2786 3.1887,-6.9554 m 2.3995,0.9255 -2.5811,5.4825 m 2.1461,-0.6153 2.0813,-3.8838 m 0.9322,1.5055 -0.7646,1.2329 m -19.3761,2.92 0.3321,-10.0277 m -2.1552,-0.1218 0.1301,10.0982 m -1.7012,-0.0787 -0.5873,-10.0925 m -2.1451,-0.0264 1.0257,10.0122 m -1.6963,-0.1359 -1.4311,-9.8541 m -2.0427,0.0707 1.7868,9.6099 m -3.3011,-0.4293 -2.3365,-8.8977 m -1.7596,0.2098 1.8157,8.3035 m -2.345,-0.4837 -2.6,-7.2748 m -2.4897,0.6979 2.3617,5.8405 m -2.3054,-0.8451 -1.8153,-4.1703 m -1.1321,1.4051 0.5777,1.2869 m -94.2304,216.179 2.1527,1.1533 m 3.4682,63.7999 5.3723,3.1495 4.2055,0.2519 4.0385,0.7478 3.8311,1.2302 3.5961,1.6899 3.3154,2.1442 3.0091,2.5627 2.6825,2.9578 2.3184,3.3336 1.9423,3.6592 1.553,3.9548 1.1452,4.2156 0.731,4.4332 0.3102,4.608 -0.1116,4.7394 -0.5292,4.833 -0.9417,4.8699 -1.3451,4.8686 m -1.3423,-0.4441 0.7288,-3.7825 0.4107,-3.7576 0.082,-3.6801 -0.2423,-3.5784 -0.5715,-3.4313 -0.8914,-3.2674 -1.2092,-3.0654 -1.5135,-2.8274 -1.809,-2.5649 m -6.9875,-5.8873 -2.7826,-1.2927 -2.9659,-0.9327 -3.1269,-0.5563 -3.2525,-0.1799 -3.3481,0.198 -3.4082,0.5824 -3.4372,0.9611 -3.435,1.3339 -3.3948,1.6855 -3.3224,2.0237 -3.2119,2.347 -3.0744,2.6442 -2.9041,2.9133 -2.7069,3.1558 -2.483,3.3714 -2.2258,3.5448 -1.954,3.6871 -1.6621,3.7965 -1.3494,3.8598 -6.7392,-4.3684 1.3382,-3.8403 1.6501,-3.7768 1.9412,-3.6673 6.7752,4.3094 m -1.954,3.6871 -6.7624,-4.3292 m -1.6501,3.7768 6.7504,4.3489 m -1.3494,3.8598 -1.0285,3.8799 -6.7291,-4.3875 1.0184,-3.8608 m -1.0184,3.8608 -0.6857,3.8572 6.7201,4.406 0.6947,-3.8757 m -0.6947,3.8757 -0.359,3.8234 -0.017,3.7418 0.3211,3.6078 0.6588,3.4533 0.985,3.2617 1.3056,3.032 1.6078,2.7872 1.8926,2.5016 2.1651,2.1999 2.4079,1.8742 2.6266,1.5361 2.8216,1.1857 2.987,0.8246 3.1294,0.4515 3.2361,0.0822 3.3138,-0.2848 3.3568,-0.6548 3.3711,-1.0163 3.3566,-1.3697 3.307,-1.7009 3.2287,-2.0181 3.116,-2.3202 2.9798,-2.5974 2.8145,-2.8485 2.6257,-3.0755 2.4073,-3.2768 2.1763,-3.4442 1.9155,-3.5864 1.6405,-3.6818 1.3471,-3.7549 1.0452,-3.7889 m -0.3913,5.2655 -2.1075,4.7288 m -8.3396,13.224 -3.3671,3.9488 m -7.4458,6.9991 -4.0041,2.9829 -4.1479,2.5985 -4.252,2.1848 -4.3169,1.7607 -4.342,1.3125 -4.3273,0.8529 -4.2725,0.3813 -4.178,-0.0897 -4.0423,-0.5734 -3.872,-1.0491 -3.6543,-1.5198 -3.4077,-1.9681 -3.1246,-2.4082 -2.8172,-2.8306 -2.4677,-3.2195 -2.0996,-3.5819 -1.7128,-3.9104 -1.3012,-4.2062 -0.8772,-4.459 -0.4409,-4.668 v -4.8381 l 0.443,-4.9469 0.8841,-5.0141 1.3177,-5.031 1.7373,-4.9958 2.1425,-4.9083 2.5208,-4.7723 2.878,-4.5956 3.2129,-4.3585 3.502,-4.0824 3.7631,-3.7719 3.9832,-3.4109 4.1699,-3.0287 4.3039,-2.6078 4.3982,-2.1587 4.4476,-1.7005 4.4526,-1.2272 4.4125,-0.7258 4.3302,-0.2371 m -1.1766,-2.8937 5.3821,3.1456 m 2.4715,-1.1655 5.3981,3.1435 m 1.5025,0.6851 -3.3106,-2.1405 -3.59,-1.6881 -3.8237,-1.2303 5.3907,3.1436 m -5.3907,-3.1436 -4.0299,-0.7498 -4.1957,-0.2558 -4.3194,0.2314 5.3615,3.1552 m -4.4125,0.7258 -5.3497,-3.1629 4.4007,-0.7181 m -4.4007,0.7181 -4.44,1.2178 5.3371,3.1723 m -4.4476,1.7005 -5.3238,-3.1834 4.4343,-1.6894 m -4.4343,1.6894 -4.3843,2.1459 5.3099,3.1962 m -4.3039,2.6078 -5.2956,-3.2103 4.2896,-2.5937 m -4.2896,2.5937 -4.1553,3.013 5.281,3.226 m -3.9832,3.4109 -5.2665,-3.2427 3.9687,-3.3942 m -3.9687,3.3942 -3.7485,3.7541 5.2519,3.2605 m -3.502,4.0824 -5.2374,-3.2791 3.4875,-4.0638 m -3.4875,4.0638 -3.1989,4.3392 5.2234,3.2984 m -2.878,4.5956 -5.21,-3.318 2.8646,-4.576 m -2.8646,4.576 -2.4562,4.6545 m -0.052,0.0979 -2.1304,4.8884 5.185,3.3578 m -1.7373,4.9958 -5.1739,-3.3774 1.7262,-4.9762 m -1.7262,4.9762 -1.3076,5.0117 5.1638,3.3967 m -0.8841,5.0141 -5.1548,-3.4153 -0.4353,4.9291 5.1471,3.4331 m 0,4.8381 -5.1406,-3.45 v -4.8212 m 0.034,5.1231 0.4171,4.3505 5.1355,3.4656 m -4.2545,0.979 -0.881,-4.4446 m 0.881,4.4446 5.1317,3.48 m -3.8281,0.7134 -1.3036,-4.1934 m 1.3036,4.1934 5.1293,3.4928 m -3.4155,0.4064 -1.7138,-3.8992 m 1.7138,3.8992 5.1283,3.504 m -1.0382,2.6613 -1.9909,-2.593 -2.0992,-3.5723 m 2.0992,3.5723 5.1287,3.5136 m 0.1514,2.5226 5.1335,3.5275 m -2.0133,-1.1234 -3.1202,-2.4041 -2.8141,-2.8245 5.1304,3.5214 m 8.3404,-9.0478 -1.8911,-2.4936 -1.6076,-2.7776 -1.3069,-3.0207 -0.9876,-3.2489 -0.6628,-3.439 -0.3264,-3.5922 0.01,-3.7252 0.3511,-3.8057 m -0.3511,3.8057 6.7122,4.4237 m -0.017,3.7418 -6.7056,-4.4403 m 0.3264,3.5922 6.7003,4.4559 m 0.6588,3.4533 -6.6963,-4.4702 m 0.9876,3.2489 6.6937,4.483 m 1.3056,3.032 -6.6924,-4.4943 m 1.6076,2.7776 6.6926,4.5039 m -0.2356,2.0536 -2.4037,-1.87 -2.1622,-2.1939 6.6941,4.5119 m 0.493,1.0857 -2.6212,-1.5337 m -2.4037,-1.87 6.697,4.5179 m -30.7526,-35.2329 0.8185,-4.6719 m 10.3613,-11.5384 -5.1971,-3.3379 m 16.1231,2.964 2.2124,-3.5253 2.4691,-3.3523 6.8025,4.2708 m 2.7069,-3.1558 -6.8168,-4.2524 2.8897,-2.8956 6.8312,4.2347 m 3.0744,-2.6442 -6.8457,-4.218 3.1975,-2.3314 6.8601,4.2024 m 3.3224,-2.0237 -6.8742,-4.1882 3.3811,-1.6728 6.8879,4.1755 m 3.435,-1.3339 -6.901,-4.1642 3.4247,-0.9516 6.9135,4.1547 m 3.4082,-0.5824 -6.9252,-4.1469 -3.3965,0.5746 m 3.3965,-0.5746 3.3374,-0.192 6.9359,4.1409 m 3.2525,0.1799 -6.9456,-4.1369 3.1183,0.5585 6.9542,4.1347 m 1.3474,-0.276 -2.5665,-1.6346 -2.7765,-1.2912 6.9615,4.1345 m -6.9615,-4.1345 -2.9586,-0.9329 m -3.1183,-0.5585 -3.2428,-0.1839 m -10.1586,1.7182 -3.4219,1.3226 m -3.3811,1.6728 -3.3083,2.0095 m -3.1975,2.3314 -3.0599,2.6275 m -2.8897,2.8956 -2.6926,3.1374 m -2.4691,3.3523 6.7886,4.2899 m -54.5068,-40.3994 -2.0403,-1.2788 m -1.2429,1.6717 2.0381,1.2818 m -1.2073,1.6666 -2.036,-1.2847 m -1.1796,1.6513 2.0338,1.2876 m -1.1568,1.6557 -2.0317,-1.2906 m -3.2809,4.9184 2.0257,1.2992 m -3.0584,4.8696 -2.02,-1.3077 m -1.9041,3.2159 2.0162,1.3132 m -1.8184,3.1942 -2.0127,-1.3187 m -1.726,3.175 2.0092,1.324 m -1.6338,3.158 -2.0058,-1.3293 m -1.5472,3.1262 2.0025,1.3346 m -1.4612,3.1169 -1.9995,-1.3397 m -1.3813,3.093 1.9963,1.3448 m 23.8924,-40.2282 -2.0425,-1.2757 m 1.3057,-1.685 2.0448,1.2727 m 1.3457,-1.6959 -2.0471,-1.2697 m 1.3619,-1.6898 2.0494,1.2666 m 0.8063,-4.6874 1.481,-1.7212 m 1.5183,-1.7289 1.5619,-1.7378 m -47.9675,107.6451 1.9555,1.4272 -4.0091,133.4528 -1.8844,-1.6072 3.938,-133.2728 m -8.2247,140.3239 3.8723,1.5519 m -219.6141,82.9063 -112.8738,-131.8228 m 0.5649,-0.1366 110.7575,129.225 m -87.3495,-135.2202 5.7976,-3.8656 5.3534,-5.9214 4.8386,-7.9803 4.2552,-10.0163 3.6069,-11.9873 2.8972,-13.8866 2.1321,-15.6737 1.3017,-16.9991 m 0.2797,0.3043 2.5084,-1.8122 m -1.1651,0.8417 -36.3455,8.0009 m -1.0801,17.4115 34.5014,-7.7543 m 5.9814,-12.3759 2.7821,-2.0133 m -1.9097,-1.123 -2.3434,1.695 m -1.4659,-1.4363 2.3255,-1.6811 m -4.5977,-7.2384 -0.9555,-2.1377 -0.9056,-2.2724 -0.8468,-2.3921 m -0.9057,-4.084 -30.3206,6.5209 m -0.5807,-20.1575 27.9074,-5.8496 m -0.012,0.5235 0.0524,-2.2884 m -0.0524,2.2884 0.0489,2.4005 0.1553,2.505 0.2542,2.5702 m 20.294,5.0541 0.457,2.7156 m 0.357,2.6961 7.7468,-1.6723 m 3e-4,0.001 0.4861,2.2839 0.6324,2.9674 0.4028,2.2667 -12.937,-261.3934 11.9018,256.1593 m 0.0602,0.2829 -8.041,1.7417 m 0.1473,2.5563 8.4198,-1.8298 m 0.4276,2.3631 -8.812,1.9209 m -0.0712,2.3222 9.2767,-2.028 m 0.1426,0.8027 -0.5148,-2.8979 m -12.063,-38.4475 -8.9034,1.8415 m 2.7892,-12.8869 -2.2113,-3.1131 m -8.2782,-9.927 -4.258,-22.9797 -0.7936,-3.6234 -5.0358,-22.9984 -0.9884,-3.9142 -5.7354,-22.7047 m 6.6609,26.3696 -30.5733,5.666 m -11.7318,1.3451 1.4697,8.5636 -54.4659,10.2106 m 0.7204,4.1292 -82.3353,15.5278 m -6.2345,-1.5031 -1.0843,0.2037 m 0.4644,2.5921 1.9664,12.7602 -80.1285,15.383 m 7.0492,75.5541 76.1884,-16.1097 0.7197,-8.3017 m 6.6965,-1.4019 80.4793,-16.8476 0.7375,-9.1464 m -0.0994,1.2326 43.6843,-9.0551 1.9836,-2.8564 1.7539,-3.6413 1.5088,-4.3858 1.2455,-5.0904 0.9613,-5.7554 -50.8187,10.2594 m -0.0151,-1.4313 -0.5446,-11.3662 m -0.0291,-0.3548 52.4398,-10.4028 0.0525,-7.3961 -53.0975,10.4283 m -0.3407,-4.1499 -1.3972,-12.2563 -82.1876,15.7783 m -6.8419,1.3134 1.6054,12.5101 1.228,12.1082 m -3.607,-29.6382 1.02,-0.1945 m 9.526,78.6329 80.0904,-16.9347 1.1418,-8.2076 m 0.4396,-5.4525 39.3313,-8.1779 2.3646,-1.2706 2.1869,-2.0679 m -2.1869,2.0679 -41.6313,8.6475 m 0.2737,-4.1642 45.5281,-9.4076 m 1.7539,-3.6413 -47.1759,9.7067 m 0.132,-4.1554 48.5527,-9.9371 m 1.2455,-5.0904 -49.7983,10.1275 m 0.0388,3.6832 -0.113,-10.738 m -1.9382,-26.9141 53.5962,-10.4135 -0.5735,-8.1302 -0.8804,-8.3568 -1.1816,-8.512 m 1.1816,8.512 -54.2799,10.3026 m -0.6472,-4.4748 -2.197,-12.593 m 2.197,12.593 1.8062,12.489 m 0.0461,0.4041 53.9552,-10.3641 m 0.5735,8.1302 0.2606,7.8077 m -0.0525,7.3961 -0.3637,6.9237 m 14.7452,-11.924 32.7326,-6.4745 m -4.2377,-22.0328 -31.5828,6.0514 m -64.9348,85.4405 3.029,7.3959 -4.6511,0.9906 m -0.2186,1.0265 -79.6825,16.9929 m -1.4752,6.1528 79.2605,-17.0225 1.8972,-6.1232 1.5323,-7.1958 m 3.3374,5.1787 5.468,11.9357 -15.945,3.4515 m -1.0737,1.626 -2.8255,2.6981 m 5.3738,-6.5571 2.2355,-5.0139 m 12.2349,3.7954 5.6563,10.9679 -27.4095,6.0218 m 5.6617,10.0108 27.5518,-6.1348 -5.804,-9.8978 m 5.804,9.8978 5.9102,8.7343 -27.7097,6.244 m 5.793,7.5588 27.8817,-6.348 -5.965,-7.4548 m 5.965,7.4548 5.973,6.1025 -28.0668,6.446 m 5.7325,4.7368 28.2638,-6.5367 -5.9295,-4.6461 m 5.9295,4.6461 1.6688,0.8935 m -3.136,3.923 -21.1752,4.9226 m 5.4571,1.5938 11.1639,-2.6037 m 21.478,12.484 33.3884,-7.9438 m -4.834,7.9794 -33.0929,7.9345 m -5.052,5.8904 32.8001,-7.9055 m -5.7829,3.8659 -32.5123,7.8577 m -5.869,1.7736 32.4558,-7.8471 m -0.2762,0.0825 6.1643,-1.8418 m -13.4295,-19.8676 33.6787,-7.9308 m 3.6055,-11.987 -33.9651,7.8956 m 2.6176,-13.948 34.2441,-7.8377 m -188.1342,-6.9445 -2.1111,3.833 m -4.4448,-2.4171 1.7669,-5.0153 1.4392,-6.1551 -75.1198,16.0199 m 0.0375,-0.9376 -0.382,9.5546 m -0.2056,2.1829 72.4638,-15.6494 -2.0738,3.8305 -70.7213,15.3348 m -0.2086,2.2147 68.5797,-14.9081 2.3502,-2.6414 m 3.8407,-8.8458 -73.9209,15.8757 m -2.0518,17.895 -1.5318,5.6153 m -1.8689,4.2348 -2.1853,2.8204 m -45.483498,-8.2973 0.449,-8.3379 m 128.032398,-35.9611 1.0897,-7.2587 m -47.1541,-267.1802 1.4926,-22.0245 -5.1123,15.1803 m -14.3918,-68.3764 -0.0397,-6.2087 m 39.0241,-82.255697 41.3386,26.4387 m -6.6986,-4.323 16.0657,10.274097 m -3.8387,-46.365897 8.4097,-0.7291 -1.0389,-14.2256 -8.4384,0.7036 1.0676,14.2511 -8.6179,0.5766 -8.7374,0.4149 m 8.7374,-0.4149 -1.0967,-14.2713 -8.7663,0.4005 m 8.7663,-0.4005 8.647,-0.5564 m 8.4384,-0.7036 174.2477,-16.2839 m -3.0583,12.006 -7.7613,2.7229 -162.3892,15.7806 m -34.5238,1.9696 -1.1544,-14.2945 m -8.7079,0.0774 -8.5353,-0.0882 3.7157,15.96 m -0.7083,0.4113 232.3132,143.232997 m -4.5308,5.8914 -231.5777,-145.172597 m -0.8263,2.0523 231.2053,145.916497 m -0.9666,3.6903 -230.8522,-146.877997 m 0.0329,-0.2396 -1.0731,-0.0346 m 0.9135,1.868 115.0089,73.490597 m 2.6136,1.6701 2.6327,1.6822 110.4587,70.5831 m -0.007,0.1392 -230.7069,-147.461097 m 2.3544,-26.802 -8.2734,-0.2495 m 133.0742,133.067997 6.0461,4.861 m 95.3219,3.4051 1.0248,1.7808 m 1.8871,1.2536 -2.4841,-4.3571 m 1.3655,-1.2888 3.5853,6.5777 m 2.2161,0.6292 -3.5506,-8.4117 m 1.4378,-0.5622 4.5064,9.4742 m 2.5087,0.398 -3.6237,-10.8715 m 1.9455,-0.4368 4.3832,11.6245 m 0.829,0.0835 -2.2737,-0.2291 m 2.282,0.2299 2.3625,0.1671 m 0.009,7e-4 2.4322,0.1 m 0.009,4e-4 2.4781,0.0361 m 0.009,1e-4 2.4894,-0.0307 m 0.009,-1e-4 2.4808,-0.0975 m 0.009,-3e-4 2.4559,-0.1619 m 0.009,-6e-4 2.3999,-0.2271 m 0.009,-8e-4 2.3243,-0.2867 2.2169,-0.3474 m -0.9551,0.1497 1.662,-11.7026 m -2.1272,-0.2794 -1.2051,12.2301 m -1.715,0.2115 0.6865,-12.6605 2.2259,0.2178 m -2.2341,-0.2186 -2.3066,-0.1586 -0.1213,12.9912 m -1.7796,0.142 -0.4782,-13.2287 2.3706,0.0949 m -2.3793,-0.0952 -2.4128,-0.0343 1.0906,13.3755 m -1.8235,0.0716 -1.6993,-13.418 2.4234,-0.0292 m -2.4323,0.0293 -2.4165,0.0924 2.282,13.3591 m -1.8495,0.002 -2.8367,-13.2067 2.3954,-0.1537 m -2.4042,0.1542 -2.3457,0.2159 3.3431,12.9593 m -3.0056,-0.1448 -2.6214,-12.5387 m 0.008,-0.001 2.2669,-0.2741 m -4.4521,0.6036 4.1197,12.1622 m 22.208,-1.2009 3.0926,-10.5497 m 1.7057,0.4386 -2.5474,9.6135 m 2.7757,-0.7988 2.636,-7.8055 m 2.0408,1.1528 -2.2983,5.7402 m 2.5705,-1.5986 1.0883,-2.2338 m -30.1512,-77.8322 1.8972,-4.6202 m 1.6427,1.3042 -1.0672,2.1808 m -2.6041,-4.2515 -2.5979,6.1634 m -2.2111,0.4596 2.1337,-7.272297 m -1.5561,-0.2752 -2.6405,7.888897 m -2.3559,0.2974 1.5453,-8.618397 m -3.8157,-0.2673 -0.8719,9.170897 m -1.6092,0.1 0.48,-9.339497 m -2.0337,-0.0229 -0.9135,9.464397 m -1.6268,0.0289 0.4926,-9.472497 m -2.0468,0.0643 0.7697,9.416297 m -3.2349,-0.0552 -1.5458,-9.097697 m -3.776,0.4281 2.1702,8.508597 m -2.1638,-0.1935 -1.7658,-8.043297 m -3.1595,0.646297 2.6394,7.1127 m -2.6619,-0.4598 -2.5751,-5.8902 m -1.931,0.8508 2.1881,4.4553 m -2.6071,-1.1149 -1.0681,-1.9658 m -0.4961,-39.025397 2.2533,-6.5721 m -1.9747,0.0986 -2.4278,6.4348 m -4.0073,-0.2479 2.0038,-5.7904 m -3.2216,0.4636 -1.2971,5.0258 m -2.1211,-0.3962 1.3067,-4.1951 m -2.3097,0.6563 -1.0839,2.8817 m 15.6892,1.6191 2.5014,-6.6212 m 3.284,0.0424 -2.4325,6.4331 m 3.2406,-0.2646 2.2715,-6.0016 m 2.7644,0.2857 -2.0229,5.3414 m 2.6618,-0.4695 1.6978,-4.4799 m 1.83,0.4852 -1.3064,3.4448 m 2.3065,-0.9269 0.6282,-1.6555 m 3.3042,-17.5478 -0.127,-3.8174 m 3.0247,-0.1399 0.1304,3.9988 m 2.0361,-0.0672 -0.1264,-3.9304 m 2.9023,0.143 0.1118,3.55 m 3.1683,-0.5355 -0.0795,-2.5811 m -16.483,0.3794 0.0812,2.3581 m -1.9485,-2.1766 -2.6836,-1.1503 m 192.6259,-17.4481 1.1881,3.1986 m 2.1108,0.4609 -1.4983,-4.1578 m 2.3012,-0.4226 1.0905,4.8731 m 2.8214,0.3123 -1.1941,-5.5166 m 3.0309,-0.2268 0.7896,5.9327 m 2.1715,0.0878 0.2643,-6.135 m 3.301,0.0012 -0.2686,6.1723 m 2.7318,-0.0525 0.7914,-6.0022 m 3.0848,0.2301 -1.7551,5.8161 m 2.4854,0.0514 2.0735,-5.5342 m 2.4128,0.4255 -1.8927,5.1625 m 2.3476,0.0486 2.2272,-4.4375 m 0.6095,0.2841 -1.1591,2.4549 m -0.2313,0.2427 -0.7577,1.4701"
     style="fill:none;stroke:#000000;stroke-width:1.4;stroke-miterlimit:4;stroke-dasharray:none"
     id="path4" />
</svg>
