<?xml version="1.0" encoding="UTF-8" standalone="no"?>
<!-- Created with Inkscape (http://www.inkscape.org/) -->

<svg
   width="283.30566mm"
   height="189.62837mm"
   viewBox="0 0 283.30567 189.62837"
   version="1.1"
   id="svg5"
   xmlns="http://www.w3.org/2000/svg"
   xmlns:svg="http://www.w3.org/2000/svg">
  <defs
     id="defs2" />
  <g
     id="layer1"
     transform="translate(67.391177,-52.848347)">
    <path
       d="m 88.676464,139.26098 3.674216,-1.10355 m 0.210212,-0.18378 2.696421,1.1607 -0.455612,0.40021 -2.694887,-1.1639 0.454078,-0.39701 0.432355,-0.44387 2.698036,1.15729 -0.43397,0.44728 m 0.43397,-0.44728 0.406135,-0.4886 0.376846,-0.5257 0.341392,-0.55912 0.304377,-0.58447 -2.705047,-1.14233 -0.302551,0.5806 2.703221,1.1462 m -0.341392,0.55912 -2.701448,-1.15002 -0.3751,0.522 2.699702,1.15372 m 1.022615,-1.66929 0.264292,-0.60512 0.221086,-0.62318 0.177796,-0.63169 0.12981,-0.63511 0.0833,-0.63531 0.035,-0.62551 -0.0148,-0.61341 -0.0636,-0.59219 -2.718304,-1.11349 0.06496,0.58909 2.716924,1.11659 m 0.0148,0.61341 -2.715389,-1.1199 -0.03342,0.62201 2.713829,1.1234 m -0.0833,0.63531 -2.712163,-1.12704 -0.128058,0.63137 2.710421,1.13078 m -0.177803,0.63169 -2.708645,-1.13461 -0.219287,0.61928 2.706846,1.13851 m -2.706846,-1.13851 -0.262493,0.6013 m -0.302551,0.5806 -0.339619,0.5553 m -0.3751,0.522 -0.404469,0.48503 m -1.35927,1.19013 2.693432,1.16686 m -0.489823,0.2975 -2.692136,-1.16962 m -0.49649,0.23977 2.690918,1.17208 m -0.504084,0.18446 -2.68986,-1.17422 m -0.972635,0.40542 2.17125,0.95224 m -3.553539,-3.76243 -0.07149,-0.60015 -0.01984,-0.62013 0.02871,-0.63709 0.08049,-0.64495 0.130652,-0.65019 0.177535,-0.64444 0.226007,-0.63696 0.269505,-0.61799 0.311255,-0.59634 0.3497,-0.56968 0.384678,-0.53393 0.416295,-0.49519 0.444474,-0.45146 0.466037,-0.40182 0.485854,-0.35177 m 2.669011,-0.86421 2.467769,0.99727 m 0.870161,1.24492 -2.721742,-1.10569 m 0.20537,0.50112 2.720737,1.10802 m 0.159806,0.53679 -2.719597,-1.11062 m 0.177006,1.15578 0.0164,0.6101 m -0.03342,0.62201 -0.0816,0.63167 m -0.128058,0.63137 -0.176028,0.62786 M 70.666462,110.03881 63.065327,111.8938 53.056828,107.93434 -30.672877,74.810096 6.4682543,89.510556 m 0,0 46.5885737,18.423784 m -1.466797,-0.63529 11.492706,4.54493 m -0.0027,0.0374 121.267573,-29.592557 m -0.005,0.01863 -2.77958,0.678391 m -0.008,0.009 32.0208,86.688556 m 0.0777,0.23628 1.75226,-2.18898 m -0.0806,-0.23233 -30.98244,-85.19094 m -3.40839,0.814281 13.13944,35.459409 -37.83394,12.208 0.69821,0.24996 -4.42863,1.78432 -1.85467,0.95197 -1.4232,0.81537 -1.20023,0.74424 -1.05465,0.69803 -0.95031,0.66495 -0.69482,-0.26297 0.94986,-0.66358 0.69527,0.2616 m -0.69527,-0.2616 1.0542,-0.69656 0.69572,0.26013 m -0.69572,-0.26013 1.19976,-0.74269 1.42269,-0.81357 1.85409,-0.94975 0.69728,0.25456 m -0.69728,-0.25456 4.4277,-1.77972 m 0.69821,0.24996 37.8354,-12.24249 -0.69967,-0.21547 m 0.69967,0.21547 18.88008,51.12309 m 2.08902,-0.10814 -0.0177,0.64154 -0.0616,0.66685 -0.10742,0.68665 -0.14973,0.69985 -0.19085,0.7036 -0.23071,0.7044 -0.26885,0.69813 -0.30342,0.68395 -0.3356,0.66371 -0.36552,0.6387 -0.39015,0.60495 -0.41365,0.56814 -0.43053,0.5258 -0.44577,0.47623 -0.4558,0.42553 m -1.53602,0.97909 -34.67205,16.05314 m -1.28733,-0.80645 3.84294,-43.34653 -0.44429,-0.4912 -0.95179,-1.05066 1.12194,0.21193 -0.75242,-2.38347 -3.23792,-0.60439 m -0.0318,0.37645 2.9002,2.39948 m 1.12194,0.21193 0.18489,0.89636 m -0.93731,-3.27983 -0.62013,-1.39247 -0.35454,-0.79653 -2.09669,-0.38722 m -0.0653,0.77335 2.51656,0.4104 m -0.35454,-0.79653 -0.74835,-1.2368 -0.44344,-0.7334 -0.69821,-0.86373 -4.56816,54.07758 m -0.0499,0.25006 -3.13116,1.44171 m 0.0494,-0.25119 4.75851,-58.28962 m -0.42572,-0.28495 -0.72131,-0.48305 -1.14564,-0.52819 -0.81587,-0.37597 -1.58179,-0.44643 -4.83891,62.60277 -3.22945,1.48558 4.79634,-64.51193 -0.81354,0.0151 -1.08421,0.0203 -2.4724,0.3739 -0.72403,0.20072 -4.62109,66.16462 m -0.0474,0.25598 -3.33021,1.53339 m 0.0469,-0.2572 4.44207,-66.51794 -0.90305,0.36047 -1.26971,0.65982 -1.34202,0.69744 -1.22857,0.78761 -0.68056,0.43624 -4.09289,65.91078 m -0.046,0.25903 -3.43652,1.58231 m 0.0454,-0.26027 3.80987,-64.66805 -0.6545,0.58753 -1.39036,1.24748 -1.0406,1.08143 -1.36811,1.42233 -1.28786,1.53966 -3.30742,61.1996 m -0.0445,0.26215 -3.54727,1.63333 m 0.0439,-0.26342 2.91367,-57.43292 -1.16689,1.84227 -0.68932,1.26122 -1.08299,1.98104 -0.59299,1.27296 -0.96369,2.06936 -1.32323,3.40241 -0.3618,1.15361 -1.02795,22.51241 -1.12231,24.57847 m 0.0831,-1.82091 2.72917,-1.24743 m 0.52941,-0.48546 -3.24715,1.48278 m 0.0132,-0.29052 3.59928,-1.64174 m 0.31697,-0.54448 -3.89747,1.77493 m 0.0217,-0.47736 4.07109,-1.8506 m 0.0545,-0.27824 0.56716,-11.45606 -0.63738,-0.56624 -0.91615,-1.10513 -0.55684,-0.67207 -0.7938,-1.29736 -0.4663,-0.76171 -0.45424,-1.02298 m 8.47585,8.29259 1.89989,0.39881 m 0.44654,0.24786 -1.23,-0.31919 -0.89802,-0.23268 m 2.12802,0.55187 0.97327,0.10285 m 0.50501,0.0531 -0.21807,3.77875 m -0.0941,0.41177 -3.88075,1.76491 m -0.0338,0.62558 3.55642,-1.6214 m -0.36181,0.49083 -3.21276,1.46664 m -0.0145,0.26691 2.73836,-1.25134 m 2.09108,1.29632 3.43643,-1.58459 m 0.42815,-2.51875 2.78464,-1.27206 m 0.53718,-0.61291 -3.29819,1.50439 m 0.0249,-0.40132 3.59029,-1.63507 m 0.19891,-0.54007 -3.76028,1.70932 m 0.13181,-2.12252 0.82876,-0.13258 1.16075,-0.32496 1.26855,-0.35507 -1.28453,-0.31787 1.78811,0.11843 -0.0757,1.15363 m -1.71241,-1.27206 -1.89161,-0.18873 m 4.35446,4.86862 3.3302,-1.53558 m 0.43175,-2.34371 2.31526,-1.05825 m 0.6387,-0.59899 -2.93168,1.33831 m 0.023,-0.328 3.26845,-1.49011 m 0.45824,-1.1535 -3.65809,1.66118 m 0.0851,-1.2179 2.17403,-1.35128 -2.0451,-0.49461 m 0.0365,-0.52255 2.5136,-0.087 1.04389,-0.0361 -0.14988,2.04825 m -1.399,-0.908 1.27546,-0.93898 m 4.60661,0.16568 3.45051,-1.56927 m 0.0995,-0.3974 0.54091,-6.71992 -0.93183,1.17817 -2.31228,-0.53499 3.24411,-0.64318 m -0.93183,1.17817 -0.89792,1.00155 -1.22931,1.37142 -0.62367,-0.14611 m 0.62367,0.14611 -0.68701,0.67355 m 2.74454,3.63548 -3.13608,1.42973 m -0.0251,0.32414 2.80268,-1.27942 m -0.43116,0.42436 -2.38982,1.09199 m -0.44958,2.39445 -3.22898,1.48892 m 7.99906,-3.68845 3.13127,-1.44386 m 0.46093,-2.36664 2.27044,-1.03746 m 0.42855,-0.41979 -2.67923,1.22309 m 0.0296,-0.35073 3.03662,-1.38422 m 0.33173,-0.69176 -3.32054,1.51017 m 1.41769,0.66193 2.96224,0.14293 m -0.95834,-2.70785 1.68637,-19.26585 m -0.0981,0.298 -1.20491,3.03633 -0.51567,1.10715 -1.84825,-0.33171 m 0.10663,-1.26198 2.25729,0.48654 m -0.51567,1.10715 -0.87498,1.87807 -1.13887,-0.24919 m 1.13887,0.24919 -0.59293,1.10191 -0.78295,1.45449 m 0.13292,-1.57353 0.65003,0.11904 m -0.22725,-5.12384 3.21064,-2.04317 m 9.31082,-5.30384 0.44942,0.60116 0.50813,0.50176 0.56433,0.39365 0.61198,0.2867 0.65609,0.17319 0.69168,0.0623 0.72136,-0.0497 0.74504,-0.16151 0.75951,-0.27029 0.7679,-0.376 0.77031,-0.47871 0.76353,-0.57579 0.75057,-0.66717 0.73139,-0.75147 0.70424,-0.83101 0.67246,-0.90014 0.63262,-0.96324 0.58905,-1.01512 0.53818,-1.06011 0.48435,-1.09297 0.42407,-1.11802 0.36166,-1.13136 0.29536,-1.13514 0.22611,-1.1298 0.15536,-1.11157 0.0805,-1.08357 0.007,-1.04823 -1.33384,-0.49688 -0.0688,-0.99777 -0.14275,-0.94137 -0.21489,-0.87717 1.33858,0.49178 0.21339,0.87868 0.14115,0.94306 -1.33548,-0.49498 m -0.14275,-0.94137 1.33708,0.49329 m -0.21339,-0.87868 -0.28628,-0.80253 -0.35409,-0.72258 -0.42156,-0.63095 -0.48273,-0.53718 -0.54229,-0.43342 -0.59421,-0.32922 -0.6432,-0.21685 -0.68424,-0.10547 -0.71961,0.009 -0.74906,0.12428 -0.76901,0.23675 -0.78296,0.35195 -0.78989,0.4605 -0.787,0.56571 -0.77708,0.66558 -0.75994,0.75838 -0.73363,0.8463 -0.7017,0.92302 -0.66046,0.99306 -0.61449,1.05053 -0.56018,1.09993 -0.5022,1.13548 -0.43686,1.16173 -0.36912,1.17452 -0.2971,1.1761 -0.22206,1.16705 -0.1447,1.14313 -0.0666,1.10955 0.0122,1.06641 0.0907,1.00973 0.16766,0.94464 0.24186,0.87175 0.31573,0.78727 0.38327,0.69963 m 0.42299,-0.88307 0.48837,0.34557 m -0.15732,-0.11133 1.25579,0.51614 0.59994,0.0571 0.62569,-0.0401 0.64542,-0.13729 0.65998,-0.23185 0.66633,-0.32263 0.66762,-0.41096 0.66294,-0.49651 0.65199,-0.57642 0.63487,-0.6508 0.61137,-0.71824 0.5838,-0.78115 0.54846,-0.83251 0.51104,-0.88035 0.46683,-0.91715 0.41931,-0.94872 0.35708,-0.94065 0.78513,-7.48413 -0.18325,-0.73697 -0.25038,-0.69551 -0.31033,-0.6223 -0.36795,-0.5455 -0.42051,-0.46323 -0.47201,-0.3738 -1.42473,-0.52173 m -0.0938,0.16581 1.99051,0.72972 m 0.42051,0.46323 -1.98901,-0.73035 -0.42201,-0.4626 m -0.1515,-0.2027 -0.62442,0.01 -0.64849,0.10951 m 1.27291,-0.11901 0.59441,0.0894 m -0.0209,0.57592 0.36962,0.54451 1.98734,0.73134 m 0.31033,0.6223 -1.98559,-0.73264 -0.31208,-0.621 m 0.31208,0.621 0.25225,0.69387 0.18513,0.73515 1.98184,0.7361 m -0.18325,-0.73697 -1.98372,-0.73428 m 0.18513,0.73515 -0.76877,7.46056 1.96548,0.75967 m 0.88932,0.15711 0.36018,-1.12868 0.29382,-1.13255 0.22452,-1.12729 0.15378,-1.10916 1.33059,0.5012 m 0.0805,-1.08357 -1.3322,-0.49898 0.006,-1.04613 m -0.006,1.04613 -0.0789,1.08135 m -0.15378,1.10916 1.329,0.50361 m -0.22611,1.1298 -1.32741,-0.50612 m -0.29382,1.13255 1.32588,0.50871 m -0.36166,1.13136 -1.3244,-0.51139 -0.42265,1.11527 1.32297,0.51414 m -0.48434,1.09297 -1.32165,-0.51689 0.48302,-1.09022 m -0.82375,-0.33173 -1.96371,-0.76309 0.35531,-0.93723 m -0.35531,0.93723 -0.41762,0.94515 1.96202,0.76666 m 0.76004,0.47323 -0.53697,1.05735 1.32043,0.51965 m -0.58904,1.01512 -1.31929,-0.52239 -0.63162,0.96054 1.31829,0.52509 m -0.67247,0.90014 -1.31741,-0.52773 0.67159,-0.8975 m -0.52988,-0.87349 -1.95768,-0.77724 -0.58264,0.77774 1.95652,0.78065 m -0.61137,0.71824 -1.95557,-0.78393 0.61042,-0.71496 m -0.4667,0.54663 -6.96192,-2.78781 m 0.21518,-2.29071 -0.4518,4.80944 m 0.0533,0.5933 0.12245,0.43931 m 0.60457,1.28932 0.38883,0.52324 0.43963,0.43529 m 0.23236,0.005 1.95442,0.80259 m 0.62569,-0.0401 -1.95389,-0.80121 0.64574,-0.1356 1.95357,0.79952 m 0.65998,-0.23185 -1.95342,-0.79756 0.66628,-0.32036 1.95347,0.79529 m 0.66762,-0.41096 -1.95368,-0.79277 0.66249,-0.49379 1.95413,0.79005 m 0.65199,-0.57642 -1.95474,-0.78709 0.63404,-0.64764 m -0.63404,0.64764 -0.65138,0.57346 m -0.66249,0.49379 -0.66741,0.40844 m -0.66628,0.32036 -0.66013,0.22989 m -0.64574,0.1356 -0.62622,0.0388 m 0.81814,2.28897 1.31646,0.54567 m 0.0976,-0.53117 0.74531,-0.16018 0.75964,-0.26871 0.76788,-0.37423 1.31508,0.53912 m -0.7679,0.376 -1.31506,-0.54089 m -0.75964,0.26871 1.31519,0.54247 m -0.74504,0.16151 -1.31546,-0.5438 -0.72178,0.0486 1.31588,0.54488 m 1.67873,-1.39663 0.77015,-0.47675 1.31524,0.53716 m 0.76353,-0.57579 -1.31558,-0.53501 0.75012,-0.66488 1.31603,0.53272 m 0.73139,-0.75147 -1.31667,-0.53031 0.7035,-0.82843 m -0.7035,0.82843 -0.73075,0.74906 m -0.75012,0.66488 -0.76319,0.57364 m 1.13159,-5.36424 0.54716,-0.82902 0.50959,-0.87683 0.46524,-0.91358 m 0.0755,-0.17084 -7.9742,-5.11686 m 4.66365,-6.41302 0.46649,-0.27165 m 4.99348,-1.55758 1.34504,0.488 m -0.31777,0.48186 -0.48392,-0.53668 1.34398,0.48824 m 0.48273,0.53718 -1.34279,-0.48874 0.42288,0.63019 1.34147,0.4895 m 0.35409,0.72258 -1.34006,-0.49054 -0.3555,-0.72154 m 0.3555,0.72154 0.28776,0.80129 m 1.69312,2.31352 0.0672,0.99967 m -4.58343,8.77769 -1.96043,-0.77023 m -0.50959,0.87683 1.95898,0.77375 m 0.61304,0.74546 0.5879,-1.01238 m 21.13068,6.3395 0.0272,0.61079 m -40.56931,-24.87192 -1.2591,-0.20672 m 0.0562,-0.66561 0.75943,0.13893 m -4.78652,-4.40319 -3.36516,-0.60381 m -15.92337,-5.42385 -0.6967,-0.25678 m -0.72649,1.07215 -0.6962,-0.25858 m -2.50899,2.3658 -0.8722,0.6386 -0.80796,0.62005 -0.75745,0.60425 -0.71183,0.58992 -0.67379,0.57801 -0.63942,0.56724 -0.61267,0.55721 -0.58465,0.55015 -0.56036,0.54255 -0.53853,0.53576 -0.69085,-0.27398 -0.51763,0.52837 0.69048,0.27493 -0.50131,0.52414 -0.48315,0.51668 -0.46773,0.51363 -0.68938,-0.2777 0.46736,-0.51271 0.68975,0.27678 m -0.46773,0.51363 -0.4522,0.50872 -0.43924,0.50469 -0.68866,-0.27948 0.4389,-0.50379 0.45182,-0.50784 m -0.45182,0.50784 0.689,0.27858 m -0.43924,0.50469 -0.42492,0.50014 -0.41185,0.49602 -0.68794,-0.2812 0.4115,-0.49517 0.42455,-0.49927 m -0.42455,0.49927 0.68829,0.28035 m -0.41185,0.49602 -0.40272,0.49144 -0.38833,0.48855 -0.38052,0.48614 -0.36735,0.48184 -0.35949,0.4794 -0.68622,-0.28533 0.35914,-0.47858 0.367,-0.48104 0.38018,-0.4853 0.68726,0.28287 m -0.38052,0.48614 -0.68692,-0.28371 m -0.367,0.48104 0.68657,0.28451 m -0.70967,0.95406 -0.68588,-0.28612 m -0.34067,0.47268 0.68553,0.28691 m -0.33173,0.47043 -0.68522,-0.28768 m -0.32345,0.46709 0.68487,0.28845 m -0.31583,0.4653 -0.68453,-0.28924 m -0.30888,0.46238 0.68421,0.28998 m -0.29842,0.45781 -0.68387,-0.29072 m -0.29421,0.45757 0.68357,0.29146 m -0.28651,0.45564 -0.68324,-0.2922 m -0.27813,0.45222 0.68292,0.29292 m -0.53811,0.89964 -0.68228,-0.29438 m -0.51319,0.88832 0.68165,0.29577 m -0.72361,1.32109 -0.68069,-0.29784 m -0.67382,1.30046 0.67977,0.29988 m -0.42177,0.85963 -0.67916,-0.30118 m -0.40201,0.84984 0.67858,0.30245 m -0.38357,0.84603 -0.67797,-0.30374 m -0.36242,0.83733 0.67738,0.30501 m -0.34509,0.83029 -0.67681,-0.30621 m -0.32538,0.82373 0.67622,0.30742 m -0.30943,0.81875 -0.67564,-0.30861 m -0.29088,0.80907 0.67508,0.3098 m -0.27633,0.80614 -0.67453,-0.31094 m -0.25919,0.79862 0.67395,0.31207 m -0.2431,0.79158 -0.67342,-0.31318 m -0.33353,1.17628 0.6726,0.31483 m -0.20439,0.77615 -0.67207,-0.31588 m -0.19005,0.77118 0.67154,0.31692 m -0.25686,1.14649 -0.67074,-0.31848 m -0.10044,0.49355 0.60613,0.64347 m -0.77406,0.2409 0.60764,0.67533 m -0.78915,0.4296 0.60968,0.71541 m -0.75276,0.29718 0.61047,0.79525 m -0.78848,0.8744 0.54403,0.76621 m 0.11301,-0.31544 -0.51509,1.4378 m -0.25223,-0.12393 -1.3308,34.14326 0.64301,0.36663 1.3538,-34.18263 -0.66601,-0.32726 m 12.16027,-30.34385 0.38799,-0.48773 0.6876,0.28205 m -0.6876,-0.28205 0.40238,-0.49059 m 2.19413,-2.51878 0.48279,-0.51578 0.69011,0.27588 m 0.50131,-0.52414 0.518,-0.52932 m -0.69085,-0.27398 0.53818,-0.53478 0.55994,-0.54154 0.58428,-0.54915 0.69199,0.27099 m -0.69199,-0.27099 0.6123,-0.55618 0.63902,-0.56615 0.67339,-0.5769 0.71144,-0.58881 0.69355,0.26665 m -0.69355,-0.26665 0.75703,-0.60306 0.80753,-0.61883 0.6944,0.26424 m -0.6944,-0.26424 0.87178,-0.63733 m -0.98534,1.52162 -0.69397,-0.26546 m -0.77531,1.45963 -0.69316,-0.26776 m 0.0193,0.84577 -0.69275,-0.26887 m 0.0533,0.83611 -0.69237,-0.26996 m -0.50495,1.37732 -0.69162,-0.27199 m -0.55994,0.54154 0.6912,0.273 m -1.74702,0.79015 -0.50094,0.52319 m -24.00116,-54.760752 -4.70157,1.047565 -81.143288,-24.463617 55.936488,-8.93802 84.4829,20.08386 -59.2761,13.317777 4.17666,-0.92964 m -1.67219,0.375734 -2.50447,0.553906 m 0,0.0087 -55.360145,-16.691447 -25.797007,-7.77796 m 0.125069,-1.60263 -0.04977,-1.14586 m -0.404151,0.007 7.784491,-1.21084 -0.115306,-3.09586 -7.085938,-1.95215 -9.841283,1.43849 -15.6422717,-4.50075 -41.5920003,5.66623 -1.96281,0.29023 -1.86161,0.32273 -1.74392,0.35254 -1.60907,0.37946 -1.45775,0.40307 -1.29079,0.42341 -1.11125,0.44064 m -1.63092,0.91493 -0.50009,0.46664 m -0.32705,0.92771 0.6726,6.07354 m 0.55377,0.54657 -0.63212,-5.72939 -0.41322,-0.43831 m 0.41322,0.43831 0.64366,0.4195 0.62833,5.72106 0.8858,0.55943 -0.64223,-5.88457 -0.8719,-0.39592 m 0.8719,0.39592 1.09112,0.36833 0.62338,5.75852 -1.07227,-0.24228 1.45991,0.87781 4.37801,1.24777 5.92492,0.85223 m -0.12869,-0.0384 -2.16392,-0.5664 -0.66895,-6.59952 2.13178,0.12573 2.23461,0.0773 2.3159,0.0274 0.760306,7.93826 0.961708,0.31864 -0.319352,0.63339 m -0.04786,0.0949 -4.558982,-1.85227 1.61097,0.23534 -0.72269,-7.39568 m -2.23461,-0.0773 0.70109,7.04019 m 0.38394,0.15933 2.02131,3.05393 1.485343,3.952716 -6.984793,-4.763716 5.49945,0.811 2.147754,0.12885 -0.142532,1.00843 m -0.01198,0.0847 -0.387059,2.738125 m -0.120835,-0.0074 -5.106748,-0.776473 5.529314,4.93273 m -0.0062,-0.09869 -0.169889,-2.683587 -0.246433,-1.373981 m 0.167375,0.513794 0.07617,0.829072 m 0.197167,3.098612 -4.596124,-0.723688 -0.95134,-4.494263 -1.87804,-3.987241 -2.70203,-3.21607 8.20148,4.02707 m 2.147749,0.12882 0.48006,-0.95268 m -0.423334,-1.3866 -2.353515,-0.57 m 3.052835,-0.65331 0.178118,1.0468 m 0.139329,-0.93506 91.953722,36.373354 m 3.807645,0.79084 -95.734697,-37.691144 m -0.01127,0.11594 12.274074,4.83741 m 0.438653,0.0905 33.026145,13.007126 M 12.049281,91.662848 0.34252725,87.033275 m 0.97649805,4.617455 -2.40448,0.187537 6.602571,0.556048 0.777002,-0.05411 m -0.777002,0.05411 -7.2062711,-0.370046 -2.2228179,0.683922 -0.537183,0.307736 -2.025915,1.162156 -0.466883,0.415475 -1.817053,1.616684 -0.395076,0.507021 -1.5964693,2.04769 -0.323638,0.580786 -1.367552,2.454041 5.7311133,0.16174 1.941036,-2.932513 -5.9809593,-0.264054 m 1.5964693,-2.04769 6.5913529,-0.147638 -2.2068629,2.459382 m 2.2068629,-2.459382 -6.1962769,-0.359383 m 2.283936,-2.032159 6.37370695,0.442648 2.69922605,-1.403218 -7.047018,-0.201586 m 0.537183,-0.307736 6.509835,0.509322 2.919254,-0.823198 m -0.247862,-0.37719 2.7119791,0.854948 0.760942,0.239501 2.8315436,1.38901 0.792586,0.389175 2.924837,1.928839 0.81108,0.534935 2.988257,2.465546 0.815631,0.672861 3.019081,2.99096 0.805524,0.79824 3.015112,3.50071 0.78105,0.90646 2.973626,3.98325 0.742606,0.99465 2.893562,4.43153 0.691833,1.05976 2.773362,4.83762 0.630396,1.09934 2.613634,5.19099 0.560493,1.1135 2.414164,5.48529 0.48514,1.10204 2.178156,5.71268 0.406665,1.06669 1.907937,5.86838 0.328268,1.01018 1.606259,5.94696 0.252783,0.93562 1.278811,5.94685 m 1.875816,1.49474 0.507392,0.31631 m 0.348667,0.26736 0.509905,0.39092 0.853864,0.77814 m 0.342979,0.36362 0.496623,0.52729 m 0.269954,0.32869 -4.718552,1.56972 m 1.180518,0.016 3.80021,-1.26667 m -0.197062,-0.23979 0.481171,0.58547 m 0.32303,0.44715 0.460613,0.63822 m 0.138245,0.21736 -2.88036,0.96949 0.411136,0.45074 0.397193,0.50004 0.378248,0.5484 0.356579,0.5879 0.331073,0.62519 0.301572,0.6528 0.270616,0.6758 0.234553,0.69019 0.198305,0.70065 0.159385,0.70202 0.117925,0.69799 0.07623,0.68453 0.03328,0.66456 -0.0085,0.64145 -0.05157,0.60825 3.526711,-1.24621 m -0.06421,-0.31726 -0.198358,-0.76261 -0.152374,-0.58711 -0.243708,-0.77071 -0.185049,-0.58375 -0.288396,-0.77123 -0.214842,-0.57534 -0.330067,-0.76194 -0.243126,-0.56058 -0.368565,-0.74477 -0.267044,-0.54015 -0.403516,-0.71723 m 0.06093,0.10832 -2.647844,0.89924 m -0.378248,-0.5484 2.707349,-0.91655 m -0.03164,-0.0561 -0.434234,-0.68122 m 0.138086,0.21664 -2.776749,0.93723 m -0.833491,-0.84526 3.007545,-1.00973 m -0.276516,-0.3832 -3.15841,1.05799 m 0.247544,-1.53736 -0.14695,-2.74614 -12.252271,4.02164 -0.693844,-5.73159 -1.030843,-5.85324 -1.354852,-5.89616 -1.665049,-5.86695 -1.953498,-5.76035 -2.216335,-5.58147 -2.449857,-5.33278 -2.649775,-5.01708 -2.816887,-4.64384 -2.943727,-4.21709 -3.034348,-3.74454 -3.08602,-3.23979 -3.100176,-2.70338 -3.079274,-2.15033 -3.0226786,-1.58644 -2.9359231,-1.01954 -2.818844,-0.45765 -2.67512305,0.0939 -2.50901705,0.62992 -2.3233059,1.14022 -2.119498,1.62917 -1.902513,2.08664 -1.6744423,2.51251 -1.437243,2.90552 -1.194356,3.26205 -0.947692,3.58267 -0.698871,3.86794 -0.449553,4.11509 m 0.04408,-0.40333 -0.535596,0.0546 -0.09795,-4.3007 -0.01527,-0.66812 0.150522,-4.06622 0.02553,-0.69117 0.399547,-3.80138 0.07369,-0.70112 0.645901,-3.50742 0.128323,-0.69617 0.891778,-3.18402 0.18892,-0.67514 1.131544,-2.83282 0.254608,-0.6369 m -0.254608,0.6369 5.9857213,-0.47516 -1.666134,3.36439 -5.6400513,0.61873 m 0.18892,-0.67514 5.4511313,0.0564 -0.805947,2.1817 m -1.0900573,1.57808 -4.635825,0.043 m -0.128323,0.69617 4.71483,-0.66511 m -2.170933,4.07546 -3.189798,0.0971 m -0.473234,4.50249 2.160773,-0.11462 m -1.047353,4.77283 -1.289474,0.0992 m 0.113216,4.96882 0.04871,0.6337 0.180473,2.34826 m 4.17889,-1.016 0.137054,-1.18113 0.626612,-3.31081 0.840979,-3.05572 1.0548143,-2.77014 1.261639,-2.452 1.46394,-2.10735 1.656397,-1.73353 1.8397009,-1.33458 2.00736705,-0.91348 2.16265105,-0.47037 2.297404,-0.013 2.41255,0.45453 2.5066631,0.93376 2.5731516,1.40737 2.613713,1.88241 2.625857,2.34225 2.609215,2.78667 2.560055,3.20646 2.480046,3.59444 2.369423,3.94436 2.229749,4.25246 2.060787,4.50863 1.865074,4.71525 1.645127,4.86053 1.406577,4.94937 1.14935,4.97509 0.88056,4.94107 0.600578,4.84746 0.317579,4.69434 0.03315,4.48744 -0.246804,4.23204 -0.521388,3.92745 -0.782875,3.58624 -1.031875,3.21072 -1.262751,2.80739 -1.47656,2.38341 -1.669547,1.94056 -1.840071,1.49228 -1.987127,1.03809 -2.111745,0.58545 -2.213081,0.13777 -2.291477,-0.30107 -2.345267,-0.72483 -2.377598,-1.13123 -2.389082,-1.52243 -2.380218,-1.88767 -2.3498696,-2.23314 -2.1965711,-2.43419 m 2.1965711,2.43419 6.6981906,-2.33236 -2.212155,-2.39728 m 0.485855,-0.16687 -18.9481617,6.50856 -1.293257,0.44371 m -0.29501,0.10186 -13.2469023,4.55023 m 0.122688,-0.39582 14.3165853,-4.91045 1.082754,-1.06971 -15.1948693,5.19633 m -0.073,0.35968 -13.039857,4.46556 -0.629788,2.26668 12.971224,-4.47908 0.698421,-2.25316 0.523875,-2.58096 -13.107299,4.44397 -0.456433,2.60255 m -0.629788,2.26668 -0.793961,1.91289 12.902088,-4.48459 0.863097,-1.90738 m -0.863097,1.90738 -1.014174,1.54835 -1.153213,1.18287 -12.764897,4.47252 -1.21061,0.79282 -1.32169,0.41479 -1.41719,0.0409 -1.49834,-0.32644 -1.56337,-0.68501 -1.61287,-1.02621 -1.64653,-1.35451 -1.6668,-1.665 -1.67182,-1.9567 -1.66219,-2.22348 -1.63991,-2.47263 -1.60346,-2.69505 -1.55554,-2.89425 -1.49524,-3.06771 -1.42425,-3.21805 -1.34152,-3.33809 -1.2506,-3.43641 -1.14893,-3.5057 -1.03923,-3.54904 -0.92033,-3.56153 -0.79549,-3.55068 -0.66278,-3.51047 -0.52454,-3.44273 -0.38095,-3.34722 -0.23288,-3.22405 -0.0806,-3.07258 0.0736,-2.89367 0.23,-2.69052 0.38679,-2.45846 0.54354,-2.2012 0.69725,-1.91928 0.8486,-1.61743 0.99499,-1.29095 1.13501,-0.94785 1.26662,-0.58835 1.38951,-0.21495 1.50058,0.17095 1.59846,0.55848 1.68201,0.95232 1.74823,1.34146 1.79885,1.72649 1.82901,2.09441 1.84028,2.45055 1.82954,2.7805 1.79888,3.08414 1.7463,3.35476 13.581408,-3.63111 -1.757204,-3.28078 -1.817317,-3.01342 -13.552067,3.48641 m -2.0571,1.27797 -0.23911,0.54954 -0.43362,1.43562 1.6832,-0.43889 m 0.46077,0.70507 1.56334,2.6952 1.51659,2.92767 1.45251,3.12891 1.37054,3.29364 1.27368,3.42283 1.16062,3.51097 1.03587,3.5623 0.89633,3.5687 0.74951,3.53718 0.593727,3.46308 0.431536,3.34865 0.266753,3.19913 0.09999,3.0159 -0.06562,2.8008 -0.227568,2.55702 -0.387138,2.2883 -0.53763,1.99985 -0.68125,1.69622 -0.81452,1.37999 -0.93822,1.05497 -1.04986,0.72448 -1.14956,0.39246 -1.23566,0.0643 -1.30858,-0.25828 -1.36802,-0.57484 -1.4146,-0.87799 -1.44677,-1.16962 -1.4669,-1.44616 -1.47312,-1.7063 -1.46598,-1.94521 -1.44801,-2.16903 -1.41774,-2.36961 -1.37626,-2.54902 12.25558,-3.87509 1.39017,2.4951 -12.26949,3.92901 m 1.41774,2.36961 12.28857,-3.98209 -1.43682,-2.31653 m 1.43682,2.31653 1.47214,2.11709 -12.3127,4.03403 m 1.46598,1.94521 12.3417,-4.08424 m 2.1e-4,-0.0468 -1.49341,-1.89354 m 1.49341,1.89354 1.50328,1.65349 1.07326,0.99883 m -0.155363,0.65193 -11.823067,3.9792 m 1.44677,1.16962 9.85499,-3.33915 m -0.65262,1.56393 -7.78777,2.65321 m 1.36802,0.57484 5.63835,-1.929 m -0.90238,1.01137 -3.42739,1.17591 m 4.02608,4.25355 12.698073,-4.45558 1.277435,-0.80976 m 1.153213,-1.18287 -12.833112,4.4823 -1.084999,1.17309 m 1.084999,-1.17309 0.945198,-1.54606 m 1.880182,-6.78212 0.274425,-2.91314 0.08739,-3.19868 -0.104695,-3.45239 -0.297313,-3.66895 -0.488817,-3.84556 -0.676355,-3.97894 -0.858096,-4.06683 -1.029258,-4.10509 -1.19052,-4.09961 -1.33664,-4.04146 -1.46759,-3.93671 -1.57906,-3.78333 -1.67347,-3.59172 m -2.03189,0.81995 -4.89821,1.31143 0.10914,-1.91871 0.21847,-1.77519 0.32748,-1.61325 m -0.32748,1.61325 2.82252,-0.74184 m -0.35107,-0.60523 -1.59163,-2.43555 -1.60208,-2.15228 -1.59425,-1.84626 -1.57085,-1.52937 -1.52945,-1.19719 -1.47429,-0.86042 -1.40351,-0.51819 -1.31974,-0.17936 -1.22481,0.15825 -1.11977,0.48575 -1.00589,0.80274 -0.88392,1.10787 -0.75629,1.39689 -0.62375,1.66709 -0.48866,1.91783 -0.35084,2.1472 -0.21217,2.35654 -0.074,2.54116 0.0634,2.70354 0.19926,2.84078 0.3301,2.95105 0.45963,3.03954 0.58227,3.10211 0.7013,3.14026 0.81339,3.15137 0.9186,3.13849 1.0164,3.09932 1.10696,3.03819 12.24592,-3.71266 m 0.0153,-0.0177 1.18478,2.89351 1.26138,2.78042 1.33032,2.64785 m -1.34175,-2.61972 -12.24698,3.82082 1.3236,2.70661 m -1.3236,-2.70661 -1.26098,-2.84146 -1.18801,-2.95106 m 1.18801,2.95106 12.24375,-3.76653 m 2.81771,-0.86109 -0.9796,-2.14842 -0.92011,-2.238 -0.85127,-2.30783 -0.7774,-2.35868 -0.69596,-2.38876 -0.60889,-2.39851 -0.51726,-2.39175 -0.4197,-2.35995 -0.31946,-2.31312 -0.21535,-2.24401 -0.10874,-2.15334 -1.9e-4,-2.04745 m 0.10914,-1.91871 3.90099,-1.03438 m 1.17367,-2.53305 13.570503,-3.55713 m -0.06977,-0.11568 18.31354,-4.79695 -1.641317,-2.28335 -18.121902,4.67646 m -0.297868,-0.4939 -1.855311,-2.71391 -13.526295,3.41982 m -1.84028,-2.45055 13.49346,-3.35801 -1.86846,-2.03806 -13.45401,3.30166 m -1.79885,-1.72649 13.40845,-3.25115 -1.79935,-1.29722 -13.35733,3.20691 m -1.68201,-0.95232 13.30129,-3.16912 -1.65873,-0.5274 -13.24102,3.13804 m -1.50058,-0.17095 13.1772,-3.11361 -1.45616,0.23267 -13.11055,3.09589 m 0.20023,5.3149 2.53841,-0.61765 m 1.33385,0.22979 -4.87815,1.1906 m -0.88392,1.10787 7.13938,-1.75099 m 1.41412,0.84952 -9.30979,2.29836 m -0.62375,1.66709 11.37465,-2.83107 m 1.04177,1.01425 -0.16878,0.58497 m -0.0246,-0.0446 -12.71167,3.19429 m -0.35084,2.1472 12.65373,-3.21442 0.40878,-2.12707 m -0.40878,2.12707 -0.26787,2.33206 -12.59803,3.2389 m -0.074,2.54116 12.54514,-3.26744 0.12692,-2.51262 m -0.12692,2.51262 0.0137,2.67123 -12.49545,3.29975 m 0.19926,2.84078 12.44941,-3.33558 -0.15322,-2.80495 m 0.17836,2.82816 0.28813,2.90771 0.42048,2.99215 0.54922,3.05337 0.67059,3.08573 0.78888,3.0988 0.8991,3.0825 m -0.0193,0.007 -12.2664,3.60752 m 1.0164,3.09932 12.25349,-3.65955 -1.00349,-3.04729 m 2.57805,-0.98446 7.46876,-2.19422 -0.68738,-2.36484 -0.59804,-2.37535 -0.50411,-2.36956 -0.40444,-2.33889 -0.18344,-1.39221 m -0.34851,-0.83754 -7.30411,2.02052 m -0.21535,-2.24401 6.61072,-1.808 m 1.88392,-0.93245 13.584549,-3.7075 -1.676612,-3.51533 m -0.395526,-0.73846 18.479593,-4.91884 -1.597501,-2.53611 m 1.675156,-0.43878 -1.643592,-2.27627 -1.669917,-2.00567 -1.677255,-1.71381 -1.667536,-1.40827 -1.638988,-1.09226 -1.5952,-0.7702 -1.533604,-0.44463 -1.459733,-0.12046 -1.370912,0.20031 19.4866763,-4.73765 1.444863,-0.22199 -19.5606273,4.75933 m 0.469424,-0.24713 -0.925142,-1.17538 m -0.404892,-0.2013 -7.999624,-2.99447 1.540007,0.24336 -0.232595,-2.38032 -1.756225,0.0929 1.232324,-4.2458 0.613516,-4.61967 3.360472,0.26892 1.932861,4.43322 -5.906849,-0.0825 -4.361071,-5.59398 0.027,-4.53268 -3.52893,-1.31776 3.50192,5.85044 4.974587,0.97431 -0.08133,-4.58203 -0.775653,-4.263 -6.825084,-4.64817 5.392127,0.97539 1.432957,3.67278 2.554605,0.19302 0.146103,1.6424 m 0.0084,0.094 -2.709095,-1.92942 -5.007507,-0.92649 -1.81758,-3.72168 -2.61837,-2.93066 8.0105,3.90604 -1.95236,-2.75608 m 0.255429,0.0388 1.574694,0.23968 -0.243496,-2.491791 -1.794937,0.114829 1.266723,-4.283974 3.919272,3.245088 -1.186815,0.440029 -2.204243,0.484028 m -1.899447,0.158909 -4.0572,-5.24891 5.428433,0.920856 3.742822,0.257387 -0.869606,-1.987074 -0.734722,-1.678887 -0.551074,-1.259205 -0.960252,-0.064 -0.627168,4.731782 -4.445403,-5.560959 -0.98303,4.640103 -1.88362,4.280959 -0.71099,0.972872 0.64386,0.161237 1.12197,0.121973 0.67924,0.07382 1.92807,-0.02791 0.10035,0.990048 -1.97778,-0.47048 -1.81782,-0.36214 m 0.2286,0.41294 5.80885,1.03227 m -0.12576,-0.0379 -2.11609,-0.57473 m -0.10035,-0.990047 2.03523,-0.254952 0.18121,1.819729 m 0.630479,0.19439 6.545368,2.55248 m -0.290354,0.50081 -0.324485,2.00755 m -0.02717,0.1682 -0.209285,1.29463 m 0.182298,2.21718 0.1846,2.07978 0.581422,2.11736 0.314801,1.14586 0.390154,1.42012 m -0.704955,-2.56598 -2.73685,-2.28497 -5.783153,-5.18948 0.91691,4.26452 4.947576,5.50699 m -0.08133,-4.58203 2.155428,0.16761 m -2.155428,-0.16761 -4.866246,-0.92496 -4.54469,-5.583 -4.22587,-5.47015 2.21398,3.86757 2.01189,1.60258 -2.08225,-3.78867 -2.14362,-1.68148 -2.0179,-1.999431 m -0.14677,-0.08128 1.27315,0.704956 4.30922,1.512045 -2.73667,-1.220395 0.95443,0.334433 0.91663,0.375552 m 0.67011,-1.361944 5.81686,1.02018 m 2.266899,2.280654 2.298567,0.55139 -0.33782,-3.52721 m 1.186815,-0.440029 1.045025,-0.387244 0.479954,5.117383 -2.373974,-0.7629 m 2.373974,0.7629 0.713105,0.28324 2.319867,18.09998 m 0.447887,0.86408 -0.163354,1.27188 0.74258,-0.13886 -0.298927,-0.58472 m -0.443653,0.72358 -1.329002,0.6831 -1.021874,0.37269 -1.160568,0.42352 0.322712,3.36942 -2.246154,-0.53391 m -1.7898,-0.28281 1.887485,2.48161 -7.828224,-3.79169 5.697111,1.19544 m -0.122952,-0.0373 -2.070312,-0.58177 -0.09586,-0.94586 -1.88926,-0.0185 -0.66598,-0.092 -1.10011,-0.152 -0.63177,-0.18048 0.6923,-0.97676 1.83709,-4.22606 3.989142,5.36184 m -0.121391,0.0487 -5.704841,-1.18449 -4.24677,-1.73561 -1.04682,1.14437 -0.88543,-0.80888 -0.65945,-0.60272 -0.50678,-0.46313 m -0.12864,-0.5484 0.89699,-0.82375 2.42829,-3.76947 1.33345,-4.20989 0.14613,-4.37988 1.8606,6.06559 -2.00673,-1.68571 0.80004,6.06412 -2.13349,-1.85423 -0.31853,-2.03496 1.33882,-4.02831 0.31316,1.85338 -0.14566,-5.55334 m -0.0318,-0.12784 -0.1357,3.8278 -1.02029,6.06327 m 2.13349,1.85423 -2.23165,4.01775 -2.33013,-2.10251 -0.30687,-2.23007 m -0.0337,0.0685 -0.40714,1.07262 -0.21141,0.92189 -0.0114,0.76158 m 2.25388,2.65239 1.5949,0.6581 -0.54808,-1.80247 m -0.0448,1.55784 0.2363,0.21529 4.24212,1.75173 2.53941,2.66729 1.760592,3.47546 -3.570812,-1.51265 -2.02129,-3.56055 5.592102,5.0732 4.911936,1.06262 -6.672528,-4.53808 5.288811,1.1244 1.383717,3.41368 m 2.834508,-0.64014 1.36443,-0.19843 -14.121396,3.43588 m -0.11803,-0.10724 12.874996,-3.13021 m 0.247835,-0.036 -4.46606,-2.73751 6.361932,0.55231 0.309192,1.13867 -0.0934,0.50892 m 0.458497,0.49829 -15.152272,3.69689 m -0.14644,-0.58719 -0.11444,-3.96049 m -0.0462,-0.18317 -0.13438,3.50448 0.10962,0.68427 m 0.28143,-0.0684 0.0977,-2.71582 -1.02682,-4.06979 2.97838,5.89867 -1.95156,-1.82888 0.75403,2.50875 m 1.18737,-0.28868 0.0102,-0.39119 -0.98181,-4.05921 -1.99657,-1.83946 -2.15281,-3.66112 4.14938,5.50058 3.141719,3.92282 m 0.907282,-0.22059 -0.478181,-2.18958 2.012976,1.81642 m -4.027016,0.97906 -0.57497,-0.24892 m -1.27076,2.15903 15.952022,-3.91052 -1.52781,-0.44794 -1.453568,-0.12308 m 0.268975,-0.19868 -0.622353,0.25006 m 1.132655,-2.07418 -0.458364,-0.94705 0.900139,0.0799 -0.406903,-4.43418 0.286121,1.7539 0.321601,1.97117 0.124777,0.76481 m -1.225735,-0.13558 -1.436899,-0.54731 -2.3182,-0.72284 m 2.3182,0.72284 -0.45847,-4.88847 m -1.021874,0.37269 -3.840506,-3.27422 -5.323788,-1.07495 0.96271,-4.51902 -3.60823,-1.38669 -1.20669,4.37841 3.85221,1.5273 -2.64552,-5.90571 0.10631,-4.46375 -1.96691,-1.60184 -1.06074,-4.26599 3.02765,5.86783 -1.01576,-4.26525 3.62778,1.31848 -5.71003,-5.10715 3.89245,1.38546 m -3.89245,-1.38546 -3.03514,-3.057235 m 0.34663,-0.137689 1.22592,0.429339 m -1.22592,-0.429339 -0.54689,-1.716908 -1.07289,1.149641 -0.8913,-0.697097 -0.66368,-0.519298 -0.50996,-0.399018 m -0.12546,-0.505936 0.91763,-0.837486 -0.27393,-1.917753 m -0.035,0.06437 -0.42757,0.993061 -0.22786,0.835977 -0.0237,0.669952 m 0.98814,-0.64561 2.48081,-3.872389 -0.28919,-1.740799 1.36051,-4.192747 -1.07132,5.933546 1.35765,-4.358349 0.14034,-4.564748 1.88132,5.998208 -2.02166,-1.43346 -0.28633,-1.575197 0.13595,-4.176022 m 0.0185,0.07554 0.13186,5.675681 0.79111,5.945373 -2.28391,4.094559 4.31398,1.494288 m -4.31398,-1.494288 -2.34566,-1.809194 m 2.48081,-3.872389 2.14876,1.587024 1.23055,-4.511913 0.10033,-4.646187 -1.98165,-1.352021 -1.09672,-4.476011 -2.27854,-4.08921 4.30511,5.431178 -2.02657,-1.341968 3.07837,5.828032 3.58579,1.112755 -0.02,4.71313 5.072572,0.829177 -0.07017,-3.700753 -0.386318,-1.117866 m 0.386318,1.117866 1.03042,3.764756 m -0.960252,-0.064 -5.05262,-5.542307 -4.63759,-5.598819 -2.14677,-4.034261 -2.15834,-1.39692 -3.16461,-3.25922 m 1.81026,0.70835 1.30265,0.38208 m 0.0272,0.009 1.49167,0.50874 -0.63807,-6.02192 -1.50302,-0.30048 0.64942,5.81366 3.43578,1.49193 -0.89263,-0.58621 0.64921,0.0732 -0.65156,-6.23123 -1.6872,-0.26085 m -1.50302,-0.30049 -1.30384,-0.33623 m 4.49406,0.89757 1.85457,0.2186 0.65214,6.32965 -1.85515,-0.31702 m -0.64921,-0.0732 -1.05148,-0.39698 m -1.49167,-0.50874 -0.94223,0.24416 3.12505,3.31226 3.95499,1.15158 m 0.93027,-2.96866 -2.02057,-0.44341 m -2.86469,2.26049 5.83303,5.13882 -3.68626,-1.104556 1.0518,4.486064 3.56584,5.825885 -3.66617,-1.179698 2.68314,5.819801 -3.91369,-1.307888 m 13.084944,2.486131 -0.345202,-20.745949 -2.249196,-0.8898 0.317103,-0.003 m -7.94e-4,0.0113 95.694295,37.818694 m -0.02328,0.14677 8.219228,127.4745 -30.819063,-23.95218 -2.221971,0.41865 33.041034,23.53353 m 0,0.0641 0.04913,0.62545 -41.582445,-29.68649 m -0.496359,0.12129 42.226706,30.20374 m 0.386689,0.81071 -43.123061,-30.88994 m -0.17153,0.0419 43.771687,31.39067 m -1.06098,-2.61714 -40.981577,-29.19584 m 0.110887,-0.0271 -2.491078,0.60862 -2.602098,0.0849 -2.684436,-0.4204 -2.740316,-0.91125 -2.771299,-1.37975 -2.776246,-1.82266 -2.759551,-2.24134 -2.7196256,-2.63012 -2.6585601,-2.98953 -2.579105,-3.32057 -0.529828,-0.77234 m -3.78547305,-2.17538 0.690218,-1.96263 0.537184,-2.23099 0.3751,-2.48185 0.20658605,-2.70518 0.0335,-2.90528 -0.141208,-3.07218 -0.31625605,-3.20744 -0.489029,-3.30851 -0.657569,-3.37008 -0.81965295,-3.39746 -0.9721321,-3.38145 -1.1128109,-3.32817 19.9543447,-5.7033 1.087067,3.2299 -19.9286008,5.80157 m -1.6733049,0.48712 -18.7188553,5.44939 m -0.04712,-0.16293 -1.317016,-3.96407 -13.567801,3.86334 m -3.08544,-0.18746 -7.50133,2.12495 m -0.41971,-2.35995 7.5166,-2.10389 m 2.02229,-1.41036 13.579997,-3.78521 1.455394,3.85858 m 0.231404,0.69644 18.7366353,-5.35525 1.114954,3.33642 0.9749369,3.38955 -18.6873962,5.53993 m 0.110172,0.38097 -13.521337,4.01635 m -3.05184,1.1153 -0.77123,-2.33408 m 0.77123,2.33408 -7.4626,2.21882 m 0.85127,2.30783 7.45884,-2.24385 -0.84751,-2.2828 m 0.84751,2.2828 0.91885,2.21268 -7.45757,2.26917 m 0.97959,2.14842 7.45873,-2.2946 -0.98075,-2.12299 m 2.314727,-1.50569 13.487744,-4.08903 -0.995654,-4.03241 -1.16369,-4.02399 -13.548167,3.94073 m -3.31994,0.51599 -7.47734,2.1703 m -0.60888,-2.39851 7.48818,-2.14714 m -10.45181,1.72857 -12.30797,3.50796 m -0.7013,-3.14026 12.33636,-3.46105 m -0.54904,-3.05757 -12.36959,3.41651 m -0.45963,-3.03954 12.40731,-3.37454 m 3.02697,-1.89511 5.8221,-1.57501 m 15.709212,-4.09633 18.5994753,-5.03561 -1.5354043,-2.76029 m 1.6767183,-0.4463 -1.5990623,-2.52859 19.9572824,-5.22751 -1.668436,-2.19244 -19.9324384,5.14368 m -1.672881,0.4317 -1.666962,-2.01226 -17.876626,4.55091 m -0.731494,-1.07 -1.873114,-2.38874 m 0.0275,0.0351 17.116845,-4.26072 -1.63412,-1.09696 -16.627815,4.10358 m -0.75086,-0.81902 -1.84441,-1.67598 m -1.79935,-1.29722 -1.73805,-0.91453 m -1.65873,-0.5274 -1.5644,-0.14652 m 6.70939,-5.36546 3.83151,1.59774 m 0.964425,-2.0909 -1.936715,-0.49466 -1.78197,-0.40291 m 0.21484,0.32118 -2.67862,-1.22436 0.93949,0.38782 0.89908,0.39579 m -0.45204,1.5103 -2.95003,-2.82128 m 0.35661,0.0293 1.20689,0.49803 m -0.74157,0.35388 2.1281,1.94003 m 4.70008,-1.43902 1.993049,-0.21079 0.173117,1.73842 m 1.923786,-1.94559 2.156036,-0.45519 m 4.424521,-0.59447 0.146527,0.87974 m 2.285471,7.04562 19.6308212,-4.78957 -1.5299269,-0.0902 m -1.063281,0.16335 0.153511,-1.20792 -6.9008363,1.66639 m 0.626613,-3.31081 6.9383273,-1.64399 0.8798459,-3.03627 -6.9771952,1.62454 m 1.0548143,-2.77014 7.0170939,-1.60835 1.30214705,-2.43927 1.504685,-2.09836 -7.09834695,1.58663 m 1.656398,-1.73352 7.138908,-1.5816 1.525614,-1.08255 m -0.484294,-0.0666 -6.3405281,1.39618 m 3.60224905,1.48148 1.69695905,-1.72849 m -3.20164405,3.82685 -7.05760095,1.59562 m 5.7554539,0.84366 -1.094713,2.75394 m -0.8798459,3.03627 -0.664104,3.28841 m 2.4396969,1.13479 1.59924705,0.40574 -19.69646425,4.82846 m -0.06197,1.1792 -1.589881,-0.77428 m 3.247046,0.36528 19.75689525,-4.87579 -1.65563,-0.72287 m 1.65563,0.72287 1.69333405,1.03661 -19.8112413,4.93144 m -1.662033,0.4137 1.663303,1.41367 -17.551082,4.41444 m 7.723002,13.30973 1.574509,3.70562 m 0.456062,1.20912 18.7238033,-5.25417 -1.357683,-3.11894 -1.453832,-2.95397 m 1.677538,-0.45415 19.9817027,-5.40983 -1.544188,-2.65917 -19.9737387,5.31656 1.536224,2.75244 1.453858,2.94584 19.9810687,-5.50611 -1.453224,-2.84956 m -0.01482,-0.0255 11.613833,-3.14381 -1.126781,-1.65767 -1.170173,-1.49423 -1.200706,-1.31786 -1.217374,-1.12684 -1.22264,-0.92633 -1.214014,-0.71885 -1.194832,-0.50628 -1.162605,-0.29107 -1.118738,-0.0739 -1.065742,0.14047 -6.6734787,1.69606 m 0.108929,0.10419 7.6302917,-1.94072 m 1.118738,0.0739 -8.4709527,2.15906 m -0.149886,-0.16971 -19.8995773,5.0659 m -1.669926,0.42511 -1.673595,-1.71982 m 1.666266,-0.4191 19.8590513,-4.99496 -1.715347,-1.34475 m 1.715347,1.34475 1.717781,1.64287 1.7027781,1.92789 m 0.197538,0.25958 10.2919736,-2.66062 m -1.214014,-0.71885 -9.8055637,2.51973 m -0.59354,-0.67198 9.2042717,-2.35403 m 3.631486,2.15146 -10.7118676,2.78916 m 0.668152,0.87799 1.6155196,2.43954 m -0.443706,-0.67003 11.289982,-2.99196 m -1.200706,-1.31786 -11.0262446,2.89496 m 1.9080946,2.99312 11.489029,-3.07599 m 1.126781,1.65767 1.072118,1.80507 1.004067,1.93304 0.926624,2.03973 0.837882,2.12709 0.739802,2.18884 0.634815,2.22946 0.520938,2.24409 0.403569,2.23401 0.282204,2.20218 0.155866,2.14493 0.03215,2.06496 -0.09469,1.96443 -0.217408,1.84293 -0.336577,1.70561 -0.453284,1.549 -0.562187,1.37861 -8.344164,2.67803 m 0.0077,0.29692 -19.6283787,6.30846 m -1.64756105,0.52951 -18.10462525,5.81872 m -0.03709,-0.55518 -13.350981,4.28017 m -2.226125,0.0248 -4.235151,1.35371 -1.1365,-1.61478 -1.11064,-1.77344 -1.076,-1.91683 -1.03156,-2.0415 m 1.03156,2.0415 6.828915,-2.12299 m 0.30943,2.13635 -6.062345,1.90347 m 1.11064,1.77344 5.212161,-1.65176 m 1.896798,-1.95752 13.402018,-4.22185 -0.630555,-3.91494 -13.447818,4.15785 m -0.93853,9.61075 -3.205684,1.03267 1.15831,1.25106 1.154379,1.0497 0.965385,-0.31503 m -0.02357,1.00562 -0.941811,-0.69059 m -1.154383,-1.0497 2.100506,-0.68138 m 2.347886,0.28035 13.295339,-4.3321 -0.24167,-3.61702 -0.43778,-3.78724 m 0.143404,1.24058 18.28930525,-5.7948 -0.32139,-3.21382 -18.43598925,5.75226 m -0.305885,-1.89916 -0.818171,-3.99801 m -0.228467,-0.92535 18.6331832,-5.62269 -0.823146,-3.40527 m 1.6705001,-0.49522 19.8950787,-5.89793 -0.938609,-3.28509 m 0.08887,0.31107 11.612774,-3.38654 m 0.520938,2.24409 -11.490721,3.39294 m 0.206745,0.72353 0.778775,3.30422 -19.85420075,5.99117 m -1.66700705,0.50303 0.661643,3.37751 -18.5499192,5.69413 m 1.601894,12.64626 17.88234825,-5.8229 0.02754,-2.91031 -0.14679,-3.07792 m 1.65314305,-0.52377 19.6929107,-6.23951 -0.256673,-3.13095 -19.75249475,6.16302 m -1.658276,0.51739 -0.49368605,-3.31544 m 1.66293305,-0.51046 19.80646975,-6.07986 -0.609838,-3.28139 m 0.07022,0.37793 11.120755,-3.36243 m 0.155866,2.14493 -10.884482,3.32742 m 0.147479,0.79354 0.435054,3.22535 m -0.01614,-0.11901 10.255461,-3.19791 m -0.217408,1.84293 -9.887876,3.11009 m 0.122555,1.49485 0.07668,3.00323 -0.102261,2.84469 -19.5596137,6.36905 m -1.64160705,0.53454 -0.200343,2.70944 -17.63842925,5.81142 m 0.01132,0.85687 -13.235701,4.37701 m -0.08739,3.19868 13.172784,-4.41439 0.150309,-3.1613 -0.04506,-3.40748 m -0.03043,4.99528 17.3340263,-5.77078 0.36856395,-2.48531 m 1.635364,-0.5388 19.48736675,-6.42101 0.278792,-2.65364 m 0.0164,-0.45349 4.236164,-1.37652 0.990495,-0.38791 0.924004,-0.59735 0.846085,-0.80436 0.760597,-1.0029 -7.696676,2.48171 m -0.02786,0.77465 6.96394,-2.25346 m -0.846085,0.80436 -6.137328,1.99094 m -0.01085,0.3035 5.224224,-1.69709 m 2.530687,-2.40461 0.665216,-1.19711 m 0.562186,-1.37861 -8.937122,2.852 m -0.03609,-1.41306 9.426495,-2.98794 m 0.648679,-5.51297 -10.604658,3.27547 m -1.19851,-6.3005 11.332951,-3.38704 m -1.559322,-6.70756 -11.716782,3.37381 m -0.437118,-1.29878 -1.224571,-3.13762 -19.9718867,5.60441 -1.357022,-3.11066 m -1.677564,0.46228 -18.6790623,5.14734 m 20.0367453,-2.0284 1.243568,3.24482 m 1.675448,-0.47887 -1.242113,-3.23651 m 18.1132417,-9.6184 11.728741,-3.21212 m 1.004067,1.93304 -11.781155,3.26594 m -0.440848,-0.98523 1.34784,3.01236 m 0.0209,0.0533 11.779964,-3.30668 m 0.837883,2.12709 -11.772053,3.34674 m 20.111375,-8.49045 7.940464,-2.22353 m 0.03186,0.0797 -2.203371,-5.51278 -2.442422,-5.26513 -2.649114,-4.95202 -2.819797,-4.58073 -2.953517,-4.15835 -3.049852,-3.69221 -3.107981,-3.19111 -3.126237,-2.65972 -3.110204,-2.11249 -3.059006,-1.55504 -2.974182,-0.99327 m -0.111125,-0.0328 -2.669301,-0.40828 m -0.1902616,-0.0291 -7.6597931,1.59293 m -2.67512305,0.0939 7.61619005,-1.57872 m 0.276939,-0.011 1.8464741,-0.0734 0.595313,-0.0237 m 2.8595626,0.43738 -7.7005117,1.61319 m 2.9359221,1.01955 7.7459416,-1.6414 m 3.081337,1.54827 -7.804599,1.67957 m 3.079273,2.15032 7.849235,-1.72204 m 3.13526,2.65576 -7.884319,1.76966 m 3.086021,3.2398 7.912179,-1.82266 m 3.053556,3.68691 -7.931388,1.88029 m 2.943728,4.21709 7.945384,-1.9428 m 2.823845,4.57755 -7.952343,2.00909 m 2.649776,5.01708 7.954565,-2.07886 m 2.445571,5.26103 -7.95028,2.15061 m 10.188655,3.43763 1.935241,5.69161 1.641766,5.79932 1.326992,5.83256 0.981763,5.69129 m 0,2.6e-4 -7.854606,2.50542 m 0.693843,5.73159 0.353325,5.54466 0.01217,5.28897 -0.322871,4.97099 -0.649075,4.60275 -0.958692,4.18563 -1.252008,3.73041 -1.523259,3.24302 -1.77038,2.73386 -1.991863,2.20917 -2.185643,1.67545 -2.353945,1.13876 8.525377,-3.25593 m -1.197795,0.57586 -0.882306,0.21855 m 0.882306,-0.21855 2.39903,-1.15337 2.234089,-1.68251 2.040175,-2.21046 1.819143,-2.72831 1.572022,-3.23212 1.30048,-3.70885 1.006237,-4.16031 0.683445,-4.48873 m 0.113453,0.0767 1.992445,-1.82714 m 0.136948,-0.31009 -0.368353,-0.54271 -0.345572,-0.57841 -0.320595,-0.611 m -0.490961,-1.44672 -8.091832,2.79403 m -0.322871,4.97099 8.109929,-2.8616 m 0.277389,0.76031 2.040467,-1.87203 m -0.102367,-0.11462 -0.385234,-0.49824 m 0.385234,0.49824 0.402166,0.45024 m 0.141394,0.13713 -1.90336,1.74805 m 0.580126,0.34983 1.807157,-1.66142 m 0.538003,0.38962 -1.763236,1.62275 m 0.58375,0.35203 1.795145,-1.65384 m 0.738955,0.20889 -1.948524,1.79806 m 0.587375,0.35425 2.47097,-2.28253 m 0.01905,-0.006 5.708571,-2.03968 m 1.85e-4,0.001 -0.103849,-0.72176 m 0.01138,0.079 -4.440264,1.58168 m 0.08483,0.81992 -3.161506,2.92349 m -0.297762,-0.20119 2.929519,-2.70389 m -0.08316,-0.16187 5.034624,-1.79731 m 0.02619,0.18193 0.102288,1.24931 0.01852,1.19049 m -0.02958,0.51165 -0.03529,0.6096 -0.145944,1.04005 m -0.07279,0.30776 -3.589602,4.25352 m -0.338429,0.0204 4.058206,-4.99052 m -0.281517,-0.37484 -4.855448,5.30749 -0.749802,-0.19783 5.031819,-5.2366 -0.58256,-0.21651 m 0,-5.3e-4 -5.21626,5.14062 m -0.383805,-0.20924 5.011897,-5.23621 0.588168,0.30483 m -1.188931,-0.6594 -5.402051,5.01129 m 0.292364,0.15894 1.413749,-1.31212 3.695938,-3.85811 m -0.597747,-0.35287 -5.39705,5.00131 m 0.291438,0.15844 1.412426,-1.30953 3.693186,-3.85022 m -0.595868,-0.35176 -3.617013,3.34825 -1.387951,1.59625 m -0.162984,0.50218 -0.544221,4.80436 m -0.03953,0.34827 -0.905272,4.37856 m -0.05453,0.26361 -1.25185,3.90406 m -0.06091,0.19015 -1.578134,3.38998 m -0.05998,0.12888 -1.881055,2.8454 m -0.0531,0.0803 -2.158127,2.27758 m -0.0418,0.0442 -2.405062,1.69773 m -0.02768,0.0195 -2.621544,1.11117 m -0.01826,-9.27473 -7.691094,2.93449 m 2.185644,-1.67544 7.59198,-2.88687 m 1.976729,-2.18647 -7.576847,2.86417 m 1.77038,-2.73386 7.589864,-2.84485 m 1.548051,-3.2208 -7.614656,2.82263 m 1.252009,-3.73042 7.647093,-2.79588 m 0.993299,-4.1525 -7.681701,2.76275 m 13.261181,-3.46434 0.392801,-0.45937 m 2.931239,-4.9652 3.946049,-1.40079 m 0.01429,0.0704 -0.269214,-1.32972 m -0.05882,-0.22614 -3.352112,1.18137 m 0.0085,-0.64146 3.192304,-1.12178 m -0.16391,-0.61536 -3.061679,1.07259 m -0.07623,-0.68453 2.936399,-1.02537 m -0.210926,-0.66217 -2.843397,0.98954 m -0.159385,-0.70202 2.753254,-0.95482 m -0.254238,-0.67795 -2.697322,0.93213 m -0.234553,-0.69019 2.6425,-0.90993 m -0.290433,-0.66577 -2.622683,0.8999 m -0.301572,-0.65281 2.605617,-0.8909 m -0.311917,-0.62865 -2.624773,0.89437 m -6.915018,-0.16206 -0.04403,0.60079 -0.0026,0.62905 0.0372,0.65317 0.07797,0.66916 0.117449,0.67927 m -0.199073,-3.0511 -7.262998,2.44798 m 15.760727,5.44732 3.72102,-1.31807 m -0.116813,7.62285 -2.376435,3.04168 m 0.294799,-0.13848 1.892194,-2.36638 m -0.477229,0.92575 -0.594545,0.76388 m -30.897909,10.35237 -0.428387,0.03 -2.323359,-0.27763 -2.375006,-0.69783 -2.405036,-1.10109 -2.414005,-1.48956 -6.739811,2.40472 m 2.389082,1.52244 6.764734,-2.4376 m 2.405036,1.10109 -6.792171,2.46774 m 2.345266,0.72482 6.821911,-2.49473 m 1.045369,1.41907 -3.362722,1.23896 m -2.213081,0.13777 6.853793,-2.51817 m -9.517406,-3.56611 -2.40247,-1.85248 -6.717559,2.36953 m 4.348321,-4.56549 2.369238,2.19596 m -2.821067,-5.53405 -1.274471,0.77394 m 1.274471,-0.77394 -19.0236467,6.52497 -1.198986,0.75753 m 1.198986,-0.75753 1.0895009,-1.07037 19.1007998,-6.53211 1.047459,-1.37573 0.913818,-1.6632 -19.25754175,6.51732 -0.83534205,1.6755 19.1790368,-6.52962 m -1.047459,1.37573 -1.166654,1.07751 m 3.127931,-4.11644 0.768271,-1.94029 -19.33556475,6.49499 m -1.62210705,0.54488 -16.9469942,5.69264 m 0.06861,-0.58197 -0.33991,2.88356 m 0.05326,-0.45194 16.4815912,-5.57786 0.683446,-1.96443 0.5304631,-2.23361 m 1.62882795,-0.54226 19.41245175,-6.46272 0.450056,-2.43972 m -0.450056,2.43972 -0.614071,2.19872 m -20.8611258,10.13311 -0.969222,1.37822 m -0.639233,-0.83061 0.828463,-1.67642 m -0.828463,1.67642 -15.9231352,5.42116 m 14.9607403,-4.04284 0.9623949,-1.37832 m -32.5902702,6.37863 -12.37536,4.13237 m 10.80236,-12.12789 -1.15189,-1.44042 m -8.34292,-9.40035 -1.09736,-2.97908 m -1.92125,-6.12344 -12.2846,3.55688 m 28.91176,-72.02229 4.558082,0.33605 m 0.705327,-1.21608 -0.133774,-0.8033 -0.302154,-1.81433 -0.48678,-2.922825 m -0.213413,-0.351949 -0.986552,-1.627002 m 11.015214,-17.068298 82.154058,32.378284 m 0.01482,-0.0992 L 14.213775,91.975732 M 21.593851,89.712407 66.496341,106.71943 181.645,79.424932 m 0.24704,-0.02495 -13.43478,-3.191116 m -0.16666,0.001 -60.30513,-14.32914 m -0.3801,1.31572 22.61264,5.44719 -2.39909,0.46945 -22.58467,-5.49315 2.37112,-0.42349 m -0.0625,0.46979 21.50885,5.2056 m -0.78272,0.15317 -20.82112,-5.05505 m -3.39751,-0.13857 -2.40044,0.42874 22.54041,5.56302 2.43033,-0.47559 -22.5703,-5.51617 m -0.0619,0.4725 21.46821,5.27145 m -0.78195,0.15301 -20.78154,-5.11892 m -3.44191,-0.1352 -2.43031,0.43405 22.49321,5.63422 2.46219,-0.48181 -22.52509,-5.58646 m -0.0296,0.318 21.78349,5.41938 m -1.17134,0.22917 -20.73926,-5.18401 m -3.487179,-0.13176 -2.460705,0.4395 22.442914,5.70679 2.49467,-0.48818 -22.476879,-5.65811 m -0.06043,0.47797 21.378569,5.40689 m -0.78015,0.15266 -20.694225,-5.25034 m -3.533272,-0.12821 -2.491687,0.44503 22.389414,5.7808 2.5278,-0.49467 -22.425527,-5.73116 m -0.05969,0.48075 21.329357,5.47661 m -0.77912,0.15245 -20.646307,-5.31794 m -8.228384,-10.17498 -0.448628,-0.18478 m -0.06117,-0.0643 84.704159,20.10926 m -0.11054,1.43928 -0.0836,2.599953 m -0.18719,-0.01177 -0.26509,-2.595113 m -0.53054,0.006 0.1433,2.531932 m -0.60799,-0.07062 -0.54477,-2.413002 m -0.47329,0.0426 0.41391,2.281795 m -0.59248,-0.10758 -0.67752,-2.054935 m -1.0066,0.25611 0.62169,1.530167 m -0.5856,-0.215397 -0.48295,-1.10159 m -0.24619,0.2387 0.25524,0.600212 m 5.42732,1.115801 -0.0337,-2.613923 m 0.54118,0.0319 -0.086,2.594079 m 0.61134,0.0031 0.53317,-2.498829 m 0.5095,0.0664 -0.41756,2.418237 m 0.60515,-0.03146 0.76253,-2.223557 m 1.19515,0.31046 -0.69792,1.772973 m 0.63003,-0.12192 0.66323,-1.412033 m 0.53531,0.38434 -0.46673,0.7906 m -90.372709,-23.67808 -8.755274,-2.07963 m -0.238761,0.009 -39.793544,6.13146 m -0.08006,-2.14932 -53.147787,8.01254 -2.151645,0.29681 -2.249911,0.25749 -2.326243,0.21455 0.293714,3.34759 -0.751496,0.0552 -1.618033,0.11882 -0.300857,-3.35237 -2.400062,0.12178 -2.398289,0.0724 -2.370535,0.023 2.50452,4.41863 m 0.126285,-0.11412 95.953613,37.006924 m 0.409017,-0.53544 -95.912206,-36.826874 m -0.313531,0.24106 -0.397166,-4.21328 1.545351,3.53751 m -0.10414,0.0404 95.861777,36.573754 m 0.447225,-0.29993 -95.815501,-36.439534 m 0.772002,-0.12377 -0.308425,-3.36082 m 2.400062,-0.12178 2.376672,-0.1692 m 2.326243,-0.21455 0.286597,3.34147 -2.319126,0.22066 m 2.319126,-0.22066 2.242952,-0.26482 2.144845,-0.30528 42.006316,-6.53386 m 0.731096,-0.0969 0.02143,0.46834 m 1.051665,-0.1719 -0.02143,-0.47384 m 0.742818,-0.11713 0.04622,1.04185 m 0.536469,0.007 -0.04971,-1.1326 m 1.078494,-0.0171 0.0472,1.09744 m 0.726784,-0.0924 -0.04016,-0.94745 m 0.901144,0.18918 0.02196,0.52668 m -0.875004,4.97652 -0.507841,1.5317 m -0.779595,0.11941 0.574649,-1.73414 m -1.17483,-0.0578 -0.567637,1.90516 m -0.559937,0.0296 0.641297,-1.93736 m -1.326674,0.0513 -0.628068,1.89913 m -1.075954,-0.0561 0.516942,-1.72416 m -1.19716,0.20849 -0.447648,1.35589 m -0.702707,-0.21146 0.295566,-0.89527 m -0.524563,0.27972 -0.116258,0.35237 m 8.056298,0.18749 0.372004,-1.12115 m 0.606451,0.32732 -0.142107,0.42812 m 5.17099,11.058736 0.573617,1.275186 m 0.57658,0.159623 -0.639816,-1.678993 m -0.90215,0.638466 0.306097,0.578459 m 1.683808,-1.533049 0.734245,2.199217 m 0.78539,0.07972 -0.621136,-2.444671 m 0.998802,-0.122978 0.441272,2.612205 m 0.598117,0.01365 0.02011,-2.700152 m 0.541417,-0.01889 0.09869,2.715762 m 0.179281,-0.0047 0.265219,-2.716874 m 0.537474,0.0071 -0.14089,2.681261 m 0.827352,-0.06199 0.354436,-2.567385 m 0.968824,0.101468 -0.521837,2.370058 m 0.589385,-0.09358 0.785363,-2.130028 m 0.709533,0.186822 -0.631507,1.755405 m 0.609335,-0.187008 0.557477,-1.348475 m 0.343668,0.24556 -0.401426,0.886036 m -1.333447,23.488413 6.464458,2.55645 m 7.645797,-4.62211 0.428016,0.76356 m 0.556366,0.32105 -0.797189,-1.45442 m 0.431747,-0.35382 1.071165,2.07385 m 0.606769,0.1645 -1.024466,-2.56136 m 0.40587,-0.14787 1.251268,2.84117 m 0.890111,0.13875 0.606108,0.065 m 0.0027,2.4e-4 0.625766,0.0476 m 0.0027,1.8e-4 0.641164,0.0286 m 0.0026,1.1e-4 0.649711,0.0104 m 0.0026,5e-5 0.652198,-0.009 m 0.0026,-2e-5 0.649182,-0.027 m 0.0026,-1.1e-4 0.636614,-0.0454 m 0.0027,-1.6e-4 0.618939,-0.0635 m 0.0027,-2.4e-4 0.597562,-0.0806 m 0.02461,-0.004 0.838121,-3.25839 m 0.505936,0.10993 -0.681673,3.03033 m 0.774251,-0.18 0.787743,-2.58987 m 0.688155,0.30644 -0.776181,2.0652 m 0.599942,-0.25495 0.640662,-1.46852 m 0.242544,0.55005 -0.231854,0.45487 m -3.085305,-2.11746 -0.473446,3.37635 m -0.433546,0.0585 0.338429,-3.51337 m -0.0026,-2.7e-4 -0.593223,-0.0618 -0.186901,3.62154 m -0.450692,0.0382 0.02434,-3.7052 0.61095,0.0452 m -0.613172,-0.0453 -0.624946,-0.0272 0.144489,3.76301 m -0.463153,0.0193 -0.316309,-3.79227 0.632698,0.01 m -0.635027,-0.01 -0.635053,0.008 0.486331,3.79341 m -0.471488,0.001 -0.64971,-3.76912 0.632539,-0.0256 m -0.634841,0.0257 -0.621163,0.0431 0.801582,3.71832 m -0.473763,-0.0209 -0.935355,-3.63696 0.605261,-0.0603 m -1.193615,0.13734 1.051719,3.52968 m -0.468074,-0.0397 -1.14517,-3.39654 m -0.527949,0.10827 1.209569,3.23858 m 1.422691,4.93794 -95.941152,-37.193294 m -0.171582,0.36975 95.884001,37.316014 m -0.212879,0.58433 -95.823174,-37.458644 m -0.172905,1.24396 27.6350753,10.928615 m 3.2811249,7.092023 0.6036991,-0.186002 m 2.404481,-0.187537 0.664686,-0.05173 2.567834,0.326734 0.717709,0.09139 m -5.37061805,2.603606 -2.46136605,1.948894 M 21.59459,89.712542 -23.94648,72.463666 l -5.284946,-2.00168 m 0.123613,-0.007 2.196227,-0.11493 m 6.931607,-0.65948 -0.279638,-3.33414 m 2.151644,-0.29681 0.272839,3.32568 m -23.228481,-2.40086 -2.00377,-0.17354 m 112.93896,-11.04752 0.240295,0.52117 m 0.582321,0.19431 -0.356552,-0.95231 m 0.496252,-0.13893 0.439976,1.20991 m 0.916755,0.11816 -0.381609,-1.4954 m 0.76917,-0.078 0.281411,1.62608 m 0.545227,0.0245 0.0027,-1.69786 m 0.859155,-0.0157 -0.159544,1.72654 m 1.06045,-0.024 0.370337,-1.66505 m 0.792824,0.0642 -0.470852,1.55834 m 0.774118,-0.0798 0.409813,-1.38514 m 0.605816,0.11866 -0.446696,1.22537 m 0.532263,-0.16476 0.387958,-0.92101 m 0.428599,0.23759 -0.229262,0.47728 m -7.655004,53.801014 6.236785,109.30054 0.08596,1.21044 0.163089,0.92578 0.160549,0.68487 m 8.052858,7.34819 0.815446,-0.36616 m 5.028327,-1.157 26.66857,-12.02404 0.64016,0.37341 -26.67918,12.05997 -0.62955,-0.40934 m -15.386129,14.33545 49.775789,-23.04619 m -5.9146,-5.26031 0.5306,-0.59569 m 8e-5,0 1.01227,-1.13649 m 11.24108,2.76633 3.54711,-1.63561 m -86.802401,-56.55032 -7.881408,2.43835 m -1.354852,-5.89616 7.905776,-2.36858 m -1.645311,-5.79493 -7.925514,2.29656"
       style="fill:none;stroke:#000000;stroke-width:0.343958;stroke-miterlimit:4;stroke-dasharray:none"
       id="path862" />
  </g>
</svg>
