<?xml version="1.0" encoding="UTF-8" standalone="no"?>
<!-- Created with Inkscape (http://www.inkscape.org/) -->

<svg
   width="303.24417mm"
   height="346.11258mm"
   viewBox="0 0 303.24417 346.11258"
   version="1.1"
   id="svg5"
   xmlns="http://www.w3.org/2000/svg"
   xmlns:svg="http://www.w3.org/2000/svg">
  <defs
     id="defs2" />
  <g
     id="layer1"
     transform="translate(-227.28337,-16.779303)">
    <path
       d="m 361.74356,98.831869 6.78826,2.488411 -90.48979,159.44286 -5.18924,-1.33401 88.89077,-160.597261 -6.82761,-2.916327 8.32589,-19.320345 -5.49195,-2.713311 -5.37697,-2.971641 -5.19713,-3.199332 -4.93957,-3.385708 -4.61979,-3.519559 -4.25478,-3.610007 -3.83774,-3.65562 -15.74996,13.840968 19.5877,-10.185348 -14.97503,14.754029 -76.5651,167.097072 -0.62245,-0.83399 -2.29116,-3.06995 m -0.11029,-0.14776 -2.54641,-4.18804 73.50354,-167.991699 16.38653,-12.934683 -2.89023,-3.616188 -2.36459,-3.5282 -1.83996,-3.404065 -1.2891,-3.240274 -0.75498,-3.048006 -0.20971,-2.823619 -17.40059,8.075945 -67.68505,167.192729 1.01111,-3.80952 67.25451,-166.583185 -0.58057,3.199976 0.0597,3.515098 -68.26945,167.678591 -0.0255,4.14707 0.49519,4.25135 69.90563,-168.242583 2.06264,4.245145 -70.95657,168.308308 -1.0117,-4.31087 m 0.0124,0.0529 -2.27347,4.42197 m -0.0482,0.32048 1.85135,-0.56394 -1.77706,10.17309 -0.11654,-0.59605 -0.43506,-2.52196 0.10527,-3.63597 8e-5,-0.73966 0.0996,-0.67823 -1.338,3.6015 1.23843,-2.92327 m 0.0996,-0.67824 -0.0997,1.4179 -1.23834,2.18361 -0.11667,4.32868 1.24975,-2.87632 m -1.13305,-1.45238 0.8815,-5.07461 1.1581,-2.67504 -0.32358,2.00958 -1.71602,5.74007 m 1.338,-3.60151 0.14101,-0.76252 0.13137,-0.67475 m -0.13137,0.67475 0.0891,8.33834 m 0.21383,1.09514 0.0974,1.01427 -1.13904,4.17063 1.26976,-2.99788 0.19197,0.68697 -1.46172,2.31092 -0.85703,-5.92568 m 1.89862,0.74078 1.8292,-0.86617 1.16154,10.78561 -2.89329,-8.90517 m 0.0191,0.16076 0.11165,1.01201 m 0.19197,0.68696 -0.30362,-1.69897 m 0.30362,1.69897 1.70355,5.37221 0.86704,1.67324 -1.99955,1.71588 -2.03278,-6.45042 m 3.16529,3.0613 -1.13251,3.38912 1.41572,-2.72758 -0.28321,-0.66154 m 0.28321,0.66154 0.58383,1.0117 m 0.33317,0.52677 -2.33271,1.1891 3.00533,5.83093 1.94085,-2.06942 3.37249,4.54518 -1.33166,3.06414 -3.98166,-5.53992 0.91529,-3.68109 -1.16404,-2.40762 -0.42387,-0.93132 1.80435,-1.24362 -3.29904,-10.06877 1.76938,-1.23838 1.52965,11.30714 6.33284,9.51797 1.55923,-1.7922 7.37342,9.96084 9.06387,7.908 -9.24918,-5.20828 -1.03015,-0.97639 -0.83456,-0.57523 -1.21755,-0.83898 -1.63898,-1.19382 -1.47627,-0.96673 -1.60505,2.66036 -4.42784,-4.69171 m 2.22457,-2.15466 2.7783,3.07712 -0.57503,3.76925 3.08112,-1.69334 m -1.47626,-0.96673 -1.03003,-1.10889 m -0.57503,3.76925 7.60254,5.90846 1.79705,-2.63479 -1.59722,-1.38262 8.45474,4.89727 -2.80272,2.37713 4.02025,-1.91608 m 0.36764,0.13066 0.60133,0.32625 1.96319,0.96603 -1.91473,2.6852 -5.03773,-2.19198 -5.85187,-3.25698 m 1.79706,-2.63481 4.89892,2.71515 -0.84413,3.17663 m 0.84413,-3.17663 1.9586,0.7995 0.79443,0.31101 m 0.79076,0.28066 0.95723,-2.10675 11.07869,5.80945 -0.90264,-0.0817 -1.19967,2.91848 4.67674,0.64872 5.18661,0.17888 1.53403,-2.75508 -4.34646,-0.13848 -2.37418,2.71468 0.41501,-2.98361 -2.64581,-0.45352 11.19023,0.60708 -1.04519,0.11648 -2.72763,2.89245 4.55042,-3.1195 0.75267,-0.002 2.48712,-0.0909 -1.65397,2.74079 -6.13624,0.47191 m 1.53403,-2.75508 1.1936,-0.13737 -7.49923,-0.27004 1.95916,0.26895 5.54007,10e-4 m 1.04519,-0.11648 -8.54443,-0.15354 m -2.64581,-0.45353 0.3626,-2.35896 11.74529,0.6638 -0.14005,2.19167 m -0.38538,0.0548 -11.21985,-2.9103 -11.78491,-3.49899 -9.49221,-8.11145 -8.69307,-7.9313 -6.18061,-9.24882 4.62138,11.04102 8.93265,8.16864 -1.21549,1.72331 m -0.83456,-0.57522 -6.88265,-9.31673 -1.67261,1.65307 0.41435,0.47783 6.92338,6.34684 m 3.26758,-0.30914 1.31961,-2.02955 -7.4169,-9.69954 0.92567,-1.62858 7.64186,9.42106 0.89862,-1.66177 -8.54048,-7.75929 0.49576,-1.38194 8.04472,9.14123 0.59016,-1.31094 -8.63488,-7.83029 -1.36028,-2.01556 m 0.40856,0.43873 0.95175,1.57679 0.0273,-0.64165 m -0.30448,-0.29771 4.34758,4.25181 0.6636,-1.09991 m -0.81457,-0.63739 -3.87273,-3.61577 78.24496,-166.452382 -5.13733,-4.498831 -4.61267,-4.568694 -4.01922,-4.565698 -3.39293,-4.517137 -2.7414,-4.407282 17.26604,-11.154643 -19.32868,6.909504 17.48873,-10.313572 -18.88104,6.272977 1.39231,4.040595 m -1.39231,-4.040595 17.59195,-9.513253 -18.30555,5.71942 17.55056,-8.767425 -17.6103,5.252327 m 0.58057,-3.199977 1.18908,-2.872418 16.76717,-6.887741 -15.01228,4.366604 -1.75493,2.521115 15.94656,-4.57971 -17.13563,7.452128 m 2.94396,-5.393555 2.3009,-2.160215 15.76727,-5.970616 -12.95917,4.190377 15.14221,-5.627289 -11.89367,4.21259 -3.24854,1.414699 -2.8081,1.780239 14.01406,-4.233543 1.75321,-1.737073 2.18302,-1.436937 2.5874,-1.124048 2.94457,-0.814575 3.26388,-0.511659 1.11351,-0.06565 m -1.06309,0.168201 -2.75158,0.768786 -2.41287,1.056416 -2.03453,1.349856 -1.62285,1.631713 -1.18913,1.908223 -0.73526,2.172821 -0.2536,2.420014 0.23942,2.649618 0.7403,2.85366 1.24078,3.033781 1.76638,3.187835 -1.05312,2.359707 1.29788,1.915961 0.94076,1.388694 1.06869,-2.363716 -2.25429,-3.300585 m -1.20073,2.09063 -1.6045,-2.924672 -0.65402,-1.619951 -0.57401,-1.42164 -0.42545,-1.670588 -0.3036,-1.192468 -0.15246,-1.765918 -0.0772,-0.894681 0.26171,-2.432372 0.74179,-2.186375 m 0.002,2.293129 -1.00513,2.325611 m 1.24456,0.324007 -1.01485,2.336591 m 1.75516,0.517074 -1.02611,2.345997 m 2.26687,0.687792 -1.03883,2.353791 m 1.05502,6.278487 -19.63063,7.626443 m 2.74138,4.407285 16.88927,-12.03369 m 2.9358,0.219858 1.79501,2.235107 0.9231,1.149437 3.17397,3.422907 1.10334,-2.36576 -3.19183,-3.422873 -1.08548,2.365726 m 1.08548,-2.365726 -2.73493,-3.382503 m -1.11425,5.76004 3.38264,3.659407 m 2.55503,-0.248311 3.60607,3.42432 1.12201,-2.363746 -3.62474,-3.426334 m 3.62474,3.426334 4.00651,3.380629 -1.14131,2.359751 -3.98721,-3.376634 m 1.93141,4.089684 -19.22981,11.144022 M 313.77374,67.38161 238.7974,234.99566 m 0.1991,1.10746 -0.35048,1.17925 6.09031,9.04171 -4.59855,-8.53387 m -0.86358,-1.21301 -1.65789,-2.83047 m -0.19666,-0.34338 0.15646,-0.41632 m -0.32785,0.13502 1.39774,4.16029 5.16462,10.67029 8.56755,7.79246 -1.15063,1.90708 10.5293,5.92645 -9.37867,-7.83353 10.35845,5.83106 -0.97978,2.00247 -1.03709,2.18499 -10.81185,-6.08191 m 3.36888,-5.59837 10.32643,5.81545 -9.73626,-7.12638 10.43047,5.87167 -0.69421,1.25471 10.4046,5.05043 -11.27119,-3.37306 0.86659,-1.67737 11.23134,3.36704 0.80354,-1.20924 -5.48565,-2.09168 m -1.0489,-0.30564 -1.33715,-0.51353 1.24172,-1.05319 m 0.97162,0.33794 -0.87623,1.22875 3.58626,1.04502 1.13022,-1.0258 m -1.22991,-0.34003 -4.86657,-1.69272 87.19224,-161.729549 13.86393,-16.901504 -5.53804,-2.418841 -15.08165,16.024226 -6.61288,-3.651262 -6.35785,-3.951319 11.98633,-17.305929 -18.02394,13.118682 6.03761,4.187247 17.18345,-14.106589 -10.8256,18.057908 16.20257,-15.086275 -9.58969,18.737537 6.75576,3.296119 m 6.82761,2.916327 7.03632,-19.817831 5.51947,2.097728 -5.76752,20.208515 6.67721,2.03565 -91.96745,158.27848 -5.19955,-0.87126 m 0.0646,1.18525 1.50597,0.12825 5.60805,0.57807 1.30665,0.0684 0.44185,-0.79358 m -0.0332,0.84052 -0.3711,-0.0479 m -0.0375,7.5e-4 2.36455,-0.0576 0.84703,0.0113 -0.12509,-0.65085 m -1.23284,0.0156 93.30062,-157.12012 -6.4725,-1.56568 4.51797,-20.493517 5.26511,1.380449 5.0472,1.011364 4.76517,0.62419 4.43975,0.249997 4.0624,-0.131017 -4.19757,20.701134 -96.26092,153.79986 -4.60971,0.9641 95.45946,-154.87063 -5.83171,-0.59394 -94.46838,155.98058 -5.01689,0.0633 -5.13934,-0.40733 m 1.97903,1.02057 0.70644,-0.80773 m 1.00887,0.92311 0.97083,-0.0806 m -0.97083,0.0806 -0.90851,1.19093 10.26542,-1.96744 0.80829,-0.41012 m -0.48423,0.0516 -2.31043,0.45933 -1.08489,0.20005 0.19188,-0.31788 m -0.0159,0.002 4.84062,-0.51598 m -1.94561,0.53135 -0.73676,1.63778 8.32354,-2.52744 1.36921,-1.37272 m 1.14582,-0.36604 -2.51506,1.73873 0.13129,2.01279 6.92536,-4.62144 0.37435,-0.54442 -0.24525,-0.56583 m 0.12229,-0.0545 97.28054,-151.80731 3.8734,-1.24349 -97.49892,150.89646 -3.46612,2.043 m -0.18894,0.11131 -4.00599,1.78318 -4.33352,1.38437 m 1.03145,0.60581 -8.75507,4.50145 0.43154,-1.97402 5.33514,-2.72398 m 2.9884,0.19655 0.15324,-0.98428 m -0.022,2.99707 6.59167,-4.13626 m -0.0302,0.0493 -5.62595,5.71749 1.27016,-0.89814 -1.96904,2.93544 -0.20633,-1.36884 -5.14148,2.68783 -3.69073,1.46654 -0.84843,0.43171 -0.6144,0.31267 -0.99127,0.46952 -2.80011,3.14068 0.94935,-2.58125 1.06753,-0.23118 -2.01688,2.81243 -4.2591,0.83995 m -0.83315,-2.64984 8.88363,-1.80031 -2.84203,1.02895 -3.55447,0.68041 m 2.60512,1.90084 11.20294,-4.84667 0.90772,-2.27883 -3.16572,1.30438 m 2.258,0.97445 1.72623,-2.71935 -0.81847,0.44055 1.63906,-1.12492 -2.54681,3.40372 3.08983,-2.29341 0.27304,-1.74851 -0.50994,-1.91953 4.60224,-4.64017 m -1.43146,0.6372 96.86941,-152.7759 -0.74443,-20.340721 3.64997,-0.496164 1.5116,20.022305 -4.41714,0.81458 -4.942,0.36041 -5.41117,-0.10666 1.10659,-20.713443 -6.9383,20.119473 2.17313,-20.743671 -8.35779,19.667391 3.31059,-20.678757 -9.78308,19.113067 m 6.47249,1.56569 6.18466,1.07628 m 5.83171,0.59394 5.54633,-20.463457 -0.13517,20.570117 m 9.35915,-1.175 1.69492,-20.866926 2.74425,-1.174811 -0.56578,20.798257 3.29768,-1.63682 -97.53092,150.04972 2.85643,-2.79362 97.38195,-149.26883 -2.70746,2.01273 -0.46157,-20.641493 1.78256,-1.767999 1.27872,-2.034233 0.78558,-2.264129 0.30719,-2.464831 -0.16521,-2.639749 -0.62408,-2.789426 -1.06666,-2.909729 m -0.4883,-0.196821 -1.00041,-2.728667 -1.39768,-2.816898 -1.77148,-2.882598 -2.14373,-2.926565 -2.46895,-2.94037 -2.77725,-2.936095 -3.05914,-2.907573 -3.3206,-2.861132 -3.54419,-2.788473 -3.74347,-2.697268 -3.92383,-2.593016 -4.06323,-2.461125 -4.17356,-2.317274 -4.26315,-2.162619 -4.30597,-1.976338 -4.33842,-1.793407 -4.32693,-1.582039 -4.28377,-1.362144 -4.22106,-1.131076 -4.10668,-0.884526 -3.96387,-0.627221 -3.79369,-0.363201 -3.58202,-0.0835 -3.3381,0.191076 -3.06224,0.484499 m -6.25888,1.223689 -14.48106,5.336627 m 5.83412,3.296582 -0.3156,2.576167 m 0.3156,-2.576167 0.82062,-2.30803 1.30268,-2.027152 -16.31496,6.393754 m -3.46482,12.108641 0.7136,3.793827 -69.00851,168.031822 m 0.24314,2.08769 -0.65118,1.34846 -0.97684,2.89971 m 0.0148,-0.8027 -1.17291,3.47773 m 0.83452,-0.66545 1.97787,-6.03231 m -0.67744,1.12303 -0.96203,2.097 m 2.24881,0.35245 -0.84148,2.59719 1.28422,-0.71067 m 0.18541,0.79011 1.53859,4.3228 72.16021,-168.224373 19.77948,-8.417541 m 11.47515,10.925042 -14.09247,15.642858 18.71227,-12.123307 -13.08437,16.50439 -80.00013,165.687061 3.7789,2.95679 m 0.45851,0.35883 81.80031,-164.815401 m -6.03761,-4.187246 -5.6279,-4.381083 m 18.02361,12.519994 -83.61858,163.856096 -4.53932,-2.99238 m -1.65893,0.31888 1.8271,1.53871 1.02061,0.61602 1.06411,0.64296 1.35004,-0.74195 m 0.93659,0.61745 4.80404,2.61565 85.42742,-162.820483 m 20.37164,8.700863 11.19518,-18.457867 -5.42767,-1.750636 m -0.31332,-2.025245 5.07584,1.642086 4.92749,1.304877 4.72684,0.95569 4.48067,0.603674 1.3144,-2.220639 4.17081,0.262756 3.828,-0.08547 3.44103,-0.43357 3.03098,-0.752685 -1.3255,2.155491 -1.95217,0.494804 -1.0792,0.273635 -3.43942,0.449794 -3.82414,0.101993 -4.16481,-0.246128 m 1.31439,-2.220639 -4.48886,-0.62031 -4.73708,-0.972034 -4.93972,-1.320876 -5.08984,-1.657467 -5.17917,-1.985197 -5.18952,-2.272834 -1.23713,2.313172 -5.14081,-2.545244 -5.02503,-2.780061 -4.85691,-2.987235 -4.62744,-3.163836 -4.32752,-3.287627 m 1.1413,-2.359751 4.34712,3.293574 -1.1609,2.353804 m 1.1609,-2.353804 4.64715,3.171584 -1.18062,2.346072 m 1.18062,-2.346072 4.87638,2.996752 -1.20009,2.336556 m 1.20009,-2.336556 5.04391,2.791055 -1.21897,2.325562 m 1.21897,-2.325562 5.15897,2.557625 m -1.23713,2.313181 3.34369,1.460394 1.82888,0.798844 1.25408,-2.299576 m -1.25408,2.299576 2.48513,0.948441 2.67839,1.022179 1.26973,-2.284999 m 5.08984,1.657465 -1.28373,2.269612 m 4.92749,1.304884 1.29596,-2.25362 m 3.43088,3.209309 1.3062,-2.237275 m 7.33928,3.087077 1.32039,-2.20401 m 2.50375,2.102017 1.32426,-2.187486 m 2.11516,1.737692 1.32586,-2.171267 m 2.0042,1.277618 2.30053,-0.964336 1.32296,-2.140219 -2.5967,1.07426 m 1.27376,1.06597 2.1538,-1.374705 1.7016,-1.642457 1.31235,-2.111813 -1.6954,1.628623 -1.31851,2.125674 m -0.83085,-0.765524 2.14936,-1.36015 m 1.6954,-1.628623 1.2276,-1.88209 0.76024,-2.101712 0.30174,-2.299443 -0.14394,-2.470391 -0.58172,-2.611784 m -1.00632,-2.806148 -0.16831,-0.273649 m 2.72958,6.186355 3.59963,14.697975 0.78436,3.48836 -3.75992,-15.396901 4.0018,18.734735 -3.83658,-16.094986 3.5202,19.239259 -3.82737,-16.774433 2.92408,19.694406 -1.50849,2.645753 -3.47988,-18.041797 1.38647,20.396754 -3.16903,-18.628761 -2.27032,1.480059 2.73189,19.161432 m 2.70747,-2.01272 2.0934,-2.354966 -2.20115,-20.076031 3.70964,17.430278 0.90329,-2.919973 0.31643,-3.144272 -0.24188,-3.337829 m -2.48628,12.047834 -97.06068,148.559519 -2.41466,3.06426 m -2.85644,2.79363 -3.26569,2.48355 m -2.55999,1.50894 -1.02061,1.61463 -3.10683,4.47681 1.31086,-2.25259 0.63855,-0.71493 -1.94937,2.96754 -3.90746,4.00816 m -0.54299,-1.11026 -0.82059,0.68436 m 1.40104,-1.1359 -9.26657,2.55428 0.19061,1.79307 m -0.84843,0.43174 -10.11064,-0.0765 0.39105,-2.26513 10.37741,0.11679 8.99225,-4.66048 -8.88636,2.48866 -0.1059,2.17183 -10.76847,2.14833 -11.0351,-2.93107 0.79298,-2.04611 0.82673,-1.68339 11.19263,0.69605 9.52866,-0.32965 -10.31033,1.99659 0.78167,-1.66694 -10.38915,-1.90535 -11.34061,-3.41244 0.42047,-0.64564 m 0.2272,0.1206 0.85577,0.29408 0.76002,0.26078 1.20515,0.47159 m -0.0429,-1.5 -4.99094,-2.2052 m 0.0181,1.5138 2.1948,1.16495 m -0.64799,0.52484 10.53714,4.62176 10.41095,2.36297 9.8788,-0.0226 -10.48331,2.05503 0.60451,-2.03246 -11.23768,-0.67958 10.63317,2.71204 -11.42615,-0.66594 -10.47822,-5.41919 -9.45985,-7.4928 m 0.59018,-1.31094 0.20892,-0.76885 m -0.20892,0.76885 -3.7856,-3.90914 m -0.77886,-0.60879 2.42754,1.89721 m 3.94114,2.81583 2.05306,1.40693 0.82607,-1.21106 m 1.05441,0.57408 -0.39069,1.47021 -1.48977,-0.83322 m 0.7268,0.40649 5.84649,3.86299 m -1.54681,-1.68978 -3.53661,-1.74662 m 2.54285,8.37095 11.45799,3.4167 -0.71017,2.26728 -10.74782,-5.68398 m -1.39298,4.61794 11.43457,3.37651 m 0.13125,0.006 -2.23359,2.83045 -9.2838,-2.56216 2.71602,-2.46517 7.76743,2.10887 m -7.76743,-2.10887 -0.80127,-0.22004 m 10.36265,-8.45836 2.35909,0.68414 0.51824,-1.26083 m 0.85226,0.21909 -0.17874,1.28508 -1.19176,-0.24334 m 0.5892,0.66816 11.29767,0.71441 m 3.82675,-0.22799 0.85014,-0.0867 1.60877,-0.16089 m 0.45359,-0.0837 2.61765,-0.21724 m -4.24612,0.002 -0.43389,0.46009 m 1.14233,8.32883 -0.78324,0.32825 m 0.78324,-0.32825 -1.85076,0.55943 m 14.04227,-6.59619 4.51942,-4.22341 -3.24925,3.32529 m 3.24925,-3.32529 1.10651,-1.49409 m 1.39844,-2.01953 0.16843,-0.24048 m -34.03256,5.17841 -0.7328,-0.0629 -0.72137,-0.17715 m -0.5124,-0.0981 -0.50176,0.4454 m -31.82739,-14.1039 -1.27618,1.76821 -4.82039,-10.85399 0.93193,-1.5845 -0.79633,-3.1372 m -0.69991,-1.24928 -0.31569,-0.66128 -0.53953,-1.35535 m -0.0437,-0.0716 -2.04878,-4.285 m 0.42754,0.89422 -0.12126,1.84157 0.55995,-0.9241 m -0.55995,0.9241 -1.39571,1.42958 0.61065,-5.51054 m -0.7495,-2.10587 0.13885,7.61641 3.24111,9.78408 1.36023,-1.60516 6.09654,9.08575 m 1.14426,-3.94992 -0.4542,-0.42817 m -0.16755,-0.15909 0.24083,-1.29958 m 0.70478,0.78563 -3.45747,-3.85416 m 0.70569,0.78666 -0.20286,1.02726 1.03261,1.44329 0.45229,-1.04076 m -0.91058,-1.01506 -0.57468,0.61278 -3.05031,-4.28382 0.25385,-0.60259 m -1.81396,2.89226 -1.78668,-8.73596 m -1.41895,-0.87254 3.20563,9.6085 m -1.36022,1.60517 -1.71147,1.52306 4.54933,11.07714 m -0.0827,-0.0701 -5.84704,-8.83216 2.18959,4.01929 -0.67934,-0.92534 -1.26149,2.99474 m 1.94084,-2.06942 -1.02554,-1.61167 0.34619,0.68635 m 1.58169,-6.79197 -1.84541,-11.21367 m 2.45664,2.72375 -0.13104,0.25246 m -5.4907,-0.30826 1.40534,-9.48741 m -1.55475,-0.31859 0.14941,9.806 m -0.14941,-9.806 0.96834,-2.05659 m -0.98015,-10.57326 0.52467,-4.00096 M 356.57806,51.346355 357.6527,49.212956 m 0.51283,0.206654 -1.12464,2.228408 m 0.49175,0.261302 1.13045,-2.235498 m 0.68997,0.451559 -1.05943,2.089076 m 0.72561,0.172089 0.89847,-1.767136 m 0.38813,0.503946 -0.66,1.295583 m -3.65954,-1.560815 0.92559,-1.842333 m -0.84404,-0.04898 -0.61164,1.220759 m -2.04763,-4.851553 0.6663,-1.348707 m -0.61015,-0.660106 -0.94129,1.91107 m -0.99089,-0.33591 1.0715,-2.183531 m -0.74681,-0.371263 -1.0621,2.170777 m -0.84459,-0.612234 0.9156,-1.878226 m -0.86781,-0.07506 -0.62738,1.290726 m 1.87905,-3.922047 0.96179,-1.978814 m 0.56125,0.475125 -0.81512,1.672822 m 0.60825,0.03234 0.60018,-1.229282 m -1.63339,-1.378007 -1.02432,2.113457 m -0.59869,-0.318938 1.1376,-2.032146 m -0.49581,-0.197925 -0.97387,2.017043 m -0.58035,-0.467001 0.83738,-1.738812 m -0.81523,-0.04215 -0.54856,1.142154 m 4.42977,-2.940008 0.55291,-1.140158 m 0.59423,0.0266 -0.76875,1.582253 m 0.74321,0.613842 0.95198,-1.952847 m 0.95786,0.437913 -0.99168,2.026806 m 0.95595,0.344932 0.87981,-1.791819 m 0.34028,0.309979 -0.69176,1.58631 m 0.50658,0.01675 0.56028,-1.137133 m 3.58815,-0.628826 0.48024,-0.964797 m 0.54185,-0.007 -0.71029,1.424571 m 0.67393,0.608035 0.91699,-1.833595 m 0.71423,0.290578 -0.98373,1.961813 m 1.1794,0.514495 0.90879,-1.804435 m 0.52088,0.461033 -0.75807,1.501675 m 0.56455,0.02813 0.54437,-1.07648 m -0.0595,3.923622 -0.73476,1.444309 m -0.30181,-0.46383 0.4907,-0.966189 m 1.43576,0.180962 -0.95608,1.873784 m 0.6497,0.431545 1.02967,-2.012632 m 0.47517,0.248193 -1.03238,2.014249 m 1.17734,0.410011 0.86614,-1.682795 m 0.42077,0.479104 -0.6618,1.283236 m 0.55902,2.933131 -0.67774,1.305856 m 0.41359,0.486942 0.89332,-1.71775 m 0.71546,0.21059 -1.03408,1.983506 m 0.92237,0.548497 1.08317,-2.070091 m 0.84839,0.595741 -0.96908,1.845598 m 0.8684,0.14626 0.70814,-1.344844 m 0.25219,0.466061 -0.43314,0.821209 m 0.13915,3.100746 -0.69811,1.316806 m 0.58238,0.666336 0.98842,-1.859214 m 0.73512,0.255717 -1.10946,2.081436 m 0.46425,0.282831 1.13785,-2.130731 m 0.9089,0.578368 -1.0686,1.993828 m 1.13212,0.237828 0.7559,-1.405167 m 0.26065,0.481022 -0.46856,0.869573 m -0.12921,3.250164 -0.5216,0.96348 m 0.40403,0.66647 0.89164,-1.643266 m 0.95624,0.246346 -1.12697,2.070315 m 0.44071,0.31045 1.18524,-2.173405 m 0.50066,0.264894 -1.19495,2.187085 m 0.74212,0.328528 1.1293,-2.061324 m 0.39001,0.33499 -0.8448,1.917933 m 0.4839,0.06557 0.80849,-1.47009 m 0.26954,0.496594 -0.5103,0.926415 m 3.76788,-2.369035 0.56234,-1.013554 m 0.57538,-0.0029 -0.83784,1.507776 m 0.67107,0.667181 1.0878,-1.951712 m 0.485,0.19765 -1.20928,2.165918 m 0.48278,0.24684 1.21086,-2.164869 m 0.67747,0.437779 -1.12936,2.013802 m 0.95004,0.275909 0.91229,-1.621604 m 0.3499,0.497684 -0.65579,1.163542 m 1.27726,-4.092989 1.19922,-2.134091 m -0.47924,-0.238895 -1.19773,2.135149 m -0.34381,-0.415577 1.06616,-1.903676 m -0.67917,-0.171818 -0.85344,1.527249 m -0.32724,-0.480196 0.602,-1.079219 m 2.67565,0.900319 -1.1226,1.994239 m 0.71428,0.283841 1.02212,-1.811214 m 0.48109,0.494443 -0.83306,1.473023 m 0.56191,0.01816 0.57536,-1.015658 m -2.1889,-4.871793 0.56774,-1.016288 m -0.4716,-0.633088 -0.88148,1.581641 m -0.90889,-0.300771 1.05594,-1.900576 m -0.91421,-0.532318 -1.07355,1.938965 m -0.6086,-0.448977 0.97743,-1.769665 m -0.66074,-0.161229 -0.8016,1.454437 m -0.3152,-0.45987 0.55808,-1.014176 m -2.57022,-3.448981 0.46627,-0.858306 m -0.70543,-0.908901 -0.9003,1.663124 m -0.69622,-0.246633 1.00896,-1.868254 m -0.66763,-0.393416 -1.03098,1.913922 m -0.82746,-0.577125 0.92502,-1.722971 m -0.64703,-0.146942 -0.75314,1.405751 m -0.308,-0.450626 0.51788,-0.968233 m -2.20791,2.944981 -0.86087,1.612461 m 0.9405,0.03038 0.46555,-0.869556 m -1.51758,-1.532949 -1.04902,1.972808 m -0.91145,-0.51575 1.02455,-1.933589 m -1.14706,-0.325414 -0.79358,1.450422 m -0.30575,-0.43748 0.53993,-1.024713 m 0.31927,-4.052006 0.45628,-0.870575 m -0.56771,-0.749458 -0.82241,1.573629 m -0.90784,-0.292959 0.9774,-1.876179 m -1.14097,-0.592842 -0.88464,1.907375 m -0.81179,-0.662642 0.7852,-1.518493 m -0.73653,-0.03108 -0.4949,0.95929 m -7.95838,4.826973 -0.63601,1.25357 m -0.62587,-0.04653 0.85706,-1.692588 m -0.562,-0.470607 -0.99673,1.973356 m -0.49649,-0.194873 1.04656,-2.075823 m -0.47861,-0.256585 -1.0544,2.095311 m -0.66558,-0.423673 0.99207,-1.976791 m -0.93565,-0.223223 -0.7789,1.557187 m -0.33355,-0.466147 0.54283,-1.087113 m 3.47504,6.345219 -0.48954,0.960289 m 0.28426,0.483148 0.75676,-1.482017 m 0.67013,0.101578 -0.9588,1.8735 m 0.31203,0.492109 1.13513,-2.214234 m 0.49258,0.20143 -1.13652,2.212923 m 0.52813,0.186958 1.10542,-2.14825 m 0.45817,0.281939 -1.07316,2.081665 m 0.95617,0.275998 0.88675,-1.714323 m 0.39646,0.495137 -0.65396,1.261825 m -0.0951,4.417949 -0.66919,1.282533 m 0.55089,0.678509 0.98645,-1.885283 m 0.74768,0.2297 -1.12991,2.153821 m 0.46078,0.298849 1.17295,-2.231626 m 0.49605,0.265369 -1.17142,2.224405 m 1.00149,0.370059 1.03426,-1.956856 m 0.48931,0.511893 -0.82875,1.564464 m 0.58137,-0.03776 0.54312,-1.023533 m 7.8571,-5.766242 0.61323,-1.139299 m 0.58691,0.03119 -0.87962,1.548424 m 0.551,0.522635 1.02081,-1.888849 m 0.95753,0.419902 -1.10957,2.045963 m 0.48528,0.243876 1.0919,-2.009782 m 0.42023,0.302505 -0.84778,1.956636 m 0.50394,0.120116 0.86789,-1.591004 m 0.3638,0.485495 -0.62799,1.149184 m 24.87924,31.387928 3.20652,-0.84464 2.17847,19.62345"
       style="fill:none;stroke:#000000;stroke-width:0.665;stroke-miterlimit:4;stroke-dasharray:none"
       id="path826" />
    <path
       d="m 466.11463,233.03334 6.02029,5.31548 5.42803,5.68005 4.76718,5.97698 4.07407,6.1931 3.33307,6.33971 2.58002,6.40609 1.80207,6.39119 35.59631,-118.98142 0.47456,4.67701 -35.03763,120.62643 0.27617,6.1678 -0.4778,5.97177 -1.21706,5.69996 34.94861,-124.89655 0.988,-4.4014 -34.71955,123.59799 m -1.21706,5.69996 -1.89004,5.39276 -2.56293,5.03446 -3.1759,4.62755 -3.59235,4.04214 m -0.14947,0.16823 -1.43675,1.26634 m 0.0698,-0.53347 -0.18484,1.41339 -1.66962,5.40575 -2.22114,8.0537 -3.9292,7.16342 -5.18026,6.30851 -6.54089,5.17723 -7.48681,4.17504 -6.2531,2.32396 -8.16476,1.9986 -9.45852,1.0436 -14.00185,-0.53362 -12.58759,-2.33995 -14.89136,-4.86812 -7.20121,-3.3315 -6.94506,-3.79767 -4.4675,-2.80243 -12.29546,-9.61493 -6.56061,-6.63806 -6.20128,-7.74717 -3.94054,-6.09608 -2.88325,-5.58646 -2.95733,-7.8268 -1.89913,-8.60873 -0.35705,-8.50821 2.16772,-11.53396 2.19713,-5.07466 2.91061,-4.75279 5.19743,-5.90262 5.16607,-4.24297 8.24692,-4.53096 10.2585,-3.54474 10.63101,-1.7193 11.40921,-0.19257 10.88433,1.19333 16.03619,4.1133 10.73543,4.40834 8.47354,4.38289 13.74235,9.488 6.10255,5.38813 6.07362,6.48353 6.3043,8.30651 3.71479,6.23884 6.37676,18.82157 0.53272,6.05949 -0.73728,8.66631 1.85446,-6.81914 0.61984,-7.13884 -0.17162,-2.70644 -0.046,-0.98114 -1.51936,8.97925 1.41659,-9.7554 -0.0647,-0.59389 -1.88458,4.2898 1.43643,-7.17241 -1.72511,-5.4865 -1.98324,-6.63428 -0.50533,-1.11247 -0.3666,-0.80666 -0.57379,-1.4552 -2.65913,3.84594 1.28179,-6.54501 0.88242,1.55065 -2.16421,4.99436 m 4.33755,0.30691 -1.54838,-11.36752 2.02163,-2.55951 -5.97312,-17.40409 2.51658,-2.24443 0.45249,0.53634 5.57518,16.81037 2.785,-1.77481 -0.27205,-0.92952 -7.58943,-13.5148 0.78762,0.99849 1.49479,1.88044 0.85325,1.48212 3.67305,6.74652 2.75147,-6.34943 -0.45377,-0.83808 -4.32097,-7.98193 -1.64978,8.42292 4.45374,9.15377 -0.78069,-2.40725 m 1.26175,3.82766 0.26845,0.63068 0.29732,0.7501 3.3408,-4.83167 -2.41685,-6.7262 m 4.90196,-2.84566 37.5392,-115.46626 -1.95192,-4.51097 -2.42722,-4.35111 -40.56718,111.79553 m -2.87015,5.72786 -5.55876,-7.68769 -11.32235,-10.77993 -2.04614,-1.94816 -6.2542,-4.38462 -17.14009,-8.71457 -2.62659,-0.75319 -12.86698,-3.68986 -4.15603,-0.44538 m 0,0 -9.47221,-1.0152 -4.02265,6.21702 -2.68378,0.0472 -13.71471,1.26905 1.82771,-2.78517 1.47383,-3.24952 -6.22633,1.73942 -5.78496,2.31794 -7.0843,4.11555 -5.04325,3.99938 -1.03311,1.09065 -1.44712,1.52802 m -0.2661,0.28094 -1.08044,1.14083 -4.17959,5.41116 5.26003,-6.55199 m -1.08044,1.14083 -5.38264,6.77481 1.20305,-1.36365 -2.55681,3.88353 0.62516,-1.34543 0.72848,-1.17453 m 1.38321,-1.55114 -4.47056,7.08131 1.73367,-3.01023 m 1.29158,2.69416 2.69745,-4.23833 -0.92828,-2.85956 m 0.2287,-0.24499 12.3871,-5.83058 -0.56572,-3.06671 -1.2895,0.68262 -1.29204,0.71256 -1.89618,1.02323 -1.26083,1.05704 -3.83866,3.03368 5.02947,-6.29828 m 0.07,2.20756 4.97323,-6.20696 -6.23406,7.264 3.15701,-2.08027 3.07705,-5.18373 m 2.35493,2.02864 4.45218,-1.79525 6.06215,-6.66687 -3.6412,5.78646 -2.42095,0.88041 8.12416,-2.2193 -1.02252,0.13618 -4.68069,1.20271 m -2.14375,-3.46852 -4.72938,6.14418 -1.79874,1.09401 6.52812,-7.23819 m -0.69659,-6.1982 6.41848,-2.22636 6.8694,-1.59368 7.24112,-0.91985 71.4741,-97.6563 4.97339,-0.43974 -68.89861,97.86397 -1.55438,0.0478 -5.71928,0.17583 m -1.48008,5.78202 5.65262,-0.21085 m 0.48925,-0.0181 4.36108,-0.16271 -6.70646,6.26419 -13.092,1.14164 -0.62272,0.12742 17.15176,-1.19864 0.73443,0.15248 0.68772,0.0398 1.84727,-6.5269 m -4.36108,0.16271 -2.34538,6.10148 3.43704,0.0704 -0.75327,-0.11761 m 1.4877,0.27009 -0.47265,3.45085 18.9771,3.22734 18.4695,7.48047 1.51122,-2.82885 1.30979,0.5274 1.16212,0.46725 1.84478,0.82888 5.99504,-5.02223 -3.96816,5.96596 -2.02688,-0.94372 6.82905,4.33127 -4.80217,-3.38755 m -3.87165,-1.7726 13.70291,9.29522 -0.47254,-0.49986 -1.40261,-1.39699 2.26625,-7.20711 -0.86364,8.6041 -4.55653,-3.63522 5.42017,-4.96888 m 5.58193,-2.28459 -6.54222,-4.86846 49.43489,-104.8251 4.03215,3.24195 -46.92432,106.45194 m 6.02029,5.3155 44.5901,-108.17548 -3.68607,-3.59196 m 3.68607,3.59196 3.29975,3.89008 -42.46183,109.96544 m -3.66173,4.01714 -2.53167,6.97643 -1.3811,-1.53123 3.55733,4.76728 -2.17623,-3.23605 m -1.3811,-1.53123 -6.44318,-5.85129 -1.73234,-1.51916 -0.84352,-0.73972 -0.82777,-0.95916 -5.02909,-4.13507 3.15392,2.23823 m 2.70294,2.856 -2.11369,2.67186 10.53236,16.38173 2.41922,-2.69155 -12.95158,-13.69018 -13.57911,-13.3935 m 1.16211,0.46724 12.417,12.92626 -2.13516,3.04013 -16.01653,-10.80694 1.75156,-3.32525 14.26497,14.13219 12.66752,13.3416 -1.94845,2.77292 -10.71904,-16.1145 -1.82113,2.96596 -14.19539,-13.7729 -16.71795,-10.8057 0.92402,-2.91199 -3.37138,-1.2695 -4.46605,-1.49487 4.57219,-6.02835 m 0.24272,-5.43864 -7.87566,-1.17377 -7.74451,-0.46212 m 7.74451,0.46212 66.19905,-98.27686 -5.04495,-0.0493 m -4.97338,0.43975 -4.8315,0.92302 -73.88373,97.65313 m 0.49906,5.78032 -1.07906,0.18056 -5.18684,6.32317 m 1.02251,-0.13618 -14.37507,5.10856 14.81223,-1.65581 -15.3074,1.9694 -0.55654,0.3523 m 0.55654,-0.3523 0.009,3.41903 14.861,-1.90494 -14.94558,5.20468 13.97411,-2.05079 -1.44126,2.63413 17.20592,-1.04804 16.9491,5.17458 1.33875,-1.99266 -18.28783,-3.18191 1.43212,-2.66769 16.85571,5.8496 1.42311,-2.68323 -18.27882,-3.16637 -17.19678,1.0816 15.76466,1.58609 -1.60361,1.92608 18.55271,3.2485 -1.16203,1.1425 -0.40806,-0.10304 m 0.40806,0.10304 0.95577,0.38746 m -0.22064,-0.0694 -2.12855,-0.78412 -1.71575,-0.3396 -2.50499,-0.49558 -3.37473,-0.75551 -2.94122,-0.72138 -3.59632,4.74163 1.14529,-5.08164 -6.6775,-0.88322 -0.99456,-0.15348 m 0.19973,0.0308 4.46283,-0.26701 13.90498,3.51089 m 4.22081,1.1982 3.30175,1.03787 -3.52711,4.72087 m 3.52711,-4.72087 8.78047,3.58433 -1.57216,5.54489 6.8228,-3.12694 0.60391,0.26013 -7.42671,2.86681 4.82231,-4.03969 1.30533,0.61353 0.69516,0.29922 m 0.54542,0.18725 -17.45136,-8.688 18.11376,7.3407 -0.6624,1.3473 -1.49509,-0.6061 m -1.05082,-0.4939 -3.25015,-1.5052 m 5.79606,2.6052 0.47995,0.33979 m -0.42169,-0.26656 0.98659,0.62472 3.22556,1.86624 -3.16535,4.75873 4.32663,-3.96643 11.23108,7.68145 1.15344,0.91721 -2.96881,4.85576 1.81537,-5.77297 m -0.10259,-0.0702 0.2029,-1.50681 -15.02158,-12.91095 -16.43129,-9.91356 17.82837,7.22077 -1.39708,2.69279 -17.85439,-7.23034 16.77502,9.33338 1.07937,-2.10304 15.85635,10.66656 1.37462,-2.69695 -15.83389,-10.6624 1.6385,-3.1105 -18.05002,-7.30873 1.33208,-3.49698 -17.81672,-6.63839 m 0.37135,0.0216 0.99551,0.0744 9.53644,0.86601 m 4.46605,1.49486 -14.00249,-2.36087 m -2.52724,3.31502 17.64502,6.72432 16.41152,10.41923 14.45927,13.35935 12.57053,13.13322 1.34427,-2.68163 8.31919,14.49915 3.63032,14.63035 -0.35942,2.49918 m -0.32663,-1.09257 0.68605,-1.40661 2.02468,-2.34271 -1.06219,-17.14899 -8.54429,-15.10224 -9.99438,-15.62233 m 1.73234,1.51916 10.00051,10.61857 0.77813,1.24014 -0.42266,-11.45263 -3.91277,5.4452 m 4.78796,6.54375 0.49874,0.59122 m 0.7876,0.99849 3.99784,-5.06036 -2.50304,6.94079 m 2.50304,-6.94079 -0.6007,-0.83055 m 6.94422,0.46525 38.92033,-113.63753 m 1.95192,4.51097 1.46926,4.61631 -36.42841,117.25605 m -5.06514,3.16577 1.02254,4.634 0.7779,3.52536 0.26795,8.61559 -0.66065,4.71432 -0.48677,3.47399 -2.12338,6.87497 0.88744,-6.29933 0.19623,-2.10087 -0.13334,-1.3812 2.32047,-5.28188 -2.18713,6.66308 m -0.13334,-1.3812 -0.0915,-1.85452 -0.0549,-0.87136 2.19889,-11.17159 -2.26103,7.29563 -1.39022,-6.21283 -1.48999,-4.41048 2.90758,12.78721 -3.2049,-13.53732 m -0.26845,-0.63067 0.67689,16.52428 2.79205,-1.26562 0.0392,0.62139 -4.03912,14.86143 2.68895,-0.80961 -0.22811,0.62943 -0.43309,1.19547 -0.67416,1.8686 -2.75972,5.56136 m 0.0154,-0.17716 3.4185,-7.25279 m 0.43308,-1.19547 -3.69803,5.62288 m 0.0388,0.6111 -1.73703,5.29168 m 1.49353,-2.48725 1.33462,-2.34553 0.95512,-1.79304 0.50582,-1.83576 m -2.74124,0.0893 1.38765,-2.97318 -1.41591,2.37138 m -0.16773,-1.37521 -0.10443,-1.45414 -1.78015,5.74394 m 1.88346,-4.30537 1.58476,-0.9806 1.20789,-14.2172 -3.67089,-15.24036 -2.57117,2.30184 -8.39235,-14.71255 6.37071,17.27206 -1.31657,2.65702 1.08661,4.32578 m 0.1,0.23184 -0.49492,-1.14841 m -0.0893,-0.15704 -0.60227,-3.25221 -0.32184,1.63506 m 0.13109,0.22348 -3.02547,-5.15993 -2.48289,-3.57732 -0.74761,-1.15358 -5.04491,1.89048 2.00354,-5.52095 -4.97355,-5.28191 -3.10362,4.31934 0.67048,-6.67967 -3.36648,-3.17571 m -1.49088,-2.88271 -16.10094,-10.80791 14.48767,11.35011 m 1.61327,-0.5422 0.83477,-2.24439 11.92836,15.54778 0.64219,-2.41456 8.34687,14.47455 -7.00261,-17.15618 -12.54018,-13.14854 11.19588,15.83019 5.14132,11.19142 m -0.0108,-0.0179 -1.97114,5.46611 m -6.3043,-8.30652 3.20424,-4.05592 1.05397,1.28115 0.39688,0.44629 m -0.21224,-0.23871 -1.94021,-3.35106 1.42759,2.74479 m -0.72601,-0.88247 -1.20069,-1.46504 m 0.49906,-0.3973 0.068,1.08924 m -0.068,-1.08924 -12.76312,-13.30339 6.24087,7.40052 m 1.04962,1.01823 -2.43314,-2.36033 m 1.30834,-17.00584 -16.40013,-11.09206 -13.65675,-9.57087 3.89806,0.77353 4.44155,-5.94477 -4.62497,2.84409 -3.77019,2.31847 -1.95542,-0.41537 -1.87776,-0.39752 m 1.87776,0.39752 15.66772,9.99492 m 1.51122,-2.82884 -3.3768,-1.97424 -5.42517,-2.97798 -2.46794,-1.01628 m 2.46794,1.01628 1.97361,-6.96105 m 0.44738,-5.4531 7.63739,3.20931 7.34894,3.81552 6.64188,4.15047 m -6.64188,-4.15047 52.09263,-103.31612 -4.58783,-2.44972 -4.8015,-2.00583 -4.94879,-1.52622 -5.03782,-1.05521 -63.40127,98.89968 7.03338,1.68053 0.85379,0.20395 7.81108,2.54411 57.68963,-100.74684 m -4.9488,-1.5262 -60.55191,99.72895 m -0.97592,13.16847 11.79118,4.76778 m 4.63355,-12.18346 54.85374,-101.95031 m 4.58783,2.4497 4.34204,2.86507 m 11.01798,10.72399 2.8725,4.14691 m 5.8484,13.47838 0.96996,4.66582 m 0.47457,4.67702 -0.0147,4.62537 -34.74677,122.16886 m -0.27617,-6.16781 -0.97984,-5.99528 m -6.92061,-3.55215 -1.85081,9.24217 m 1.39023,6.21281 0.0274,2.16391 -0.004,1.09067 m 0.094,1.49275 -1.10265,12.32234 -0.30237,0.85812 m 0.30237,-0.85812 0.24383,-0.68642 m -5.10743,1.13064 3.08016,-12.99369 -2.60868,1.90864 -3.63336,-14.84715 1.60869,17.18985 m 2.02467,-2.3427 -1.49055,7.68839 m 0.68483,2.17802 0.80572,-9.86641 m 5.58631,0.17303 -0.0629,3.48207 2.38336,-8.76395 m -8.53775,15.53097 0.34371,1.42848 m -20.77382,3.25534 -2.42521,-7.74125 2.92034,-1.1492 -19.31868,-24.68301 -2.91962,1.2674 -19.43187,-11.45082 -19.47706,-5.39742 -15.09783,-0.36417 -19.01043,5.81685 -6.94226,5.47499 -8.06945,14.2873 -0.67979,8.34334 4.42532,17.21228 11.7315,16.00643 7.82905,6.96375 21.17715,11.54369 7.63674,2.43492 6.85209,1.43861 6.81298,0.77407 16.20671,-1.10339 5.9002,-1.67085 14.81782,-9.57366 4.37651,-6.06708 2.1178,-5.03663 1.17617,-5.46884 -0.60818,-11.85731 -2.55509,-1.40841 -2.17001,-7.64171 4.7251,9.05012 -2.12817,6.68567 1.56018,10.64048 -2.57273,-4.43405 1.01255,-6.20643 2.73635,5.17164 m -3.23956,-2.08723 -3.57438,9.9078 -3.6874,4.83756 -4.16491,3.6054 -4.88889,2.93422 -2.93318,6.94848 7.82207,-9.8827 6.99576,0.30904 -2.83083,-3.91446 7.61104,-20.74869 m 0.15395,2.91893 -0.42693,-8.09407 m 0.0599,1.13502 -11.56283,28.39421 11.00185,-31.29391 m -0.78966,-2.78085 -15.10108,37.00898 -8.83337,8.61933 -5.73966,-4.46038 -10.46704,5.56377 3.97224,-5.20345 -10.78523,4.42939 0.67714,-5.28504 -10.20389,-2.45324 -4.96208,3.86475 -1.69801,-6.35399 6.66009,2.48924 2.67466,6.29966 7.52923,-3.84642 10.10809,0.85565 6.4948,-0.36032 6.17654,-1.10851 -0.43688,5.56889 m 0.43688,-5.56889 8.39649,-3.05044 14.85794,-45.80258 m 1.04976,1.34124 -1.68582,4.35615 2.2999,1.30888 m -2.99281,-8.70428 -21.92544,50.55101 18.55948,-54.85165 m -0.61311,-0.78334 -24.1229,56.74349 20.59799,-61.24719 m -0.30068,-0.3842 -26.79208,61.9917 17.33948,-50.09931 m 0.296,-0.0542 -1.80573,0.33049 -2.16386,-0.88597 -1.74941,-1.14835 1.40361,0.72978 m 0.41987,0.33678 4.53991,-0.043 2.03628,-1.20044 0.89057,-0.98544 0.43335,-2.24027 -1.07596,-2.38403 3.49054,-7.845 m 1.32843,1.69732 -3.74302,8.53171 -1.5253,-0.018 0.44934,-2.36605 -2.30425,-1.87988 -1.13612,1.53966 -2.02483,-0.60017 0.25367,-1.80006 3.61852,-7.79953 m -0.69963,0.30371 -2.12966,-1.05409 -2.01891,-1.3906 m 1.77151,1.22024 -5.05035,10.64186 1.79146,-1.53002 2.71705,-0.39155 2.90725,0.86055 3.84236,-8.45967 m -5.38554,-0.66625 -4.08112,8.65692 0.47458,1.46075 2.24247,-1.8523 m -0.25367,1.80006 -1.9888,0.0522 -1.99805,3.70551 -0.93684,-0.22371 0.27354,-1.56201 0.6633,1.78572 0.36966,-3.01333 -1.03296,1.22761 0.39531,-1.85052 0.63765,0.62291 1.62839,-0.69218 0.7085,2.11769 -0.97298,1.76759 1.48853,0.59224 -0.51555,-2.35983 1.2803,-2.16993 2.95457,4.13402 -4.23507,-1.96395 m -0.97298,1.76759 0.26447,-3.88528 m -0.47458,-1.46074 -1.15381,2.15292 m -1.26029,2.52585 -30.53355,52.00534 31.87471,-65.42807 -6.24654,-2.37862 -25.62817,67.80669 m -6.66008,-2.48925 32.28825,-65.31744 -8.63961,-4.84534 m -1.19466,-1.8649 1.62605,-0.74776 -4.37502,0.86599 2.74897,-0.11823 m -0.9779,0.0421 -9.54566,17.22878 1.15465,2.3481 11.33988,-20.73704 m 0.25679,-0.40146 -0.60181,0.77175 -1.12691,-0.15446 -0.11671,-1.28057 m 0.11671,1.28057 1.37914,-0.74292 m -0.25223,0.89738 -3.21659,0.28447 2.08968,-0.43893 -1.89649,-0.61547 0.52956,-1.11445 m -0.16149,-0.058 -0.26737,0.47227 -0.10071,0.70025 -0.19317,1.0544 -1.15845,0.58151 -1.00332,-0.86582 0.0928,-1.48286 2.26218,0.71277 m 0.10071,-0.70025 -2.36289,-0.0125 2.06901,1.76717 -2.16177,-0.28431 -1.4557,-0.96171 1.54846,-0.52115 1.4186,-0.81172 m 0.64388,0.17673 0.30041,0.64751 m 0.0389,-0.55436 4.41013,1.58508 5.32464,2.69848 m 1.35726,5.19898 -38.72673,62.19565 -13.04067,-2.06792 19.47914,5.18971 -6.43847,-3.12179 -6.10802,-3.68366 -6.29835,-4.81114 -6.83816,-6.57682 -4.16275,-5.22237 -3.4171,-5.49314 -2.59885,-5.65448 -1.70596,-5.74789 -0.76889,-5.71431 0.2191,-5.5714 1.20287,-5.33591 2.21596,-4.97664 -0.0171,-6.09326 7.37703,-2.34219 7.84565,-4.60195 -8.28043,1.46915 0.43478,3.1328 -4.1537,3.93467 -3.22333,-1.59248 m 3.22333,1.59248 -3.20618,4.50078 -8.08661,8.19405 5.87065,-3.21741 8.8467,-12.72142 m 0.29436,-3.82347 14.46157,-3.54928 -6.18114,2.08013 m -0.97785,0.57359 -17.86561,28.34776 -5.12847,0.65343 5.34757,-6.22483 -4.66778,-2.1185 m 4.66778,2.1185 14.21969,-20.76636 m -0.92914,0.545 -13.29058,20.22133 m -0.21911,5.57141 20.10129,-29.34462 m 4.92331,-1.65686 4.54887,-2.26758 10.45007,0.82351 -8.1996,0.22622 -2.25047,-1.04973 m 1.47357,1.18887 -28.57218,43.5424 -3.178,6.40349 1.47204,-12.15139 -5.89736,-5.06088 m 5.89736,5.06088 24.71866,-36.79872 m -0.46296,0.0829 6.79934,-1.21785 m 4.85415,-0.13393 -31.60438,49.46994 -5.77685,0.74902 m 5.77685,-0.74902 5.95465,16.75547 -2.53755,-11.26234 29.4402,-54.99763 m 2.09253,-0.0577 4.64776,-0.45933 5.85127,1.65724 -10.49903,-1.19791 m 3.07403,0.35073 -34.60676,54.70463 m 4.16275,5.22237 -1.6252,6.03997 8.46336,0.53686 31.859,-65.42932 m -0.21382,-0.0587 -38.48336,58.91119 31.15217,-59.84619 m 6.71684,0.76636 13.6258,3.74018 m -0.45366,0.22898 -12.57349,23.10479 0.30043,-2.20944 -1.69575,-0.0342 0.54111,-2.31393 -2.30668,-1.84877 8.93221,-15.83841 m 0.1457,-0.33126 -1.89747,-0.48371 2.9008,1.34953 m -0.91057,-2.34868 0.46987,-1.07214 m -0.61917,-0.16996 0.1493,1.2421 -2.05199,-0.55307 0.4122,-1.09814 m -0.85082,-0.23357 0.43862,1.33171 0.50354,1.07422 -0.44178,0.478 -1.48515,-2.08667 0.21019,-1.00972 m -0.38733,0.4681 -10.93721,18.82964 -1.64022,1.51142 12.24866,-21.00574 m 0.12236,0.0336 0.38355,1.17269 m 0.8189,-0.84263 0.66609,2.92941 m -0.52084,-0.73191 -9.49229,16.54236 2.83266,0.84292 -1.24251,1.50074 -1.97268,-0.58781 0.38253,-1.75585 -2.2871,1.81097 -1.52605,0.68525 -0.17962,2.40797 1.357,0.7125 -1.17738,-3.12047 -0.4135,-0.59381 -0.50578,1.80222 0.91903,-1.20823 1.22696,-2.10541 0.29908,1.42016 1.90458,-0.0551 -1.31503,2.12476 3.28767,-1.53697 1.75583,1.14648 -0.5133,-2.64726 m 0.5133,2.64726 1.79338,-0.79849 m -1.79338,0.79849 1.25227,1.51544 0.5676,1.66108 1.12819,-1.6269 m -1.69575,-0.0342 -2.13318,0.80293 0.40483,3.56498 2.08934,-1.17057 -2.49417,-2.39441 -1.45157,3.05995 1.8564,0.50503 -2.00721,0.4389 -0.28979,0.56263 -2.18622,-0.96165 2.47604,0.39904 0.15081,-0.94393 -2.17331,-0.65844 -1.8978,-0.90011 -0.85524,0.53418 0.8248,0.5496 0.61442,0.33262 m -0.11888,-0.0951 -1.32049,-0.78689 -1.00968,-2.59549 0.49634,0.73566 -0.30592,-2.27984 0.73939,1.19976 -0.4335,1.0801 0.51337,1.8598 m 0.35694,0.23816 -22.08019,37.75006 -0.6343,6.42687 6.93265,-1.61574 22.40241,-40.83264 m -0.19495,-0.43694 -0.3844,0.68917 -1.62278,-0.25024 -2.02249,-1.60237 -1.47596,-2.59336 0.93827,-1.73605 -2.11565,-1.38439 m -0.91904,1.20823 -0.19039,1.54415 m 0.49635,0.73567 1.36862,1.32565 0.46526,1.32101 1.43255,-0.4209 2.25586,0.0151 1.36902,-2.41662 2.70077,0.85815 -0.2066,1.53626 1.03434,-0.95374 -1.98048,2.14846 0.94614,-1.19472 m -0.94614,1.19472 -1.52764,0.66499 -1.91259,0.31237 m -1.06975,-0.47056 -25.13903,35.92748 m 12.40637,8.4948 23.68661,-55.27951 m -7.11109,4.44293 -0.88091,2.31837 -4.16257,-1.92791 -0.58959,-2.06967 m -0.29908,-1.42016 2.58618,-0.39081 m -1.69751,3.88064 5.04348,-0.39046 m -0.88091,2.31837 -1.86275,1.41627 -2.29984,-3.34416 1.30877,2.56059 0.99104,0.78359 0.49374,1.00037 -0.0825,0.64331 m -0.4112,-1.64368 -1.76211,0.98524 0.77107,-1.76883 -2.24702,-0.82454 -0.42186,1.69326 -0.93515,-2.40575 m 0.90488,3.48922 1.06192,0.69065 m 0.41243,0.32959 0.45354,-1.20332 m -0.45354,1.20332 -0.97901,-0.78242 m 5.46226,0.74256 1.1432,0.0242 m 26.34326,-1.20145 1.11603,2.65162 -0.17919,-2.42792 1.73357,0.17977 1.48215,2.64072 2.30322,0.0158 -0.45979,-1.01566 -0.99042,-0.79682 2.87289,-0.64765 -1.88247,1.44447 2.10862,2.17221 0.98448,0.009 1.05181,-1.20967 0.29951,-1.55773 -0.50091,-1.68596 -1.22285,-1.53975 -0.63203,-2.70618 m -1.13612,1.53966 1.76803,1.16664 1.67221,-0.82629 m -1.67221,0.82629 -0.83819,2.36721 -3.71952,0.3959 0.84663,0.25175 -0.85301,1.79672 3.95206,1.17231 2.33579,-2.75817 1.02444,-1.66795 m -1.52531,-0.018 -2.06104,0.82746 -0.92994,-3.53372 m 0.92994,3.53372 0.22615,3.61667 1.83489,-4.44413 m 1.09196,2.25825 4.51797,-10.33556 m -10.4399,-4.46479 -3.72217,-0.91678 m -1.38737,13.68651 0.51894,1.67415 0.59711,0.97745 1.51915,0.86225 m -0.0574,-0.0463 -0.41249,-1.34074 0.50513,-1.72355 m 1.48854,0.59224 -0.006,2.04848 -0.58785,1.21534 -0.98694,-0.79177 1.57479,-0.42357 1.84345,-0.9999 m 0.45978,1.01566 1.64882,1.15658 -2.45023,1.01096 m -1.02546,-0.41984 -24.91239,49.38718 21.30028,-51.70558 m 0.0992,0.16237 0.62523,0.54133 m -0.62523,-0.54133 1.04923,-0.52459 1.9873,0.91717 m -1.9873,-0.91717 -1.22842,-1.90332 m 6.52328,4.67327 1.62896,-0.67126 m 18.35144,23.59561 -3.80685,11.33268 -0.85655,8.752 m 4.37651,-6.06709 -3.51996,-2.68491 5.63776,-2.35172 m -2.57272,-4.43405 -3.06504,6.78577 m -12.7883,-75.88228 -1.16129,-0.79235 m -18.96017,-15.92772 1.41684,-3.19846 -18.50532,-3.17275 0.8603,-3.55157 -17.71609,-2.33576 -0.12266,3.53639 -0.43714,-3.45275 m 1.48508,-0.27999 1.20541,-2.65748 m -1.20541,2.65748 5.1413,-0.96263 4.15421,-6.05151 -5.5372,0.92658 m 1.38299,5.12493 7.9507,-0.179 m 3.69881,3.67374 -17.83875,1.20063 -15.2982,5.38843 -0.0846,3.29974 -0.77638,3.04748 -0.76653,1.38604 m 0.76653,-1.38604 -2.75483,2.07853 m 2.75483,-2.07853 14.75049,-5.09827 0.97146,-3.1539 16.22532,2.0723 1.19033,-3.20484 17.08848,6.37121 m -12.91278,3.76169 -6.53754,4.02024 m 1.14529,-5.08163 2.45102,0.34002 m -5.46054,-1.61292 -1.13489,0.72471 m 1.13489,-0.72471 -15.60231,-0.87804 -1.37737,1.44626 m -0.16857,0.006 -3.28108,4.7796 5.18916,-4.84685 9.43106,-0.3083 -3.21097,4.96261 3.89387,-4.92773 -0.68286,-0.0349 m -9.43106,0.30831 -1.90808,0.0672 -1.17968,0.14665 -4.05612,0.54424 -1.48416,0.15741 -7.19213,5.65061 2.91687,-4.63546 -8.39614,2.92433 -1.03098,0.38638 -3.74824,4.86948 4.77922,-5.25586 m -1.03098,0.38638 -1.24644,0.65481 m -0.19996,0.10324 -1.15681,0.55796 -0.79392,0.47672 -0.94999,0.5709 -3.75436,2.17708 -4.20488,3.44557 -0.88916,0.69088 -0.65076,0.67449 -3.31499,4.29173 3.96575,-4.96622 m -0.47355,0.49081 0.1738,-1.73065 1.19433,-5.16168 m 0.091,-0.39314 1.98978,-5.32779 2.68781,-5.06648 3.3757,-4.72699 4.06131,-4.33748 4.70827,-3.89081 5.329,-3.37984 5.89557,-2.8316 78.10797,-98.23155 -4.13001,2.2722 -79.87353,98.79095 m -5.329,3.37984 81.39017,-99.50878 -3.45445,3.02703 -82.64399,100.37256 m -4.06131,4.33748 83.63344,-101.36202 3.07186,-3.34802 m 3.45445,-3.02703 3.81236,-2.66201 m 4.13001,-2.2722 4.41417,-1.84396 -76.10367,97.84914 m 2.56221,14.00693 -0.43719,3.48349 17.41563,-1.13254 -16.97843,-2.35093 m -2.84993,9.27152 -13.30922,2.46413 -6.20549,3.28039 m -2.63921,0.9794 9.62108,-7.30727 -11.60298,5.63537 -5.58616,5.91344 m -0.34776,0.20163 -3.89369,4.85971 m -0.31118,-1.41414 -4.8549,5.65711 1.23216,-1.93054 -2.26128,2.5868 -4.1683,5.24636 m 7.28931,-8.82147 0.54009,-0.60326 0.68301,-0.76962 m 4.42988,-3.73349 1.52613,-2.63813 m 4.142,1.88942 2.30185,-4.11142 m -0.56592,0.27295 -0.15524,-2.60535 11.68754,-8.93512 m -1.85523,-2.38409 -10.26175,7.92544 1.97406,-2.09893 m -1.97406,2.09893 5.81272,-5.13261 m 6.2114,6.79001 1.15065,-0.32313 -4.06751,4.95858 6.06299,-5.3756 -1.99548,0.41702 m 2.52627,-0.54594 -6.59378,5.50452 m 6.59378,-5.50452 0.59835,-0.14608 m 2.36404,-0.27546 5.90183,-2.02506 m -2.7256,1.59886 -2.1014,4.63296 m 81.21839,-127.35941 4.64944,-1.39766 m 14.84983,-1.31353 5.07788,0.55097 m 44.88671,52.21955 -0.50504,4.54262"
       style="fill:none;stroke:#000000;stroke-width:0.665;stroke-miterlimit:4;stroke-dasharray:none"
       id="path837" />
  </g>
</svg>
