<?xml version="1.0" encoding="UTF-8" standalone="no"?>
<!-- Created with Inkscape (http://www.inkscape.org/) -->

<svg
   width="228.01512mm"
   height="201.61572mm"
   viewBox="0 0 228.01512 201.61572"
   version="1.1"
   id="svg935"
   inkscape:version="1.1.2 (0a00cf5339, 2022-02-04)"
   sodipodi:docname="stereo.svg"
   xmlns:inkscape="http://www.inkscape.org/namespaces/inkscape"
   xmlns:sodipodi="http://sodipodi.sourceforge.net/DTD/sodipodi-0.dtd"
   xmlns="http://www.w3.org/2000/svg"
   xmlns:svg="http://www.w3.org/2000/svg">
  <sodipodi:namedview
     id="namedview937"
     pagecolor="#ffffff"
     bordercolor="#999999"
     borderopacity="1"
     inkscape:pageshadow="0"
     inkscape:pageopacity="0"
     inkscape:pagecheckerboard="0"
     inkscape:document-units="mm"
     showgrid="false"
     fit-margin-top="0"
     fit-margin-left="0"
     fit-margin-right="0"
     fit-margin-bottom="0"
     inkscape:zoom="0.77771465"
     inkscape:cx="412.10488"
     inkscape:cy="502.75509"
     inkscape:window-width="1865"
     inkscape:window-height="1172"
     inkscape:window-x="55"
     inkscape:window-y="0"
     inkscape:window-maximized="1"
     inkscape:current-layer="layer1" />
  <defs
     id="defs932" />
  <g
     inkscape:label="Capa 1"
     inkscape:groupmode="layer"
     id="layer1"
     transform="translate(-46.909964,-26.429729)">
    <path
       d="m 109.11676,80.43756 5.40811,-2.375058 5.15548,-2.647342 4.82026,-2.875782 4.42637,-3.056044 3.98077,-3.188758 3.49059,-3.274986 2.9627,-3.316684 2.4134,-3.307424 1.84904,-3.251571 1.29257,-3.17111 0.74816,-3.040512 0.20913,-2.892028 -0.30525,-2.713144 -0.79502,-2.50825 -1.24447,-2.300949 -1.6646,-2.066581 -2.05759,-1.832451 -2.41077,-1.59049 -2.72865,-1.341781 -3.0072,-1.096142 -3.25112,-0.853096 -3.46441,-0.612114 -3.65109,-0.372375 -3.8001,-0.139197 -3.91565,0.08895 -4.02047,0.310859 -4.07522,0.519959 -4.12459,0.729827 -4.141367,0.929825 -4.126812,1.121701 -4.106651,1.305772 -4.041563,1.478888 -3.971687,1.650603 -3.873711,1.811126 -3.746421,1.961515 -3.599577,2.101533 -3.430852,2.23139 -3.237733,2.351378 -3.017308,2.46163 -2.76942,2.554923 -2.490126,2.630011 -2.195274,2.70092 -1.868938,2.740395 -1.513152,2.771061 -1.129427,2.775558 -0.714375,2.750503 -0.288263,2.714545 0.171397,2.634086 0.653098,2.535211 1.149191,2.402179 16.406442,29.603971 1.703175,2.39125 -16.450098,-29.764017 2.169875,2.031127 16.504099,30.06709 -2.223876,-2.3342 m 2.223876,2.3342 1.709579,1.27178 0.83312,0.61968 3.04501,1.76969 L 58.751866,84.474467 55.574537,82.93991 52.897563,81.140373 m -2.169875,-2.031127 -1.659519,-2.231204 m 6.506368,6.061868 16.369824,30.15901 m 1.037511,0.60301 0.03635,1.38433 0.01085,0.39759 1.35509,-0.9669 m 0.267891,0.15566 1.737201,6.71282 -1.640893,1.59268 -0.681117,-2.18479 -0.162586,-0.52065 -0.651431,-2.08195 -0.224446,-2.70677 m 1.960245,-0.61521 2.343997,1.07305 1.12387,0.42325 -16.03965,-30.655948 -3.665722,-1.234519 m 3.665722,1.234519 4.11734,0.907415 4.524613,0.553403 4.902465,0.182562 5.191257,-0.194865 5.43904,-0.589757 5.600409,-0.980678 5.670338,-1.363107 5.679895,-1.725162 5.57384,-2.061237 11.33282,32.807434 4.77271,-2.08764 -10.69745,-33.094879 m 5.15552,-2.647315 10.04122,33.247934 4.1995,-2.73259 -9.42052,-33.391074 m 4.4264,-3.056096 8.87825,33.65034 -3.88413,2.79683 m 0.46188,-0.33268 5.11553,-2.9463 1.27786,-2.3055 m 0.4494,-0.42161 3.02233,-3.184763 -7.84982,-33.72014 m 2.96273,-3.316685 7.44384,33.789752 0.70517,-1.17049 1.33903,-2.222421 -7.07464,-33.704265 m 1.84901,-3.25157 6.80043,33.729691 -1.5748,3.226144 m 0.0246,-0.05069 1.43219,6.209215 -2.7464,-1.858671 -0.34758,-1.582791 m -0.40717,0.675799 -0.82722,1.163717 -1.72947,2.083356 m -0.46953,0.494797 0.60259,1.473173 -3.72783,6.840932 -1.15482,-2.89703 -0.10184,-1.01111 m 0.72427,-0.67952 1.10482,-1.036479 -8.31808,-33.629891 m -6.23228,-5.635254 2.36262,-2.522855 1.95046,-2.526956 1.5436,-2.503752 1.12729,-2.452714 0.71247,-2.36818 0.29347,-2.270178 -0.0956,-2.14794 -0.48818,-1.998636 -0.83127,-1.80639 m 0.0611,0.254238 0.0823,2.100633 1.10688,4.873387 m 0.14052,-1.086935 -1.32971,-5.887085 -0.47057,-1.960589 -0.83727,-1.804379 -1.17536,-1.635389 -1.50243,-1.456161 -1.78782,-1.277779 -2.06674,-1.082754 -2.30902,-0.889794 -2.5174,-0.702284 -2.71058,-0.509402 -2.88346,-0.312446 -3.01434,-0.129831 -3.13018,0.05847 -3.22308,0.237463 -3.28898,0.413914 -3.329172,0.585576 -3.349916,0.747633 -3.35399,0.908818 -3.332904,1.061164 -3.285781,1.202558 -3.221566,1.342337 -3.141742,1.468093 -3.029612,1.591125 -2.899727,1.701297 -2.756641,1.799722 -2.588128,1.891665 -2.390563,1.973289 -2.184611,2.037292 -1.944635,2.089706 -1.695106,2.131165 -1.417029,2.153285 -1.115536,2.155958 -0.804148,2.144553 -0.467149,2.114974 -0.114882,2.063088 0.245851,1.988159 0.629338,1.890104 1.002242,1.777576 1.402027,1.628034 1.789377,1.460104 2.160296,1.278307 1.961886,3.954622 m 0.315462,0.136604 -2.277348,-4.091226 2.532089,1.068414 2.894145,0.830289 3.209237,0.590868 3.50647,0.323718 3.765656,0.05408 3.977931,-0.226827 4.13721,-0.511281 4.245901,-0.786765 4.304876,-1.062619 4.300222,-1.323314 4.23026,-1.56075 4.10663,-1.785753 3.93557,-1.975141 3.69618,-2.146326 3.41487,-2.2801 1.16686,4.040796 m 0.22865,-0.153882 -3.41571,2.300103 -3.68605,2.156089 -3.9266,1.993186 -4.104,1.784985 -4.22921,1.562841 -4.299108,1.316804 -4.296622,1.052354 -4.256325,0.771155 -4.149963,0.493712 -3.974915,0.19939 -3.774678,-0.08131 -3.517239,-0.357267 -3.225853,-0.618966 -2.900468,-0.876459 -2.546773,-1.102625 -2.185062,-1.315958 -1.798187,-1.509739 -1.409409,-1.671743 -1.029309,-1.816867 -0.634894,-1.936221 -0.05387,-0.415661 m 0.05387,0.415661 2.274967,4.477517 m 0.38862,0.460957 -3.309885,-6.521317 m 1.002242,1.77755 2.554737,5.036873 m 1.037776,0.927761 -2.190459,-4.336627 m 1.78935,1.460156 2.050971,4.089268 m 2.641415,-1.742572 1.901084,3.885882 m 2.849086,0.807403 -1.856026,-3.862996 m 3.209264,0.590867 1.804088,3.840242 m 3.460644,0.322712 -1.758289,-3.839236 m 3.765656,0.05408 1.709288,3.843443 m -0.437304,0.01217 -1.271984,-3.855746 m 3.977931,-0.226828 1.659837,3.855588 m 4.084505,-0.49784 -1.607132,-3.869055 m 4.245901,-0.786739 1.551887,3.888608 m 3.748299,-0.918025 -0.995309,-4.033176 1.495187,3.906044 m 4.242938,-1.30093 -1.4379,-3.928454 m 4.23026,-1.560724 1.36186,3.954066 m 3.59193,-1.55874 -0.84717,-4.181105 1.32194,3.974598 m 3.87938,-1.962494 -1.26574,-3.987245 m 3.69615,-2.146326 1.21213,4.01365 m -0.4268,0.249687 -0.78533,-4.263337 m 3.41489,-2.280073 3.10502,-2.378631 2.7537,-2.450253 2.36416,-2.490258 1.97512,-2.491158 1.55596,-2.46425 1.14482,-2.412921 0.86826,4.627325 m 0.14108,-0.306864 -1.00934,-4.320461 0.72623,-2.331191 0.31099,-2.223875 m -0.31099,2.223875 1.03275,4.496965 m -2.9038,0.247147 1.0101,4.224734 m -1.54234,2.400829 -1.02372,-4.161313 m -1.97512,2.491158 1.05082,4.12406 m -2.05589,2.195301 -2.7318,2.477029 -3.09052,2.409613 m 2.83023,-2.206598 -1.1207,-4.058894 m 2.7537,-2.450253 1.07924,4.082865 m -17.77942,-9.152044 -0.37041,-1.176602 m 0.34689,0.196109 0.19227,0.612379 m -0.49718,0.726519 -0.51686,-1.63449 m -0.56446,0.0037 0.62188,1.955218 m -0.3601,0.185976 -0.66286,-2.074942 m -0.4091,0.108717 0.68011,2.119524 m -0.60566,0.15494 -0.65865,-2.038958 m -0.34777,0.198384 0.6118,1.886374 m -0.54647,-0.01879 -0.49761,-1.526011 m -0.20738,0.243047 0.39728,1.214596 m -0.26393,-0.119195 -0.27839,-0.849074 m -0.0555,0.351261 0.0873,0.266065 m -2.79207,2.957591 0.0923,0.270828 m -0.0605,0.354356 -0.2981,-0.873813 m -0.4127,-0.155998 0.48339,1.410203 m -0.23931,0.24421 -0.58423,-1.699524 m -0.38354,0.0098 0.66352,1.923256 m -0.34311,0.206666 -0.7203,-2.079572 m -0.411772,0.104167 0.747922,2.150401 m -0.607243,0.192431 -0.739061,-2.111983 m -0.362241,0.199416 0.696225,1.981544 m -0.570336,0.01905 -0.584279,-1.656926 m -0.317474,0.37711 0.417645,1.186603 m -0.359674,-0.19259 -0.219181,-0.618543 m -0.855478,-2.796222 -0.719402,-2.030783 m -0.372057,0.173567 0.6985,1.954662 m -0.389202,0.0486 -0.642911,-1.796177 m -0.286305,0.226166 0.567346,1.579801 M 95.478731,54.060957 95.011,52.763097 m -0.153934,0.244051 0.349541,0.968269 m -0.369676,-0.301995 -0.07583,-0.204496 m 2.062613,-1.750351 0.709295,2.009748 m 0.517207,-0.292259 -0.636535,-1.813004 m 0.536602,0.0037 0.513001,1.468358 m 0.274452,-0.368432 -0.344091,-0.989383 m 0.370126,0.296069 0.08062,0.2354 m 1.430599,-3.031887 -0.375837,-1.107387 m 0.323607,-0.348721 0.5198,1.539134 m 0.35788,0 -0.59201,-1.758923 m 0.3402,-0.195289 0.63929,1.90664 m 0.58719,-0.15277 -0.66432,-1.993583 m 0.38847,-0.109273 0.6491,1.955985 m 0.35573,-0.184176 -0.60933,-1.843432 m 0.37107,-0.02844 0.54928,1.668145 m 0.26442,-0.223388 -0.46775,-1.42531 m 0.29789,0.06715 0.36894,1.127257 m 0.18841,-0.475403 -0.13031,-0.399442 m -3.03316,-2.453137 -0.27903,-0.836586 m 0.26252,0.2041 0.0987,0.296756 m -0.44492,0.784834 -0.474796,-1.417585 m -0.345387,-0.0026 0.548085,1.630919 m -0.315675,0.193569 -0.602006,-1.784879 m -0.380815,0.08689 0.63164,1.865683 m -0.559726,0.187378 -0.633095,-1.858778 m -0.350494,0.171688 0.605155,1.769719 m -0.36695,0.03532 -0.55126,-1.607265 m -0.26662,0.214154 0.477335,1.387475 m -0.293979,-0.04337 -0.386689,-1.120643 m -0.20738,0.440373 0.160285,0.462677 m -1.361837,2.673455 0.243496,0.695114 m 0.03289,-0.311494 -0.05408,-0.151977 m -0.596398,-0.378275 0.423492,1.195203 m -0.343984,0.341921 -0.564886,-1.586257 m -0.363114,0.02728 0.633492,1.772047 m -0.519906,0.272917 -0.692468,-1.927331 m -0.574172,0.210741 0.69342,1.918097 m -0.385657,0.08541 -0.660056,-1.819989 m -0.31488,0.206851 0.602429,1.654255 m -0.350308,-0.0056 -0.520144,-1.42441 m -0.204788,0.234712 0.416984,1.138819 M 92.106616,50.524166 91.874338,49.891627 M 91.216399,47.366761 90.546818,45.53812 m -0.354912,0.163512 0.64897,1.76657 m -0.547397,0.06943 -0.567769,-1.537388 m -0.249978,0.217911 0.487336,1.315138 m -0.345308,0.08964 -0.397774,-1.070345 m -0.110147,0.325014 0.142055,0.38108 m 0.03575,0.09133 0.125228,0.336021 m 2.177203,-0.456407 -0.666406,-1.826868 m 0.559514,-0.127953 0.615659,1.696323 m 0.298159,-0.203014 -0.552503,-1.527625 m 0.328031,0.0087 0.469741,1.302015 m 0.254106,-0.340678 -0.311018,-0.865875 m 0.280406,0.186214 0.133403,0.366183 m -3.054086,-2.377493 -0.449342,-1.22854 m 0.277892,0.04916 0.3506,0.960993 m 0.161316,-0.408252 -0.122767,-0.33618 m -0.985573,-0.271859 0.529881,1.444678 m -0.289454,0.197829 -0.591449,-1.607318 m -0.361924,0.07215 0.63164,1.711352 m -0.351393,0.148378 -0.647568,-1.747493 m -0.357743,0.149225 0.638942,1.718653 m -0.544565,0.10467 -0.580126,-1.552417 m -0.388117,0.311441 0.472334,1.257777 m -0.280961,-0.04231 -0.376396,-1.000548 m -0.180287,0.418994 0.140996,0.373353 m -2.835698,2.475839 0.05678,0.14523 m -0.133879,0.529272 -0.378408,-0.969539 m -0.442991,-0.05051 0.531653,1.357312 m -0.410792,0.313479 -0.641403,-1.630336 m -0.552582,0.138615 0.69559,1.7594 m -0.359648,0.141763 -0.7003,-1.765273 m -0.347953,0.168831 0.67773,1.702805 m -0.542343,0.08834 -0.59682,-1.492594 m -0.240533,0.217752 0.51218,1.277462 m -0.291015,-0.03575 -0.408834,-1.017296 m -0.174705,0.429234 0.152639,0.378539 m -0.243073,2.801329 0.355415,0.872305 m 0.0893,-0.3252 -0.149675,-0.367797 m -0.880586,-0.27141 0.584861,1.429438 m -0.267044,0.218414 -0.665824,-1.622663 m -0.376608,0.06824 0.725408,1.76194 m -0.342609,0.178911 -0.757952,-1.835071 m -0.375602,0.147955 0.761391,1.837002 m -0.568695,0.15412 -0.712999,-1.711695 m -0.295672,0.21664 0.644287,1.542071 m -0.332661,0.0034 -0.553005,-1.320138 m -0.250376,0.350176 0.374465,0.891275 M 76.594315,53.1696 76.508985,52.966797 m 1.617398,2.853399 0.793935,1.891691 m -0.385709,0.08879 -0.747078,-1.774137 m -0.42328,0.345837 0.62349,1.474073 m -0.469,-0.05903 -0.44622,-1.051322 m -0.12872,0.354171 0.226245,0.531654 m 2.135109,-0.04109 -0.80825,-1.932517 m 0.389229,-0.137901 0.79465,1.906641 m 0.345731,-0.200104 -0.750306,-1.806443 m 0.373089,-0.04815 0.677757,1.637056 m 0.256302,-0.239421 -0.580761,-1.406763 m 0.307155,0.04355 0.460878,1.11887 m 0.156025,-0.346181 -0.255826,-0.622564 m 1.999165,2.826067 0.805815,1.974321 m -0.393409,0.07543 -0.750914,-1.833431 m -0.292311,0.236538 0.666723,1.622822 m -0.495168,-0.0495 -0.493342,-1.196181 m -0.176477,0.489214 0.198914,0.48096 m 2.133177,0.05405 -0.829178,-2.039249 m 0.391821,-0.146712 0.821135,2.026841 m 0.36359,-0.195104 -0.782452,-1.938364 m 0.573193,-0.07133 0.672597,1.6746 M 85.3277,59.287351 84.762762,57.876804 m 0.556366,0.168937 0.295539,0.740886 m 0.01085,-0.351949 -0.05855,-0.146949 m 1.56337,-2.94894 -0.299429,-0.769038 m -0.03109,0.334169 0.08327,0.214392 m 0.652833,0.357214 -0.49321,-1.270556 m 0.351128,-0.357082 0.640742,1.657535 m 0.573378,-0.07477 -0.73234,-1.904285 m 0.552265,-0.257943 0.762661,1.994112 m 0.557213,-0.259159 -0.725249,-1.907038 m 0.384571,-0.06368 0.668073,1.762892 m 0.279718,-0.224208 -0.585311,-1.549558 m 0.477705,0.0626 0.421243,1.119929 m 0.15703,-0.585867 -0.07556,-0.202168 M 87.68441,51.129512 87.155481,49.745583 m -0.34753,0 0.617114,1.610122 M 86.949291,51.661801 86.24542,49.8348 m -0.379491,0.106945 0.730461,1.889257 m -0.569965,0.192114 -0.717206,-1.845045 m -0.490511,0.301069 0.642699,1.64502 m -0.353033,0.01191 -0.561658,-1.433301 m -0.210582,0.234182 0.457571,1.164882 M 84.32776,51.902195 84.127444,51.393904 m 3.460539,-1.564428 0.363855,0.955569 m 0.111892,-0.34327 -0.164994,-0.43397 m 2.747671,8.141891 0.80727,2.117301 m -0.406267,0.0984 -0.772822,-2.019141 m -0.482282,0.343932 0.667305,1.733999 m -0.348773,-0.02328 -0.564939,-1.463781 m -0.18841,0.261356 0.43561,1.125881 M 89.446522,60.1309 89.230833,59.574481 m 2.019486,-1.647058 0.799967,2.110793 m 0.361421,-0.195553 -0.756417,-2.003637 m 0.394811,-0.04887 0.687388,1.827372 m 0.276463,-0.243682 -0.591106,-1.576519 m 0.322183,0.05413 0.475986,1.272858 m 0.140335,-0.271198 -0.336233,-0.902203 m 0.284348,0.237702 0.115173,0.309192 m 6.36479,-9.61263 -0.06551,-0.192802 m 2.109732,-6.838262 -0.0558,-0.170762 m 0.21085,0.123534 -0.36819,-1.129982 m -0.10107,0.214524 0.18243,0.55925 m 0.62931,0.251936 -0.43868,-1.351333 m 0.25879,-0.207328 0.49681,1.535192 m 0.35776,-0.02513 -0.54893,-1.702382 m 0.34338,-0.167614 0.57766,1.798426 m 0.37259,-0.105357 -0.58523,-1.829303 m 0.37957,-0.103267 0.57073,1.791256 m 0.3365,-0.169333 -0.53583,-1.688015 m 0.52101,-0.01508 0.44567,1.411235 m 0.22354,-0.219789 -0.36327,-1.153981 m 0.51917,0.276305 0.10763,0.343376 m 1.79374,2.026576 0.50472,1.629119 m -0.33732,-0.01746 -0.43547,-1.40073 m -0.21022,0.221218 0.34878,1.118605 m -0.49625,-0.350017 -0.0693,-0.220874 m 1.01208,-1.175015 0.55457,1.796944 m 0.57716,-0.115384 -0.58835,-1.918441 m 0.38507,-0.12073 0.58365,1.911509 m 0.36427,-0.158909 -0.55626,-1.829567 m 0.3691,-0.03548 0.50871,1.679971 m 0.2811,-0.205105 -0.44326,-1.468913 m 0.30856,0.0503 0.36076,1.199303 m 0.26736,-0.540835 -0.10668,-0.356552 m 0.20817,3.629448 0.52975,1.752547 m -0.32753,0.19222 -0.58134,-1.915239 m -0.40214,0.07284 0.61404,2.014193 m -0.38261,0.135573 -0.62434,-2.038747 m -0.38531,0.152241 0.61024,1.983793 m -0.39124,0.05307 -0.5719,-1.851263 m -0.31099,0.208598 0.51189,1.650656 m -0.48554,-0.07207 -0.38597,-1.238673 m -0.20733,0.35261 0.22447,0.718503 m 3.49353,-0.750782 -0.41296,-1.373373 m 0.29059,0.08266 0.31491,1.050343 m 0.1388,-0.360495 -0.1443,-0.483288 M 98.003596,40.61478 97.776452,39.940462 m 0.218043,0.204629 0.06197,0.183568 m -0.356499,0.713634 -0.423731,-1.25214 m -0.322447,-0.0127 0.499665,1.471136 m -0.290883,0.192325 -0.555995,-1.632558 m -0.37174,0.07051 0.59354,1.736884 m -0.351287,0.14187 -0.60878,-1.774296 m -0.3624,0.142452 0.600446,1.742916 m -0.548878,0.0975 -0.545809,-1.576097 m -0.273712,0.203359 0.481198,1.385014 m -0.565547,-0.09684 -0.300276,-0.860954 m -0.106203,0.309456 0.131365,0.378725 m 9.164828,40.7906 12.02092,32.647735 -1.65542,0.56721 -3.38407,0.87424 -12.661272,-32.364075 m -5.670312,1.363133 13.281634,32.086422 5.04995,-1.08548 m 1.89836,-0.49041 2.51097,-0.16195 -10.07171,2.08966 1.1829,2.27761 1.03886,3.04932 -10.377542,-3.05337 9.338682,0.004 10.89986,1.03873 1.19086,3.566 9.75336,-4.05173 -10.94422,0.48573 -1.08281,-3.05589 -9.81647,2.01697 -8.009969,-1.67981 m -1.328711,1.67574 -0.986208,-1.57409 m -0.137954,0.006 -14.428814,-31.573289 m -5.191284,0.194813 14.934327,31.344446 4.685771,0.034 4.939112,-0.21691 L 86.593282,86.568115 M 71.060494,87.170148 86.44575,118.30203 82.249485,117.43835 66.535907,86.616772 m 9.92005,28.923168 -0.0657,5.84586 1.854439,-2.8221 -0.175393,-2.34482 m 0.388911,0.14642 1.288892,0.36479 2.502376,0.70826 m -0.601451,-0.17023 1.735614,3.52972 -3.092106,-3.91363 m -0.594493,-0.16825 2.868533,7.45598 6.782171,4.22783 8.879655,2.36514 -8.412375,-6.05623 -0.46728,3.69109 8.404463,6.3917 -0.555969,2.30449 -0.5978,-0.0685 5.179596,2.33212 7.88392,-0.0774 8.16059,-1.27976 8.08088,-2.447 -0.58809,-1.65976 3.40088,-1.60946 4.83655,-0.25191 7.42755,-1.55091 -0.54166,-2.86824 -6.88589,4.41915 0.73629,2.77712 6.69126,-4.32803 0.2954,2.53992 0.0477,2.20364 -6.50856,1.99009 6.46088,-4.19373 5.47886,-4.86682 -0.0934,-2.68761 -5.68087,5.01451 m 0.2954,2.53992 -6.98666,1.78811 0.52578,2.40562 0.32536,2.03927 6.1832,-4.02936 -0.17912,1.86608 -5.8614,3.83111 -6.51287,3.01757 6.45911,-1.71828 0.0538,-1.29929 -0.14268,-1.66783 -7.50385,1.28157 0.63963,1.89462 6.86422,-3.17619 m 0.14268,1.66783 -7.0069,1.50836 0.49403,1.50921 0.34557,1.12107 6.11354,-2.83935 5.50609,-3.60767 -0.60436,1.18679 4.36887,-3.931 0.92467,-1.46891 -4.68918,4.21312 -5.45233,2.30838 m -0.0538,1.29929 4.90173,-2.42088 -5.1198,3.3615 0.21807,-0.94062 m -0.21807,0.94062 -5.89547,1.89873 0.21196,0.73967 5.68351,-2.6384 4.32496,-2.50579 -4.71797,3.08962 0.39301,-0.58383 m 0.43029,0.0447 2.95664,9.12849 -1.58472,1.11501 -1.69754,0.98753 -1.78308,0.85066 -1.85907,0.69567 -1.90121,0.54245 -1.92715,0.37174 -1.9377,0.21082 -1.92019,0.038 -1.87611,-0.12449 -1.81681,-0.29694 -1.7444,-0.45204 -1.64055,-0.61193 -1.53125,-0.75374 -1.3988,-0.889 -1.25645,-1.01177 -1.10466,-1.12239 -0.94427,-1.22105 -0.77584,-1.3081 -0.54605,-1.19637 m 0.19564,0.0323 1.12625,2.47216 m 0.94427,1.22105 -1.64359,-3.62267 m -0.0672,-0.28358 6.37902,0.0124 7.22437,-0.37965 6.01668,-1.81107 5.2905,-2.05457 -5.21875,2.42744 -6.08843,1.4382 -0.66651,-0.60256 6.47123,-1.94818 -7.23442,0.95895 0.76319,0.98923 6.68319,-1.20851 0.0718,0.37287 -5.53447,1.66405 -0.55396,-0.22585 -6.10531,0.9076 -1.11906,-0.52795 6.55786,-0.98221 -7.74287,0.0567 6.97968,-1.04595 6.88885,-2.08002 -7.75941,0.68451 7.26538,-2.19372 -8.23698,0.39931 7.59735,-2.29394 7.17849,-3.32083 -7.96978,1.02494 7.444,-3.43056 -8.38634,0.74424 7.65005,-3.52136 -0.53392,-1.7803 3.07234,-1.91598 4.34747,-0.72287 -0.43489,-1.72104 0.53983,-0.50181 -8.85045,2.69267 1.3253,2.16934 -3.46411,1.63611 -0.83812,0.39579 m -3.40088,1.60946 -4.13715,1.1081 -0.63929,-2.257 11.15425,-4.6618 9.53791,-6.55982 1.71045,1.63783 -2.39791,2.22932 m -0.53983,0.50181 -3.91258,2.44391 m -4.39804,-0.25305 -12.33784,0.69572 -11.42836,-1.81991 -10.230353,-3.65858 9.387343,0.0507 0.84301,3.60783 -9.720157,-0.0988 0.01984,3.90324 10.301337,0.166 -10.321207,-4.06924 -8.39253,-2.15296 -6.373072,-7.0249 m -0.0852,-0.0175 0.02694,3.13163 -0.818065,3.3741 -4.320911,-5.60824 0.699903,-2.06073 m -1.386285,-0.47657 0.686382,2.5373 m -1.854438,2.8221 1.616499,6.47332 -0.357082,-0.32483 0.972555,1.57128 -2.620195,-4.15726 -1.252405,-1.96964 m 1.031981,1.66042 2.840619,4.46648 2.023666,2.61295 2.208768,2.31518 3.973989,3.7588 7.199497,4.82817 5.87166,2.05838 -1.871927,-1.73839 8.495848,2.80826 -1.59779,-1.71685 8.73061,1.70971 -1.29498,-1.73649 7.67758,-1.1734 0.9716,1.7944 -8.64918,-0.621 -1.33527,-2.14791 9.01285,0.97451 -1.05947,-2.21155 7.86553,-2.37828 0.79132,2.29589 -8.65688,0.0824 -1.15766,-2.61758 9.02322,0.23927 -0.94231,-2.68632 -5.38888,-0.32525 -2.63602,0.89644 -0.72495,0.24675 0.66897,1.62919 -5.33792,-0.94514 4.66895,-0.68405 m 0.72495,-0.24675 -9.02438,-1.08993 0.0204,2.55066 0.78734,1.69485 9.31831,1.33783 -7.9534,1.23704 -1.36491,-2.57487 -5.23134,-1.59065 -3.47001,0.0797 0.81746,1.58838 9.2488,2.4974 -7.69144,0.0427 9.02676,2.10518 -7.43622,0.0272 -6.89805,-1.09141 -1.80594,-2.13987 8.70399,3.23128 -1.59049,-2.13246 -7.113474,-1.09887 -1.725692,-2.53222 8.839166,3.63109 -1.55736,-2.54008 -7.281806,-1.09101 -6.411991,-2.17501 8.137683,4.70723 -6.279647,-2.15773 8.085587,4.29763 -6.095629,-2.12477 7.967556,3.86313 6.623897,1.0699 7.13285,-0.007 7.35475,-1.11595 0.87059,1.39551 -8.22534,-0.27956 1.24568,1.32554 1.18499,0.92543 -7.96491,-0.92538 1.58586,0.91284 7.4981,0.54052 -5.94857,-0.0122 -1.54953,-0.52832 -5.9535,-0.9792 7.50303,1.50752 -5.56096,-0.91826 -1.94207,-0.58926 -1.94043,-0.96776 6.30807,1.03412 6.77992,-5e-5 -8.37853,-1.31842 1.59861,1.31847 -8.222507,-2.38837 1.914437,1.35425 7.89393,1.94696 m 0.72551,0.39224 2.09005,4.63643 m 1.25643,1.01177 -2.46049,-5.50593 m -0.062,-0.006 1.51958,0.1511 5.47592,0.0185 -6.9955,-0.16949 m 1.14244,0.11359 2.77879,6.28753 m 1.53127,0.75369 -3.05276,-7.00074 m 1.42746,0.005 3.2658,7.60788 m 1.74448,0.45204 -3.39574,-8.05449 m 0.50686,-0.15211 6.65924,-0.68175 -5.61234,0.83907 -1.0469,-0.15732 m 1.24473,0.12771 3.46091,8.37586 m 1.87611,0.12446 -3.54373,-8.76842 m 1.90696,-0.28506 3.55693,9.01546 m 1.93778,-0.21079 -3.51486,-9.14083 m 1.94141,-0.58367 3.50054,9.35279 m 1.90122,-0.54256 -3.42255,-9.40535 m 1.95898,-0.68935 3.32282,9.39914 m 1.78308,-0.85074 -3.23366,-9.41925 m 1.8356,-0.85381 3.09558,9.28555 m 1.58477,-1.115 1.4574,-1.22847 1.31639,-1.32762 1.16228,-1.41269 0.99592,-1.48344 0.82413,-1.53038 0.63563,-1.56855 0.45514,-1.57972 0.25926,-1.57806 0.0782,-1.56628 -0.11144,-1.53323 -0.28593,-1.48196 -0.2081,-0.77155 m -0.0859,0.10737 0.57991,2.14614 m 0.11144,1.53323 -0.92128,-3.39214 m -0.16129,0.20164 3.46829,-4.33388 -2.54367,2.86496 0.69723,-1.77011 -4.97737,4.46053 -0.40905,1.5227 m 0.32216,0.49324 2.27261,7.77605 m 0.82413,-1.53038 -2.05624,-7.18219 m 0.88823,-0.79941 1.80364,6.41305 m 0.45514,-1.57972 -1.53236,-5.53014 m -0.35134,0.35923 1.1386,-1.16393 m -0.2332,0.23833 1.23756,4.51845 m -2.14296,-3.59285 -4.02516,3.62278 0.79475,-0.85572 m -0.24934,0.36481 2.45263,8.20113 m -1.16228,1.41269 -2.63666,-8.59843 m -1.49717,0.98044 2.81744,8.94561 m 5.48082,4.36634 1.5058,5.10876 1.78938,-1.87063 -1.45339,-5.13503 1.61018,-2.01573 1.4062,5.1603 1.32509,-2.08237 -1.36464,-5.18425 1.10662,-2.16913 1.32911,5.20634 0.82044,-2.19147 -1.29963,-5.22639 0.58558,-2.2233 1.27635,5.2441 0.29165,-2.2003 -1.25961,-5.25915 -0.30839,2.21535 m 1.60718,0.87477 -1.24878,-5.27161 -0.21368,-2.1259 1.24418,5.28105 -0.45741,-2.04533 -1.24524,-5.28788 0.45847,2.05216 m -0.45847,-2.05216 -0.70805,-1.95472 -0.93345,-1.847 -1.09794,-1.65473 m -0.50874,0.94512 -3.71073,4.63666 m 0.6972,-1.77012 0.44781,-2.08909 -5.24597,4.68352 m 4.79816,-2.59443 3.01353,-2.86654 -1.16708,1.7717 m -1.39864,-0.99425 0.18518,-2.38697 3.95293,-2.75251 -4.13811,5.13948 m -0.44781,2.08909 3.93431,-4.90616 -0.92078,2.03962 2.62115,-4.86926 -1.70037,2.82964 2.76545,-5.14033 0.78311,-2.5472 -2.89695,5.36512 0.36132,-2.57572 -4.31425,5.32823 m -0.0934,-2.68758 -0.3801,-2.97191 -5.84245,5.11818 m 2.50287,-4.45214 2.96826,-2.41819 2.05396,-2.53587 2.90208,-1.28678 -4.58472,5.5748 -0.37132,-1.75215 m 0.37132,1.75215 4.84878,-2.4987 -4.46868,5.47061 4.40764,-2.64065 0.061,-2.82996 -0.26406,-3.0761 -0.33544,-1.87634 1.44508,-2.52751 2.10277,-1.38417 0.17217,3.1677 -3.12052,5.69642 2.96153,-2.72375 1.13393,-2.6212 -1.62087,5.38551 0.48694,-2.76431 1.67701,-5.56165 -0.54308,2.94045 m -0.97494,-0.35147 -0.15899,2.97267 -3.02257,5.55371 2.53563,-2.7894 m -0.78311,2.5472 -2.11384,2.81792 -0.65161,2.32241 m 1.70037,-2.82964 1.06508,-2.31069 m -1.95554,-5.66386 3.21241,-5.78802 1.90061,-2.51738 -1.72844,5.68508 1.51802,-2.58898 0.21042,-3.0961 -0.12586,-3.24789 -0.25802,-1.82039 0.16274,-2.52275 0.46387,-1.195887 -0.36859,5.539027 -1.31874,1.39681 0.14658,-0.50556 0.91414,-2.71164 m 0.74832,-0.40843 -0.4903,2.22882 -1.77475,5.76527 -0.28434,-1.80314 0.16097,-0.55795 0.57938,-2.00737 m 0.14658,-0.50556 -2.18069,-0.75962 3.2971,-5.09315 -0.0395,0.61838 m 0.0395,-0.61838 0.16047,-2.507589 0.26387,1.930082 0.12171,3.310207 -0.36444,5.47671 m -2.18495,0.71424 -1.81843,3.18731 m 2.27494,1.78353 -3.38458,2.62032 m -0.3357,-1.87608 -2.06169,2.54093 -0.50469,0.62193 m 0.50469,-0.62193 -7.23738,3.93814 7.09784,-7.77957 2.20123,1.3005 m -2.20123,-1.3005 -3.12047,-2.48227 -2.60845,-2.78662 6.56532,-4.82494 -3.95687,7.61156 -6.6439,7.16703 2.66653,3.09481 m -2.66653,-3.09481 -10.67538,2.42628 -1.51204,-3.4227 -9.43218,3.90848 -9.861,2.01057 11.05189,1.55543 1.21951,3.87228 -10.82738,2.15051 -0.60098,-3.97044 10.20885,-2.05235 11.55988,-0.43492 -10.34037,4.3072 1.18356,3.96613 -11.68548,2.29013 -0.32546,-4.10575 m 0.32546,4.10575 -11.10191,-0.24506 0.475165,-4.02661 m -0.01984,-3.90332 -0.510169,-3.5597 -0.990177,-3.00265 -6.939624,-1.67241 m -1.052486,-0.0655 0.868019,2.72923 0.23196,3.41808 -6.431333,-3.91086 5.964026,7.60193 -1.13374,3.7484 -7.247228,-4.64796 3.723851,5.56236 2.417763,1.37523 m 0,0 0.975466,1.65555 1.858089,2.54944 1.989931,2.17289 2.095897,1.80478 7.78616,3.41262 -5.612925,-1.97734 7.553275,2.94508 -5.308868,-1.87804 -2.244407,-1.06704 -2.173235,-1.43528 -4.935246,-2.9346 -2.264278,-1.89362 5.103627,3.02344 -7.222463,-5.25854 5.232532,3.08565 -7.195344,-5.65658 5.337255,3.10714 -3.973645,-3.361 0.580046,0.32996 m -0.580046,-0.32996 -2.318544,-1.3157 0.954934,1.56956 1.962812,2.57093 2.118836,2.2351 m 2.264278,1.89362 2.379451,1.55533 4.72903,2.81455 m 5.256745,2.13263 0.0122,0.59975 0.2939,2.04674 0.53678,2.00337 0.77799,1.9345 1.02692,1.84814 1.26701,1.73924 1.157,1.23614 0.34621,0.36986 2.38011,4.85672 1.6963,1.45867 -2.35535,-4.85624 1.93252,1.28643 2.12296,1.09871 2.2915,0.89048 2.44052,0.67797 2.55775,0.45127 2.65396,0.20463 2.08092,4.90119 2.65144,-0.0164 -2.01885,-4.91731 2.74307,-0.28146 1.95411,4.93585 -2.67833,0.26292 m -2.65144,0.0164 -2.59538,-0.21833 -2.1395,-4.88749 m -2.55775,-0.45127 2.19358,4.8764 2.50367,0.46236 m -2.50367,-0.46236 -2.39138,-0.68657 -2.24272,-4.8678 m -2.2915,-0.89048 2.28645,4.86161 2.24777,0.89667 m -2.24777,-0.89667 -2.08542,-1.10252 -2.32399,-4.8578 m -1.93252,-1.28643 -1.72106,-1.45915 m -1.38166,-0.32481 -2.41554,-4.86851 m 1.02696,1.84814 2.41014,4.86296 1.25534,1.73516 -2.39845,-4.85894 m 0.12155,1.28119 1.02156,1.84259 m 1.25534,1.73516 1.48487,1.60378 m 1.6963,1.45867 1.90116,1.28799 m 9.7427,-1.53474 2.71351,-0.0325 m 2.74307,-0.28147 2.74053,-0.51887 2.70018,-0.76563 2.63324,-0.99279 2.52806,-1.20418 2.39789,-1.41062 2.23706,-1.59427 2.04697,-1.75988 1.84174,-1.8969 m 1.6102,-2.01571 1.36665,-2.10632 m 1.10662,-2.16918 0.8499,-2.2115 m 2.15357,0.82053 0.0392,-2.16906 -0.21833,-2.1164 m -1.08045,-0.97374 0.0499,-2.18147 m 0.91794,9.64097 -0.56229,2.20554 m -0.82042,2.19152 -1.07108,2.14701 m -1.32512,2.0824 -1.563,1.99041 m -1.78937,1.87063 -1.99007,1.73318 -1.56265,-5.08203 m -2.23706,1.59427 1.62341,5.05521 2.1763,-1.56745 m -2.1763,1.56745 -2.3341,1.38432 -1.6872,-5.02891 m -2.52806,1.20418 1.75318,5.00332 2.46224,-1.17864 m -2.46224,1.17864 -2.56612,0.96851 -1.82015,-4.97909 m -2.70017,0.7656 1.88748,4.95646 2.63284,-0.74297 m -2.63284,0.74297 -2.67396,0.49829 m -9.49253,-33.42682 0.66423,-0.22693 m -8.69428,2.0538 -3.61009,0.53009 -3.57764,0.0839 -0.8663,0.0204 m 0.8663,-0.0204 -7.544673,-2.87969 -9.538229,-2.6433 -1.10527,2.28984 2.821199,0.97708 4.566285,2.85345 -0.877174,-1.57954 0.640504,0.0727 2.338916,0.26567 m 0.5978,0.0685 3.764332,0.6753 m -7.341552,-1.08223 -3.689111,-1.27391 m -5.220177,0.14229 -4.063867,-3.83886 m 1.146122,-0.30166 -2.172467,-2.09042 -1.612795,-1.4673 m -0.357108,-0.3248 -1.647666,-2.58604 m 0.388303,-3.5625 4.576445,6.11438 -1.347179,1.82626 m -0.997321,-0.22084 4.124722,3.88085 m -1.780222,-5.48627 1.59885,-3.32824 m 0.988536,-6.46507 6.028902,3.58378 8.624491,5.57096 m -0.51017,-3.5597 -8.114321,-2.01126 -3.279272,-3.01789 m 0.142055,0.0292 1.520242,0.21278 2.868798,0.17854 m 9.687302,-0.17905 3.33972,-0.56673 1.61351,-0.27369 m -0.61251,0.35182 -1.48328,0.004 m 0.61325,-0.10406 0.87003,0.10041 10.99942,0.26067 -0.92763,-2.3503 -0.23101,-0.49408 m 0.23101,0.49408 9.65118,-3.98486 -0.0425,-0.49601 m 0.0425,0.49601 -2.63321,0.63717 m -1.50207,0.65704 -3.20857,1.24873 -1.67722,0.65278 m 0.29752,3.13944 9.38972,-3.88313 -0.66617,-2.45203 8.77401,-2.93672 1.14789,2.97511 1.77049,3.19911 2.28706,3.24133 -8.86884,6.04313 1.99747,3.61149 m -1.99747,-3.61149 -1.80657,-3.6168 8.38835,-5.66766 -9.90037,2.24496 8.12988,-5.44407 -9.25573,2.41364 1.12585,3.03043 m -1.12585,-3.03043 8.10784,-5.38875 7.29456,-3.46548 5.75016,-4.20598 -3.80383,7.13338 -1.94633,-2.9274 -6.14667,6.44059 8.093,-3.51319 -6.32251,6.7123 8.93093,-3.92571 7.29173,-5.76283 -4.17124,8.24507 m 4.17124,-8.24507 -3.33486,-1.84875 -2.76146,-2.30839 -2.02237,-2.634929 0.47969,-2.706079 m -0.47969,2.706079 3.17836,-4.308105 -0.76226,-0.896355 m 0.76226,0.896355 0.95176,-3.739197 m 0.53798,-0.970836 2.82369,0.690219 2.01041,0.0087 0.18428,0.403489 0.73647,1.61724 -1.18587,5.109104 -1.11839,7.981525 m -3.33486,-1.84875 1.14093,-7.392695 -3.90239,5.084315 1.15599,-6.943039 m 2.7464,1.858724 3.31232,1.25992 2.33916,0.380814 -0.42117,-2.234644 -0.52742,-2.805642 -0.2047,-0.449632 m -0.92075,-2.020729 -1.06112,-2.120636 -1.46473,-1.805199 -0.35623,-0.439896 -0.18635,-0.230135 m -0.0169,0.05628 0.6681,-2.226336 m 0.0143,-0.0477 -6.56439,-33.60203 m 0.74816,-3.040539 6.3912,33.452884 -0.57497,3.189685 m -0.68244,2.27404 -0.37412,1.024705 m -0.43283,0.886698 1.88198,2.619508 1.7453,7.138458 m -13.49732,3.442791 -2.31582,2.1727 m 1.69339,-0.48212 -6.13971,6.36249 -0.42035,-2.44425 m -3.30268,2.14376 -2.88198,1.69574 -1.53154,0.74803 m -0.63743,0.79343 3.64678,-2.41101 m -23.36975,8.48553 -0.19836,-0.21434 m 47.39185,-37.425845 0.12195,-2.924889 -6.30405,-33.419997 m -0.30522,-2.713117 6.22422,33.111413 0.1238,0.971842 0.26125,2.049859"
       style="fill:none;stroke:#000000;stroke-width:0.568;stroke-miterlimit:4;stroke-dasharray:none"
       id="path4" />
    <path
       d="m 218.97401,144.82235 5.4811,2.20142 5.49879,1.83038 5.42742,1.43111 5.28061,1.02356 5.06354,0.61236 4.78219,0.20182 4.44253,-0.20442 4.05152,-0.59033 3.61674,-0.95446 3.16984,-1.29567 2.69561,-1.59319 2.21234,-1.87433 1.72455,-2.11664 1.23553,-2.32312 0.7729,-2.49915 0.31146,-2.63525 -0.13078,-2.75217 -0.55076,-2.83517 -0.95091,-2.88822 -1.32128,-2.91528 -1.66557,-2.91949 -1.98702,-2.9032 -2.28889,-2.86882 -2.55974,-2.8121 -2.8036,-2.73497 -3.03546,-2.65459 -3.22313,-2.54736 -3.40765,-2.43578 -3.56221,-2.30782 -3.68911,-2.163159 -3.80651,-2.019935 -3.88461,-1.852295 -3.95841,-1.682221 -4.00449,-1.499923 -4.02291,-1.303734 -4.02011,-1.100852 -3.99484,-0.88945 -3.94541,-0.667517 -3.86993,-0.432911 -3.76312,-0.190553 -3.62129,0.06152 -3.46565,0.321759 -3.26549,0.582533 -3.03842,0.858124 -2.77312,1.135433 -2.46478,1.414383 -2.14093,1.693598 -1.76176,1.965695 -1.35405,2.240624 -0.91189,2.501926 -9.66758,32.436135 -0.51642,2.89002 9.75135,-32.57933 0.0675,2.9714 -9.93008,32.83 0.11128,-3.22207 m -0.11128,3.22207 0.28779,2.11122 0.14028,1.0288 0.86661,3.41363 10.35024,-32.86839 -1.12715,-3.34367 -0.58769,-3.17159 m -0.0675,-2.9714 0.43265,-2.746825 m 0.22249,8.889815 -10.0897,32.79843 m 0.29527,1.16314 -0.9635,0.99465 -0.27639,0.28601 1.63896,0.29144 m 0.0763,0.3003 -3.57984,5.93842 -2.286,-0.0577 1.08413,-2.01541 0.25818,-0.48048 1.03143,-1.92223 1.77657,-2.05446 m 1.81123,0.96983 0.87368,2.42538 0.48409,1.09903 10.67572,-32.91028 -1.68325,-3.48255 m 1.68325,3.48255 2.23295,3.57629 2.77085,3.61953 3.30015,3.62993 3.77187,3.57213 4.22738,3.47279 4.61955,3.31454 4.94167,3.09685 5.207,2.85035 5.37287,2.53942 -15.50638,31.05341 4.83113,1.9486 16.15633,-30.80065 m 5.49884,1.83047 -16.72487,30.43896 4.89074,1.08781 17.26147,-30.09569 m 5.28064,1.02356 -17.82615,29.88972 -4.71596,-0.81759 m 0.56087,0.0972 5.68444,1.59266 2.54119,-0.70043 m 0.61566,0.0259 4.39002,-0.0695 18.59568,-29.20391 m 4.44254,-0.20442 -18.92948,28.96262 1.32961,-0.31531 2.52465,-0.59862 19.12678,-28.63903 m 3.6167,-0.95445 -19.33681,28.46091 -3.40667,1.13257 m 0.0535,-0.0177 -3.4335,5.36813 -0.59404,-3.26261 0.88747,-1.35588 m -0.76769,0.18206 -1.4102,0.22336 -2.69852,0.22236 m -0.68201,0.0108 -0.63072,1.46135 -7.49556,2.124 1.26142,-2.85221 0.65106,-0.78028 m 0.99224,0.0419 1.51355,0.064 18.20355,-29.47527 m -0.33549,-8.39552 3.45553,-0.0776 3.17006,-0.37495 2.86877,-0.64931 2.54098,-0.91107 2.19032,-1.14818 1.82714,-1.37896 1.46751,-1.57133 1.08614,-1.74734 0.70874,-1.8579 m -0.1388,0.22159 -1.44307,1.52876 -2.70684,4.20095 m 0.87479,-0.66021 3.27512,-5.0695 1.0713,-1.7081 0.7031,-1.86076 0.34578,-1.98403 -0.0111,-2.09227 -0.33824,-2.17133 -0.67273,-2.23409 -0.98015,-2.27214 -1.25992,-2.28981 -1.53286,-2.29282 -1.79454,-2.27849 -2.01657,-2.24422 -2.23219,-2.1952 -2.42501,-2.13629 -2.59723,-2.05992 -2.74796,-1.96852 -2.87825,-1.86989 -2.99624,-1.760062 -3.09034,-1.638352 -3.15833,-1.505771 -3.21328,-1.362048 -3.24723,-1.217057 -3.25668,-1.050846 -3.24448,-0.880983 -3.21469,-0.709877 -3.16243,-0.525171 -3.0825,-0.326919 -2.9841,-0.134991 -2.85364,0.07313 -2.70862,0.280379 -2.52981,0.49448 -2.3208,0.711782 -2.0947,0.926227 -1.83777,1.14628 -1.55422,1.361599 -1.24822,1.566889 -0.90985,1.772206 -0.56854,1.959848 -0.1819,2.140817 0.20907,2.30003 0.59852,2.43776 -1.45222,4.16883 m 0.12316,0.32094 1.32906,-4.48977 1.00862,2.55648 1.43211,2.64851 1.82361,2.70605 2.22245,2.73145 2.59646,2.72794 2.94566,2.68298 3.26033,2.59773 3.53316,2.48261 3.77151,2.3317 3.95451,2.14593 4.07511,1.92984 4.14939,1.68402 4.16499,1.42933 4.11969,1.13853 4.01847,0.84394 -2.0701,3.6612 m 0.26992,0.0556 -4.03333,-0.83052 -4.11962,-1.12446 -4.17155,-1.41031 -4.14702,-1.68269 -4.07588,-1.9276 -3.94907,-2.14971 -3.75841,-2.33299 -3.52933,-2.50098 -3.2567,-2.61913 -2.92394,-2.70005 -2.58331,-2.75338 -2.20601,-2.76265 -1.8152,-2.73757 -1.40351,-2.68533 -0.99449,-2.59093 -0.58891,-2.48182 -0.17981,-2.34104 0.20801,-2.17667 0.57761,-2.00671 0.9389,-1.808419 0.25927,-0.329354 m -0.25927,0.329354 -1.60665,4.758399 m -0.0574,0.60015 2.34251,-6.927872 m -0.56851,1.959848 -1.81049,5.349664 m 0.0635,1.39059 1.56514,-4.59946 m 0.20905,2.30005 -1.48606,4.32668 m 3.09322,0.66754 -1.44566,4.07728 m 1.41692,2.60033 1.46082,-4.02908 m 1.82364,2.70606 -1.48093,3.97607 m 2.19113,2.69799 1.51222,-3.94261 m 2.59646,2.72793 -1.54956,3.91057 m -0.31477,-0.3038 1.86433,-3.60677 m 2.94566,2.68298 -1.59282,3.88374 m 3.21385,2.5695 1.6393,-3.85553 m 3.53319,2.48264 -1.69198,3.82971 m 3.27877,2.03528 2.18469,-3.5333 -1.74408,3.80143 m 3.89842,2.12069 1.80018,-3.77619 m 4.07511,1.92984 -1.87166,3.73978 m 3.62701,1.47524 2.39406,-3.531 -1.91432,3.72565 m 4.11663,1.39804 1.96265,-3.69435 m 4.11972,1.1385 -2.01903,3.67453 m -0.47702,-0.13017 2.49605,-3.54436 m 4.01847,0.84397 3.87199,0.55366 3.67734,0.25257 3.43334,-0.0537 3.16171,-0.33224 2.8492,-0.61288 2.52483,-0.87064 -2.69803,3.85829 m 0.31792,-0.11396 2.38011,-3.74433 2.17356,-1.11252 1.80625,-1.334 m -1.80625,1.334 -2.48984,3.88461 m -2.20855,-1.90145 -2.31119,3.67792 m -2.79435,0.57822 2.25634,-3.64326 m -3.16171,0.33224 -2.21078,3.63654 m -3.00691,0.0675 -3.68115,-0.21814 -3.88401,-0.52166 m 3.55685,0.47773 2.11532,-3.64085 m 3.67734,0.25257 -2.16146,3.62802 m -5.90349,-19.10543 0.58131,-1.08794 m 0.10269,0.38502 -0.30292,0.5659 m -0.86694,0.15324 0.80595,-1.51299 m -0.39762,-0.40069 -0.9616,1.81248 m -0.38483,-0.12711 1.01843,-1.92553 m -0.36393,-0.21614 -1.0382,1.96903 m -0.53454,-0.32427 0.99571,-1.8973 m -0.38511,-0.10964 -0.91942,1.75709 m -0.3691,-0.40346 0.74195,-1.42333 m -0.31872,0.022 -0.5897,1.13374 m -0.0995,-0.27193 0.41175,-0.79304 m -0.28978,0.20616 -0.12898,0.24853 m -4.06662,0.0751 -0.12888,0.25543 m -0.29543,0.20478 0.41561,-0.82444 m -0.17735,-0.40396 -0.66914,1.33215 m -0.34192,-8e-5 0.80526,-1.60663 m -0.27532,-0.26718 -0.90961,1.81983 m -0.38772,-0.10051 0.98152,-1.96977 m -0.36253,-0.22127 -1.01283,2.03909 m -0.56239,-0.29914 0.99157,-2.00589 m -0.39594,-0.11922 -0.92837,1.884 m -0.41273,-0.3941 0.77478,-1.57687 m -0.49154,0.0371 -0.55541,1.12866 m -0.11412,-0.39169 0.2885,-0.58942 m 1.39891,-2.56783 0.94731,-1.93498 m -0.38433,-0.14433 -0.90758,1.8668 m -0.30707,-0.24403 0.83328,-1.71619 m -0.36193,-0.0463 -0.73154,1.5108 m -0.19931,-0.2649 0.59986,-1.24235 m -0.28205,0.0608 -0.44709,0.92723 m -0.043,-0.4754 0.093,-0.19727 m 2.69372,0.24863 -0.93935,1.91307 m 0.57068,0.16494 0.84976,-1.72337 m 0.37283,0.38593 -0.68998,1.39398 m 0.45527,-0.0618 0.46598,-0.93816 m 0.0475,0.47159 -0.11176,0.2223 m 3.16698,-1.09961 0.52809,-1.04341 m 0.47556,-0.0127 -0.73576,1.44836 m 0.25072,0.25535 0.84225,-1.65373 m 0.37759,0.10637 -0.91469,1.79088 m 0.52001,0.31258 0.9593,-1.86963 m 0.34988,0.20106 -0.94308,1.83243 m 0.38053,0.12525 0.89048,-1.72527 m 0.27998,0.24519 -0.8073,1.55969 m 0.3446,0.0326 0.6909,-1.33154 m 0.16047,0.25979 -0.5471,1.05241 m 0.47146,-0.19809 0.19415,-0.37261 m -0.37005,-3.88343 0.40241,-0.78475 m 0.0379,0.33036 -0.14293,0.27818 m -0.87201,0.23135 0.68042,-1.33114 m -0.24026,-0.24813 -0.78156,1.53279 m -0.35917,-0.09 0.85381,-1.67905 m -0.32858,-0.21127 -0.89078,1.75678 m -0.52554,-0.26873 0.88485,-1.753 m -0.36791,-0.13023 -0.84076,1.67071 m -0.28202,-0.23744 0.76242,-1.51849 m -0.33954,-0.0406 -0.65717,1.31189 m -0.17473,-0.24032 0.52996,-1.06045 m -0.45971,0.16002 -0.21834,0.43825 m -2.86282,0.89792 -0.32617,0.66037 m 0.24553,-0.19447 0.0707,-0.14496 m -0.14711,-0.69078 -0.55747,1.1389 m -0.48498,-0.006 0.73792,-1.51352 m -0.27361,-0.24032 -0.82259,1.69257 m -0.5588,-0.18042 0.89228,-1.84336 m -0.55234,-0.2627 -0.885,1.83756 m -0.33089,-0.21574 0.83828,-1.74509 m -0.36812,-0.0802 -0.76017,1.58797 m -0.24114,-0.25416 0.65354,-1.36834 m -0.31096,0.018 -0.52176,1.09479 m -0.13877,-0.36986 0.28935,-0.60857 m 1.34326,-2.23681 0.8378,-1.75797 m -0.36518,-0.13912 -0.80785,1.69979 m -0.43267,-0.34245 0.70096,-1.48143 m -0.3306,-0.0262 -0.59846,1.26841 m -0.30567,-0.18394 0.48625,-1.03314 m -0.30922,0.14874 -0.17285,0.36815 m -0.0403,0.0894 -0.1524,0.3246 m 1.84957,1.23597 0.83873,-1.75445 m 0.48295,0.31014 -0.78097,1.62685 m 0.35367,0.071 0.70466,-1.46368 m 0.22326,0.24046 -0.60138,1.24669 m 0.42114,-0.0569 0.40092,-0.82812 m 0.0632,0.33065 -0.16824,0.35152 m -0.43874,-3.84542 0.5632,-1.18071 m 0.15935,0.23291 -0.44116,0.92295 m 0.40452,-0.17044 0.15422,-0.32293 m -0.49543,-0.89432 -0.66127,1.38946 m -0.34388,-0.0683 0.73438,-1.54726 m -0.30483,-0.20806 -0.78052,1.64877 m -0.3519,-0.14721 0.79521,-1.68542 m -0.35692,-0.15113 -0.78066,1.65909 m -0.45582,-0.31578 0.70305,-1.50077 m -0.49408,-0.0593 -0.56801,1.21759 m -0.16637,-0.23032 0.45135,-0.96906 m -0.42545,0.16444 -0.16806,0.36197 m -3.75301,-0.29324 -0.064,0.14219 m -0.47181,0.27472 0.42783,-0.94874 m -0.27389,-0.35185 -0.59762,1.32964 m -0.51138,-0.0741 0.71583,-1.59906 m -0.4857,-0.29774 -0.77012,1.72808 m -0.35293,-0.15772 0.771,-1.73556 m -0.3641,-0.13042 -0.74215,1.67572 m -0.44262,-0.32563 0.64862,-1.47082 m -0.32387,-0.0196 -0.5542,1.25982 m -0.17809,-0.23291 0.44064,-1.00394 m -0.42889,0.17555 -0.1636,0.37394 m -2.1713,1.78662 -0.37444,0.86432 m 0.2948,-0.16375 0.15801,-0.36433 m -0.42233,-0.81897 -0.61187,1.41806 m -0.34288,-0.0379 0.69326,-1.61113 m -0.31228,-0.2213 -0.75108,1.75115 m -0.36756,-0.11954 0.78055,-1.82557 m -0.36854,-0.16479 -0.77951,1.82939 m -0.50805,-0.2984 0.72387,-1.70717 m -0.36169,-0.0596 -0.65077,1.53934 m -0.23513,-0.23532 0.5561,-1.31884 m -0.42537,0.0662 -0.37465,0.89117 m -0.0821,-0.44889 0.0851,-0.20289 m -0.90657,3.15214 -0.79579,1.8909 m -0.33334,-0.21339 0.74461,-1.77519 m -0.54327,-0.0604 -0.61671,1.47693 m -0.28602,-0.37634 0.43876,-1.05445 m -0.34309,0.1559 -0.22145,0.53364 m 1.52344,1.49651 0.81492,-1.92972 m 0.37089,0.18156 -0.80597,1.9019 m 0.38486,0.10695 0.76544,-1.80009 m 0.29549,0.23283 -0.69522,1.62973 m 0.35039,0.0156 0.59856,-1.3993 m 0.18384,0.24992 -0.47678,1.11218 m 0.35647,-0.13079 0.26572,-0.61843 m -0.61992,3.40577 -0.84651,1.9572 m -0.32916,-0.22826 0.78427,-1.8194 m -0.37354,-0.0433 -0.69273,1.6119 m -0.31115,-0.38838 0.5093,-1.18947 m -0.47297,0.21625 -0.20439,0.47868 m 1.45412,1.56168 0.87654,-2.01933 m 0.37896,0.17725 -0.87328,2.0049 m 0.39381,0.12322 0.83719,-1.91534 m 0.45204,0.35954 -0.72562,1.65232 m 0.34978,0 0.6123,-1.39062 m 0.26866,0.51567 -0.32248,0.72956 m 0.25898,-0.23855 0.064,-0.14464 m 3.20066,-0.94674 0.33983,-0.75207 m -0.26048,0.21164 -0.0949,0.20949 m 0.20164,0.71634 0.5625,-1.2414 m 0.50081,0 -0.73573,1.61761 m 0.45466,0.35729 0.84791,-1.85573 m 0.57071,0.21402 -0.89086,1.94024 m 0.57505,0.21672 0.85484,-1.85259 m 0.31459,0.23017 -0.79184,1.71087 m 0.35589,0.0429 0.69736,-1.50247 m 0.28956,0.38508 -0.50525,1.0846 m 0.5284,-0.29778 0.0916,-0.19545 m -0.51158,-3.79019 0.61852,-1.34625 m -0.2427,-0.24876 -0.71837,1.56755 m -0.55163,-0.12568 0.81261,-1.7813 m -0.34194,-0.19624 -0.83847,1.84385 m -0.5361,-0.27273 0.81619,-1.80346 m -0.55832,-0.13972 -0.72541,1.61025 m -0.25554,-0.24389 0.63088,-1.4042 m -0.31465,0.0135 -0.51197,1.14202 m -0.18343,-0.47255 0.22294,-0.49879 m 3.53914,1.37737 -0.42801,0.92863 m 0.3235,-0.16028 0.19458,-0.42156 m -3.89361,7.66029 -0.94766,2.0583 m -0.35457,-0.22137 0.90162,-1.96501 m -0.58317,-0.10388 -0.77179,1.69013 m -0.22743,-0.26543 0.65037,-1.42787 m -0.31856,0.0483 -0.49948,1.09906 m -0.10432,-0.38299 0.24656,-0.54343 m 2.58977,0.29012 -0.94808,2.04851 m 0.39261,0.12134 0.90202,-1.94244 m 0.31118,0.24786 -0.82439,1.76977 m 0.36753,0.027 0.71258,-1.52546 m 0.18679,0.26803 -0.57621,1.23073 m 0.29195,-0.0895 0.4092,-0.87153 m 0.0292,0.36946 -0.1403,0.29864 m 11.32085,-2.17977 0.0919,-0.18172 m 6.36138,-3.27805 0.083,-0.15931 m 0.0593,0.23707 0.54957,-1.05373 m -0.22397,0.0779 -0.27183,0.52165 m 0.26037,0.62588 0.65839,-1.259 m 0.3292,0.0398 -0.74906,1.4292 m 0.26834,0.23796 0.83201,-1.58339 m 0.36004,0.128 -0.88053,1.67114 m 0.33596,0.19245 0.89731,-1.69817 m 0.33938,0.19891 -0.88027,1.66116 m 0.35645,0.1219 0.8309,-1.56401 m 0.37539,0.36166 -0.6963,1.3059 m 0.31345,0.006 0.57015,-1.06703 m 0.16592,0.56419 -0.17,0.31719 m -0.19251,2.69954 -0.8106,1.50056 m -0.22363,-0.25316 0.69591,-1.29127 m -0.30514,0.005 -0.55505,1.0319 m -0.0972,-0.59944 0.10929,-0.20405 m 1.54763,-0.0992 -0.89559,1.65359 m 0.48628,0.33158 0.95877,-1.76276 m 0.35571,0.19061 -0.95713,1.75455 m 0.36846,0.14902 0.91773,-1.67765 m 0.28361,0.23884 -0.84413,1.539 m 0.34322,0.0573 0.73916,-1.34456 m 0.18,0.25564 -0.60431,1.09696 m 0.57346,-0.18748 0.18008,-0.32573 m -2.44714,2.68848 -0.88124,1.60483 m -0.36653,-0.0995 0.96139,-1.75551 m -0.33343,-0.2363 -1.0092,1.84811 m -0.36457,-0.17846 1.01952,-1.87267 m -0.37841,-0.16872 -0.99012,1.82414 m -0.31168,-0.24233 0.92226,-1.70402 m -0.36661,-0.0762 -0.82097,1.52077 m -0.28829,-0.3973 0.61478,-1.1425 m -0.39698,0.0986 -0.35621,0.66313 m 2.98101,1.9703 0.69212,-1.25603 m 0.14431,0.26543 -0.52999,0.95996 m 0.35468,-0.15312 0.24426,-0.44124 m -5.85497,-13.3948 0.32277,-0.63413 m 0.006,0.29896 -0.0878,0.17272 m -0.75925,0.24471 0.59796,-1.1789 m -0.21664,-0.23919 -0.70131,1.38642 m -0.34091,-0.0732 0.77716,-1.53958 m -0.31049,-0.21622 -0.82545,1.63941 m -0.34718,-0.15168 0.84153,-1.67648 m -0.35536,-0.1592 -0.82492,1.64856 m -0.45373,-0.32385 0.74395,-1.49283 m -0.33678,-0.0532 -0.65271,1.31297 m -0.32654,-0.47178 0.40489,-0.81698 m -0.29538,0.14068 -0.1786,0.35885 m -22.72643,35.091 -14.91081,31.43316 -1.56358,-0.78565 -2.9926,-1.80573 14.26004,-31.69214 m -4.94165,-3.09684 -13.6276,31.94103 4.30921,2.84795 m 1.67876,1.01298 1.87277,1.68042 -8.54064,-5.73264 -0.79931,2.43882 -1.45137,2.87591 -5.08061,-9.55005 6.53198,6.67414 6.88531,8.51339 -1.71411,3.34608 9.71952,4.13229 -8.00541,-7.47837 1.42533,-2.91192 -8.31011,-5.60121 -4.40507,-6.89758 m -2.12691,0.22344 0.43437,-1.80602 m -0.10086,-0.0943 12.4583,-32.40146 m -3.77187,-3.57217 -11.94107,32.60244 3.25464,3.37119 3.61119,3.37656 13.07452,-32.30523 m -11.29941,-10.67491 -11.47365,32.77584 -2.31939,-3.60206 11.0222,-32.79322 m -13.72016,27.32606 -4.22209,4.04381 3.3137,-0.65006 1.55233,-1.76614 m 0.16754,0.38031 0.64135,1.17602 1.24513,2.28322 m -0.2993,-0.54877 -1.30699,3.70985 0.63204,-4.94755 m -0.2958,-0.54242 -3.31907,7.26665 1.72569,7.80349 4.52411,7.99843 -1.5603,-10.24755 -2.96381,2.24912 1.31511,10.4766 -2.0353,1.21544 -0.36934,-0.47503 1.95848,5.33209 5.57223,5.57787 6.62474,4.93419 7.40278,4.0604 0.77414,-1.58155 3.5296,1.30326 3.56441,3.2788 6.30544,4.22076 1.67,-2.39405 -7.97544,-1.82671 -1.46868,2.4693 7.77412,1.75146 -1.60771,1.9884 -1.54083,1.57607 -5.97617,-3.25691 7.517,1.68084 7.31068,0.50829 1.85457,-1.94744 -7.55754,-0.54925 m -1.60771,1.9884 -6.16641,-3.73986 -1.35059,2.05902 -1.22912,1.65944 7.20529,1.59747 -1.45843,1.17787 -6.83845,-1.50635 -6.71317,-2.54101 5.74739,3.41183 0.96578,-0.87082 1.09159,-1.26899 -6.16646,-4.46376 -0.90585,1.78273 7.07231,2.68103 m -1.09159,1.26899 -5.98072,-3.95002 -0.73245,1.40901 -0.55904,1.03135 6.30643,2.38048 6.43017,1.40886 -1.27072,0.39872 5.86539,0.37023 1.6964,-0.36734 -6.29107,-0.40161 -5.46439,-2.27968 m -0.96578,0.87082 5.15945,1.80758 -5.98403,-1.30516 0.82458,-0.50242 m -0.82458,0.50242 -5.48185,-2.8829 -0.38007,0.669 5.86192,2.2139 4.81653,1.33617 -5.50862,-1.20838 0.69209,-0.12779 m 0.26916,0.33867 -4.45219,8.49995 -1.90545,-0.35182 -1.89334,-0.52165 -1.85544,-0.67852 -1.79787,-0.84127 -1.71791,-0.97857 -1.61412,-1.11656 -1.50654,-1.23672 -1.37083,-1.34511 -1.22391,-1.42735 -1.05923,-1.50569 -0.89776,-1.56247 -0.71083,-1.60018 -0.53308,-1.62131 -0.34377,-1.62137 -0.15643,-1.60554 0.0288,-1.57459 0.21151,-1.52897 0.39158,-1.46963 0.47255,-1.22725 m 0.11382,0.16235 -0.97795,2.53453 m -0.21151,1.52897 1.43783,-3.70914 m 0.15552,-0.24646 4.45484,4.56578 5.32659,4.89524 5.50405,3.03078 5.16983,2.34169 -5.386,-2.02948 -5.28788,-3.34299 -0.0359,-0.89781 5.92005,3.25959 -5.74746,-4.49702 -0.17259,1.23743 5.53998,3.92859 -0.21617,0.31221 -5.06158,-2.78924 -0.2263,-0.55375 -4.92067,-3.72639 -0.40592,-1.16885 5.29066,3.99743 -5.45875,-5.49158 5.63134,4.25415 6.3065,3.46567 -5.91875,-5.06412 6.6512,3.65511 -6.04922,-5.60485 6.95507,3.82212 7.39558,2.80432 -6.30917,-4.97618 7.65976,2.91716 -6.40016,-5.47013 7.86884,3.00083 0.89818,-1.62722 3.51864,0.85408 3.55862,2.59985 0.92512,-1.51498 0.73625,0.0345 -8.11683,-4.43826 -0.62233,2.46478 -3.59283,-1.32977 -0.86923,-0.32176 m -3.5296,-1.30326 -3.6866,-2.18006 1.16496,-2.03605 11.13563,4.70612 11.36047,2.22327 0.0269,2.36799 -3.27052,-0.153 m -0.73625,-0.0345 -4.48374,-1.08487 m -2.89684,-3.31891 -9.13061,-8.32696 -6.69708,-9.43761 -4.54528,-9.86843 6.53269,6.74156 -1.98741,3.12687 -6.73127,-7.01297 -2.77447,2.74556 7.08996,7.47514 -4.31549,-10.2207 -4.33477,-7.50194 0.55872,-9.46854 m -0.0471,-0.0732 -2.21827,2.21065 -2.98283,1.7767 0.98274,-7.01122 1.96192,-0.94202 m -0.62966,-1.32382 -1.33226,2.26584 m -3.31369,0.65008 -3.49319,5.68458 -0.0177,-0.48236 -0.4419,1.79427 1.1363,-4.78089 0.53068,-2.27298 m -0.46403,1.8991 -1.20295,5.15477 -0.45054,3.27408 -0.10826,3.198 0.0957,5.46917 1.58885,8.52173 2.63837,5.63491 -0.0681,-2.55373 3.93896,8.03436 0.1084,-2.34283 4.88802,7.43331 0.33433,-2.14024 6.21075,4.66354 -0.60198,1.94974 -5.60877,-6.61328 0.60002,-2.45692 5.61073,7.12046 0.83846,-2.30444 7.20302,3.95468 -1.08638,2.17188 -6.11666,-6.12656 1.05984,-2.65866 6.1432,6.61334 1.25963,-2.55294 -3.53859,-4.07728 -2.485,-1.2558 -0.68355,-0.3452 -0.69572,1.61793 -3.06012,-4.47463 3.75584,2.8567 m 0.68355,0.3452 -5.53632,-7.20944 -1.80785,1.79943 -0.65979,1.74847 5.56493,7.59291 -6.44922,-4.81605 0.88429,-2.77686 -2.52439,-4.85021 -2.48518,-2.42305 -0.56263,1.69542 4.68791,8.3547 -5.41271,-5.46468 4.81274,7.9216 -5.22309,-5.29315 -4.04733,-5.69151 0.26493,-2.78754 3.7824,8.47905 0.41043,-2.62845 -4.19278,-5.8506 0.60137,-3.00474 3.59141,8.85534 0.72477,-2.88999 -4.31618,-5.96535 -2.93314,-6.10256 2.33177,9.1073 -2.85287,-5.99591 2.58792,8.78343 -2.74765,-5.84137 2.81573,8.39507 3.87088,5.48061 4.99642,5.09053 5.94381,4.47312 -0.38772,1.59846 -5.55609,-6.07158 -0.0752,1.81745 0.16809,1.49413 -4.91249,-6.33749 0.45762,1.7717 4.86079,5.73466 -4.1539,-4.25802 -0.70689,-1.47664 -3.46655,-4.93823 4.17344,6.41487 -3.23538,-4.61518 -0.93806,-1.79969 -0.66648,-2.06341 3.67541,5.22994 4.7444,4.84336 -4.92117,-6.90798 0.17677,2.06462 -4.04765,-7.54523 0.37224,2.31529 4.13303,7.00164 m 0.22749,0.79275 -1.8496,4.7375 m 0.15642,1.60554 2.21152,-5.61057 m -0.0389,-0.0487 0.95538,1.19128 3.81876,3.9247 -4.77414,-5.11598 m 0.71829,0.89561 -2.54712,6.3849 m 0.53308,1.62131 2.86494,-7.07969 m 0.99544,1.02309 -3.14952,7.65672 m 0.89776,1.56255 3.37772,-8.06212 m 0.46334,0.25567 5.14691,4.28011 -4.5267,-3.42217 -0.62021,-0.85794 m 0.77978,0.97856 -3.56164,8.33353 m 1.22391,1.42735 3.78415,-8.66738 m 1.53805,1.16276 -3.95137,8.84971 m 1.50657,1.23679 4.07037,-8.90736 m 1.77549,0.97846 -4.2318,9.04544 m 1.71799,0.97851 4.32393,-9.02652 m 1.86328,0.91704 -4.38926,8.95096 m 1.85547,0.67847 4.46604,-8.90132 m 1.89444,0.71385 -4.46717,8.7091 m 1.9055,0.35184 1.89743,0.18151 1.86958,0.0114 1.8225,-0.15822 1.75665,-0.3266 1.66994,-0.4822 1.56536,-0.64352 1.44698,-0.78031 1.30873,-0.91906 1.17364,-1.04015 1.0173,-1.15253 0.8586,-1.24127 0.40555,-0.68857 m -0.13679,0.0138 -1.12736,1.91605 m -1.0173,1.15253 1.77856,-3.03186 m -0.25691,0.0259 5.52301,-0.55507 -3.82661,0.18767 1.75239,-0.74057 -6.66949,-0.43437 -1.37401,0.77333 m -0.12692,0.57528 -3.96467,7.06493 m 1.66994,-0.4822 3.69187,-6.49476 m 1.19263,0.0751 -3.31914,5.77612 m 1.44698,-0.78031 2.87827,-4.96446 m -0.50247,0 h 1.62822 m -0.33343,1.9e-4 -2.36186,4.04593 m 1.06707,-4.04503 -5.4047,-0.34036 1.16745,-0.0311 m -0.43508,0.0772 -4.1424,7.49097 m -1.8225,0.15822 4.29741,-7.90043 m -1.74807,-0.38346 -4.41892,8.27254 m 0.7161,6.97076 -2.59583,4.65064 2.58845,-0.0308 2.65128,-4.63156 2.56675,-0.26027 -2.70237,4.61555 2.41485,-0.51056 2.74854,-4.60261 2.32397,-0.72737 -2.78921,4.59269 2.13963,-0.94739 2.82414,-4.58568 1.99803,-1.13747 -2.85309,4.58144 1.77591,-1.33135 2.8756,-4.57999 -1.79842,1.3299 m 0.49974,1.76027 2.89205,-4.581 1.36914,-1.64028 -2.902,4.58433 1.14107,-1.75805 2.90613,-4.58983 -1.1452,1.76355 m 1.1452,-1.76355 0.90093,-1.87365 0.66625,-1.95929 0.41376,-1.94228 m -1.03114,0.29792 -5.90894,0.59378 m 1.75239,-0.74063 1.80576,-1.14196 -7.01675,-0.47022 m 5.21099,1.61218 4.15655,0.14685 -2.08235,0.40608 m -0.26844,-1.69489 1.83477,-1.53805 4.73242,0.89775 -6.56719,0.6403 m -1.80576,1.14196 6.25793,-0.62261 -2.10138,0.76946 5.31265,-1.53485 -3.21127,0.76539 5.60726,-1.62148 2.36765,-1.22301 -5.85989,1.68484 2.09286,-1.54429 -6.82528,0.64654 m 1.85455,-1.94739 1.85708,-2.35117 -7.74464,-0.59216 m 4.93194,-1.32749 3.80455,0.42828 3.24884,-0.30721 2.95003,1.17271 -7.19072,0.62587 0.99185,-1.49137 m -0.99185,1.49137 5.17803,1.71532 -7.03511,0.63585 4.97073,1.30085 2.06438,-1.9367 2.01269,-2.34119 1.10566,-1.55263 2.81681,-0.73633 2.46028,0.53356 -2.14246,2.33965 -6.25298,1.75694 4.01815,0.20963 2.66599,-1.0242 -4.98149,2.61072 2.3155,-1.58652 5.14657,-2.69383 -2.48058,1.66963 m -0.43116,-0.94237 -2.23483,1.96657 -6.08253,1.72707 3.76703,-0.14055 m -2.36765,1.22301 -3.49224,0.46183 -2.11502,1.15965 m 3.21127,-0.76539 2.39599,-0.85609 m 2.67769,-5.36035 6.38275,-1.7554 3.1283,-0.40384 -5.27076,2.74349 2.91174,-0.72726 2.35902,-2.01623 2.23216,-2.36267 1.11985,-1.45817 1.91608,-1.6491 1.17891,-0.50546 -4.21484,3.61273 -1.92066,0.0354 0.4637,-0.24908 2.57681,-1.24446 m 0.81544,0.24876 -1.93529,1.20941 -5.36046,2.76651 1.08913,-1.46492 0.51123,-0.27543 1.83944,-0.99079 m 0.4637,-0.24908 -0.98329,-2.08938 5.94558,-1.20865 -0.4694,0.40447 m 0.4694,-0.40447 1.90365,-1.6401 -1.19414,1.53911 -2.27955,2.40332 -4.16745,3.57208 m -2.03917,-1.06108 -3.54941,0.93136 m 0.31782,2.87321 -4.24029,-0.58425 m 1.10529,-1.55263 -3.25786,0.30525 -0.79746,0.0747 m 0.79746,-0.0747 -7.87776,-2.41442 10.52433,-0.37338 0.61129,2.48255 m -0.61129,-2.48255 -0.41034,-3.96619 0.16539,-3.81339 8.04098,1.31374 -8.20637,2.49965 -9.76911,0.26903 -0.34488,4.07054 m 0.34488,-4.07054 -9.2035,-5.92833 1.38697,-3.47528 -9.39242,-4.00304 -8.3367,-5.6375 6.6226,8.98358 -1.91288,3.5809 -9.11289,-6.22993 2.41581,-3.20771 8.60996,5.85674 8.39991,7.95372 -10.31279,-4.37282 -2.00507,3.62087 -9.8131,-6.74523 2.70528,-3.10557 m -2.70528,3.10557 -7.59368,-8.10239 3.209,-2.47825 m 2.7745,-2.74563 2.18591,-2.85541 1.45214,-2.8085 -3.66141,-6.12775 m -0.68974,-0.79769 -1.34226,2.52992 -2.27947,2.55757 -1.70661,-7.33105 -1.25717,9.58008 -3.47112,1.81311 -1.75099,-8.4297 -1.36776,6.55257 0.70943,2.68954 m 0,0 -0.50007,1.85534 -0.52104,3.11136 -0.15976,2.94206 0.17735,2.76019 3.01062,7.95023 -2.51518,-5.39338 3.18166,7.45673 -2.37333,-5.10672 -0.80833,-2.35001 -0.49544,-2.55685 -1.35712,-5.57914 -0.2317,-2.94264 1.41147,5.76159 -1.29749,-8.83925 1.45725,5.89719 -0.99415,-9.09841 1.51519,5.98705 -0.37962,-5.1906 0.17018,0.64527 m -0.17018,-0.64527 -0.68255,-2.57696 -0.45302,1.78051 -0.4631,3.20122 -0.11398,3.07766 m 0.2317,2.94264 0.55401,2.78816 1.29855,5.34783 m 2.155,5.24762 -0.41987,0.42844 -1.25648,1.64219 -1.05552,1.78535 -0.83754,1.90947 -0.60167,2.02687 -0.35583,2.12217 -0.0735,1.69153 -0.022,0.50613 -1.80398,5.09886 0.14496,2.2325 1.82097,-5.08079 0.43333,2.28071 0.7007,2.28544 0.9674,2.2601 1.22346,2.21787 1.46745,2.14296 1.71096,2.03912 -2.04512,4.91622 1.86705,1.8827 2.10008,-4.88318 2.12058,1.7626 -2.15863,4.8499 -2.06203,-1.72932 m -1.86705,-1.8827 -1.66019,-2.00683 1.99435,-4.94851 m -1.46745,-2.14296 -1.94858,4.97935 1.42168,2.11212 m -1.42168,-2.11212 -1.18295,-2.18874 1.90807,-5.00848 m -0.9674,-2.2601 -1.87301,5.03537 0.93234,2.23321 m -0.93234,-2.23321 -0.6717,-2.26129 1.84401,-5.05952 m -0.43333,-2.28071 -0.16195,-2.25057 m -0.7348,-1.21428 1.7876,-5.13242 m -0.60161,2.02687 -1.78744,5.12469 -0.36111,2.11098 1.79274,-5.1135 m -0.83018,0.98338 -0.60145,2.01914 m -0.36111,2.11098 -0.10662,2.18302 m 0.14496,2.2325 0.41029,2.25944 m 7.91398,5.88597 1.92201,1.91574 m 2.12058,1.7626 2.28841,1.59465 2.43642,1.39319 2.55188,1.18639 2.62929,0.96335 2.68566,0.72588 2.70433,0.48244 2.6896,0.23083 2.6439,-0.0117 m 2.56672,-0.26021 2.46102,-0.49766 m 2.32397,-0.72739 2.17458,-0.94036 m 0.92083,2.11262 1.57697,-1.48979 1.35911,-1.63697 m -0.0604,-1.45325 1.59332,-1.49083 m -6.24488,7.4022 -1.96905,1.14168 m -2.13966,0.94744 -2.2833,0.73726 m -2.41485,0.51057 -2.51564,0.27625 m -2.58847,0.0308 -2.63072,-0.20887 2.53698,-4.67254 m -2.70433,-0.48244 -2.47529,4.69715 2.64264,0.45783 m -2.64264,-0.45783 -2.62223,-0.69869 2.41186,-4.72434 m -2.62929,-0.96335 -2.34741,4.75358 2.56497,0.93417 m -2.56497,-0.93417 -2.48756,-1.15543 2.28325,-4.78446 m -2.43642,-1.39319 -2.21999,4.81674 2.37316,1.36091 m -2.37316,-1.36091 -2.22707,-1.56152 m 17.2366,-30.17218 0.62693,0.31572 m -7.55113,-4.77377 -2.90489,-2.208 -2.56344,-2.49708 -0.62069,-0.60466 m 0.62069,0.60466 -3.22234,-7.40482 -4.78626,-8.66351 -2.40921,0.81277 1.27619,2.69912 1.15689,5.25878 0.51456,-1.73196 0.39627,0.50845 1.4469,1.85676 m 0.36936,0.47504 2.15175,3.16163 m -4.36428,-6.00188 -1.67145,-3.52682 m -3.75454,-3.62958 -0.10139,-5.58943 m 1.01751,0.60767 -0.0269,-3.01477 -0.0804,-2.17887 m -0.018,-0.48241 0.6944,-2.98667 m 2.81668,-2.21555 -1.16549,7.54796 -2.24737,0.31554 m -0.5401,-0.86699 0.11398,5.6623 m 2.67349,-5.11085 3.49641,-1.18682 m 5.31019,-3.81788 1.65867,6.81471 2.05539,10.05946 m 2.18596,-2.85541 -4.24135,-7.20405 -0.1388,-4.45444 m 0.0785,0.12192 0.91181,1.23494 1.87994,2.17429 m 6.90677,6.79506 2.7419,1.98922 1.32458,0.96115 m -0.67995,-0.19138 -1.04055,-1.05706 m 0.50347,0.36526 0.53708,0.6918 7.51081,8.04008 1.02986,-2.30732 0.1913,-0.51078 m -0.1913,0.51078 9.60025,4.10604 0.32456,-0.37745 m -0.32456,0.37745 -2.29783,-1.43521 m -1.52045,-0.61327 -3.13733,-1.4183 -1.63996,-0.74137 m -2.03454,2.40943 9.3446,3.99045 1.28551,-2.19173 8.23767,4.21288 -1.3221,2.90192 -1.0464,3.50341 -0.71514,3.90196 -10.52314,-2.10685 -1.18219,3.95415 m 1.18219,-3.95415 1.31956,-3.82148 9.91872,2.02637 -8.5317,-5.50159 9.5781,1.99818 -8.20108,-4.92307 -1.37702,2.92489 m 1.37702,-2.92489 9.52318,2.02115 7.58013,2.78601 7.02839,1.16454 -7.75769,2.27436 0.7293,-3.4389 -8.90223,0.11591 8.17293,3.32299 -9.21933,0.18042 9.05396,3.63294 9.2193,1.17636 -8.80893,2.78982 m 8.80893,-2.78982 -1.0129,-3.67602 -0.28334,-3.58806 0.46715,-3.28856 2.2688,-1.55094 m -2.2688,1.55094 5.30169,-0.74412 0.10692,-1.17178 m -0.10692,1.17178 3.33716,-1.93667 m 1.07003,-0.29503 1.48283,2.50015 1.40065,1.44222 -0.15928,0.41399 -0.63994,1.6578 -4.47964,2.72804 -6.48441,4.78626 m -1.0129,-3.67602 6.07952,-4.35811 -6.36286,0.77005 5.76884,-4.03268 m 0.59402,3.26263 1.41779,3.24787 1.36483,1.93749 1.30164,-1.86457 1.63521,-2.34008 0.17796,-0.46088 m 0.79922,-2.07179 0.7724,-2.24198 0.26461,-2.30957 0.065,-0.56232 0.034,-0.29416 m -0.052,0.0273 2.05793,-1.08064 m 0.0441,-0.023 19.41082,-28.203 m 2.6956,-1.59318 -19.42545,27.97487 -2.68097,1.82131 m -2.10203,1.10376 -0.99383,0.44982 m -0.93633,0.31128 -0.55436,3.17746 -3.87818,6.24203 m -11.9044,-7.23294 -3.17267,-0.13396 m 1.5294,0.87233 -8.84153,0.0662 1.45195,-2.01068 m -3.84254,-0.85921 -3.22813,-0.87217 -1.6061,-0.57065 m -1.01285,0.0999 4.27426,0.918 m -22.41521,-10.75679 0.0143,-0.29168 m 59.89921,7.66604 2.17479,-1.95964 19.46294,-27.8896 m 1.7246,-2.11658 -19.29836,27.61665 -0.60761,0.76848 -1.28157,1.62105"
       style="fill:none;stroke:#000000;stroke-width:0.568;stroke-miterlimit:4;stroke-dasharray:none"
       id="path914" />
  </g>
</svg>
