<?xml version="1.0" encoding="UTF-8" standalone="no"?>
<svg
   version="1.2"
   width="1154.1818"
   height="581.6369"
   id="svg6"
   xmlns="http://www.w3.org/2000/svg"
   xmlns:svg="http://www.w3.org/2000/svg">
  <defs
     id="defs10" />
  <desc
     id="desc2">plotter.vision</desc>
  <path
     d="m 190.13147,304.21022 -36.4069,-0.5818 -0.2328,13.6487 -34.3185,-18.9451 34.5513,5.2964 -35.6432,-17.1413 35.1914,5.3433 0.4518,11.798 36.5408,14.2332 37.5781,10.1269 -37.0227,4.5138 -0.5554,-14.6407 -0.1339,-13.6514 -36.8587,-12.3798 -37.9595,-14.756 -31.890701,-9.9262 34.658801,19.3389 1.0919,11.8449 -29.926901,-9.5027 -0.8882,13.2823 -3.3675,13.8025 -24.1267,-13.8591 -7.0068,12.4232 -16.1642,-17.4301 -5.3604,4.8537 -5.0309,4.5552 -7.8598,4.464 -2.5155,-6.2188 m -0.6029,-1.4905 3.9606,16.4552 10.6652,13.6477 15.6256,12.6165 -0.672,-8.3725 8.8837,4.6445 11.9834,14.8149 -0.6133,-8.8568 10.5905,4.1667 14.1811,13.8215 28.365801,21.3297 29.758,17.4877 29.2861,1.232 29.2347,-1.6209 -1.061,12.1585 27.0777,-4.2884 2.0276,-12.2773 25.8386,-6.9858 -2.8854,12.4364 -22.9532,-5.4506 1.5689,-13.4627 24.2697,6.4769 2.2213,-13.5659 23.2878,-9.3828 1.975,-14.6459 0.5773,-8.4003 -11.8142,3.9988 -9.7998,4.4103 -2.2038,0.9916 -0.4568,8.4247 -14.7302,-4.7054 -11.9092,2.9082 -0.3414,8.8989 26.9808,-7.1017 -1.5655,14.6036 -26.491,7.089 -28.7968,4.4587 27.2279,9.004 -28.0443,4.4072 26.0167,7.8701 24.9808,-6.8267 -3.4788,11.2445 -23.9195,6.5973 19.8377,3.3474 -4.5658,8.6169 18.8227,-7.922 5.7587,-9.0697 -20.0156,8.3748 -22.692,6.3108 18.1262,2.3061 -21.3029,5.9691 3.1767,-8.2752 2.8543,-9.6582 -25.943,4.1462 23.0887,5.512 -24.5894,3.9711 21.4127,4.3041 -23.0739,3.7439 1.6612,-8.048 -25.5947,1.4622 23.9335,6.5858 -24.01,1.383 0.077,-7.9688 0.093,-9.4039 25.5017,7.9417 1.5007,-9.4831 -27.0024,1.5414 0.068,-10.8252 0.043,-12.1267 28.1737,10.5376 -28.2168,1.5891 -29.243,-13.3587 0.953,12.1626 1.1525,10.8525 27.0691,1.1688 -28.2216,-12.0213 28.29,1.1961 26.934,9.2838 1.2828,-10.8729 24.6602,6.7267 2.4175,-11.0151 m 21.502,4.4178 -4.0818,9.9447 m -4.5658,8.6169 -5.0363,7.2415 -5.4723,5.8402 -5.8266,4.4366 14.5358,-6.1742 7.3565,-5.075 13.4898,-8.2478 -8.6432,5.8385 -4.8466,2.4093 6.9018,-6.4238 6.588,-1.824 8.0567,-7.1338 -14.6447,8.9578 -17.4952,7.3962 -19.8072,5.5536 -19.5333,-3.0821 -1.8503,6.5806 17.5785,1.9081 18.14,-5.12 16.0657,-6.8126 m 1.5862,-0.4097 -1.4385,53.3283 2.1074,-4.5129 1.3695,-4.6085 0.5788,-4.6488 1.1872,-41.9252 m -0.4636,0.3132 -1.3024,46.2608 m -1.3695,4.6085 1.3871,-50.0764 m 1.2044,-0.7386 -12.2031,7.4843 -7.7772,3.7091 -12.9069,5.4843 6.1483,-3.0192 -12.3134,0.6834 3.8051,-5.4066 3.5406,-6.826 16.2666,1.2724 m 1.2667,5.0422 -1.3745,59.4871 -4.9968,3.7288 -5.6165,3.4129 1.1885,-61.738 m -1.7663,0.3438 -16.3739,4.6177 10.2256,-1.5985 -14.5001,4.1122 4.2745,-2.5137 4.0605,-3.9343 -19.6008,3.2143 -20.2553,-3.8358 -0.096,5.0142 20.3518,-1.1784 2.0223,-5.1224 21.3836,-3.4985 14.3349,0.2866 m 1.6624,1.6231 -1.2947,60.7948 m 4.9968,-3.7288 4.3412,-3.9816 3.6114,-4.2214 2.8963,-4.3801 m -2.8963,4.3801 1.4519,-55.9403 m -3.6342,2.2289 -1.4291,57.9328 m -14.9545,11.1233 -6.1792,3.0658 -6.6835,2.6878 -7.127,2.2787 -7.5073,1.8394 -7.777,1.3905 -8.0017,0.8948 -8.0952,0.4249 -8.1169,-0.087 -8.0867,-0.5631 -7.9382,-1.0586 -7.6891,-1.5104 -7.3735,-1.9846 -7.0152,-2.4034 -6.5226,-2.8197 -6.0161,-3.1823 -5.4141,-3.5142 -4.7735,-3.8052 -4.0957,-4.0559 -3.3833,-4.2669 -2.6376,-4.4389 -1.894301,-4.5461 -1.4284,-48.7476 m 0.6846,0.462 -8.4939,-5.7329 21.040801,13.037 14.8017,5.9783 -5.6345,-4.3512 -5.2934,-5.7818 23.6441,10.6367 19.7408,2.9422 20.4221,0.8938 -0.1362,3.519 18.3479,-1.0645 2.1401,-3.6329 15.5403,0.72 -17.6804,2.9129 -2.2399,2.1643 -16.218,0.9504 10.7146,-0.1847 m -0.6947,0.7356 -0.2056,62.355 m 8.0017,-0.8948 0.3902,-62.3294 7.9559,-1.3508 -0.5691,62.2897 m 7.5073,-1.8394 0.7412,-62.237 7.2894,-2.2133 -0.9036,62.1716 m 6.6835,-2.6878 1.0549,-62.0941 m -2.0245,0.7732 -4.8103,1.8371 m -7.2894,2.2133 -7.6794,1.7867 m -1.3116,-0.4518 -10.4123,1.7165 m 1.7798,-0.546 15.6458,-2.5635 -13.4059,0.3992 m -0.2517,2.7964 -8.1863,0.8692 m 6.1981,-1.5013 -16.108,-1.0998 -20.2859,-4.4128 1.8962,3.6077 18.3897,0.8051 m -0.11,2.0502 -18.2797,-2.8553 -21.637,-6.5499 -18.3507,-4.8549 -23.105801,-12.9405 17.812401,7.1587 20.0578,5.2888 21.5435,3.2052 1.7836,5.0849 -23.3271,-8.2901 3.5863,5.3479 3.8532,3.8895 17.7838,2.6604 1.9915,2.1487 12.4419,0.9997 -10.4244,-0.4627 m -0.5698,0.5015 0.356,62.3486 m -7.9382,-1.0586 -0.5389,-62.3183 -7.8657,-1.4672 -7.5422,-1.9278 -7.1746,-2.3343 1.0436,62.1492 m -6.5226,-2.8197 -1.1906,-62.0678 6.6696,2.7383 m -1.1639,-0.5508 14.6648,3.9013 15.755,2.3686 16.2882,0.7066 m 1.7376,0.9637 -0.018,62.3671 m -8.1169,-0.087 -0.1692,-62.3646 8.3046,0.085 m -1.4914,-6.5329 -22.2057,-5.9787 22.3022,0.9645 22.2776,-1.2866 -22.1597,-5.1976 -0.1179,6.4842 -23.9498,-7.5367 24.0677,1.0525 -25.5693,-9.0724 1.5016,8.0199 -26.2595,-11.65 24.7579,3.6301 25.6458,1.1036 -26.9761,-10.5727 1.3303,9.4691 -27.4613,-13.2557 2.7034,9.6256 3.0103,8.2277 -25.9958,-14.2211 4.4089,8.5538 21.5869,5.6673 23.2492,3.4223 1.6476,6.5722 -24.8968,-9.9945 3.3533,6.7893 -24.9402,-12.4566 -24.806201,-16.6621 20.397301,8.1083 22.9855,5.9934 -26.9206,-15.9033 24.2172,6.2777 26.131,3.7866 -28.4457,-14.7845 -1.9115,-12.2499 29.2047,16.1819 -27.2932,-3.932 -25.287201,-6.488 -2.8088,-12.4012 28.096001,18.8892 2.3147,10.9979 -27.601901,-17.4859 -25.9609,-21.37 23.1521,8.9688 26.184501,6.6393 28.2517,4.0193 -0.7465,-13.391 -30.0499,-18.6733 29.5314,4.0984 30.6243,1.2542 -17.3282,-9.4222 17.3289,0.9654 -7e-4,8.4568 30.5379,-1.6463 0.1652,-8.4603 13.0298,-2.1835 16.1175,6.1521 -29.3125,4.4917 28.2368,10.0992 1.0757,-14.5909 25.4153,7.5019 m -2.2213,13.5659 22.6962,-9.2506 -3.6255,12.6466 -21.9561,9.0404 m -3.4788,11.2445 21.0412,-8.7398 -5.1074,10.3097 9.9785,-0.4893 -15.7372,9.559 -6.3638,7.7673 m 0.053,2.5905 4.4074,3.0265 6.0991,5.0739 5.2672,5.4259 4.3904,5.7275 3.4421,5.9743 2.4885,6.1857 1.4855,6.3267 0.401,6.4208 -0.6387,6.4488 -1.7335,6.4127 -2.7852,6.3196 -3.888,6.1424 -4.9213,5.9206 -5.9012,5.6198 -6.88,5.2634 -7.7758,4.8426 -8.6091,4.3535 -9.3316,3.8326 -9.9829,3.2434 -10.5146,2.6234 -10.9198,1.9579 -11.2325,1.294 -11.3918,0.6072 -11.4432,-0.1221 -11.3559,-0.8056 -11.1391,-1.508 -10.8126,-2.1631 -10.3342,-2.8302 -9.7816,-3.433 -9.1035,-3.9817 -8.344701,-4.5121 -7.4986,-4.9742 -6.5655,-5.3843 -5.609,-5.7176 -4.5734,-6.0009 -3.5218,-6.2111 -2.4328,-6.3478 -1.3756,-6.4357 -0.3132,-6.443 0.7876,-6.3994 1.797,-6.2904 2.8174,-6.1235 3.755,-5.9099 4.7015,-5.6293 5.5525,-5.322 6.3248,-4.9596 2.1345,-1.377 m 1.6269,1.0981 1.1978,40.2935 0.3461,4.6399 -1.3279,-44.7877 m 1.6756,1.131 12.546901,7.3041 20.7266,8.9107 -13.1442,-5.2901 -7.5824,-3.6206 -7.2031,-4.9661 -6.735501,-6.3473 -6.2536,-7.6713 -5.6226,-8.9999 -5.025,-10.2689 25.422301,18.3772 -3.9351,-9.9099 -3.384701,-11.2082 -22.3908,-8.7479 -3.5701,-12.6221 -19.3818,-10.9127 22.9519,23.5348 -18.7735,-10.6744 -4.1784,-12.8604 -3.2279,-13.8138 19.8345,11.0581 25.9273,22.6372 -2.1696,-13.555 26.847801,6.7259 29.0115,4.0967 -0.5185,-14.5749 -0.168,-8.9144 13.4641,0.7464 m -13.4641,-0.7464 -13.3653,-1.6304 -3.2488,-0.3965 -13.0638,-1.599 0.3145,8.4419 1.0384,14.5766 1.5063,13.4684 -28.354101,-20.1943 -1.518,-14.6038 27.327401,6.7531 -16.389,-12.9581 2.2753,0.447 13.7992,4.0692 m 13.0638,1.599 16.7821,10.9413 30.6101,15.8075 29.1757,11.7695 0.8164,-13.4112 0.56,-14.5579 -17.7058,-8.0662 -10.0603,0.9842 -2.7711,0.2715 m 2.7711,-0.2715 -32.0486,-9.1507 -1.5155,7.7104 m 1.5155,-7.7104 1.4255,-6.6991 0.5691,-7.1275 40.5912,0.6743 0.6188,7.1525 0.5828,6.7379 0.8533,7.1787 -2.5318,0.2497 m 2.5318,-0.2497 15.3392,-0.1444 m 13.0298,-2.1835 3.2078,-0.5353 13.2492,-2.2109 -3.2583,-7.4309 -2.0799,-6.5134 -2.2089,-6.9167 -39.3338,4.866 22.5166,4.4205 21.106,4.1436 32.5602,-0.1888 m -2.2038,0.9916 -15.187,3.7193 m 14.7302,4.7054 23.6973,-9.4251 19.6156,-11.3374 0.7182,-8.8213 6.6335,-5.4176 7.6679,1.4538 0.7386,-8.3351 -8.4065,6.8813 m 7.6679,1.4538 -15.0196,12.7851 -10.2766,-2.2839 -8.7617,5.221 m -0.5773,8.4003 17.3486,3.3668 11.1776,1.2507 -4.6677,13.1629 9.447,-13.2655 -4.7793,0.1026 -14.4548,12.5813 9.7871,0.5816 -13.9979,12.3094 4.2108,-12.891 3.2772,-13.832 14.7695,-12.7464 -3.5919,13.9971 9.6981,-13.5548 -6.1062,-0.4423 2.5171,-14.7429 7.3698,1.0375 -9.8869,13.7054 -12.5025,-1.9578 -2.267,14.7042 -19.3236,11.2791 16.0464,2.5529 -18.8593,11.1452 14.6485,1.7458 -18.274,10.9008 -4.3937,11.5451 11.5892,0.2092 -6.7181,9.6112 -7.4563,8.3685 -8.2809,1.1905 m 8.2809,-1.1905 11.368,-10.1445 -3.9117,1.776 12.1535,-10.8481 -5.4354,1.2369 -16.6966,10.1005 m 5.1074,-10.3097 17.5428,-10.5486 -5.9536,10.7578 12.8745,-11.4398 -7.4391,10.2029 -8.2418,9.0721 m 8.76,-18.593 5.1249,-11.8973 8.3573,-0.041 9.1358,-12.8646 -6.9601,11.7671 -2.1757,1.0975 -6.5613,11.2559 8.737,-12.3534 m -2.1757,1.0975 -13.4822,11.9379 6.9209,-0.682 m 6.5613,-11.2559 5.6406,-12.2688 3.4952,-0.5958 5.9518,-12.6697 4.9188,-13.4522 3.7807,-14.1477 4.9056,-14.1934 -2.257,-0.5914 -2.6486,14.7848 m -7.3698,-1.0375 10.0184,-13.7473 4.9226,-14.227 -2.6656,14.8184 m -2.257,-0.5914 0.7928,-8.2916 2.2137,-6.5023 m 0.5442,-1.6016 2.2162,-6.5251 -0.8443,8.6936 m -1.3719,-2.1685 -14.8348,9.8527 -19.8431,18.4326 6.806,5.8219 -8.8358,5.2538 -2.1576,1.283 m 2.1576,-1.283 -27.6229,4.2508 -37.4706,10.8511 -42.421,5.3263 -43.7874,-0.7381 -41.4806,-6.7205 -3.512,6.7358 m -2.2753,-0.447 -8.936001,-1.7476 -2.4561,-0.4803 0.4537,8.4329 -24.1583,-9.1314 -20.1951,-11.0869 2.2792,14.6818 22.6097,24.7265 -2.7752,-13.6684 23.7577,9.0822 -25.6763,-23.7352 1.9186,14.653 -22.1137,-25.7399 m -0.672,-8.3725 -7.9538,-7.0041 -6.3344,-4.561 -4.313,-19.5365 -6.316,-20.1438 4.4018,-19.8499 -11.9624,17.6928 0.1138,4.1835 m 0.031,1.0588 7.4159,-3.0852 5.1504,-3.8005 5.4957,-4.0552 3.9066,-18.3742 8.6672,-11.2315 m 1.0472,0.3001 -5.6289,19.2917 3.5597,-17.2036 -7.6452,8.8433 -5.2439,3.2976 -4.907,3.0824 -7.6181,2.2618 -1.8972,6.2005 -2.4783,8.0859 m 0.1759,6.3869 0.3194,7.8227 0.8042,8.2543 5.5907,14.1915 -0.8414,-8.7452 4.6723,6.1108 6.8343,16.2821 -0.7444,-8.3364 -6.0899,-7.9457 m -3.8309,2.6344 13.1909,28.3776 15.3791,12.5684 m -11.7929,1.4102 4.6275,13.1272 14.5717,12.1368 5.0446,11.8347 23.0422,20.5974 -17.137,-9.8925 22.7596,18.8924 19.183601,7.6622 4.8824,7.1678 -24.066001,-14.83 -16.1329,-9.3682 -12.6387,-10.6919 8.1568,8.9796 11.8039,10.0042 -7.322,-8.2919 -6.6267,-9.5242 -13.3809,-11.2803 7.3689,10.1126 m 6.012,1.1677 -5.9052,-10.7049 18.0172,10.3285 21.487201,8.4673 -25.775501,-19.9561 4.2883,11.4888 m -5.4853,9.9006 22.3865,17.0395 -15.0645,-8.7476 21.800001,15.0949 16.3703,6.5932 m -0.084,2.5974 1.3124,61.3842 m -5.4141,-3.5142 -1.4099,-60.3892 m -4.8434,-2.4458 1.4798,59.0298 m -4.0957,-4.0559 -1.5227,-57.3832 m -1.7925,-1.8163 22.0048,10.9444 16.5694,4.3932 19.7753,4.8091 m 1.4477,1.0385 -8.1211,-1.0283 m 4.6623,-0.035 -10.4941,-1.5671 m -2.0339,0.1346 0.7155,62.2751 m -7.3735,-1.9846 -0.8842,-62.2183 m 2.306,-1.4243 4.0203,2.4405 13.7439,2.3441 m 3.4588,1.063 8.2735,0.5471 m -25.4762,-3.9542 -20.5897,-6.8337 m -22.0048,-10.9444 -13.837701,-8.0709 -7.9623,-7.024 m 17.5994,13.4224 1.494901,52.1662 m -1.894301,-4.5461 -1.0915,-4.6289 m 5.623401,13.6139 -1.5279,-55.0889 m -34.823401,43.8976 1.2106,29.6 1.3671,6.5234 2.4125,6.4335 -1.1818,-29.7734 m -2.4328,-6.3478 1.2021,29.6877 m 2.4125,6.4335 3.4892,6.2942 -1.1492,-29.8565 m 4.5734,6.0009 1.1043,29.9363 5.5519,5.7928 -1.0472,-30.0115 m 6.5655,5.3843 0.9787,30.0819 7.4186,5.0388 -0.8987,-30.1465 m 8.344701,4.5121 0.8084,30.2046 9.0036,4.0327 -0.7085,-30.2556 m 9.7816,3.433 0.6,30.2994 10.2187,2.866 -0.4845,-30.3352 m 10.8126,2.1631 0.3628,30.3626 11.0132,1.527 -0.2369,-30.3816 m 11.3559,0.8056 0.1081,30.3918 11.3134,0.1236 0.022,-30.3933 m 11.3918,-0.6072 -0.151,30.3857 11.1053,-1.3104 0.2782,-30.3693 m 10.9198,-1.9579 -0.4012,30.3446 10.3966,-2.6566 0.5192,-30.3114 m 9.9829,-3.2434 -0.6303,30.2701 9.2287,-3.8816 0.7332,-30.2211 m 8.6091,-4.3535 -0.827,30.1651 7.6923,-4.9052 0.9105,-30.1025 m 6.88,-5.2634 -0.983,30.0338 5.8404,-5.6936 1.0438,-29.96 m 4.9213,-5.9206 -1.0929,29.8815 3.8509,-6.2244 1.13,-29.7995 m 2.7852,-6.3196 -1.1545,29.7144 1.7209,-6.4999 1.1671,-29.6272 m 0.6387,-6.4488 -1.1678,29.5388 -0.638,6.5372 m -1.7209,6.4999 -2.7607,6.4047 m -3.8509,6.2244 -4.8722,5.9991 m -5.8404,5.6936 -6.8075,5.3321 m -7.6923,4.9052 -8.5153,4.4095 m -9.2287,3.8816 -9.8718,3.2847 m -10.3966,2.6566 -10.7968,1.9826 m -11.1053,1.3104 -11.2625,0.6148 m -11.3134,-0.1236 -11.2271,-0.8158 m -11.0132,-1.527 -10.6909,-2.1905 m -10.2187,-2.866 -9.6731,-3.4768 m -9.0036,-4.0327 -8.254401,-4.5702 m -7.4186,-5.0388 -6.497,-5.4547 m -5.5519,-5.7928 -4.5285,-6.0807 m -13.7139,-136.2083 -14.0113,-11.7512 6.5356,11.1758 -16.2341,-23.9431 9.6985,12.7673 -5.605,-12.2203 -14.9517,-26.5734 10.3242,13.4462 15.0208,12.4036 m -10.3933,0.7236 -10.0491,-13.1708 -4.9026,-13.4026 -5.4475,-13.9936 10.3501,27.3962 5.9556,12.6238 6.9445,11.6923 9.2896,12.2508 m -16.7681,-36.5233 -3.5862,-13.9786 -10.5512,-13.5968 14.1374,27.5754 m -3.5862,-13.9786 -2.5257,-14.7299 m 6.9998,-2.7601 6.5592,-5.1586 12.488,17.965 9.1589,4.7995 5.7067,-6.5522 -27.3536,-16.2123 4.5292,-5.2892 4.8197,-5.6285 -8.3757,-28.6719 -7.7885,11.2418 -6.0612,-18.5906 11.5518,-27.2175 1.542,-3.6035 m 0.6491,0.3496 -0.9347,8.9404 -4.8161,11.5171 -7.9921,10.0139 -2.2135,14.3134 -2.1166,13.6861 17.2066,18.9389 m 9.3489,-10.9177 25.5175,14.8849 -18.5107,-27.3081 -15.3825,-16.2487 -5.8576,-17.3627 -1.9309,28.6045 m 7.7885,-11.2418 -1.0415,-28.8798 5.7274,16.5455 1.2433,-12.6246 13.6444,28.0919 -14.8877,-15.4673 -4.6859,12.3343 m 4.6859,-12.3343 10.6966,28.583 4.1911,-13.1157 19.9356,26.9748 -5.616,13.449 -3.8711,6.3094 -3.6417,5.9357 35.792101,12.0474 26.5998,12.8005 m 15.3986,-8.5135 -0.011,-1.0824 m 0.5392,-1.4016 -0.021,-2.1883 m 0.9695,-6.7208 1.4829,-14.6759 38.2087,0.6287 40.2334,9.8555 -3.2107,-14.3693 -1.9293,-14.41 -35.6488,4.2831 -36.7736,-0.5845 -0.8797,14.5965 39.1083,15.3502 -0.8996,-14.7215 -37.329,-15.2252 -34.8888,-5.4319 -2.2371,14.3174 36.2462,5.711 -34.0091,-20.0284 -30.244801,-9.7336 -23.3031,-13.1723 1.1076,-12.9762 -15.9007,-25.3449 m -0.9058,-0.4878 2.0545,10.717 14.752,15.1157 -2.0731,-12.003 -12.4004,-12.5732 m 2.2942,1.2355 8.5269,4.1441 4.2709,1.5214 -5.0371,-133.7119 14.67,4.3917 4.416,133.8779 -9.2535,-3.002 -4.7954,-1.5557 m 1.1297,0.3665 15.5117,8.4938 4.1582,9.7652 -23.4912,-12.9533 -4.3064,-8.519 m 3.0163,1.4284 24.7813,20.0439 1.6656,11.9159 -23.0837,-12.8662 22.1955,26.1485 28.007701,24.051 34.7633,20.3869 -38.4818,-6.1533 -2.5719,6.8293 -2.4215,6.4301 -13.788701,-11.8446 2.1235,0.7091 m -2.1235,-0.7091 -14.4906,-12.4479 33.272701,11.0331 -27.656701,-24.4821 31.375201,10.2485 -3.7185,14.2336 m -22.172801,17.3203 -13.7274,-5.3886 m -19.7509,-8.967 -2.2097,-1.1578 m -28.0496,6.3738 -9.3252,-28.2855 5.512,14.1563 -2.6397,-14.7808 m -2.8723,0.6245 -2.7184,-14.816 8.2304,28.9723 m -6.6003,-31.236 -2.4343,-5.9906 m 3.8802,-28.496 4.0805,-5.7244 17.7422,-14.8207 2.7029,-1.8734 m 0.3138,0.1898 11.3746,6.126 -5.573,-132.9874 13.3337,4.941 m -13.3337,-4.941 -11.839,-5.4218 -10.2621,-5.8269 -8.6149,-6.1586 -6.906,-6.419597 -5.1444997,-6.6131 -3.3791,-6.7218 -1.6151,-6.7508 0.1115,-6.7412 1.7589,-6.6317 3.3975,-6.4899 4.9484997,-6.2804 6.4175,-6.0076 7.7842,-5.7186 9.0432,-5.3537 10.2409,-4.9751 11.3144,-4.5574 12.272,-4.1016 13.1091,-3.6288 13.8327,-3.1385 14.450501,-2.6294005 14.9684,-2.1005 15.3469,-1.5623 15.59,-1.0126 15.7868,-0.463 15.7851,0.08 15.7352,0.6375 15.542,1.1873 15.2033,1.7321 14.8251,2.2616005 14.2452,2.7781 13.6123,3.2924 12.849,3.7826 11.9476,4.2495 10.9541,4.6866 9.8615,5.0937 8.6605,5.4696 7.343,5.8135 5.9331,6.1043 4.4229,6.3388 2.8551,6.5486 1.239,6.6669 -0.4698,6.7515 -2.2074,6.7586 -3.9733,6.6828 -5.7157,6.5692 -7.4439,6.342497 -9.1662,6.0686 -10.8076,5.713 -12.3577,5.2727 -13.7805,4.7721 -15.0639,4.2111 -16.1975,3.5895 -3.3232,134.5442 15.5119,-4.0854 4.0088,-134.0483 m 15.0639,-4.2111 -4.6574,134.1167 -14.4153,4.1427 m -0.082,0.022 -4.9303,5.6256 -33.3492,8.9522 29.5343,0.7201 23.4386,-0.2496 16.8982,-14.6829 9.2984,-3.686 4.8081,11.7085 8.0139,10.3108 -8.5971,18.4319 5.2787,5.0452 4.9558,4.7365 -13.836,3.4449 -14.9852,3.7312 4.628,5.8023 4.3501,5.4542 -29.6527,15.3265 4.8894,6.252 m -4.8894,-6.252 -3.3729,-6.0691 -3.5845,-6.4497 27.632,-14.0642 18.5867,-16.9578 -7.6653,-11.5284 16.2624,-6.9035 5.5042,4.2492 5.1603,3.9836 -9.0271,19.9808 7.1341,4.3779 4.9428,-6.1267 m -0.7928,8.2916 -4.9989,-0.9144 -3.352,4.9537 m -13.1677,-20.3638 -25.2993,4.2708 6.7126,12.687 -32.8395,0.3925 5.2075,13.6717 -34.802,9.9398 m -3.2107,-14.3693 38.0127,4.4295 m -5.2075,-13.6717 26.1269,-13.0795 17.634,-15.7992 8.2485,-17.2143 -12.8619,4.6828 8.0538,-16.3913 -1.3191,-12.3452 -7.9793,16.0312 1.2446,12.7053 4.6134,12.5315 -21.6726,2.5022 4.0386,13.297 -29.244,-0.8609 3.1171,13.9404 -32.8052,9.2422 m -1.9293,-14.41 31.6174,-8.7726 25.2054,-12.4361 17.0592,-15.0337 m -1.2446,-12.7053 2.2645,-12.0786 5.7148,-3.9526 m 0.018,-0.083 5.7039,-132.5773 m 10.8076,-5.713 -6.1322,132.1164 -3.464,2.423 -6.9153,3.7509 -11.8583,5.755 5.2045,-133.0596 m -10.1937,-20.1466 2.146,-60.284097 -7.6846,-4.1 -8.6157,-3.7756 -9.4185,-3.423 -10.1729,-3.0669 -10.8165,-2.6634 -11.3642,-2.262 -11.8278,-1.8427 -12.1546,-1.4109 -0.9463,97.014197 11.7843,1.5506 1.3166,-97.153897 m 11.8278,1.8427 -1.6793,97.336197 m -0.04,0.039 1.4941,0.3372 m -1.4972,-0.3379 -11.4529,-2.0229 -0.9263,4.4739 m 4.1022,-0.4883 -13.8665,1.6505 -14.2602,1.087 -14.4974,0.5022 -14.5203,-0.085 -14.4425,-0.6922 -14.1661,-1.2599 -13.6734,-1.8347 -13.1084,-2.3735 -12.352101,-2.879 -11.476,-3.3418 -10.4745,-3.7852 -9.3565,-4.1473 -8.1906,-4.482497 -6.9101,-4.7616 -5.5916,-4.9675 -4.2768,-5.1405 -2.8769,-5.2408 -1.5289,-5.2922 -0.1785,-5.2932 1.1337,-5.227 2.4337,-5.1393 3.6976,-4.9896 4.874,-4.7846 5.9925,-4.5673 7.0321,-4.2985 7.9843,-4.0014 2.3844,70.836197 m -8.0863,-3.8035 -2.2824,-63.031297 m -7.0321,4.2985 2.1015,54.6251 m -6.2488,-4.3993 -1.8452,-45.6585 m -4.874,4.7846 1.5221,36.2336 m -4.0807,-4.9048 -1.139,-26.3392 m -2.4337,5.1393 0.7078,16.0567 m -22.1751,22.906897 6.7449,130.941 -6.6644,-7.0451 m -0.096,-0.1293 -6.8903,-130.186197 m -5.1444997,-6.6131 7.1535997,129.735097 -3.3152997,-7.7996 -7.2174,-128.657297 m -1.6151,-6.7508 7.2414,128.187497 0.5432,2.465 1.0479,4.7556 m 3.3152997,7.7996 1.6718,2.7533 3.2094,4.3109 m 6.7606,7.1744 8.3255,7.3738 -6.4555,-132.1562 m 10.2621,5.8269 6.0374,132.2832 -3.2105,-1.942 -6.6335,-4.0119 m 5.9665,4.4938 -4.2974,3.4685 m -1.0994,0.8861 6.2576,-1.2109 -14.2046,18.2833 m -2.5511,-4.8469 3.9497,-5.5384 6.5484,-6.6871 m 13.9019,-0.4022 4.1743,11.8587 m 4.2616,-7.4041 8.4173,10.5168 25.1568,24.8692 m -1.6656,-11.9159 30.500601,9.5737 -2.7681,-9.4127 36.8575,5.5328 1.102,9.2232 37.0955,0.5751 -0.2368,11.8047 35.2649,-4.1811 0.5178,13.5494 34.7345,5.1678 m -3.1171,-13.9404 -0.8346,-13.3419 26.04,0.9058 -1.0836,-13.0561 1.9735,-11.9804 17.1892,-14.7811 -12.2438,4.6743 -4.9454,10.1068 -25.4121,12.23 -1.5178,11.9007 24.9564,-12.1503 m 1.9735,-11.9804 -21.5972,2.5577 -3.8149,9.6723 -31.8872,8.6288 -0.9312,11.837 32.1352,4.7768 m -0.8346,-13.3419 -31.3006,8.5651 m 0.9312,-11.837 -35.9593,4.2134 -38.1975,-9.7983 -41.1138,-11.8425 39.407,5.8845 1.7068,5.958 38.8597,0.6092 -0.6622,9.1891 m 0.6622,-9.1891 -40.5665,-6.5672 -0.9778,-0.975 m 0.9778,0.975 41.5773,0.6449 -1.0108,5.9223 35.2971,4.9757 30.3694,3.2719 m 5.3327,-21.573 -29.7046,2.7494 4.0672,-1.085 m -1.2953,0.1793 2.5877,-135.0408 -17.911,2.1877 -18.4151,1.4293 -18.775,0.6563 -0.1785,135.3378 11.9463,0.012 6.0041,-0.5673 1.0031,-135.439 m -5.3759,-16.7707 0.7722,-9.304 12.0662,1.0564 m 0,4e-4 -1.0632,7.3494 m -10.994,-8.4485 0.5687,-96.918797 -12.6157,-0.5263 -12.6501,-0.064 -12.6476,0.3815 -12.508,0.8287 -12.2771,1.2661 -11.9634,1.7144 -11.5128,2.129 -11.0198,2.5442 -10.392401,2.9467 -9.6667,3.3146 -8.9065,3.6738 m 8.9065,-3.6738 2.4053,78.012697 m 9.6076,3.1433 -2.3462,-84.470597 m 10.392401,-2.9467 2.2101,90.202597 m 10.812,2.42 -2.0023,-95.166797 m 11.5128,-2.129 1.6957,97.275397 -5.2454,1.0997 m 5.2894,-1.0611 11.5844,-1.8822 m 0,-4e-4 1.298,5.6275 m -1.3328,-5.6676 -1.3294,-97.105697 m 12.2771,-1.2661 0.9558,96.980197 -11.9035,1.3916 m -10.9381,4.021 -0.615,-2.0983 m 2.3816,20.0892 18.2983,1.6722 1.4699,135.6475 -17.5068,-2.3874 -2.2614,-134.9323 -17.6547,-2.4179 3.0277,134.784 16.8884,2.5662 m -13.7435,3.8638 -4.2563,-6.3097 -0.9653,-0.47 m 1.8485,0.3114 -10.5309,-1.7736 -5.404801,-1.4771 -3.7563,-134.6141 -15.8341,-3.7736 m 15.8341,3.7736 16.892501,3.1191 m 35.953,4.0901 18.6837,0.9029 0.6464,135.2106 -5.8032,-0.152 -12.057,-0.314 m 17.8602,0.466 17.9813,0.241 m 9.6362,0.9891 0.5976,-0.9786 m -0.5976,0.9786 36.6392,1.5491 -2.3529,9.3489 m 2.3529,-9.3489 -37.65,4.3732 m 1.0108,-5.9223 40.2838,-4.6537 1.3578,-0.7319 m 1.4141,-0.1738 -17.1278,2.1058 1.8045,-134.9589 m 17.911,-2.1877 17.1685,-2.9089 m -5.153,-17.8927 -12.5974,2.7204 -13.3275,2.2155 m 19.4168,-3.5304 1.9471,-93.545097 m 10.8165,2.6634 -2.1396,88.356497 m -4.1159,1.1197 11.7887,-3.2072 10.8094,-3.6563 9.7201,-4.0397 8.5964,-4.3898 7.3177,-4.679597 6.0407,-4.9126 4.7115,-5.0946 3.358,-5.2036 1.9665,-5.2886 0.6424,-5.3 -0.7277,-5.2489 -2.0199,-5.1737 -3.2749,-5.0359 -4.462,-4.8575 -5.6404,-4.644 -6.6793,-4.3787 m 6.6793,4.3787 -1.9488,51.6257 m 5.9106,-4.5714 1.6786,-42.4103 m 4.462,4.8575 -1.3449,32.7651 m 3.6626,-5.0198 0.9572,-22.7094 m 2.0199,5.1737 -0.5221,12.1824 m 18.8248,27.104197 -6.4595,131.1231 -5.7976,4.6322 -3.0413,2.4297 m -3.3253,2.326 5.0623,4.2187 6.012,5.0144 m 0,0 4.2414,5.9876 m 1.0321,1.4572 4.2234,5.9526 2.5548,6.1747 -7.1898,-2.3215 -11.8922,-18.7804 7.0303,1.5298 m -7.0303,-1.5298 -4.5223,-2.5923 -4.3307,-2.4824 m -0.2421,0.1314 10.6407,16.9934 5.3436,3.476 5.003,3.2543 1.7964,20.0432 8.0239,3.603 -0.08,-6.0604 -0.097,-7.6794 m -0.4444,-1.3754 -7.4027,11.5122 m -10.6645,-8.2328 -1.4785,-18.5407 -6.5354,8.2299 -1.2513,-17.3507 7.7867,9.1208 -0.8057,-6.2817 -0.7399,-5.7684 -5.2653,-7.0206 m -2.1328,1.1568 7.3981,5.8638 m -6.2411,2.9293 -3.5568,5.6422 m 3.5568,-5.6422 -3.2938,-7.6341 m -6.3978,3.1943 -0.8991,1.6894 m -6.1255,1.7197 -4.2804,1.8852 -8.953,3.944 m 5.4276,-2.3909 1.6875,-0.4837 -26.5426,12.6645 m -10.816,-1.4852 -10.6308,2.5696 -5.4859,0.7593 m -2.7719,0.9057 -3.6446,6.2028 m 3.6446,-6.2028 -9.6217,0.618 m -4.7342,0.5821 -11.5613,1.2532 -6.0524,0.6562 m -81.1822,22.5821 -0.5703,13.5132 m -3.2897,-34.7708 -27.864401,-12.2617 m -4.0263,2.3355 -4.58,-4.9474 m 1.9875,0.6448 15.1744,4.5098 m -12.5819,-0.2072 -10.6053,-6.9021 m 90.960101,-119.3927 18.8062,0.1138 m 1.5194,-17.0016 0.4236,-10.3078 -12.2551,-0.071 0.4491,10.4315 m -0.4527,-10.4315 -12.2524,0.4189 1.0257,9.7091 m -1.0291,-9.709 -12.1161,0.91 1.3655,8.1144 m 10.7379,-9.0666 -0.5768,-96.897997 m 12.6476,-0.3815 0.1947,96.860197 m 12.268,0.071 12.2344,0.5786 m -12.2344,-0.5786 0.1874,-96.866497 m 12.6157,0.5263 12.4566,0.962 m 56.336,11.2459 -2.2596,82.396997 m 9.3757,-3.2445 2.3024,-75.729497 m 8.6157,3.7756 -2.2655,68.357797 m 57.7732,-7.223897 -6.7379,130.722097 -7.1655,6.7435 m 7.1655,-6.7435 1.8439,-2.1479 3.6183,-5.2216 m 0.078,-0.1122 6.9136,-129.809597 m 3.9733,-6.6828 -7.0156,128.934597 -3.8713,7.5578 m 3.8713,-7.5578 2.147,-7.0288 7.076,-128.664397 m -6.7125,123.217997 -0.3635,5.4464 m -7.357,68.2498 1.6053,4.9656 m -51.7743,90.5515 -2.8129,13.6981 m -75.7627,7.2324 -29.9921,1.6417 -0.059,13.3904 -30.0326,-14.623 30.0916,1.2326 0.014,-14.5533 29.9779,12.9116 m -0.3219,69.1386 -2.0145,0.5704"
     style="fill:none;stroke:#000000;stroke-width:1.3;stroke-miterlimit:4;stroke-dasharray:none"
     id="path847" />
  <path
     d="m 583.36527,304.68892 29.7157,17.5102 -0.897,17.1101 27.6806,-1.0931 1.7848,-17.0739 26.3507,-1.7122 -2.5694,17.0073 -23.7813,-15.2951 1.3125,-17.7815 25.0382,16.0693 1.8773,-17.6918 23.6682,-2.1659 1.5256,-18.0861 0.3262,-10.0088 -11.9468,0.1439 -9.8891,1.4507 -2.2255,0.3262 -0.2562,10.1031 -15.0795,-9.6067 -12.034,0.3848 -0.1918,10.7271 27.3053,-1.5052 -1.2024,18.2369 -26.9155,1.6225 -29.2247,0.9983 27.9122,16.7832 -28.5684,1.0569 26.7836,16.017 25.5661,-1.7788 -3.1978,16.1943 -24.5605,1.8158 20.7178,13.3868 -4.3705,14.1032 19.4502,-2.4108 5.5438,-14.1332 -20.6235,2.4408 -23.3708,1.8235 19.0003,12.2797 -22.0005,1.8008 3.0002,-14.0805 2.653,-15.2103 -26.6075,1.1162 23.9545,14.0941 -25.2945,1.1225 22.2943,12.958 -23.7988,1.1047 1.5045,-14.0627 -26.272,0.3711 24.7675,13.6916 -24.7107,0.3665 -0.057,-14.0581 -0.023,-15.2146 26.2952,14.8435 1.34,-15.2166 -27.6352,0.3731 -0.03,-16.2635 -0.036,-17.1253 29.7169,-0.3488 0.6562,-17.8401 0.4066,-18.421 0.089,-10.2236 13.1421,-0.6373 16.4,9.9294 -29.6307,0.9315 28.8181,17.4227 0.8126,-18.3542 26.1029,16.7317 m -1.8773,17.6918 23.1527,-2.2867 -3.2449,16.9182 -22.4772,2.3758 m -3.1978,16.1943 -3.8427,15.2026 m -4.3705,14.1032 -4.8867,12.8963 -5.3678,11.5946 -5.7648,10.2129 15.1253,-2.0772 12.7119,-2.5289 -9.1467,9.1855 -3.5652,-6.6566 7.3227,-10.3623 14.0188,-2.707 -8.6296,10.5404 9.9781,-2.8846 -1.3485,-7.6558 -7.2085,-8.9992 -6.8103,11.7062 5.3892,7.8334 -0.2404,6.5494 -4.0214,4.2384 m 1.7374,-0.2646 -0.4319,76.8123 2.2699,-1.8855 1.4947,-1.9254 0.4489,-76.13 m 0.6626,-0.8782 -0.4464,75.066 m -2.1598,3.8676 0.4427,-76.4747 -2.2807,1.5479 -3.1153,1.5021 -0.4163,77.1398 3.0997,-1.8296 m -3.0997,1.8296 -3.8531,1.7626 -4.622,1.6612 -5.3135,1.5541 -5.9664,1.42 0.309,-78.2843 5.9995,-1.166 -0.3421,78.0303 m 5.3135,-1.5541 0.3712,-77.7524 4.6468,-1.3639 -0.396,77.4551 m 6.7665,10.9308 -9.151,1.8172 -9.9181,1.5948 -10.6069,1.3428 -11.1664,1.0773 -11.5878,0.7921 -11.9076,0.5077 -12.0603,0.2136 -12.0938,-0.098 -11.9771,-0.3896 -11.7189,-0.6885 -11.3428,-0.9659 -10.8026,-1.2472 -10.1842,-1.5001 -9.4339,-1.7283 -8.5987,-1.9477 -7.6747,-2.1366 -6.6625,-2.3022 -5.6309,-2.4345 -4.5214,-2.5446 -3.4013,-2.6235 -2.2491,-2.6707 -1.136,-2.6976 -0.025,-2.6907 1.1196,-2.6625 2.1627,-2.6078 3.2113,-2.5293 4.1691,-2.4325 5.1308,-2.3085 5.9906,-2.1746 6.7654,-2.0192 3.3889,-0.8346 m 0.2791,19.3623 -0.4725,-75.4859 m 0.9498,1.1614 1.802,1.5684 0.4642,76.6056 -1.7941,-1.9105 -0.4721,-76.2635 m 0.6933,-1.5489 -6.14,-2.8727 12.9156,8.3471 -4.0161,-1.895 -8.8995,-6.4521 -10.8917,-9.7084 -10.2297,-10.9586 17.0018,14.0991 9.8315,2.8944 12.6169,2.5374 15.0254,2.0953 -5.8573,-10.2146 -5.4524,-11.6021 24.1742,13.2768 20.2531,1.0417 21.0419,0.3589 -0.066,-11.4402 21.1012,11.1052 -21.0355,0.335 0.037,10.0013 18.9948,-0.3113 2.0037,-10.025 1.8796,-11.4591 18.425,10.4407 18.8195,-1.6586 16.6832,-2.2266 m -7.3227,10.3623 -7.7968,8.9586 -6.3108,5.7696 2.8372,-0.5831 m -1.5197,0.6047 -6.5958,1.045 -0.2721,78.5118 -7.0886,1.1116 -7.5529,0.9375 -7.9488,0.7503 -8.2261,0.5592 -8.453,0.3481 -8.5404,0.1485 -8.5487,-0.069 -8.5011,-0.2706 -8.3263,-0.48 -8.0451,-0.6702 -7.6917,-0.8693 -7.2938,-1.0443 -6.7541,-1.2174 -6.2012,-1.3671 -5.5493,-1.503 -4.8589,-1.6211 -4.132,-1.7216 -3.3716,-1.8049 -2.5793,-1.8714 m 2.5793,1.8714 -0.4517,-76.9406 -2.5918,-1.5364 m -1.1087,-3.1173 8.3266,6.2051 7.9595,2.4147 -7.4751,-5.9755 11.2363,2.318 15.2917,7.0633 -8.91,-1.2889 -6.3817,-5.7744 13.3716,1.901 15.0434,6.5719 -7.7562,-0.7455 -2.2837,-0.2195 -5.0035,-5.6069 15.0172,1.4196 16.2163,0.8842 13.0058,5.6066 -10.7797,-0.1987 m -0.4316,-0.01 -3.7214,-0.206 -14.2894,-6.0782 -4.2829,-8.6365 -4.0745,-10.0998 22.3526,11.069 -2.0995,-10.0273 21.0789,10.3602 -18.9794,-0.3329 19.0538,8.8515 11.2662,5.1812 m -0.7391,0.2616 -0.046,79.1743 m 8.453,-0.3481 0.095,-79.1122 8.2738,-0.4592 -0.1427,79.0122 m 7.9488,-0.7503 0.1885,-78.8781 -7.9946,0.6162 m -1.3477,-0.1661 -9.1444,-4.8168 16.2554,-0.8561 -3.3626,5.4712 10.066,-0.9495 -6.7034,-4.5217 15.0922,-1.4051 -4.937,5.6007 12.0795,-1.7222 m -5.2783,1.0666 -7.129,0.9129 -0.2317,78.7105 m 7.0886,-1.1116 6.5589,-1.2725 m 3.5993,9.7075 -0.1671,39.6595 9.8898,-1.7347 0.1954,-39.5196 m 9.151,-1.8172 8.2656,-2.0255 7.3133,-2.2042 6.2739,-2.3548 5.234,-2.4812 4.1399,-2.5736 2.9749,-2.647 1.8664,-2.6844 0.7157,-2.6976 -0.374,-2.6839 -1.5072,-2.6427 -2.552,-2.5819 -3.5429,-2.4922 -4.5254,-2.3882 -5.4316,-2.262 -6.2899,-2.1153 -7.0495,-1.9582 m 10.0677,34.563 -0.2635,38.9887 6.2574,-2.5616 0.28,-38.7819 m 5.234,-2.4812 -0.2931,38.5638 4.13,-2.7999 0.303,-38.3375 m 2.9749,-2.647 -0.3095,38.1047 1.8632,-2.9206 0.3127,-37.8685 m 0.7157,-2.6976 -0.3126,37.631 -0.7158,2.9351 m -1.8632,2.9206 -2.9684,2.8798 m -4.13,2.7999 -5.2209,2.6993 m -6.2574,2.5616 -7.2936,2.3977 0.2438,-39.1822 m -8.2656,2.0255 -0.221,39.3601 8.2428,-2.2034 m -8.2428,2.2034 -9.1254,1.9767 m -9.8898,1.7347 -10.5764,1.4606 0.1366,-39.7773 m -11.1664,1.0773 -0.1042,39.8717 11.134,-1.1717 m -11.134,1.1717 -11.554,0.8616 0.07,-39.9412 m -11.9076,0.5077 -0.035,39.9856 11.8726,-0.5521 m -11.8726,0.5521 -12.0249,0.2324 v -40.0044 m -0.639,-8.5133 v -79.2009 l 8.5901,-0.1219 8.5022,-0.286 m -3.9007,-0.043 10.8268,-0.5826 3.7178,-0.1988 m 5.6245,-0.2513 7.5961,-0.7699 m 0.2479,-0.2498 -3.3719,0.3186 m -6.7034,-4.5217 4.1997,-8.6383 17.0173,-1.5393 -13.0547,-8.5543 3.6821,-11.5131 -20.4074,-11.7309 -1.6997,12.8033 22.1071,-1.0724 3.3914,-12.8356 17.1138,11.0955 18.1257,-2.3382 6.2112,-12.9689 16.2648,-2.9201 -7.2965,13.0458 -15.1795,2.8432 m 7.2085,8.9992 7.971,-11.8424 -8.9683,-10.1257 m 8.9683,10.1257 11.7912,-3.225 8.1093,-3.4999 4.2931,-3.6393 -9.6489,12.2894 -4.0518,3.491 -10.1873,10.9485 -6.9281,3.1335 9.5737,-10.7395 7.5417,-3.3425 -6.4075,7.6731 -3.7798,3.2754 -10.8882,9.7026 -6.2584,2.8649 -8.9063,2.6361 -1.4227,4.175 -6.016,1.7941 7.4387,-5.9691 -11.362,2.302 -13.4533,1.8911 6.1248,-8.7725 m 7.3285,6.8814 1.3187,4.2016 2.6046,-0.5345 m 2.4255,-0.3181 -5.3426,1.2762 m 9.9894,-2.6401 3.8734,-1.4473 m -2.8823,0.7225 8.2816,-6.1984 10.2185,-9.434 -3.9601,6.5691 m 2.6116,-14.2249 10.9222,-3.0837 8.84,-11.9837 -1.2983,8.6412 9.4076,-12.1411 -5.3558,8.6501 -10.4593,11.1641 m -1.1342,-4.3306 -2.9512,-8.7587 m 11.7912,-3.225 -4.4947,-9.8208 6.4828,-14.1679 6.0829,10.8491 -12.5657,3.3188 -10.721,-11.2131 4.832,-15.1879 -21.6128,2.4261 m 16.7808,12.7618 17.2038,-2.9548 -12.3718,-12.2331 4.0622,-16.144 18.7036,-2.8752 3.7752,-16.808 14.737,-3.1248 -4.1893,16.6822 9.6734,-3.5021 -5.4841,-13.1801 -11.9436,-14.2942 -2.7934,17.419 10.5477,13.5574 -14.3229,3.2506 -15.4587,-14.043 19.2339,-2.765 -16.8411,-14.806 19.6345,-2.613 15.0031,-2.9565 -3.0595,17.2507 9.8943,-3.3658 -6.8348,-13.8849 1.9454,-17.6961 0.4173,-9.7693 -8.4943,1.1672 -6.7135,0.9171 -0.4106,10.4317 15.2011,-2.7467 -8.077,-8.6021 m -6.715,0.917 -8.9103,1.2733 -27.8942,-2.2962 -37.7889,2.1587 3.2213,4.5223 -13.3556,0.6419 -3.2344,0.1555 m -7.8247,-9.7915 21.1934,4.4718 -2.0756,-4.9166 -2.1981,-5.206 -39.4726,0.8922 0.5409,5.2717 0.5109,4.9808 0.7433,4.258 -2.547,0.1608 -10.1218,0.6342 -2.7884,0.1752 -17.3824,-0.489 17.3899,10.7256 -0.01,-10.2366 m 2.7884,-0.1752 -31.9602,-5.2763 -1.7086,4.5849 0.1037,10.7738 30.7842,0.3294 30.8015,-0.3063 -17.8988,-10.7397 m 2.547,-0.1608 15.4404,0.6769 m 5.3174,-10.4288 -22.5529,-4.7586 -40.5642,-0.195 -0.709,5.2597 -1.5607,4.9645 43.8857,0.2233 42.6945,-1.0221 32.8183,3.3146 m -2.2255,0.3262 -15.3357,0.4964 m 15.0795,9.6067 23.9914,-2.0151 19.8563,-2.4328 -10.6789,-8.8471 -8.8512,1.2711 m -0.3262,10.0088 18.1089,15.4731 1.7474,-17.9059 13.2557,14.9494 10.0512,-3.178 -8.1058,-14.5181 10.1497,-2.9529 2.9766,14.1833 -5.0205,3.2877 1.7168,13.5827 -4.9332,3.4802 0.46,12.9183 -4.8702,3.6276 4.4102,-16.5459 3.2164,-17.0629 2.0439,-17.471 5.0241,-3.0528 -2.0475,17.2361 -3.3037,16.8704 -4.4732,16.3985 -5.6347,15.8205 -4.7464,3.7218 -1.9622,11.3662 -4.6368,3.7545 -3.1377,10.4986 7.7745,-14.2531 6.7086,-15.088 0.7645,-12.1929 -5.5109,15.9147 -6.599,15.1207 -7.6006,14.2303 4.4629,-3.7317 -8.7284,13.3205 4.2655,-9.5888 -8.5969,3.5884 7.1833,-14.2002 1.4136,10.6118 -8.5586,13.2281 -0.038,-9.6397 -8.071,13.1396 m 1.9881,-23.9887 5.6452,-15.172 -18.017,2.9389 m 12.3718,12.2331 13.2662,-3.3511 9.0142,-3.6185 -2.7908,-11.5327 9.3898,-3.588 -4.1625,-12.4126 -5.2273,16.0006 -6.2234,15.1512 -7.621,-11.8209 4.7488,-16.0803 9.0956,12.75 -13.8444,3.3303 m -10.7099,-30.1233 2.3928,-17.571 m -10.095,-27.951 -4.9185,-4.0226 -3.4263,-4.784 -3.6313,-5.0699 27.8259,-2.6993 4.7134,4.8787 4.442,4.5979 6.8808,4.0995 m -6.8808,-4.0995 -29.9237,3.0766 m -7.0576,-9.8539 -5.3462,-12.2371 33.1721,9.5378 15.1788,2.9989 14.0158,2.7691 -20.0392,3.7086 m -9.1554,-9.4766 18.7487,-3.2635 5.3816,4.653 5.0643,4.3785 7.2157,3.5204 5.0212,-0.6085 -0.4536,9.6284 -5.4215,-8.6571 -3.3748,1.441 m -2.987,-5.3242 15.0397,1.0161 2.2476,-1.5256 -0.4799,9.997 -2.3202,-8.0968 -2.2503,1.5212 m 5.0504,-3.4214 -8.1053,-3.5085 -9.182,4.018 m 3.9144,-8.1647 -5.6069,-4.4136 -8.7534,3.5468 -7.9261,-11.4946 16.6795,7.9478 -8.2821,-11.0648 -8.3974,3.117 -4.92,-13.1782 8.1887,-2.7488 5.1287,12.81 -13.3174,-10.0612 -1.6039,-13.9927 9.7926,11.2439 -1.6957,-13.6987 -8.0969,2.4548 1.8427,-13.9042 8.2004,-2.2283 -1.9462,13.6777 -6.2542,-11.4494 5.1629,-12.9047 3.0375,10.6764 5.3824,-12.7449 -8.4199,2.0685 8.1714,-11.044 8.7856,-1.9681 -8.5371,10.9436 -0.2485,-8.9755 10.6831,-8.4085 9.2212,-1.931 -11.1187,8.3714 m 1.8975,-6.4404 -20.1579,1.7829 9.4748,6.6256 -18.8402,1.8113 10.6688,9.2327 -17.816,1.8981 12.6531,11.0066 -17.1646,2.0426 -1.6024,14.1083 16.9243,-2.2467 m 1.6039,13.9927 -17.1337,2.5195 22.0537,10.6587 -17.7544,2.8599 25.6805,8.6347 m 8.7534,-3.5468 -1.2721,-3.5637 5.4353,4.1797 5.0984,3.9205 1.6129,4.0238 -5.2676,-4.1467 m 5.2676,4.1467 7.6119,0.7228 m -19.7585,-12.8468 -7.01,-7.5011 -1.0284,-3.1392 8.0384,10.6403 m -26.23,10.374 -6.9318,-11.8982 -4.2993,-13.5186 -1.3945,-14.2655 -24.9117,1.8528 26.3062,12.4127 -25.2393,2.0775 29.5386,11.4411 -26.2403,2.3604 -3.2983,-13.8015 -1.0669,-14.4902 1.2255,-14.2768 23.6862,12.424 m 1.6024,-14.1083 4.5115,-13.0492 7.1472,-11.1308 9.3654,-8.4369 7.0824,-3.3293 -6.8527,-0.1307 -11.7158,0.4573 -4.2193,0.3587 15.7054,2.644 -30.1201,1.4794 5.5829,-3.3719 8.8318,-0.7515 m 4.2193,-0.3587 1.1491,-143.769597 -13.1751,-0.364 -1.0251,145.243797 -14.2392,-0.141 0.8778,-145.422897 -15.452,-0.2713 -0.7223,146.194697 15.2965,-0.5005 m 8.6563,3.5129 -7.2202,8.456 -35.2019,1.0493 29.6899,10.1498 -33.0257,1.0967 29.5653,12.07 3.4604,-13.1667 21.8282,11.4824 -25.2886,1.6843 -31.6642,1.1766 -0.7404,14.3935 -35.0314,0.6086 -36.0136,-0.1335 -0.3444,14.7083 -33.6175,-15.5716 33.9619,0.8633 -34.8818,-15.221 34.4805,0.7865 0.4013,14.4345 36.1573,14.8561 37.5365,13.3192 -37.0315,0.7779 -0.505,-14.0971 -0.1437,-14.7226 -36.4149,-14.568 -37.1212,-14.0092 -30.8665,-1.2773 33.5072,14.5 0.9199,14.3577 -29.1436,-1.5075 -1.1963,14.4175 -3.7081,13.7096 -23.2856,-2.5662 -7.3804,11.7609 -15.165,-3.394 -5.5053,4.5682 -5.1779,4.2964 -8.0015,3.7044 -2.1616,-1.0884 m -0.5175,-0.2606 3.1589,11.4921 9.9097,2.9589 14.9631,2.7562 -0.384,-9.8899 8.6335,0.7784 11.4244,11.5539 -0.3567,-10.5486 10.3994,1.0794 13.7667,11.5006 28.0055,19.8718 29.84,18.8597 29.6693,0.374 28.8199,16.7613 -28.7839,0.364 -29.7053,-17.4993 0.9429,17.1128 1.1807,16.2519 27.6113,0.3981 -28.792,-16.65 28.7624,0.3865 27.6648,15.8904 1.1191,-16.2544 25.4884,15.1382 2.1922,-16.2313 m -26.1274,-33.8571 -30.3719,0.3299 v 17.859 l -30.3695,-18.2093 -29.9808,-19.373 29.5443,0.9493 0.4365,18.4237 30.3707,0.3503 -0.023,-18.4446 30.3949,18.1147 m -30.3719,0.3299 -30.8072,-18.774 -16.695,-10.968 -13.0362,-0.1564 0.1869,10.1751 0.841,18.3486 29.1398,1.0244 0.7002,17.8353 -28.4857,-1.0766 29.4286,18.1894 -27.6179,-1.1196 -1.8107,-17.0698 -1.3543,-17.7831 -26.7942,-1.6381 28.1485,19.4212 -26.2322,-1.7317 2.6175,17.0024 25.4254,1.7991 -28.0429,-18.8015 -22.9964,-2.3072 25.6139,19.3096 -22.3236,-2.3929 -3.2903,-16.9167 -19.0284,-2.7798 22.3187,19.6965 -18.5015,-2.8911 -3.8172,-16.8054 -2.7962,-17.4143 19.3969,2.6301 25.4241,19.8712 -1.9163,-17.6895 -1.2113,-18.2337 27.1645,1.5232 -16.1268,-11.7116 2.2582,-0.015 13.6817,1.5518 m -9.9489,-5.6777 -3.7328,4.1259 m -2.2582,0.015 -8.8658,0.065 -2.436,0.018 0.2641,10.106 -23.8094,-2.0314 -19.6739,-2.4424 1.7899,17.8957 21.8246,20.1941 -2.4277,-17.564 23.5078,2.1817 -25.0207,-20.2651 1.5129,18.0834 -21.1868,-20.5258 m -0.384,-9.8899 -7.5863,-2.115 -6.0665,-0.4177 -3.3143,-7.14 -5.1992,-4.0567 -7.4718,3.1479 m 0.1461,-0.5596 11.884,-6.1185 m 0.2388,-0.185 -7.0076,2.8756 -2.2017,1.4325 -2.8814,1.8736 m -0.2766,2.9029 0.4501,9.48 4.7976,3.0548 -0.4791,-10.143 4.3209,1.4528 6.0679,11.6491 -0.4228,-9.7594 -5.6451,-1.8897 m 3.6799,-5.1573 2.7624,-6.1001 2.8749,-6.3489 -5.5889,4.3283 -5.2476,4.064 m 5.1992,4.0567 16.1328,3.8538 11.6172,6.7923 8.9169,0.81 5.9517,-4.2654 -26.4858,-3.3369 4.7125,-4.5229 5.0029,-4.8015 -7.0446,-14.738 -8.1204,11.344 -5.0459,-3.5844 8.2535,-10.9108 4.9128,3.1512 0.2267,-15.8306 4.82,2.7817 1.6347,-13.8904 12.3038,16.5148 -13.9385,-2.6244 -5.0467,13.0489 14.425,2.9771 4.5602,-13.4016 18.7254,15.9678 -5.9888,12.125 -17.2968,-14.6912 -9.3783,-16.026 m -4.82,-2.7817 -5.1395,12.6794 -3.2076,14.4952 m 5.4496,12.7184 -6.752,3.7039 m -6.9928,9.2487 1.9689,17.6873 14.7841,2.9646 m -14.7841,-2.9646 3.0838,17.2456 4.1943,16.6786 14.1194,3.2601 4.7632,16.0745 22.7262,18.1475 20.4769,2.4603 26.3409,15.9215 -21.9133,-1.82 -4.4276,-14.1015 23.265,1.8433 25.2139,1.1463 1.6054,14.0604 24.6898,0.3931 23.011,12.4368 -22.9808,0.3539 -0.03,-12.7907 -26.2952,-14.4535 26.2384,0.3954 -27.6345,-15.6127 1.3961,15.2173 -27.9272,-16.3564 2.7133,15.2101 26.8193,15.2067 24.72,13.1838 -22.933,-0.3752 1.9568,11.4565 -24.012,-12.554 22.0552,1.0975 22.9987,11.8154 m 0.037,10.0013 16.8854,8.2333 -1.6824,5.3994 m 1.6824,-5.3994 -16.811,0.2853 0.03,5.3764 -3.8566,-0.07 m -2.8345,0.2016 8.5984,0.056 m -1.937,-5.5647 -0.074,-8.5186 m 0.074,8.5186 -16.8327,-0.3 1.7945,5.4 m 0.01,0.1905 -10e-4,-1.2224 m -0.1774,1.2178 0.1031,79.1402 m -8.3263,-0.48 -0.1513,-79.0544 -8.0916,-0.5504 0.1978,78.9346 m -7.6917,-0.8693 -0.2419,-78.7793 -7.3354,-0.8576 0.2835,78.5926 m -6.7541,-1.2174 -0.3215,-78.3749 -6.2358,-1.1226 0.3561,78.1304 m -5.5493,-1.503 -0.3866,-77.8616 5.5798,1.2342 m 2.1109,0.077 2.5995,0.5432 m -2.5995,-0.5432 -15.0078,-7.5476 -9.2391,-9.1905 20.4754,11.5085 -7.8585,-8.9711 21.2301,10.8721 -6.2047,-8.7768 16.939,1.5599 18.2781,0.9692 2.2211,8.5515 -20.4992,-9.5207 m 4.2829,8.6365 3.4798,5.4837 10.8096,0.5945 m 3.5476,0.3919 -8.3745,-0.3942 m -5.9827,-0.5922 -3.4536,-0.3314 m -0.026,-5.1523 -21.2219,-10.1964 -22.4357,-12.4593 -6.8646,-11.7142 17.9906,2.3568 20.4153,1.7645 3.7589,11.5123 -18.7218,-1.6747 -23.443,-13.9589 -6.3023,-12.9662 -5.5848,-14.1339 24.9045,16.5618 -19.3197,-2.4279 -22.598,-17.1066 6.5263,14.1664 -12.3941,-3.3291 8.0892,13.1446 11.6206,3.2377 -7.3157,-13.0532 16.0717,2.9402 24.2929,15.323 -4.9732,-12.8951 25.3885,14.6596 -3.4752,-12.8396 -3.0759,-14.0782 -27.1464,-17.0489 24.4331,1.8388 26.5311,1.1391 -28.7986,-17.3715 2.2675,16.2324 -27.6929,-18.0315 3.2598,16.1927 3.8814,15.2056 -25.3804,-17.6523 4.9035,15.192 -17.0132,-2.9727 -13.0701,-3.3623 7.2023,14.1996 -8.4196,-3.5929 16.5088,16.7375 8.902,11.9897 9.6034,10.7476 -6.7721,-3.1405 -14.1073,-14.4522 3.8776,3.4936 7.3984,3.3515 10.7673,3.0926 21.2845,13.0868 -7.4103,-10.364 16.5784,2.2447 m -16.5784,-2.2447 -13.8742,-2.7228 8.6676,10.5494 m 0.4281,6.5462 8.811,2.6443 m -1.7217,3.4913 0.4345,77.2636 m 4.132,1.7216 -0.4127,-77.5716 -4.1538,-1.4136 m 4.1538,1.4136 4.885,1.3311 m 0.9202,-0.1014 6.7705,1.413 m 11.5202,1.8337 3.0834,0.4446 m 27.8507,2.2828 8.5506,0.2223 0.054,79.1885 m -2.9061,8.484 0.036,39.9958 12.0581,0.1068 m -12.0581,-0.1068 -11.942,-0.4238 -0.071,-39.9616 m -11.7189,-0.6885 0.1051,39.9013 11.6846,0.7488 m -11.6846,-0.7488 -11.3098,-1.0506 -0.1381,-39.8166 m -10.8026,-1.2472 0.1692,39.7071 10.7715,1.3567 m -10.7715,-1.3567 -10.1551,-1.6316 -0.1983,-39.5756 m -9.4339,-1.7283 0.2249,39.4239 9.4073,1.88 m -9.4073,-1.88 -8.575,-2.1186 -0.2486,-39.253 m -7.6747,-2.1366 0.2695,39.0654 7.6538,2.3242 m -7.6538,-2.3242 -6.6449,-2.5044 -0.2871,-38.8632 m -5.6309,-2.4345 0.3014,38.6493 5.6166,2.6484 m -5.6166,-2.6484 -4.5104,-2.7684 -0.3124,-38.4255 m -3.4013,-2.6235 0.32,38.1949 3.3937,2.8541 m -3.3937,-2.8541 -2.2448,-2.9057 -0.3243,-37.9599 m -1.136,-2.6976 0.3253,37.7224 1.135,2.9351 m 31.9026,-117.4283 -10.2596,-9.4406 m -6.7721,-3.1405 -3.6322,-3.2819 -10.4751,-11.1703 -9.6407,-12.2915 4.1006,3.6409 7.9141,3.506 m -7.9141,-3.506 16.8161,15.4957 m 2.8313,7.6071 17.0317,12.5811 m 4.7785,-14.3728 -21.9229,-14.5674 15.0583,2.8532 -22.374,-15.9064 m -12.3941,-3.3291 -16.0252,-17.8242 8.8229,3.6246 -6.2739,-15.1474 13.631,3.3349 5.713,15.1748 m -13.0701,-3.3623 -15.4408,-18.7436 9.1669,3.5962 -5.2516,-15.9997 -13.8651,-20.0493 9.6708,3.3707 14.4965,3.1333 m -14.4965,-3.1333 -12.9279,-20.4282 3.2571,17.0575 4.4105,16.5384 9.4546,3.5109 m -9.4546,-3.5109 -9.1287,-20.021 4.5034,16.3932 4.6253,3.6278 5.5393,15.9144 6.6179,15.119 7.6056,14.2313 8.5947,13.2315 9.4177,12.1442 -13.5183,-15.7851 -8.7619,-13.3235 4.2678,3.7329 -12.0358,-17.9901 7.768,14.2572 12.8625,16.9644 m 19.5347,6.7437 8.0487,11.8446 m 41.9403,-17.7097 23.7434,1.1285 1.787,12.8086 -25.5304,-13.9371 m -30.2223,-31.1271 -21.499,-2.4467 -17.8227,-2.9555 m 17.8227,2.9555 -4.0844,-16.1389 25.5834,18.5856 m -55.5017,2.7857 -11.1526,-18.8437 4.5347,3.7247 -10.1646,-19.5422 5.6299,15.8175 6.7224,15.0849 4.4302,3.7588 m -16.5677,-47.5718 -4.7182,-3.4826 -3.2855,-16.8646 4.7466,3.2897 9.8441,3.1826 -11.8786,-20.6462 2.0345,17.4636 -6.8321,-20.5184 2.0855,17.2287 8.0037,20.3472 m -8.4505,-46.0132 -2.0888,-1.0427 m 38.6176,-6.7833 24.6772,2.9303 -4.069,5.0077 -3.8378,4.7233 35.2445,2.5161 26.2284,5.8724 -3.2433,-0.038 m 3.2433,0.038 13.348,0.1559 13.498,0.3776 m -11.7894,-4.9625 -41.285,-1.4434 2.6011,-4.8777 2.755,-5.1663 38.1986,1.2632 1.7109,-12.565 38.0577,0.1706 40.2682,11.6972 -3.2367,-12.4751 -2.0023,-14.0023 -35.5342,0.6831 -36.5017,-0.1478 -1.051,14.0743 38.8533,12.76 -0.7956,-12.5894 -37.0067,-14.2449 -34.4091,-0.97 -2.5098,13.9422 35.8679,1.1021 -33.3581,-15.0443 -29.5483,-1.6916 -22.4335,-2.2582 1.4733,-14.173 -15.6661,-16.1664 -10.2255,-14.9404 4.9211,2.0911 5.3044,12.8493 1.889,13.8246 13.7771,2.3418 -1.7039,-14.0388 -13.9622,-2.1276 -4.8246,-2.2549 1.926,13.5974 -1.6671,13.5908 m 6.4547,-11.1087 -4.7876,-2.4821 m -1.926,-13.5974 -5.4009,-12.6855 -8.5143,-10.9068 13.4354,12.9979 -8.3789,-11.0091 -5.0565,-1.9888 -11.0843,-8.3571 16.1408,10.3459 -10.9307,-8.3965 -5.2101,-1.9494 m -0.058,-1.4601 6.1025,0.5952 7.7239,1.2589 7.6632,3.4079 -16.2215,-1.8525 -8.2342,-3.3657 2.8797,-0.043 21.576,5.2607 9.9435,8.4276 7.6168,11.1013 4.7944,13.0011 -19.2666,-14.9769 14.4722,1.9758 -22.8511,-12.9849 15.2343,1.8836 30.9881,12.8047 3.8993,13.1285 -22.4762,-1.8308 23.8604,16.0525 -22.1565,-2.0137 20.9602,16.4312 27.0385,15.6338 34.157,13.6671 m -1.1098,4.9993 v 1.5246 m -37.0922,-7.7871 -32.6938,-2.2031 13.9763,6.2614 13.3614,5.9857 m 5.3561,-10.044 -26.705,-14.3281 30.7466,1.9242 -4.0416,12.4039 m -22.6489,14.2676 -13.5026,-1.3946 m 14.3509,-55.3282 -1.3842,-14.2217 -27.2706,-14.8319 23.3713,1.7034 -6.1825,-11.178 -24.8056,-1.6267 m 2.4535,-11.0542 8.1276,0.9191 4.0903,-0.1676 -1.1544,-144.436097 13.6383,-0.3479 1.018,144.922697 -8.8952,-0.091 -4.6067,-0.047 m 2.0392,3.4796 35.4842,1.21 5.4855,8.4629 38.4172,0.7014 1.7694,11.2625 -36.0123,-0.7317 2.6407,13.2227 -29.6079,-1.3715 m -10.0818,-24.3065 37.049,12.4553 -4.1743,-11.2322 40.1866,11.9639 1.1089,13.2775 36.5783,0.1198 -0.1634,14.4482 m 0.1634,-14.4482 -37.6872,-13.3973 38.2128,0.1133 -0.5256,13.284 35.6084,-0.5539 30.4387,13.1002 -31.1791,1.2933 0.6465,14.6481 31.5995,-1.4512 -32.246,-13.1969 m 0.7404,-14.3935 -35.0828,-12.7301 -39.9822,-11.3758 -2.3263,-8.47 -41.5764,-0.6943 -4.1542,-3.2814 -5.2296,-0.481 -0.8724,-146.011997 -14.7833,0.3008 m -13.6383,0.3479 -12.3341,0.3893 1.2706,143.295297 -10.7852,-0.7164 -1.3704,-142.153597 10.885,-0.4253 m -10.885,0.4253 -9.3641,0.4553 -7.7833,0.4794 -6.1513,0.4981 1.4813,138.803097 m -4.3585,-0.5374 -1.5998,-137.754297 -2.8072,0.5181 1.6085,136.164497 2.7985,1.0717 m 10.5474,1.1313 -1.5189,-139.895097 m -6.1513,0.4981 -4.477,0.5114 m 18.4116,-1.4889 1.4595,141.633397 6.2484,0.043 3.0266,0.021 m -3.0266,-0.021 28.0689,4.9689 40.9697,9.6729 -32.8747,-1.2231 -8.095,-8.4498 -26.6541,-1.6045 m 20.5246,-1.7075 6.1295,3.312 m 11.4627,-3.3409 14.6377,0.7885 m 5.2296,0.481 10.2161,-0.3099 35.5145,4.2856 -1.7982,-3.344 -17.0709,-0.7986 -16.424,-0.1497 -0.7105,-146.427097 16.5951,-0.1968 0.5394,146.773597 m 17.0709,0.7986 -0.362,-147.711397 -17.2483,0.1392 m -16.5951,0.1968 -15.829,0.2507 m 49.6724,-0.5867 17.6545,-0.08 0.1766,147.300897 -5.6767,0.1587 -11.7924,0.3314 m 1.7982,3.344 44.1996,0.1074 -34.2054,-3.7828 m 5.6767,-0.1587 17.6223,0.1554 11.7311,0.5205 5.8942,-0.3854 5.9512,-0.1758 11.3663,-0.3356 0.3777,-146.954097 -17.4991,-0.1022 -0.1961,147.567697 m -5.8942,0.3854 -0.8247,3.2656 -1.0738,8.4709 -40.7995,-0.1083 m 30.9669,-12.1487 0.01,-147.474497 -17.8085,0.018 m 17.8085,-0.018 17.8118,0.042 m 17.4991,0.1022 17.0447,0.1615 -0.5553,146.923797 -16.8671,-0.1312 m 16.8671,0.1312 5.4128,0.2559 10.468,-0.7448 24.2642,2.9902 -38.0504,1.0383 -4.3717,8.467 -3.3358,11.2465 -2.0989,13.2466 m 2.0989,-13.2466 -37.1817,0.5165 0.8173,-11.2675 36.3644,10.751 m 3.3358,-11.2465 -39.7002,0.4955 m 1.0738,-8.4709 38.6264,7.9754 m 4.3717,-8.467 -42.9981,0.4916 m 42.9981,-0.4916 3.3182,-3.2837 m 27.512,10.7014 -5.512,11.1991 26.3397,-1.5668 -20.8277,-9.6323 27.9749,-1.4985 m 9.5951,-11.8969 1.2622,-142.909097 -11.8289,-0.4032 m 11.8289,0.4032 10.3606,0.4378 -1.359,142.046497 -3.4111,0.5555 m 3.4111,-0.5555 3.0058,-0.3466 5.725,-0.6605 7.109,-0.3422 1.4955,-139.744697 -7.1717,-0.487 -1.4328,140.573897 m 10.1548,1.178 2.3725,-2.3984 m 0.077,-0.021 3.8615,-0.8498 1.5576,-136.977297 -3.8842,-0.5136 -1.5349,138.340697 m -2.4493,2.4195 8.5116,-3.4503 1.5711,-136.276797 -2.2143,-0.5195 m -3.8842,-0.5136 -5.5345,-0.5047 m -7.1717,-0.487 -8.8046,-0.4655 m -35.3646,-1.205 -14.3865,-0.3201 m -15.452,-0.2713 -16.3592,-0.218 m -8.361,212.465097 34.8978,12.3503 -32.8955,1.652 38.2417,10.5851 -35.005,1.89 m -111.684,-26.9121 0.7916,-14.6016 m 103.0507,178.4527 20.5052,-1.7401 m -5.3678,11.5946 -15.1374,-9.8545 m -3.6821,11.5131 -3.9626,10.0936 10.8925,7.2332 m -10.8925,-7.2332 -16.342,-9.0752 20.3046,-1.0184 m -3.9626,10.0936 -18.3457,0.9498 -2.1094,8.5446 m 2.1094,-8.5446 14.146,7.6885"
     style="fill:none;stroke:#000000;stroke-width:1.3;stroke-miterlimit:4;stroke-dasharray:none"
     id="path858" />
  <path
     d="m 1005.9407,318.24442 -25.13073,-0.033 -0.7022,-17.8187 26.57883,0.035 -0.7459,17.816 -0.8506,17.433 20.3152,18.4769 -3.0081,15.9717 -19.2522,-1.4267 16.0465,16.5081 3.2057,-15.0814 18.2554,2.7571 -15.2473,-18.7288 -21.2481,-1.5956 18.24,17.5673 13.0244,17.4977 5.4093,12.2472 m 2.6371,0.6328 0.7126,63.5671 m -1.2303,-0.2137 0.4475,41.1299 11.5325,1.8843 10.8299,2.241 9.9927,2.5902 9.0942,2.883 8.0748,3.1539 7.0249,3.3764 5.8465,3.5713 4.6885,3.7199 3.4955,3.8173 2.2665,3.8911 1.048,3.9172 -0.1794,3.9041 -1.3378,3.8539 -2.5058,3.768 -3.6076,3.6487 -4.6646,3.4913 -5.646,3.3212 -6.5517,3.1155 -7.444,2.8815 -8.1981,2.6367 -8.9097,2.3644 -9.5125,2.0873 -10.0625,1.7771 -10.5125,1.4725 -10.846,1.1561 -11.1397,0.8269 -11.3224,0.4952 -11.41493,0.1545 -11.4171,-0.1749 -11.3299,-0.5155 -11.1518,-0.847 -10.8631,-1.1756 -10.5341,-1.4916 -10.0881,-1.7957 -9.5424,-2.1049 -8.9435,-2.3812 -8.2351,-2.6525 -7.4838,-2.8959 -6.5946,-3.1287 -5.6907,-3.3328 -4.7108,-3.5013 -3.6553,-3.6568 -2.5541,-3.7742 -1.3863,-3.8579 -0.2276,-3.906 1.0006,-3.9168 2.2204,-3.8883 3.451,-3.8119 4.6462,-3.7121 5.8065,-3.5611 6.9882,-3.3636 8.0407,-3.1388 9.0638,-2.8656 9.9659,-2.5708 10.8068,-2.2197 11.5136,-1.8613 12.0627,-1.4756 12.532,-1.0632 12.8341,-0.6399 12.9871,-0.2 12.98893,0.2264 12.8405,0.6659 12.5428,1.0886 12.0777,1.4998 m 11.5325,1.8843 -0.5725,-41.0327 10.7135,2.3568 0.6889,40.9169 m 9.9927,2.5902 -0.7948,-40.7829 8.9993,3.0325 0.8897,40.6334 m 8.0748,3.1539 -0.9724,-40.4695 6.9547,3.5522 1.0426,40.2937 m 5.8465,3.5713 -1.0991,-40.1072 4.6453,3.9146 1.1423,39.9125 m 3.4955,3.8173 -1.1723,-39.7123 -3.4655,-4.0175 m 3.4655,4.0175 2.2501,4.0958 1.1887,39.5076 m 1.048,3.9172 -1.1922,-39.3009 -1.0445,-4.1239 m -10.3609,-12.0279 -5.79,-3.7578 m -6.9547,-3.5522 -7.9921,-3.3178 m -2.7391,-0.923 -1.0005,-47.2753 -0.8876,-3.238 1.0518,50.2315 m -1.7127,-0.5771 -1.0827,-52.8634 1.7436,3.209 m 0.2685,0.9793 6.9106,-10.8143 -5.0686,-6.1725 -7.863,-5.782 -2.4795,12.0413 m 0.5101,0.3551 1.0794,57.1713 m 2.2704,0.6256 -9.8868,-2.7242 m -1.6244,-0.3573 -0.9898,-60.3621 -5.6859,-2.5587 0.9155,61.6536 m -3.3289,-0.7323 -11.4075,-1.9815 -11.9457,-1.5771 0.3155,41.2072 m -12.5428,-1.0886 -0.1776,-41.2632 12.4049,1.1446 m -2.5462,-0.2349 -0.4519,-64.8611 -8.3395,-1.1898 0.3052,65.2678 m -1.3725,-0.1266 -12.6989,-0.7003 0.036,41.2976 m -12.98893,-0.2264 0.1074,-41.3092 12.84553,0.238 m -3.6794,-0.068 0.01,-65.7733 8.809,0.5285 0.1511,65.6047 m -18.02803,-0.5278 0.1692,-65.7888 -8.8974,0.1624 -0.3302,65.771 m -3.8916,0.064 -0.2508,41.2989 m -12.8341,0.6399 0.3922,-41.266 12.6927,-0.6728 12.8437,-0.2103 m -17.915,0.4791 0.4883,-65.5959 -8.6214,0.8517 -0.6404,65.2521 m 1.1521,-0.1039 -12.3947,1.118 -0.5295,41.2112 m -12.0627,1.4756 0.6609,-41.1352 11.9313,-1.5516 m 2.7686,-0.2497 0.7847,-64.8462 8.3297,-1.1703 m -1.3071,0.1837 -14.4278,-8.5925 16.211,-2.3777 2.5792,10.4847 m 5.5661,-0.5499 8.8048,-0.5077 m 1.0403,-0.019 -0.8654,-10.5997 17.44843,0.021 -0.8642,10.5974 m 1.037,0.021 -8.89873,-0.1834 m -12.3539,0.3617 -13.4936,-9.6264 17.125,-1.1916 -1.0805,-15.2785 19.61723,0.024 1.0122,-16.1406 0.9329,-16.8813 -23.46433,-0.03 0.907,16.8843 0.995,16.1437 -22.2318,-14.6009 21.2368,-1.5428 21.62443,0.027 m -1.0122,16.1406 -1.0883,15.2756 10.1056,11.2608 m -1.1238,-0.1136 8.6285,0.8721 m -3.0214,-0.3054 2.5459,-10.4814 7.8603,11.8404 m 0.9547,0.1362 7.9614,1.52 0.5887,64.309 m 14.6681,2.2813 -0.8221,-62.7078 -6.9346,-2.0828 -7.5001,-1.7997 m -4.6672,-0.891 4.1209,-10.1893 14.775,3.4752 2.778,12.429 m -2.572,-0.9414 6.3686,2.3308 m -0.3738,-0.1368 6.6744,-9.2621 -12.8752,-4.4195 7.0278,-14.2293 -16.5718,-3.9865 4.8508,-15.6253 18.2253,4.4775 -6.5043,15.1343 5.8474,18.6488 8.53,-13.5974 -14.3774,-5.0514 m 14.3774,5.0514 7.9198,-14.5101 12.8341,6.6547 -9.0395,13.7891 -3.7946,-20.4438 -15.7929,-5.6756 7.8731,20.1857 11.7144,5.9337 8.7458,6.5903 9.8167,-13.0074 -4.2701,20.0378 -5.5466,-7.0304 -5.5527,18.2358 11.0993,-11.2054 10.2684,-12.1902 9.2949,-13.0589 2.4854,8.8459 8.3417,-13.0599 -2.5076,-9.5949 -5.8341,22.6548 -9.405,12.2645 6.9196,-21.1104 8.3195,-13.8089 7.1737,-14.4334 6.068,-14.9246 2.5952,10.9348 -6.1021,14.2851 3.5069,-25.2199 4.8601,-15.3167 2.6153,11.5093 -4.8802,14.7422 -1.9196,10.788 -5.9488,13.6793 1.7663,-10.1822 -2.5611,-10.2953 -4.6661,24.0283 7.2272,-13.733 m 4.1825,-3.4971 4.7497,-14.1832 2.0501,-11.347 3.6721,-15.0283 -2.6274,-11.9965 -7.5234,-11.7757 -12.3959,-11.1525 -16.9974,-10.1074 -21.1446,-8.6763 -23.4608,-24.204 -27.7571,-4.9586 26.555,22.2797 -1.8121,17.6015 24.0644,6.5738 -22.2523,-24.1753 -27.316,-4.7757 25.5039,22.3772 -26.6171,-4.572 1.1132,-17.8052 0.761,-17.504 -29.4443,-2.5457 -30.01533,-0.043 0.2193,17.5851 -28.9619,2.3846 29.2971,15.5317 -0.3352,-17.9163 -29.6504,-15.1239 0.6885,17.5085 1.0472,17.8106 28.2499,-2.2789 0.4712,18.0794 -27.2754,2.1554 27.8431,15.8931 -26.0777,2.0157 26.7799,15.803 -24.6598,1.8617 -2.1201,-17.6647 -1.7654,-17.9088 -25.7146,4.2633 27.48,13.6455 -24.602,3.986 26.7221,13.6787 -23.273,3.6974 -3.4491,-17.3761 -22.2396,5.7804 25.6887,11.5957 -21.0727,5.3577 -4.616,-16.9534 -3.8761,-17.2519 26.1157,11.4715 -2.878,-17.6315 -23.2377,6.16 -3.109,-17.3701 -2.3442,-17.3041 24.6232,-6.8159 1.7459,17.6104 26.5907,-4.4995 -28.3366,-13.1109 27.2894,-4.6997 -28.419,-12.6284 27.7305,-4.8801 29.4311,-2.4612 -29.7431,-14.5817 0.035,-9.4346 12.9575,-0.9086 16.6654,7.7974 0.026,-8.9663 2.7688,-0.1278 12.3616,-0.5713 15.12593,0.7434 -0.019,8.9664 -0.163,17.1264 28.6833,20.0497 -28.9751,-2.4662 -0.4015,17.9145 -28.76753,-0.04 m -0.3352,-17.9163 29.50423,0.042 27.8619,20.2714 -28.2634,-2.3569 -0.5306,18.0772 -0.6192,18.0462 23.9266,19.7417 -24.6725,-1.9257 22.2056,19.2123 -23.0562,-1.7793 m 23.0562,1.7793 -2.741,16.6976 20.0981,3.1035 4.4169,-16.372 19.7708,4.9617 17.064,6.2647 -7.2335,15.2987 -9.8305,-21.5634 -5.9624,15.8878 -13.8084,-20.8495 -21.774,-3.4291 2.4669,-17.2866 2.1638,-17.6569 21.134,21.4141 -23.2978,-3.7572 19.3071,20.7157 3.9907,-16.9585 3.4939,-17.3637 17.6159,22.7746 4.6617,-16.9369 19.1701,7.3708 -5.6439,16.4142 -13.5262,-23.785 -22.2776,-5.8377 -24.6279,-4.0504 -26.0904,-2.0848 m 0.6192,-18.0462 -27.76573,-0.038 0.5677,18.0485 m 0.7022,17.8187 0.8158,17.4357 -23.0441,1.7208 -25.7045,-13.5974 3.9543,16.9717 24.4645,13.332 -2.7143,-16.7063 -2.4315,-17.2948 25.4756,15.574 m 0.907,16.8843 -23.9511,-15.1635 -21.7502,3.3743 -19.7355,4.9128 24.1244,11.473 -18.1922,4.4333 -5.9322,-15.9063 -5.2915,-16.5268 25.027,11.614 4.3889,16.3858 20.0756,-3.0538 2.9903,15.9806 19.2415,-1.3797 m 1.0805,15.2785 -20.322,-13.8988 -23.0659,-12.9268 4.8315,15.6396 18.2344,-2.7128 3.197,15.0904 -21.4314,-12.3776 -16.541,3.9471 -6.4827,-15.1534 -15.7494,5.6382 22.2321,9.5152 -14.3372,5.0178 -7.8949,-14.533 -12.7816,6.6253 20.6765,7.9077 21.3516,9.2309 14.8527,7.5173 m -0.6496,0.1227 -0.9181,64.2855 m -6.6174,0.8606 -11.3893,1.9573 -0.7852,41.0392 m -10.8068,2.2197 0.9006,-40.9245 10.6914,-2.3344 m -3.0554,0.6671 1.2292,-61.6049 -5.6638,2.546 -1.2963,60.3102 m -1.9051,0.416 -9.8611,2.7039 -1.0054,40.7914 m -9.0638,2.8656 1.0991,-40.6429 8.9701,-3.0141 m -0.801,0.2691 1.3683,-55.037 -2.5283,3.1366 -1.7139,3.2059 -1.3014,50.0975 m -0.7899,0.2655 1.2342,-47.1261 0.8571,-3.2369 m 0.4622,-0.8645 -9.6907,-2.633 2.0513,-6.3567 11.5196,3.4221 m -0.1002,0.09 3.3939,-3.0354 -1.3676,57.0921 m 4.1792,-1.1459 1.3436,-58.8474 4.9461,-2.7256 m 3.1229,-1.4038 -14.2117,-5.3735 10.4617,-5.1844 14.8157,6.4491 m -2.176,0.6503 6.9173,-2.067 7.4849,-1.7823 7.9491,-1.5014 m -3.2715,0.6179 -4.1337,-10.197 -14.747,3.4405 5.4941,9.7881 m 1.2241,-0.3658 -1.0377,63.5334 m -7.0217,1.2068 1.1421,-62.6732 -6.3488,2.3163 m 0.4002,-0.146 -6.6911,-9.2697 12.8388,-4.3899 -7.0144,-14.2487 21.7614,10.8082 -5.2204,-14.7553 m -23.0237,-11.2063 -22.9503,-9.6826 7.2009,15.3208 -20.9562,-8.0086 13.7553,-7.3122 17.0181,-6.2237 -23.4313,-9.7233 18.1398,-6.8035 -23.7362,-9.6304 5.5964,16.4339 -20.9986,-7.8585 15.4022,-8.5754 19.1202,-7.323 -23.8122,-9.4319 -3.7864,-16.9446 23.7225,9.1246 -19.9361,7.82 4.692,16.7549 -20.754,-7.6218 5.3518,16.1972 6.3318,15.8222 -17.6167,-6.3276 6.8528,15.1567 10.7639,-8.8291 14.6668,-7.9637 6.4132,15.947 -21.08,-7.9833 7.3247,15.2955 8.1746,14.6339 -18.3446,-6.5155 8.8822,13.8669 9.4624,-7.3514 9.0107,13.815 11.6658,-5.9073 8.5128,13.6208 -20.1786,-7.7135 -8.6901,6.5714 -9.783,-13.035 -15.1818,-5.25 6.2996,-8.6169 10.17,-8.1184 -18.0886,-6.4664 -13.7681,-5.0903 6.9153,-10.0664 11.2849,-9.4946 -17.0501,-6.0876 11.6983,-10.1096 16.062,-9.1331 -20.337,-7.3041 -3.2057,-16.5046 19.7563,6.8641 20.6135,-8.2455 24.0249,-6.5096 -26.3691,-10.7945 -21.0923,8.6206 23.4365,8.6835 26.3467,11.2101 -2.3218,-17.7197 28.0364,13.4564 -1.4457,-17.9559 m -28.3366,-13.1109 -1.1296,-17.3281 -0.5396,-16.9236 0.045,-8.902 12.2894,-2.4317 15.6241,6.3343 29.6581,-2.5458 0.085,17.1275 m -0.085,-17.1275 30.26333,0.044 29.6714,2.6325 0.014,-9.4329 12.2809,2.4636 15.6893,12.0494 v -8.8998 l 2.2898,0.541 8.279,1.9556 14.6544,13.7185 20.7028,25.7075 -1.938,16.7756 -2.8899,16.9151 -18.2547,-25.5914 -24.6629,-6.8829 1.2021,-17.3211 0.6174,-16.9181 -27.9844,-5.0801 -16.5471,-10.6417 3.2386,0.2362 13.3206,0.9723 m -1.3438,-0.098 -4.3349,-1.0572 -2.4812,-5.7009 36.3784,12.5279 m -0.2462,-0.058 -15.6893,-3.1496 m 13.0906,-2.268 18.5892,9.5704 m -3.3246,-1.1613 12.5608,4.3873 v 8.8363 l -0.8045,16.728 -25.0361,-7.1252 -27.367,-21.9982 -0.3901,17.0396 -29.2813,-19.6721 m 0.019,-8.9664 13.1052,0.9572 m 8.3993,-5.6477 33.5335,7.0521 4.5773,5.885 m -4.5773,-5.885 27.9028,10.963 3.0029,3.092 m -3.0803,-1.2586 9.5964,3.921 12.0372,14.1371 -21.6371,-9.2218 -25.2232,-7.3153 24.4187,24.0433 21.5073,8.9795 15.0594,26.883 2.1737,-16.403 -17.2331,-10.48 0.9343,-16.4857 -0.01,-9.222 -9.6621,-3.9476 -2.3672,-0.9675 m -2.7664,-1.1303 -6.7526,-4.6241 -4.2237,-9.408 -26.7286,-10.5737 30.9523,19.9817 m -4.2237,-9.408 -27.9142,-21.854 1.1856,11.2803 3.0495,9.0187 -35.1163,-15.8236 1.5828,8.7715 -36.52763,-2.4537 -0.041,5.5389 39.04993,2.6157 -39.00883,-8.1546 0.039,-8.6893 36.48863,11.143 m -1.5828,-8.7715 32.0668,6.8049 m -1.1856,-11.2803 26.2641,10.5199 1.6501,11.3341 17.6124,16.7438 m 1.835,-3.3155 2.6353,5.1419 m 3.6893,1.5073 7.6461,4.9792 9.7315,14.9826 12.6412,11.8279 -1.1564,15.9291 -2.3335,16.0244 -3.5452,16.0161 -8.8507,-27.1686 -3.2729,16.4891 12.1236,10.6795 -4.6897,15.8758 7.2382,10.716 -2.5485,-26.5918 7.4086,11.2751 3.66,-15.5155 -5.1899,-27.8001 -12.5557,-11.5311 10.2222,27.5555 3.8634,27.2912 m 6.2874,-3.519 -0.1882,-27.6176 -2.4392,15.6211 -1.0447,27.0248 m 1.5225,-3.205 2.1496,-11.8233 2.4267,-15.2182 -2.6149,-12.3994 -7.6291,-12.179 -11.4848,-27.757 -1.0709,16.2259 -16.2988,-26.9657 17.3697,10.7398 -0.01,-8.654 -9.7221,-6.3286 m -0.3996,-0.2602 13.6118,-11.5621 -9.4057,5.5419 -4.9448,5.5391 m -0.5949,-0.3874 12.5975,-22.4436 -7.0578,17.2919 m -5.2605,2.4368 -2.2261,-15.9967 4.6668,-11.4341 -2.4407,27.4308 -0.312,2.6936 m -1.3338,-0.8686 -0.5803,-17.8217 -1.3353,11.8585 0.9829,5.3558 m 2.5785,-1.2176 4.6565,-10.6424 -2.2158,-16.7884 7.6607,-10.2595 2.2169,17.9616 -7.6618,9.0863 5.4449,-27.0479 10.152,-8.4122 2.1775,19.45 7.842,-2.8595 -1.3287,4.8124 -14.278,16.7209 7.7647,-18.6738 7.2176,-18.784 -4.5423,-107.144097 -2.5505,-8.2976 4.5513,108.014797 0.8828,2.8635 1.6587,4.5634 m 0.049,0.1354 1.0325,7.6497 -0.4574,8.1394 m -1.3287,4.8124 -0.6335,2.2946 -3.3602,7.4596 -3.1516,5.1754 -7.1327,1.7913 m 3.4693,2.5551 2.0787,-2.2503 1.5847,-2.0961 m -3.6634,4.3464 -3.9612,4.2881 -7.2216,6.6941 -1.2702,1.0375 m 6.6463,4.5397 4.1626,3.4812 7.3353,16.0371 7.6505,12.496 -4.2745,-15.6339 -3.3988,-5.4019 0.023,8.5398 6.4727,28.1081 1.1778,-15.6121 2.6536,12.7129 -1.2165,15.2986 -1.4371,-28.0115 -0.014,-8.8781 1.171,5.8652 1.497,15.7258 -0.025,-8.3028 -1.4723,-7.423 m -1.1711,-5.8659 -3.4258,-5.4324 m -4.233,-6.7246 -6.2722,-6.6259 m -21.0931,-19.6266 -10.8998,-15.0591 -18.0904,-25.896 -1.0626,12.5461 -25.4851,-23.3099 26.5477,10.7638 -23.918,-24.2715 -2.6297,13.5077 -0.779,12.79 -31.4799,-6.7567 0.5987,11.2321 -34.90583,-2.3715 0.035,-11.2189 34.87093,13.5904 m -0.5987,-11.2321 0.4155,-12.9598 31.8434,6.9265 -30.4529,-20.8048 33.0826,7.2971 27.5388,11.3467 -3.6208,12.9248 19.3228,13.6723 -15.702,-26.5971 5.9895,-12.5043 -29.1874,-12.2054 23.1979,24.7097 20.0312,14.3796 -4.3292,12.2175 -1.2324,12.2237 -19.153,-13.3499 21.0975,24.7624 -19.4474,-13.4283 m 17.5029,2.0158 1.9445,11.4125 m 10.2906,-8.2119 -11.0027,-15.4243 m 4.3292,-12.2175 -14.0417,-26.8839 7.9746,-11.2703 -31.3698,-13.3123 -5.7922,12.3772 -4.3409,13.363 -30.8057,-21.2249 35.1466,7.8619 -32.1039,-20.96 -3.0427,13.0981 -2.2769,13.9278 -1.3905,13.8783 -34.65933,-2.4137 34.24383,15.3735 -34.27223,-2.3583 0.028,-13.0152 -35.9974,-11.5772 36.0179,-2.426 -0.021,14.0032 -34.6479,2.307 0.3587,12.9623 -31.4457,6.6624 -26.2085,10.4437 -1.7171,11.3323 -17.3607,1.9651 19.0778,-13.2974 -20.2537,1.0659 19.2476,-13.6187 1.0061,12.5528 24.9543,0.8352 30.3714,2.0577 -33.4968,6.9539 3.1254,-9.0116 1.2542,-11.2789 -27.2146,-2.1091 -23.5323,1.3839 -11.2474,16.18 15.5321,-3.9452 1.1759,12.2315 -10.809,15.0329 -1.279,-11.8669 -2.1254,15.9966 3.4044,-4.1297 -0.9485,5.0187 m -2.3646,-0.065 -4.698,-11.4841 -0.4523,8.2073 3.8011,5.7585 m -1.0288,0.6695 -1.8948,1.2327 -7.5846,4.9364 -0.053,8.6566 17.306,-10.6947 21.5855,-9.1628 -12.1456,-3.8809 12.1864,-4.9592 -0.041,8.8401 25.184,-7.2441 27.9581,-4.9994 0.312,17.0429 -28.2701,-12.0435 -14.6782,-5.2279 -8.2111,2.8493 -2.2539,0.7826 m 0.1638,-1.8327 27.8427,-10.8839 30.9343,-1.2598 2.5625,-5.6941 1.6603,-8.7676 -32.0317,6.7099 -26.6714,10.4971 -4.2967,9.3984 13.9427,-2.8846 m -1.5665,0.3659 12.6478,-2.9546 m -1.8017,0.4209 4.6204,-5.8315 -23.546,1.4855 -19.3701,13.3757 -2.5876,4.9752 m -4.0748,1.6577 -0.054,9.2254 0.8572,16.4943 -18.1632,-5.7996 0.9946,16.2356 19.0346,6.351 2.823,16.929 -16.5506,9.6405 -12.0496,10.6519 -3.4774,-16.0327 15.527,5.3808 4.275,16.4372 -16.3246,-5.7853 -10.9175,-4.2715 7.4401,-11.7612 12.3213,-11.1238 16.9333,-10.0649 -1.866,-16.787 21.4554,-8.9218 26.1261,10.2723 m -1.1296,-17.3281 -24.9965,7.0558 1.5029,17.0882 -22.9583,-8.1664 -17.1686,10.436 2.1013,16.4159 -14.5823,-4.9142 12.481,-11.5017 -13.5617,-4.4378 1.0807,15.9395 2.261,16.038 -9.807,-3.8739 2.3669,15.6351 3.5911,15.5324 7.3264,-11.2609 4.6263,15.8949 5.7652,15.5822 -12.9229,-4.8801 6.0076,14.9465 7.118,14.4573 6.6501,-9.367 7.9186,14.5848 -14.5687,-5.2178 -9.5954,-4.1637 7.1682,13.7565 1.6725,9.5106 8.0896,12.3498 -1.4752,-8.7751 -8.2869,-13.0853 2.4272,-9.5928 8.2691,13.8347 9.2502,13.0861 5.9316,-7.8361 m -5.9316,7.8361 10.2293,12.2186 5.4853,-7.0197 18.407,6.3265 -9.7169,-12.8979 m -8.6901,6.5714 10.5945,12.0917 13.0756,4.3519 m 0.8796,-0.6142 -4.1552,2.9012 m -1.5581,1.3934 -8.2419,-8.0323 7.8125,-5.7652 7.6211,8.6882 m -11.5558,9.8879 -1.3466,52.7427 m -5.6625,1.9027 -7.9593,3.3019 -1.1805,40.4798 m -6.9882,3.3636 1.2493,-40.3046 6.9194,-3.5388 m -6.9194,3.5388 -5.7516,3.747 -1.3042,40.1187 m -4.6462,3.7121 1.3459,-39.9245 4.6045,-3.9063 m -4.6045,3.9063 -3.4228,4.0119 -1.3741,39.7245 m -2.2204,3.8883 1.3889,-39.52 2.2056,-4.0928 m -2.2056,4.0928 -0.9988,4.1233 -1.3907,39.3135 m 89.9429,2.5148 -0.029,2.5505 m 2.6504,3.1159 0.096,-8.8561 m 3.3009,-1.8542 -0.1256,12.5846 m 2.0281,0.848 2.2699,0.7914 2.5294,0.7049 2.693,0.6249 2.8769,0.5516 3.0218,0.4423 3.1304,0.3577 3.2586,0.2554 3.2933,0.1591 3.3099,0.057 3.3091,-0.051 3.2911,-0.153 3.25563,-0.2492 3.1257,-0.3519 3.0161,-0.4367 2.8698,-0.5461 2.6852,-0.6198 2.5011,-0.7062 2.2789,-0.781 -0.063,-14.1795 m 0.5864,0.2123 -2.2767,-0.8241 -2.5223,-0.7497 -2.7281,-0.6621 -2.9335,-0.5865 -3.0993,-0.4721 -3.2239,-0.3827 -3.36723,-0.2738 -3.4096,-0.1709 -3.4308,-0.061 -3.4299,0.055 -3.4078,0.1643 -3.364,0.2673 -3.2195,0.3765 -3.0938,0.4661 -2.9267,0.581 -2.7204,0.6568 -2.5334,0.7386 -2.2469,0.8261 m 0.8297,-0.3051 -0.1348,14.2746 m 2.2699,0.7914 0.14,-15.8372 m 2.5303,-0.6948 -0.1409,17.2369 m 2.693,0.6249 0.1379,-18.4759 m 3.2268,-0.5867 -0.4878,19.6142 m 3.0218,0.4423 0.1206,-20.4333 m 3.1171,-0.3427 -0.1073,21.1337 m 3.2586,0.2554 0.091,-21.6323 m 3.2755,-0.1473 -0.074,21.9387 m 3.3099,0.057 0.055,-22.0419 m 3.2897,0.061 -0.035,21.9305 m 3.2911,-0.153 0.016,-21.6135 m 3.23703,0.2604 v 21.1039 m 3.1257,-0.3519 0.2758,-20.3561 m 2.7064,0.411 0.034,19.5084 m 2.8698,-0.5461 -0.046,-18.4115 m 2.6659,0.6253 0.065,17.1664 m 2.5011,-0.7062 -0.011,-15.7316 m 4.2445,1.6193 0.062,12.4872 m 3.2477,-1.868 -0.016,-8.7206 m 2.0432,2.0532 0.027,4.6201 m 41.5465,-76.856 -1.0457,-58.9202 -4.9701,-2.7365 m 0.7078,0.3897 -0.093,-12.3473 10.5059,5.2079 9.7385,-12.8716 -1.8755,18.6536 10.6213,-12.0633 m 5.5466,7.0304 2.2848,7.2148 -0.9913,7.1898 10.155,-10.5465 1.1952,-7.9968 -2.3753,-8.0515 -7.9836,19.405 10.3589,-11.3535 m 2.8991,4.9474 5.1093,-8.4437 -13.8238,19.2044 4.6202,-7.7113 9.2036,-11.4931 1.3966,-8.7682 m 1.2583,5.5741 5.4937,-9.1314 1.5897,-9.5026 m 5.4609,-3.5508 -7.0506,13.0534 -13.2579,20.7692 -8.7145,10.7607 -9.6774,9.7709 14.2976,-17.4822 m 4.0943,-3.0494 7.7642,-11.6378 m -2.6549,3.1941 8.1486,-12.3255 m -9.2374,-5.2886 1.5941,-23.1887 6.7254,9.3798 0.1801,-24.5132 -6.9055,15.1334 -7.9649,14.5596 6.3708,8.6291 m -6.3708,-8.6291 -2.8666,-23.4126 10.8315,8.853 -4.4501,-24.6532 -15.4633,-8.6123 4.7466,-16.7369 10.7167,25.3492 -6.3814,15.8002 -14.7258,-7.9983 -18.1879,-6.8481 -21.1098,-5.4109 15.7801,21.9202 5.3297,-16.5093 11.7343,22.774 13.8114,7.3443 -7.3578,-23.2702 -6.4536,15.9259 5.6006,21.9534 9.523,7.372 5.9983,7.8476 2.9241,-21.688 -8.9224,13.8404 -1.3122,-21.9811 7.368,-15.2719 -9.0819,-24.4125 -15.2407,-24.6076 -3.9294,17.2368 -19.3471,-23.4578 23.2765,6.221 19.9873,7.8707 3.8474,-16.9285 -20.6653,-8.299 2.4106,-17.2924 1.5753,-17.0788 19.5693,25.7551 13.7245,26.5965 -16.6144,-9.6814 12.2772,26.1007 -16.1246,-9.1722 -16.8179,-25.2275 -3.1694,17.3568 -20.895,-23.9306 -2.3815,17.7096 -2.9305,17.6201 -22.8106,-21.9522 -27.2885,-2.2292 25.4712,20.131 1.8173,-17.9018 1.5055,-17.9495 24.2356,22.2816 -25.7411,-4.3321 m -26.3564,-38.2209 0.2918,-17.5835 m -14.88213,-27.6981 -39.0368,2.5001 -5.366,1.1077 m -0.4402,0.031 -12.6181,2.4981 -3.0393,0.6018 m -5.0911,-23.2694 -0.7223,-12.7949 -26.4923,10.6858 -3.5779,-12.9395 -19.9544,14.3234 4.2847,12.2348 -10.9121,15.3975 -6.7321,5.3366 -7.6227,-9.1126 7.1704,17.3199 -9.3718,-5.5715 12.0485,12.0618 m 0.096,-0.062 7.8283,-5.0944 9.3856,-3.8183 m -2.7232,-2.8146 2.0094,-11.4106 m -2.0094,11.4106 15.0734,-3.9773 -2.9018,2.9469 m -3.4525,1.405 6.3543,-4.3519 m -0.2046,10.6728 25.7236,9.6795 m -24.9965,7.0558 -0.7271,-16.7353 m 0.7271,16.7353 -22.3126,-7.5725 -9.6688,-2.8983 m -1.5701,1.0219 -0.8437,-0.6887 -2.4827,-2.2957 -4.7826,-4.4221 -6.0878,-6.5588 -1.6019,-2.1017 7.1195,1.8129 -7.8853,-18.7052 -2.3229,11.8565 3.0887,5.0358 m -3.1813,-5.1867 -3.4075,-7.4729 -2.0121,-7.1169 7.8351,2.8842 10.0867,6.9568 9.7348,-7.6763 4.62,11.4523 m -6.7321,5.3366 2.1121,-16.7889 -7.6267,-10.2865 -2.1081,17.9628 m -10.0867,-6.9568 2.061,-19.4526 12.4874,-18.8496 9.4415,9.9404 21.0696,-15.3878 5.9638,12.5267 -27.0334,2.8611 -21.9289,8.9092 10.1338,8.4466 18.8741,-5.8935 -7.079,-11.4623 -11.7951,17.3558 m -10.1338,-8.4466 -10.2343,11.0812 0.3382,5.4872 m -0.3382,-5.4872 -0.1638,-2.6578 0.9863,-7.6505 1.6762,-4.6955 0.8693,-2.8621 5.1047,-108.049797 4.0172,-8.1656 -4.999,108.340297 -2.7178,5.1916 -1.4051,2.6835 m -0.8693,2.8621 7.7356,3.9226 m -9.4118,0.7729 5.1386,-107.314497 -0.9994,8.325 -5.1255,106.639997 m 7.6547,-23.0832 5.6449,-7.1067 2.3863,-2.0908 7.1996,5.0077 22.5436,-16.7464 7.9675,11.299 33.4459,1.2618 2.5881,13.5186 -30.0702,-2.2537 27.4821,-11.2649 -4.3173,-13.3795 -29.1286,12.1177 m -7.9675,-11.299 -25.022,6.6612 -4.7212,5.0775 m -2.3863,2.0908 4.8665,-109.170597 -5.5124,7.937 m -4.0172,8.1656 -2.5116,8.2929 m 12.0412,-24.3955 7.0043,-7.6542 -4.6608,109.546297 8.6414,-6.8588 10.0578,-5.8478 6.2203,6.1556 31.3078,-13.2171 -29.8311,2.8377 -7.697,4.2238 4.1211,-110.870097 -9.7727,6.7785 -8.3868,7.2519 m 8.3868,-7.2519 -4.4062,109.939397 m 17.7548,-10.0716 3.7206,-2.0412 3.7515,-110.815597 -11.048,6.2105 m 11.048,-6.2105 12.2034,-5.5464 -3.3568,111.289497 9.0916,-2.565 4.605,-1.8079 5.003,-1.3938 9.6052,-2.6759 2.4371,-111.7459975 -14.125,4.0484005 -2.9203,111.767297 m -4.605,1.8079 4.4208,6.841 5.7883,12.3984 37.3652,6.1841 1.3495,13.8842 -31.8093,6.8298 m -2.5881,-13.5186 34.3974,6.6888 34.6195,10.7082 -34.2608,2.2541 -0.6682,11.2314 34.8941,-2.2666 -34.2259,-8.9648 m -0.6682,11.2314 34.8551,6.4227 -36.5154,2.3449 36.4743,3.194 m -15.1921,1.561 -16.6915,1.1689 m -3.9704,-52.7694 -33.0479,7.1954 m -4.3173,-13.3795 35.1107,-7.7523 38.2833,-2.623 -0.011,14.1334 34.63883,16.4169 m 1.3905,-13.8783 -36.02933,-2.5386 -38.2724,-11.5104 -3.0406,-13.1095 -37.8584,8.4634 40.899,4.6461 2.2545,13.9364 m -5.2951,-27.0459 41.3247,-2.8685 41.33723,3.0011 2.3311,-7.3862 -10.6817,-1.9266 -16.3991,-1.4378 h -5.3844 l 30.1341,10.7457 37.8961,8.5828 4.4106,-6.8252 8.9152,2.5398 18.044,17.5977 6.2123,-6.1339 -11.4423,-6.2981 -12.622,-5.1111 -2.7728,-111.269197 -13.2776,-4.8966 -14.139,-4.0978005 1.8485,111.7313975 14.623,4.1157 4.6107,1.8221 m -4.6107,-1.8221 -2.3325,-111.749297 m 13.2776,4.8966 12.2234,5.5878 3.1714,110.792497 m 11.4423,6.2981 6.829,3.9763 9.5875,18.9679 -9.4536,9.9075 -21.1498,-15.4475 m 7.9746,-11.2703 22.6288,16.8103 7.1955,-4.9833 2.3999,2.0973 -4.3027,-109.137797 -7.0361,-7.6753 -8.4163,-7.2782 -9.7991,-6.8101 3.5423,110.843197 m 6.829,3.9763 3.262,1.9001 -3.8342,-109.909497 m 8.4163,7.2782 4.0928,109.514297 -8.6749,-6.883 m 8.6749,6.883 4.8461,5.2015 m 2.3999,2.0973 1.9615,2.4565 3.7245,4.6644 4.1635,7.8841 m 0.8828,2.8635 -7.7364,3.8974 -12.5913,-18.8799 2.4393,27.2921 -11.8929,-17.3846 -7.1081,11.4364 6.6735,27.6418 m 4.6668,-11.4341 -11.3403,-16.2077 m 7.1081,-11.4364 4.2322,27.6441 m 9.8776,7.7021 10.1126,-6.9238 m 8.2994,-10.9989 -4.5847,-106.604797 -1.0394,-8.3244 m -2.5505,-8.2976 -4.054,-8.1755 4.4418,108.306197 m -84.1031,-47.1205 -10.1222,-1.8101 -5.2886,-0.9457 -5.3311,-0.4502 m 5.3311,0.4502 -1.3429,-112.2344975 -15.4777,-2.3718 0.8078,112.2294975 m -16.3991,-1.4378 -0.2591,-112.2311975 -16.03673,-0.49989999 -0.2979,112.74679749 0.01,7.7338 -8e-4,13.355 36.01843,16.672 m 2.2769,-13.9278 -38.29533,-2.7442 m 8e-4,-13.355 -33.2994,-6.3632 -10.3683,1.837 -5.3265,0.4329 1.935,-112.2456975 -14.8944,3.2063 m -14.125,4.0484005 -13.2601,4.8507 m 42.2795,-12.1054005 15.4699,-2.3165 -1.4004,112.2374975 16.3942,-1.3849 0.8521,-112.2353975 -15.8459,1.3828 m 15.8459,-1.3828 16.0351,-0.44229999 m 16.03673,0.49989999 15.8504,1.4395 m 15.4777,2.3718 14.9052,3.2589 m 39.64,14.5822005 11.0714,6.2474 m 25.2515,21.7636 5.5469,7.9525 m -132.8684,54.620197 -11.20933,0.011 -16.5893,-0.069 m -24.7292,10.6714 -2.343,-7.3947 m -5.3265,0.4329 -15.3965,2.7066 m -28.3048,8.4426 -12.5981,5.0725 m -19.9732,94.1986 0.2571,2.3199 m -12.0232,7.8245 -6.306,5.2983 m -1.0415,1.1037 7.2949,2.2546 -12.5671,11.7978 0.065,-8.5436 -4.2899,6.8703 -3.284,5.2711 -0.059,8.8831 7.5677,-12.4809 -4.2245,-1.6733 m -3.2843,5.2718 -1.155,6.0215 m -0.2782,1.4499 -1.1237,5.8156 -0.066,8.3072 2.5643,-12.7118 8.6484,3.4586 -7.546,12.1641 -2.5251,12.3986 4.892,3.2365 -2.5379,11.9955 6.129,3.5369 -2.5269,11.508 -3.6021,-15.0449 -2.3541,-15.232 -1.1416,-15.3095 3.6667,2.9109 -1.1024,-15.6227 m 8.7536,-22.2099 4.0863,-4.3234 m -11.9085,69.7866 2.2424,11.8347 3.5014,14.568 -2.1417,-11.3578 4.8132,14.7615 8.5163,4.0131 -2.4774,10.2936 1.8529,10.1911 6.9878,13.076 5.5768,9.1484 2.5128,3.2014 9.1484,11.5189 10.1041,10.5737 -1.0583,-7.1946 2.2195,-7.2118 16.0798,5.072 -5.0133,6.1626 8.5449,7.2959 m -2.16,5.5502 -8.4362,-6.4894 -11.2347,-10.3795 13.286,4.0228 -11.0665,-11.2346 -12.5336,-4.1698 2.3043,-8.0488 15.7146,5.1989 m -7.7048,14.2315 -10.3141,-11.3816 -9.3553,-12.2915 2.4094,-8.8434 -10.6963,-4.2419 m -5.3153,-3.5654 -5.8826,-13.7 -2.0092,-10.7978 6.0389,14.3067 m -4.0297,-3.5089 -4.6807,-14.2015 m 2.6715,3.4037 2.5087,-10.9334 7.1577,-10.7021 -11.9527,-4.634 4.795,15.3361 m 18.9853,52.0819 11.6596,4.2427 m -2.3043,8.0488 1.2683,8.0025 4.6931,7.7249 5.411,2.8488 4.2095,6.9474 7.1208,6.5222 3.3489,2.2158 3.6897,1.0632 m 0.052,-1.976 -7.3935,-5.2355 3.652,6.1483 3.6308,3.3128 m -0.01,0.229 -6.9737,-5.7576 m -0.3031,-3.9325 -0.8508,-6.3522 m 0.8508,6.3522 -11.0272,-9.5371 m -5.411,-2.8488 9.6205,9.7962 10.4697,8.738 m -3.652,-6.1483 -6.8177,-2.5897 m -9.6205,-9.7962 -8.654,-10.7847 -5.1875,-8.4591 m -2.5128,-3.2014 7.7003,11.6605 3.9609,3.0598 m 123.98953,-21.089 17.1348,1.2325 16.2301,2.4163 5.231,-14.7406 9.544,18.2158 -5.498,9.7744 m 21.2462,8.5229 7.6329,-8.6699 -1.9759,-18.8053 m 20.7539,-7.8554 8.2108,-14.6091 10.2346,8.1407 m 21.864,-19.6132 -6.9936,-10.0798 -11.3556,-9.5198 5.4079,-16.177 5.9477,25.6968 5.8234,-15.5608 1.1702,25.6406 m 11.4933,-7.385 3.5726,-14.552 m -16.2361,-3.7036 -11.7711,-10.136 4.3372,-16.4193 7.4339,26.5553 m -33.8863,79.132 -8.9895,17.565 -0.7903,6.3485 -7.507,5.2791 m 0.079,3.7273 3.8362,-2.8681 3.5919,-6.1383 11.0733,-9.5089 -4.1426,6.9357 -7.0563,6.5041 -7.2838,5.9588 m 0,-0.1049 14.3423,-12.358 -10.5226,8.7115 14.6652,-15.6472 m 0.9913,-7.1898 -11.2743,10.3502 -8.4669,6.4739 m -2.2113,-5.5554 8.5684,-7.2781 2.1098,6.3596 m -11.0325,0.2664 -2.557,-3.1417 -3.4213,-3.0424 -4.1811,-2.9102 m 5.7598,4.314 8.2537,-8.0182 -4.8557,11.5679 m -1.5554,-1.9111 1.0919,55.1465 m -30.6213,-114.0539 -17.3571,-19.8011"
     style="fill:none;stroke:#000000;stroke-width:1.3;stroke-miterlimit:4;stroke-dasharray:none"
     id="path869" />
</svg>
